<svg id="abdm-logo" xmlns="http://www.w3.org/2000/svg" width="60.392" height="55.71" viewBox="0 0 60.392 55.71">
  <g id="digital_mission_a6ed582996_3" data-name="digital_mission_a6ed582996 3">
    <rect id="digital_mission_a6ed582996_3-2" data-name="digital_mission_a6ed582996 3" width="60.391" height="55.706" fill="none"/>
    <g id="Layer_x0020_1" transform="translate(0 0)">
      <g id="Group_29999" data-name="Group 29999">
        <path id="Path_26214" data-name="Path 26214" d="M30.033,0A29.907,29.907,0,0,1,48.8,6.583l-.46.46a29.39,29.39,0,0,0-36.609,0l-.46-.46A29.907,29.907,0,0,1,30.033,0ZM53.486,11.268a30.037,30.037,0,0,1,0,37.529l-.46-.46a29.39,29.39,0,0,0,0-36.609l.46-.46ZM6.583,48.8a30.037,30.037,0,0,1,0-37.529l.46.46a29.39,29.39,0,0,0,0,36.609ZM30.035,5.046a24.878,24.878,0,0,1,15.171,5.131l-.464.46a24.345,24.345,0,0,0-29.418,0l-.462-.462A24.878,24.878,0,0,1,30.035,5.045Zm19.857,9.817a24.993,24.993,0,0,1,0,30.341l-.462-.462a24.345,24.345,0,0,0,0-29.418l.462-.462ZM10.177,45.2a24.993,24.993,0,0,1,0-30.341l.462.462a24.346,24.346,0,0,0,0,29.418l-.462.462ZM30.033,10.286a19.657,19.657,0,0,1,11.424,3.638l-.464.464a19.108,19.108,0,0,0-21.919,0l-.464-.464a19.656,19.656,0,0,1,11.424-3.637Zm16.11,8.324a19.755,19.755,0,0,1,0,22.847l-.464-.464a19.108,19.108,0,0,0,0-21.919ZM13.923,41.457a19.755,19.755,0,0,1,0-22.847l.464.464a19.108,19.108,0,0,0,0,21.919Z" transform="translate(0.162 0.162)" fill="#2b2a29"/>
        <path id="_1" data-name="1" d="M49.075,6.859l-.229-.229.013.241-.484-.379-.492-.37-.5-.36-.507-.349-.514-.339-.521-.329-.529-.318-.536-.308-.543-.3-.549-.286-.556-.275L42.568,3,42,2.747l-.575-.24-.581-.229-.587-.217-.591-.2-.6-.193-.6-.182-.609-.168-.614-.155-.619-.143L36,.886,35.373.77l-.633-.1L34.1.577,33.46.5,32.814.437,32.164.388,31.511.352,30.854.331l-.66-.007V0l.667.007.664.022.66.036.657.05.652.064.648.077.644.091.64.1.635.118.63.131.625.144L37.938,1l.615.17.61.182.6.195.6.207.593.219.587.231.581.243L42.7,2.7l.568.266.562.278.555.289.549.3.542.311.534.322.527.332.52.343.512.353.5.363.5.374.489.384.013.241Zm-.013-.241a.162.162,0,1,1-.2.253Zm-.676.473.46-.46.229.229-.46.46-.215.012-.014-.241Zm.229.229a.162.162,0,0,1-.229-.229ZM30.2.971V.647l.651.007.647.021.644.035.64.049.636.062L34.045.9l.628.089.624.1.619.115.615.127.61.14.605.153.6.165.595.177.589.189.584.2.578.213.573.225.567.237.562.248.555.259.548.27.542.281.535.292.528.3.522.313.514.322.507.333.5.343.493.353.485.363.477.373-.2.253-.473-.368-.48-.359-.487-.349-.494-.34-.5-.329-.509-.319-.516-.309-.523-.3-.529-.288-.536-.278-.542-.266-.549-.256L41.7,3.325l-.562-.234-.563-.223-.572-.211-.578-.2-.583-.187L38.257,2.1l-.594-.163-.6-.151-.6-.139-.608-.126L35.242,1.4l-.617-.1L34,1.215l-.625-.075-.629-.061-.633-.048L31.48,1,30.84.977,30.2.97Zm0,0a.162.162,0,1,1,0-.324ZM11.776,7.319l.229-.229-.215-.012.477-.373.485-.363.493-.353.5-.343.507-.333.515-.323.522-.313.528-.3.535-.292.542-.281.548-.27L18,3.274l.562-.248.567-.237.573-.225.578-.213.584-.2.589-.189.595-.177.6-.165.605-.153.609-.139.615-.127.619-.115.624-.1L26.345.9,26.978.82l.636-.062.64-.049L28.9.675l.648-.022L30.2.646V.971l-.644.008L28.912,1l-.636.033-.633.048-.629.061-.626.074-.621.089-.617.1-.612.113-.609.126-.6.138-.6.151-.593.163-.588.175-.582.186-.578.2-.572.211-.566.222-.562.234-.555.245-.549.256-.542.266-.536.278-.529.288-.521.3-.515.311-.509.319-.5.329-.495.34-.487.348-.48.359-.473.368-.215-.012Zm.215.012a.162.162,0,1,1-.2-.253Zm-.447-.7.46.46-.229.229-.46-.46.013-.241Zm-.229.229a.162.162,0,0,1,.229-.229ZM30.2,0V.324l-.66.007-.657.021-.653.035-.651.049L26.929.5l-.641.077-.637.09-.633.1-.628.117-.623.13-.619.143-.614.155-.607.167-.6.18-.6.193-.591.2-.587.217-.581.229-.575.24L17.823,3l-.562.264-.556.275-.549.286-.543.3-.536.308-.529.318-.521.329-.515.341-.507.349-.5.36-.491.369-.484.379-.2-.253.489-.384.5-.374.5-.363.512-.353.52-.343.527-.332.534-.322.542-.311.548-.3.555-.289.562-.278.568-.266.575-.255.581-.243.587-.231.594-.219.6-.207.6-.195.61-.182L22.453,1l.621-.157L23.7.7l.63-.131.635-.118.64-.1.643-.09L26.9.178l.652-.064L28.2.065l.66-.036.664-.022L30.2,0Zm0,0a.162.162,0,0,1,0,.324Zm30.2,30.2h-.323l-.007-.66-.022-.656L60,28.225l-.049-.651-.063-.644-.077-.641-.09-.637-.1-.633-.117-.628-.13-.623-.143-.619-.155-.614-.168-.609-.18-.6-.193-.6-.2-.591-.217-.587-.229-.581-.24-.575-.252-.569-.264-.562-.275-.556-.286-.549-.3-.543-.308-.536-.318-.529-.329-.521-.339-.514-.35-.507-.36-.5-.369-.491-.379-.484.253-.2.384.489.374.5.363.5.353.512.343.52.332.527.322.534.311.542.3.549.289.555.278.562.266.568.255.575.243.581.231.587.219.593.207.6.195.6.182.61.17.615.157.621.144.625.131.63.118.635.1.64.091.644.077.648.064.652.05.657.036.66.022.664.007.667Zm0,0a.162.162,0,1,1-.324,0Zm-6.859,18.88.229-.229-.241.013.379-.484.369-.491.36-.5.349-.507.339-.514.329-.522.318-.529.308-.536.3-.543.286-.549.275-.556.264-.562L57.643,42l.24-.575.229-.581.217-.587.2-.591.193-.6.18-.6.168-.609.155-.614.143-.619L59.5,36l.117-.628.1-.633.09-.637.077-.641.063-.646L60,32.165l.035-.653.021-.657.007-.66h.324l-.007.667-.022.664-.036.66-.05.657-.064.652-.077.648-.091.644-.1.64-.118.635-.131.63-.144.625-.157.621-.17.615-.182.61-.195.6-.207.6-.219.593-.231.587-.243.581-.255.575-.266.568-.278.562-.289.555-.3.549-.311.542-.322.534-.332.527-.343.52-.353.512-.363.5-.374.5-.384.489-.241.013Zm.241-.013a.162.162,0,1,1-.253-.2Zm-.473-.676.46.46-.229.229-.46-.46-.012-.215.241-.014Zm-.229.229a.162.162,0,0,1,.229-.229ZM59.419,30.2h.324l-.007.651-.021.647-.035.644-.049.64-.062.636-.075.632-.089.628-.1.624-.115.619-.127.615-.14.61-.153.605-.165.6-.177.595-.189.589-.2.584-.213.578-.225.573-.237.567-.248.562-.259.555-.27.548-.281.542-.292.535-.3.528-.313.522-.32.513-.333.507-.343.5-.353.493-.363.485-.373.477-.253-.2.368-.473.359-.48.349-.487.34-.494.329-.5.319-.509.309-.516.3-.523.288-.529.278-.536.266-.542.256-.549.245-.555.234-.562.222-.566L57.732,40l.2-.578.187-.583.175-.588.163-.594.151-.6.138-.6.126-.608.113-.612.1-.617L59.174,34l.075-.625.061-.629.048-.633.034-.637.021-.64.007-.644Zm0,0a.162.162,0,0,1,.324,0ZM53.072,11.777l.229.229.012-.215.373.477.363.485.353.493.343.5.333.507.323.515.313.522.3.528.292.535.281.542.27.548.259.555.248.562.237.567.225.573.213.578.2.584.189.589.177.595.165.6.153.605.14.61.127.615.115.619.1.624.089.628.075.632.062.636.049.64.035.644.021.647.007.651h-.324l-.007-.644-.021-.64-.037-.637-.048-.633-.061-.629-.075-.625-.089-.621-.1-.617-.113-.612-.126-.608-.139-.6-.151-.6-.163-.594-.175-.588-.187-.583-.2-.578-.211-.572-.222-.567-.234-.562-.245-.555-.256-.549L56.3,17.04,56.02,16.5l-.288-.529-.3-.523-.308-.514-.319-.509-.329-.5-.34-.5-.349-.487-.359-.48-.368-.473.012-.215Zm-.012.215a.162.162,0,0,1,.253-.2Zm.7-.447-.46.46-.229-.229.46-.46.241.013Zm-.229-.229a.162.162,0,0,1,.229.229ZM0,30.2H.324l.007.66.021.657.035.653.049.651.063.646.077.641.09.637.1.633L.888,36l.13.623.143.619.155.614.168.609.18.6.193.6.2.591.217.587.229.581.24.575L3,42.57l.264.562.275.556.286.549.3.543.308.536.318.528.329.521.339.514.35.507.36.5.369.491.379.484-.253.2-.384-.489-.374-.5-.363-.5-.353-.512L4.8,46.54l-.332-.527-.322-.534-.311-.542-.3-.549-.289-.555-.278-.562L2.7,42.7l-.255-.575-.243-.581-.231-.587-.219-.593-.207-.6-.195-.6-.182-.61L1,37.938l-.157-.621L.7,36.692l-.131-.63L.45,35.427l-.1-.64-.091-.644-.077-.648-.064-.652-.048-.655-.036-.66-.022-.664L0,30.2Zm0,0a.162.162,0,1,1,.324,0ZM6.859,11.316l-.229.229.241-.013-.379.484-.369.491-.36.5-.35.507-.339.514-.329.521-.318.529-.308.536-.3.543-.286.549-.275.556L3,17.822l-.252.569-.24.575-.229.581-.217.587-.2.591-.193.6-.18.6-.168.609-.155.614-.143.619-.13.623-.116.629-.1.633-.09.637L.5,26.93l-.063.646-.049.651-.035.653-.021.657-.007.66H0l.007-.667.022-.665.036-.66.05-.657L.178,26.9l.077-.648L.347,25.6l.1-.639.118-.635L.7,23.7l.144-.625L1,22.452l.17-.615.182-.61.195-.6.207-.6.219-.593.231-.587.243-.581.254-.574.266-.568.278-.562L3.537,16l.3-.548.311-.541.32-.534.332-.527.343-.52.353-.512.363-.5.374-.5.384-.489.241-.013Zm-.241.013a.162.162,0,0,1,.253.2l-.253-.2Zm.473.676-.461-.46.229-.229.46.46.012.215-.241.014Zm.229-.229a.162.162,0,0,1-.229.229ZM.971,30.2H.647l.007-.651L.675,28.9l.035-.644.049-.64.062-.636L.9,26.345l.089-.628.1-.624.115-.619.127-.615.14-.61.153-.605.165-.6.177-.595.189-.589.2-.584.213-.578.225-.573.237-.567L3.276,18l.259-.555.27-.548.281-.542.292-.535.3-.528.313-.522.323-.515.333-.507.343-.5.353-.493.363-.485.373-.477.253.2-.368.473-.359.48-.35.486-.34.495-.329.5-.319.509-.309.516-.3.523L4.37,16.5l-.278.536-.266.542-.257.549-.245.555-.234.562-.222.566-.211.572-.2.578-.187.583-.175.586-.163.594-.151.6-.139.6-.126.608-.113.612-.1.618-.089.621-.075.625-.061.629-.047.634L1,28.912l-.02.64L.972,30.2Zm0,0a.162.162,0,0,1-.324,0ZM7.319,48.614l-.229-.229-.012.215-.373-.477-.363-.485-.353-.493-.343-.5-.333-.507-.323-.515L4.678,45.1l-.3-.528-.292-.536L3.8,43.5l-.27-.548-.259-.555-.248-.562-.237-.567-.225-.573-.213-.578-.2-.584-.189-.589-.177-.595-.165-.6-.153-.605-.14-.61L1.2,35.916,1.085,35.3l-.1-.624-.089-.628-.075-.632-.062-.636-.049-.64-.035-.644-.021-.647L.646,30.2H.97l.007.644L1,31.48l.034.637.048.633.061.629L1.216,34l.089.621.1.617.113.612.126.608.139.6.151.6.163.594.175.588.187.583.2.578.211.572.222.567.234.562.245.555.256.549.266.542.278.536.288.529.3.523.309.516.319.509.329.5.34.494.349.487.359.48.368.473-.012.215Zm.012-.215a.162.162,0,0,1-.253.2Zm-.7.447.46-.46.229.229-.46.46-.241-.013Zm.229.229a.162.162,0,0,1-.229-.229ZM45.48,10.453l-.229-.229.016.243-.395-.3-.4-.288-.407-.28-.414-.272-.418-.264-.424-.256-.429-.248-.435-.24-.44-.231-.444-.223-.45-.214-.455-.2-.46-.2-.464-.187-.469-.177L38.29,6.72l-.478-.159-.482-.15-.486-.14-.49-.13-.494-.121-.5-.111-.5-.1-.505-.091-.509-.08-.512-.07-.515-.059L32.3,5.459l-.522-.038-.525-.028-.528-.017-.53-.006V5.046l.537.006.534.017L31.8,5.1l.528.039.525.05.522.059.519.071.515.081.512.092.508.1.5.112.5.122.5.132.493.142.489.152.484.161.48.171.475.18.471.19.466.2.461.207.456.216.451.226.446.234.44.243.435.251.429.26.423.268.418.276.412.284.406.292.4.3.016.243Zm-.016-.243a.162.162,0,1,1-.2.257Zm-.675.476.461-.462.229.229-.461.462-.212.014-.017-.243Zm.229.229a.162.162,0,0,1-.229-.229ZM30.2,6.017V5.693l.52.005.518.016.515.027.512.037.509.048.506.059.5.068.5.078.5.089.493.1.489.108.485.118.481.127.478.137.473.146.469.156.465.165.461.174.456.183.452.191.447.2.444.209.437.217.432.226.427.234.422.242L43,9.3l.411.258.406.266.4.274.395.282.389.289-.2.258-.384-.285-.389-.278-.395-.27-.4-.264-.406-.255-.411-.247-.416-.239-.422-.231-.427-.223-.432-.214-.437-.207-.441-.2L39.4,7.831l-.45-.18L38.5,7.479l-.459-.163-.463-.153-.467-.144-.471-.135-.475-.126-.479-.116L35.2,6.535l-.486-.1-.489-.089-.493-.077-.5-.067-.5-.057-.5-.047-.505-.037-.508-.027L30.71,6.02,30.2,6.014Zm0,0a.162.162,0,0,1,0-.324Zm-14.823,4.9.229-.229-.212-.014.389-.289.395-.282.4-.274.406-.266.411-.258.417-.251.422-.242.427-.234.432-.226.437-.217.444-.209.447-.2.452-.192.456-.183.461-.174.463-.164.469-.156.473-.146.478-.137.481-.127.485-.118.489-.108.493-.1.5-.089.5-.078.5-.068.506-.059.509-.048.512-.037.515-.027.518-.016.52-.005v.324l-.513.005-.511.016-.508.027-.505.037-.5.047-.5.057-.5.067-.493.077-.489.089-.486.1-.483.107-.479.116-.475.126-.471.135-.467.144-.463.153-.459.163-.455.172-.45.18-.446.189-.441.2-.437.207-.431.214-.427.223-.422.231-.416.239-.411.247-.406.255-.4.263-.395.27-.389.278-.384.285Zm.212.014a.162.162,0,1,1-.2-.258Zm-.445-.7.462.462-.229.229-.462-.462.016-.243.213.014Zm-.229.229a.162.162,0,1,1,.229-.229ZM30.2,5.047v.324l-.53.006-.527.017-.525.028-.522.038-.519.049-.515.059-.512.07-.509.08-.505.091-.5.1-.5.111-.494.121-.49.13-.486.14-.482.15L22.1,6.72l-.473.169-.469.177-.464.187-.46.2-.455.2-.45.214-.444.223-.44.231-.435.24-.429.248-.426.256-.418.264-.413.272-.407.28-.4.288-.395.3-.2-.257.4-.3.406-.292.412-.284.418-.276.424-.268.429-.26.435-.251.44-.243.446-.234.451-.226.456-.216.461-.207.466-.2.471-.19.475-.18L22,6.413l.484-.161.489-.152.493-.142.5-.132.5-.122.5-.111.508-.1.512-.092.515-.081.519-.071.522-.059.525-.05.528-.039.532-.028.534-.017.537-.006Zm0,0a.162.162,0,1,1,0,.324V5.046ZM55.345,30.2h-.324l-.006-.53L55,29.139l-.028-.525-.038-.522-.049-.519-.059-.515-.07-.512-.08-.509-.091-.505-.1-.5-.111-.5-.121-.494-.13-.49-.14-.486-.15-.482-.159-.478-.169-.473-.177-.469-.187-.464-.2-.46-.2-.455-.214-.45-.223-.444-.231-.44-.24-.435-.248-.429-.257-.426-.264-.418-.272-.414-.28-.407-.288-.4-.3-.395.257-.2.3.4.292.406.284.412.276.418.268.423.26.429.251.435.243.44.234.446.225.451.216.456.207.461.2.466.19.471.18.475.171.48.161.486.152.488.142.493.132.5.122.5.112.5.1.508.092.512.081.515.071.519.059.522.05.525.039.528.028.532.017.534.006.537Zm0,0a.162.162,0,0,1-.324,0ZM49.938,45.482l.229-.229-.243.016.3-.395.288-.4.28-.407.272-.413.264-.418.256-.424.248-.429.24-.435.231-.44.223-.444.214-.45.2-.455.2-.46.187-.464.177-.469.169-.473.159-.478.15-.482.14-.486.13-.49.121-.494.111-.5.1-.5.09-.505.08-.509.07-.512.059-.515.049-.519.038-.522L55,31.254l.017-.528.006-.53h.324l-.006.537-.017.534-.028.532-.039.528-.05.525-.059.522-.071.519-.081.515-.092.512-.1.508-.112.5-.122.5-.132.5-.142.493-.152.488-.161.484-.171.48-.18.475-.19.471-.2.466-.207.461-.216.456-.226.451-.234.446-.243.44-.251.435-.26.429-.268.424-.276.418-.284.412-.292.406-.3.4-.243.016Zm.243-.016a.162.162,0,1,1-.257-.2Zm-.476-.675.462.46-.229.229-.462-.462-.014-.212.243-.017Zm-.229.229a.162.162,0,0,1,.229-.229Zm4.9-14.823H54.7l-.005.52-.016.518-.027.515-.037.512-.048.509-.059.506-.068.5-.078.5-.089.5-.1.493-.108.489-.118.485-.127.481-.137.478-.146.473-.156.469-.165.465-.174.461-.183.456-.191.452-.2.447-.209.444-.217.437-.226.432-.234.427-.242.422-.25.417-.258.411-.266.406-.274.4-.282.395L49.718,45l-.258-.2.285-.384.278-.389.27-.395.263-.4.255-.406.247-.411.239-.416.231-.422.223-.427.214-.431.207-.437.2-.441.189-.446.18-.45.172-.455.163-.459.153-.463.144-.467.135-.471.126-.475.116-.479.107-.483.1-.486.089-.489.077-.493.067-.5.057-.5.047-.5.037-.505.027-.508.016-.511.005-.513Zm0,0a.162.162,0,1,1,.324,0Zm-4.9-14.824.229.229.014-.212.289.389.282.395.274.4.266.406.258.411.25.417.242.422.234.427.226.432.217.437.209.444.2.447.191.452.183.456.174.461.165.465.156.469.146.473.137.478.127.481.118.485.108.489.1.493.089.5.078.5.068.5.059.506.048.509.037.512.027.515.016.518.005.52h-.324l-.005-.513-.016-.511-.027-.508-.037-.505-.047-.5-.057-.5-.067-.5-.077-.493-.089-.489-.1-.486-.107-.483-.116-.479-.126-.475-.135-.471-.144-.467-.153-.463-.163-.459-.172-.455-.18-.45-.189-.446-.2-.441-.207-.437-.214-.431-.223-.427-.231-.422-.239-.416-.247-.411-.255-.406-.263-.4-.27-.395-.278-.389-.285-.384.014-.212Zm-.014.212a.162.162,0,0,1,.258-.2Zm.705-.445L49.7,15.6l-.229-.229.462-.462.243.016-.014.213Zm-.229-.229a.162.162,0,0,1,.229.229ZM5.046,30.2H5.37l.006.53.017.528.028.525.038.522.049.519.059.515.07.512.08.509.091.505.1.5.111.5.121.494.13.49.14.486.15.482.159.478.169.473.177.469.187.465.2.46.2.455.214.45.223.444.231.44.24.435.248.429.256.424.264.418.272.413.28.407.288.4.3.395-.257.2-.3-.4-.292-.4-.284-.412-.276-.418-.268-.424-.26-.429-.251-.435-.243-.44L7.8,41.656,7.577,41.2l-.217-.456-.207-.461-.2-.466-.19-.471-.18-.475-.171-.48-.161-.484L6.1,37.424l-.142-.493-.132-.5-.122-.5-.112-.5-.1-.508L5.4,34.409l-.081-.515-.071-.519-.059-.522-.05-.525L5.1,31.8l-.028-.532-.017-.534L5.047,30.2Zm0,0a.162.162,0,0,1,.324,0Zm5.407-15.285-.229.229.243-.016-.3.395-.288.4-.28.407-.272.414-.265.416-.256.424-.248.429-.24.435-.231.44-.223.444-.214.45-.2.455-.2.46-.187.464-.177.469L6.72,22.1l-.159.478-.15.482-.14.486-.13.49-.121.494-.111.5-.1.5-.091.505-.08.509-.07.512-.059.515-.049.519-.038.522-.028.525-.017.528-.006.53H5.046l.006-.537.017-.534.028-.532.039-.528.05-.525.059-.522.071-.519.081-.515.092-.512.1-.506.112-.5.122-.5.132-.5.142-.493.152-.489L6.413,22l.171-.48.18-.475.19-.471.2-.466.207-.461.217-.456.226-.451.234-.446.243-.44.251-.435.26-.429.268-.424.276-.418.284-.412.292-.406.3-.4.243-.016Zm-.243.016a.162.162,0,1,1,.257.2Zm.476.674-.462-.462.229-.229.462.462.014.212-.243.017Zm.229-.229a.162.162,0,1,1-.229.229ZM6.017,30.2H5.693l.005-.52.016-.518.027-.515.037-.512.048-.509.059-.506.068-.5.078-.5.089-.5.1-.493.108-.489.118-.485.127-.481.137-.478.146-.473.156-.469.165-.465.174-.461.183-.456.191-.452.2-.447.209-.444.217-.437.226-.432.234-.427.241-.421.25-.417.258-.411.266-.406.274-.4.282-.395.289-.389.258.2-.285.384-.278.389-.27.395-.263.4-.255.406-.247.411-.239.416-.231.422-.223.425-.214.431-.207.437-.2.441-.189.446-.18.45-.172.455-.163.459-.153.463-.144.467-.135.471-.126.475-.116.479-.107.483-.1.486-.089.489-.076.493-.067.5-.056.5-.047.5-.036.505-.027.508-.016.511-.005.513Zm0,0a.162.162,0,0,1-.324,0Zm4.9,14.823-.229-.229L10.672,45l-.289-.389-.282-.395-.274-.4-.266-.406L9.3,43l-.25-.417-.242-.422-.234-.427L8.351,41.3l-.217-.437-.209-.444-.2-.447-.191-.452-.183-.456-.174-.461-.165-.465-.156-.469L6.71,37.2l-.137-.478-.127-.481-.118-.485-.108-.489-.1-.493-.089-.5-.078-.5-.068-.5-.059-.506-.048-.509-.037-.512-.027-.515L5.7,30.715l-.005-.52h.324l.005.513.016.511.027.508.037.505.047.5.057.5.067.5.077.493.089.489.1.486.107.483.116.479.126.475.135.471.144.467.153.463.163.459.172.455.18.45.189.446.2.441.207.437.214.431.223.427L9.094,42l.239.416.247.411.255.406.263.4.27.395.278.389.285.384-.014.212Zm.014-.212a.162.162,0,0,1-.258.2Zm-.706.445.462-.462.229.229-.462.462-.243-.016.014-.213Zm.229.229a.162.162,0,1,1-.229-.229ZM41.733,14.2l-.229-.229.021.246-.3-.21-.306-.2-.31-.2-.314-.193-.318-.187-.321-.182-.325-.176L39,12.7l-.333-.164-.336-.158-.34-.151-.343-.145-.346-.139-.35-.132-.353-.126-.355-.118-.359-.112-.362-.106-.364-.1-.367-.092-.37-.085-.373-.078-.375-.071-.378-.064-.379-.058-.384-.049-.384-.042-.387-.035-.389-.027-.391-.019-.393-.012-.395,0v-.324l.4,0,.4.012.4.02.4.027.393.035.391.043.389.05.386.058.384.065.382.072.379.08.376.087.373.094.371.1.368.107.365.114.362.121.358.128.355.135.352.141.349.148.345.154.342.16.338.167.334.173.331.177.327.185.323.191.319.2.315.2.311.207.307.214.021.246Zm-.021-.246a.162.162,0,0,1-.188.264Zm-.673.481.464-.464.229.229-.464.464-.207.018-.021-.247Zm.229.229a.162.162,0,1,1-.229-.229ZM30.2,11.257v-.324l.384,0,.383.011.381.019.379.026.377.033.375.041.373.048.37.055.368.062.366.069.363.075.361.082.358.089.355.1.353.1.35.109.347.115.344.122.341.128.338.134.335.14.332.146.328.152.325.158.321.164.318.17.314.176.311.181.307.187.3.192.3.2.3.2-.186.266-.29-.2-.294-.195-.3-.189-.3-.184-.305-.177-.309-.173-.313-.167-.316-.161-.319-.156-.323-.15-.325-.144-.329-.138-.332-.132-.335-.126-.338-.118-.341-.113-.344-.107-.347-.1-.349-.094-.352-.089-.355-.081-.357-.074-.36-.067-.362-.061-.364-.054-.366-.047-.368-.04-.371-.033-.373-.025-.374-.018-.376-.011-.378,0Zm0,0a.162.162,0,0,1,0-.324ZM19.122,14.665l.229-.229-.207-.018.3-.2.3-.2.3-.192.307-.187.311-.181.314-.176.318-.17.321-.164.325-.158.328-.152.332-.146.335-.14.338-.134.341-.128.344-.122.347-.115.35-.109.353-.1.355-.1.358-.089.361-.082.364-.075.366-.069.368-.062.37-.055.373-.048.375-.041.377-.033.379-.026.381-.019.383-.011.384,0v.324l-.378,0-.376.011-.374.018-.373.025-.371.033-.368.04-.366.047-.364.054-.362.061-.36.067-.357.074-.355.081-.352.089-.349.094-.347.1-.344.107-.341.113-.338.118-.335.126-.332.132-.329.138-.325.144-.323.15-.319.156-.316.161-.313.167-.309.173-.305.177-.3.184-.3.189-.294.195-.29.2-.207-.018Zm.207.018a.162.162,0,0,1-.186-.266Zm-.444-.71.464.464-.229.229-.464-.464.021-.246.207.017Zm-.229.229a.162.162,0,1,1,.229-.229Zm11.538-3.914v.324l-.395,0-.393.012-.391.019-.389.027-.387.034-.384.042-.382.049-.38.056-.378.064-.375.071-.373.078-.37.085-.367.092-.364.1-.362.106-.359.112-.355.118-.353.126-.35.132-.346.139-.343.145-.34.151-.336.158-.333.164-.329.17-.325.176-.321.182-.318.188-.314.193-.31.2-.306.2-.3.21-.187-.264.307-.214.311-.207.315-.2.319-.2.323-.191.327-.185.331-.177.334-.173.338-.167.342-.16.345-.154.349-.148.352-.141.355-.135.358-.128.362-.121.365-.114.368-.108.371-.1.373-.094.376-.087.379-.08.382-.072.384-.065.386-.058.389-.05.391-.043.393-.035.4-.027.4-.02.4-.012.4,0Zm0,0a.162.162,0,1,1,0,.324v-.325ZM50.1,30.2H49.78l0-.395-.012-.393-.019-.391-.027-.389-.035-.387-.042-.384-.049-.382-.056-.38-.064-.378-.071-.375-.078-.373-.085-.37-.092-.367-.1-.364-.106-.362-.112-.359-.118-.355-.126-.353-.132-.349-.139-.346-.145-.343-.151-.34-.158-.336-.164-.333-.17-.329-.176-.325-.182-.321L46.98,20.1l-.193-.314-.2-.31-.2-.306-.21-.3.264-.187.214.307.207.311.2.315.2.319.191.323.185.327.177.331.173.334.167.338.16.342.154.345.148.349.141.352.135.355.128.358.121.362.114.365.107.368.1.371.094.373.087.376.08.379.072.382.065.384.058.386.05.389.043.391.036.389.027.4.02.4.012.4,0,.4Zm0,0a.162.162,0,1,1-.324,0ZM46.19,41.735l.229-.229-.246.021.21-.3.2-.306.2-.31.193-.314.188-.318.182-.322.176-.325.17-.329.164-.333.158-.336.151-.34.145-.343.139-.346.132-.35.126-.353.118-.355.112-.359.106-.362.1-.364.092-.367.085-.37.078-.373.071-.375.064-.378.056-.38.051-.384.042-.384.035-.387.027-.389.019-.391.012-.393,0-.395H50.1l0,.4-.012.4-.02.4-.028.4-.035.393-.043.391-.05.389-.058.386-.065.384-.072.382-.08.379-.087.376-.094.373-.1.371-.107.368-.114.365-.121.362-.128.358-.135.355-.141.352-.148.349-.154.345-.16.342-.167.338-.173.334-.177.331-.185.327-.191.323-.2.319-.2.315-.207.311-.214.307-.246.021Zm.246-.021a.162.162,0,1,1-.264-.187Zm-.482-.673.464.464-.229.229-.464-.464-.018-.207.247-.022Zm-.229.229a.162.162,0,0,1,.229-.229ZM49.133,30.2h.324l0,.384-.011.383-.019.381-.026.379-.033.377-.041.375-.048.373-.055.37-.062.368-.069.366-.075.363-.082.361-.089.358-.1.355-.1.353-.109.35-.115.347-.122.344-.128.341-.134.338-.14.335-.146.332-.152.328-.158.325-.164.321-.17.318-.176.314-.181.311-.187.307-.192.3-.2.3-.2.3-.266-.186.2-.29.195-.294.189-.3.184-.3.177-.306.173-.309.167-.313.161-.316.156-.319.15-.323.144-.325.138-.329.132-.332L48,36.674l.118-.338.113-.341.107-.344.1-.347.094-.349.089-.352.081-.355.074-.357.067-.36.061-.362.054-.364L49,32.439l.04-.368.033-.371.026-.373.018-.374.011-.376,0-.378Zm0,0a.162.162,0,1,1,.324,0h-.324ZM45.726,19.122l.229.229.018-.207.2.3.2.3.192.3.187.307.181.311.176.314.17.318.164.321.158.325.152.328.146.332.14.334.134.338.128.341.122.344.115.347.109.35.1.353.1.355.089.358.082.361.075.363.069.366.062.368.055.37.048.373.041.375.033.377.026.379.019.381.011.383,0,.384h-.324l0-.378-.011-.376-.018-.374-.025-.373-.033-.371L49,27.955l-.047-.366-.054-.364-.061-.362-.067-.36-.074-.357-.081-.355-.089-.352-.094-.349-.1-.347-.107-.344-.113-.341L48,23.721l-.126-.335-.132-.332-.138-.329-.144-.325-.15-.323-.156-.319-.161-.316-.167-.313-.173-.309-.177-.305-.184-.3-.189-.3-.195-.294-.2-.29.018-.207Zm-.018.207a.162.162,0,0,1,.266-.186Zm.71-.444-.464.464-.229-.229.464-.464.246.021-.017.207Zm-.229-.229a.162.162,0,0,1,.229.229Zm-35.9,11.538h.324l0,.395.012.393.019.391.027.389.035.387.042.384.049.385.056.38.064.378.071.375.078.373.085.37.092.367.1.364.106.362.112.359.118.355.126.353.132.349.139.346.145.343.151.34.158.336.164.333.17.329.176.325.182.322.187.318.193.314.2.31.2.306.21.3-.264.188-.213-.308-.207-.311-.2-.315-.2-.32-.191-.323-.185-.327-.177-.331-.173-.334-.167-.338-.16-.342-.154-.345-.148-.349-.141-.352-.135-.355-.128-.358-.121-.362-.114-.365-.108-.368-.1-.371-.094-.373-.087-.376-.08-.379-.072-.382-.065-.384-.058-.386-.05-.389-.044-.39-.035-.393-.027-.4L10.3,31l-.012-.4,0-.4Zm0,0a.162.162,0,0,1,.324,0ZM14.2,18.658l-.229.229.246-.021-.21.3-.2.306-.2.31-.193.314-.188.319-.182.321-.176.325-.17.329-.164.333-.158.336-.151.34-.145.343-.139.346-.132.35-.126.353-.118.355-.112.359-.106.362-.1.364-.093.368-.085.37-.078.373-.071.375-.064.376-.057.381-.049.382-.042.384-.035.387-.027.389-.019.391-.012.393,0,.395h-.323l0-.4.012-.4.02-.4.027-.4.035-.393.043-.391.05-.389.058-.386.065-.384.072-.382.08-.379.087-.376.094-.373.1-.371.108-.368.114-.365.121-.362.128-.358.135-.355.141-.352.148-.349.154-.345.16-.342.167-.338.173-.334.177-.331.185-.327.191-.323.2-.319.2-.315.207-.311.214-.307.246-.021Zm-.246.021a.162.162,0,0,1,.264.188Zm.481.673-.464-.464.229-.229.464.464.018.207-.247.022Zm.229-.229a.162.162,0,0,1-.229.229ZM11.257,30.2h-.324l0-.384.011-.383.019-.381.026-.379.033-.377.041-.375.048-.373.055-.37.062-.368.069-.366.075-.363.082-.361.089-.358.1-.355.1-.353.109-.35.115-.347.122-.344.129-.342.134-.338.14-.335.146-.332.152-.328.158-.325.164-.321.17-.318.176-.314.181-.311.187-.307.192-.3.2-.3.2-.3.266.186-.2.29-.195.294-.189.3-.184.3-.177.306-.173.309-.167.313-.161.316-.156.319-.15.323-.144.325-.138.329-.132.332-.126.337-.118.338-.113.341-.107.344-.1.347-.094.349-.089.352-.081.355-.074.357-.067.36-.061.362-.054.364-.047.365-.04.368-.033.371-.026.373-.02.374-.011.376,0,.378Zm0,0a.162.162,0,0,1-.324,0Zm3.408,11.074-.229-.229-.018.207-.2-.3-.2-.3-.192-.3-.188-.306-.181-.311-.176-.314-.17-.318-.164-.321-.158-.325-.152-.328-.146-.332-.14-.334-.134-.338-.128-.341-.122-.344-.115-.347-.109-.35-.1-.353-.1-.355-.089-.358-.082-.361-.074-.363-.069-.366-.062-.368-.055-.37-.048-.373-.041-.375-.033-.377-.026-.379-.019-.381-.011-.383,0-.384h.324l0,.378.011.376.018.374.025.373.033.371.04.368.047.366.054.364.061.362.067.36.074.357.081.355.089.352.094.349.1.347.107.344.113.341.118.338.126.335.132.332.138.329.144.325.15.323.156.319.161.316.167.313.172.309.177.305.184.3.189.3.195.294.2.29-.018.207Zm.018-.207a.162.162,0,1,1-.266.186Zm-.71.444.464-.464.229.229-.464.464-.246-.021.017-.207Zm.229.229a.162.162,0,0,1-.229-.229Z" transform="translate(0 0)" fill="#2b2a29"/>
      </g>
      <path id="Path_26215" data-name="Path 26215" d="M15.695,5.19a6.77,6.77,0,0,1-.352-.668,2.284,2.284,0,0,1-.134-.875,2.472,2.472,0,0,1,.547-1.4c-.255-.121-.462-.3-.741-.473A11.515,11.515,0,0,0,12.573.635,12.037,12.037,0,0,0,8.455,0a11.763,11.763,0,0,0-4.9,1.166A11.726,11.726,0,0,0,0,3.7c.243.559,2.393,1.943,3.1,2.32a12.087,12.087,0,0,0,8.99.923,11.835,11.835,0,0,0,3.607-1.75Z" transform="translate(12.782 27.159)" fill="#056137" fill-rule="evenodd"/>
      <path id="Path_26216" data-name="Path 26216" d="M0,2.259a6.456,6.456,0,0,1,.389.668,2.427,2.427,0,0,1-.352,2.3c.559.3.8.559,1.664.972A11.776,11.776,0,0,0,8.515,7.337a11.985,11.985,0,0,0,4.106-1.3,10.879,10.879,0,0,0,3.1-2.32A12.075,12.075,0,0,0,12.184,1.2C11.164.715,8.576-.159,7.264.048a11.238,11.238,0,0,0-4.13.608A12.647,12.647,0,0,0,0,2.259Z" transform="translate(31.89 27.162)" fill="#056137" fill-rule="evenodd"/>
      <path id="Path_26217" data-name="Path 26217" d="M6.2,5.225a7.367,7.367,0,0,0-3.122-.972c-2.9,0-4.312,2.455-1.688,3.571,1.688.729,3.243.158,4.75-.621.473-.243.875-.51,1.312-.741a6.115,6.115,0,0,1,.826.45c.279.158.522.3.814.437a10.026,10.026,0,0,0,1.846.7A3.759,3.759,0,0,0,14.71,6.937a1.354,1.354,0,0,0-.255-1.774,3.285,3.285,0,0,0-1.725-.826c-2.053-.389-3.365.753-4,.887.109-.109.389-.473.523-.632C9.791,3.972,11.8,1.7,12.038,1.239,12.476.45,11.929,0,11.151,0H3.814c-.79,0-1.3.414-.911,1.215A9.163,9.163,0,0,0,3.983,2.587C4.433,3.147,5.878,4.751,6.2,5.225Z" transform="translate(22.744 33.805)" fill="#e14124" fill-rule="evenodd"/>
      <path id="Path_26218" data-name="Path 26218" d="M3.6,3.329l-.036.036L2.916,4C1.665,5.224-.047,8.625,0,10.143a2.165,2.165,0,0,1,.851.243c.279.146.449.377.643.486a13.406,13.406,0,0,1,3.147-1.6,11.331,11.331,0,0,1,4.13-.607c.049-.109.972-1.2,1.3-1.7A12.47,12.47,0,0,0,12.124,0,12.528,12.528,0,0,0,7.168,1,11.193,11.193,0,0,0,5.237,2.029,8.069,8.069,0,0,0,3.6,3.329Z" transform="translate(30.383 18.561)" fill="#018d41" fill-rule="evenodd"/>
      <path id="Path_26219" data-name="Path 26219" d="M3.389,8.638a11.48,11.48,0,0,1,4.118.631,12.171,12.171,0,0,1,2.442,1.142c.279.17.486.34.741.473a2.33,2.33,0,0,1,1.482-.741,11.587,11.587,0,0,0-1.3-3.827A13.092,13.092,0,0,0,9.851,4.738c-.4-.51-.8-.923-1.2-1.36A15.526,15.526,0,0,0,6.973,2.053,12.618,12.618,0,0,0,0,0,18.387,18.387,0,0,0,.292,2.685,12.309,12.309,0,0,0,3.037,8.212,3.6,3.6,0,0,1,3.389,8.638Z" transform="translate(17.835 18.548)" fill="#018d41" fill-rule="evenodd"/>
      <path id="Path_26220" data-name="Path 26220" d="M.6,4.993C.486,5.527.3,6.049.195,6.633.073,7.276.073,7.823,0,8.479c.4.437.814.85,1.2,1.36a11.02,11.02,0,0,1,1.02,1.579,12.007,12.007,0,0,1,1.3,3.827H3.9c-.049-1.519,1.664-4.92,2.915-6.147l.644-.631L7.5,8.43c-.061-.036-.085.061-.109-.316A11.537,11.537,0,0,0,6.234,3.547,11.812,11.812,0,0,0,3.707,0,12.062,12.062,0,0,0,1.181,3.559C.972,4.009.79,4.64.6,4.993Z" transform="translate(26.484 13.435)" fill="#95be32" fill-rule="evenodd"/>
      <path id="Path_26221" data-name="Path 26221" d="M.548.729A2.469,2.469,0,0,0,0,2.126,2.318,2.318,0,0,0,.136,3c.109.279.243.425.352.668a8.4,8.4,0,0,0,.668.51A2.241,2.241,0,0,0,3.2,4.227a5.583,5.583,0,0,0,.741-.535A2.407,2.407,0,0,0,4.29,1.4,6.514,6.514,0,0,0,3.9.729C3.707.62,3.537.389,3.257.243A2.159,2.159,0,0,0,2.407,0H2.03A2.317,2.317,0,0,0,.548.729Z" transform="translate(27.989 28.692)" fill="#e14124" fill-rule="evenodd"/>
      <path id="Path_26222" data-name="Path 26222" d="M.689,1.282h.466l-.02-.068Q1.052.931,1,.733T.934.477L.922.419a8.187,8.187,0,0,1-.213.795Zm.691.754-.118-.4H.581l-.118.4H0L.647.1h.558l.647,1.939ZM2.5,2.013,1.935.577h.457l.158.455c.04.118.073.218.1.3s.042.14.048.167l.009.04q.031-.114.155-.509L3,.577h.431L2.91,1.993q-.227.612-.694.613a.828.828,0,0,1-.161-.015V2.257a.382.382,0,0,0,.1.012A.359.359,0,0,0,2.5,2.013ZM4.528.577h.42V2.036h-.42V1.8a.443.443,0,0,1-.444.244.473.473,0,0,1-.35-.125.5.5,0,0,1-.125-.369V.577h.42v.881q0,.256.224.256c.182,0,.273-.121.273-.366ZM6.214.62V.98A.693.693,0,0,0,5.857.891a.191.191,0,0,0-.115.03A.093.093,0,0,0,5.7,1a.089.089,0,0,0,.015.049.141.141,0,0,0,.047.043c.022.013.043.025.063.036s.048.024.083.039.064.029.085.04a.742.742,0,0,1,.213.16.336.336,0,0,1,.08.232.395.395,0,0,1-.155.334.664.664,0,0,1-.411.118.985.985,0,0,1-.444-.089V1.586a.723.723,0,0,0,.42.138q.158,0,.158-.1a.09.09,0,0,0-.015-.049.135.135,0,0,0-.049-.043A.652.652,0,0,0,5.729,1.5l-.083-.036c-.036-.015-.064-.027-.084-.037a.444.444,0,0,1-.29-.414A.384.384,0,0,1,5.434.68a.671.671,0,0,1,.4-.118A1,1,0,0,1,6.214.62ZM6.967,0V.825A.43.43,0,0,1,7.4.563.468.468,0,0,1,7.751.7a.559.559,0,0,1,.134.409v.929h-.42V1.173A.29.29,0,0,0,7.4.974.209.209,0,0,0,7.238.9a.274.274,0,0,0-.082.012.34.34,0,0,0-.085.046A.233.233,0,0,0,7,1.074a.559.559,0,0,0-.03.191v.771h-.42V0ZM8.636.577V.8A.423.423,0,0,1,9.048.563a.4.4,0,0,1,.409.276.4.4,0,0,1,.164-.2A.491.491,0,0,1,9.891.563.439.439,0,0,1,10.232.7a.575.575,0,0,1,.125.4v.935h-.42V1.17a.345.345,0,0,0-.049-.2A.161.161,0,0,0,9.747.9a.236.236,0,0,0-.174.079.408.408,0,0,0-.076.284v.771h-.42V1.17a.344.344,0,0,0-.049-.2A.161.161,0,0,0,8.887.9a.235.235,0,0,0-.174.079.407.407,0,0,0-.077.284v.771h-.42V.577h.42Zm2.774.861h-.135a.258.258,0,0,0-.164.046.144.144,0,0,0-.057.118q0,.148.17.148a.175.175,0,0,0,.138-.055.218.218,0,0,0,.049-.15Zm-.682-.412V.649a1.029,1.029,0,0,1,.5-.1.69.69,0,0,1,.463.134.525.525,0,0,1,.153.416v.935H11.43V1.858a.365.365,0,0,1-.363.187.445.445,0,0,1-.332-.121.413.413,0,0,1-.118-.3.385.385,0,0,1,.154-.325.747.747,0,0,1,.456-.118h.184v-.1q0-.184-.245-.184a.782.782,0,0,0-.438.132ZM12.593.577V.824a.428.428,0,0,1,.168-.191.5.5,0,0,1,.272-.07A.461.461,0,0,1,13.384.7a.549.549,0,0,1,.127.392v.946h-.42V1.167a.287.287,0,0,0-.059-.2A.217.217,0,0,0,12.862.9a.24.24,0,0,0-.191.091.415.415,0,0,0-.076.272v.771h-.42V.577Zm2.425,1.105h.233q.328,0,.328-.225t-.325-.224h-.237v.449Zm0-1.232V.885h.164a.443.443,0,0,0,.26-.064.2.2,0,0,0,.089-.167q0-.2-.276-.2ZM14.575.1h.754a.7.7,0,0,1,.487.151.495.495,0,0,1,.167.384A.455.455,0,0,1,15.9.9a.394.394,0,0,1-.21.155.433.433,0,0,1,.337.454.486.486,0,0,1-.166.378.649.649,0,0,1-.45.148h-.836ZM16.721,0V.823a.429.429,0,0,1,.437-.262A.468.468,0,0,1,17.505.7a.559.559,0,0,1,.134.409v.929h-.42V1.171a.29.29,0,0,0-.063-.2A.209.209,0,0,0,16.992.9a.273.273,0,0,0-.082.012.339.339,0,0,0-.085.046.233.233,0,0,0-.075.113.559.559,0,0,0-.03.191v.771H16.3V0Zm1.971,1.436h-.135a.258.258,0,0,0-.164.046.144.144,0,0,0-.057.118q0,.148.17.148a.176.176,0,0,0,.138-.055.217.217,0,0,0,.049-.15Zm-.682-.412V.647a1.028,1.028,0,0,1,.5-.1.69.69,0,0,1,.463.134.525.525,0,0,1,.153.416v.935h-.412V1.856a.365.365,0,0,1-.363.187.448.448,0,0,1-.332-.121.414.414,0,0,1-.118-.3.385.385,0,0,1,.154-.325.746.746,0,0,1,.456-.118h.184v-.1q0-.184-.245-.184a.782.782,0,0,0-.436.134ZM19.873.575V.846a.417.417,0,0,1,.134-.2.334.334,0,0,1,.217-.076.42.42,0,0,1,.109.012v.4a.371.371,0,0,0-.158-.031.271.271,0,0,0-.219.1.4.4,0,0,0-.083.263v.728h-.42l0-1.459Zm1.37.861h-.135a.255.255,0,0,0-.164.046.144.144,0,0,0-.058.118q0,.148.17.148a.176.176,0,0,0,.138-.055.216.216,0,0,0,.049-.15Zm-.682-.412V.647a1.025,1.025,0,0,1,.5-.1.688.688,0,0,1,.463.134.524.524,0,0,1,.153.416v.935h-.411V1.856a.365.365,0,0,1-.363.187.448.448,0,0,1-.332-.121.412.412,0,0,1-.118-.3.385.385,0,0,1,.154-.325.746.746,0,0,1,.456-.118h.184v-.1c0-.122-.081-.184-.245-.184a.782.782,0,0,0-.437.134ZM22.492.883v.67a.151.151,0,0,0,.044.118.169.169,0,0,0,.117.04.365.365,0,0,0,.2-.057V2a.735.735,0,0,1-.288.046.44.44,0,0,1-.5-.5V.883h-.21V.575h.21V.23h.42V.575h.339V.883Z" transform="translate(18.784 42.984)" fill="#2b2a29"/>
      <path id="Path_26223" data-name="Path 26223" d="M.833,3.226H1.2a.947.947,0,0,0,.757-.306,1.275,1.275,0,0,0,.266-.864,1.07,1.07,0,0,0-.269-.762A.989.989,0,0,0,1.2,1.007H.832ZM0,.338H1.223A1.813,1.813,0,0,1,2.535.83a1.633,1.633,0,0,1,.511,1.226,1.789,1.789,0,0,1-.5,1.344,1.827,1.827,0,0,1-1.331.49H0ZM3.6,3.89V1.218H4.37V3.89ZM3.669.758A.445.445,0,1,1,3.985.89.431.431,0,0,1,3.669.759Zm2.546,2.43A.456.456,0,0,0,6.6,3a.732.732,0,0,0,.14-.451q0-.717-.522-.717a.427.427,0,0,0-.364.179.823.823,0,0,0-.132.5.855.855,0,0,0,.127.506.423.423,0,0,0,.364.174Zm.527-1.971h.764V3.632a1.194,1.194,0,0,1-.384.968,1.445,1.445,0,0,1-.965.325,2.272,2.272,0,0,1-.986-.2V3.939a1.407,1.407,0,0,0,.907.3.725.725,0,0,0,.506-.148.608.608,0,0,0,.158-.464V3.443A.814.814,0,0,1,6,3.8a1.027,1.027,0,0,1-.762-.327,1.336,1.336,0,0,1-.319-.97,1.423,1.423,0,0,1,.308-.941,1,1,0,0,1,.809-.372.76.76,0,0,1,.7.379ZM8.14,3.89V1.218h.769V3.89ZM8.208.758A.443.443,0,1,1,8.524.89.431.431,0,0,1,8.208.759Zm2.251,1.023V3.01a.277.277,0,0,0,.082.216.307.307,0,0,0,.214.074.675.675,0,0,0,.374-.105v.638a1.363,1.363,0,0,1-.527.084A.806.806,0,0,1,9.689,3V1.781H9.3V1.217h.384V.585h.769v.633h.621v.564Zm2.467,1.012h-.248a.469.469,0,0,0-.3.084.265.265,0,0,0-.106.216q0,.269.311.269a.322.322,0,0,0,.253-.1.4.4,0,0,0,.089-.274ZM11.677,2.04V1.349a1.877,1.877,0,0,1,.912-.179,1.259,1.259,0,0,1,.849.245.961.961,0,0,1,.279.762V3.89h-.754V3.565a.667.667,0,0,1-.664.342.817.817,0,0,1-.609-.221.756.756,0,0,1-.219-.554.708.708,0,0,1,.282-.6,1.372,1.372,0,0,1,.835-.213h.337V2.136q0-.338-.448-.338a1.432,1.432,0,0,0-.8.241Zm2.673,1.85V.164h.769V3.89Zm2.694,0L17.349.337h.891l.5,1.286q.127.322.216.591t.116.379l.026.105a9.431,9.431,0,0,1,.369-1.075l.5-1.286h.891l.368,3.552h-.812l-.132-1.376L20.21,1.475q-.137.4-.379,1.039l-.5,1.339h-.48l-.5-1.339q-.121-.327-.207-.585t-.111-.358l-.026-.1q0,.375-.047,1.039L17.853,3.89Zm4.787,0V1.218H22.6V3.89ZM21.9.758a.445.445,0,1,1,.316.132A.431.431,0,0,1,21.9.759Zm3.046.537v.659a1.272,1.272,0,0,0-.654-.163.346.346,0,0,0-.211.055.17.17,0,0,0-.074.141.164.164,0,0,0,.026.089.255.255,0,0,0,.087.079c.04.025.079.047.116.067s.089.042.153.07.117.053.156.074a1.351,1.351,0,0,1,.39.293.615.615,0,0,1,.148.425.722.722,0,0,1-.285.611,1.212,1.212,0,0,1-.754.216,1.807,1.807,0,0,1-.812-.164V3.062A1.326,1.326,0,0,0,24,3.315q.29,0,.29-.185a.167.167,0,0,0-.026-.089.251.251,0,0,0-.089-.079,1.232,1.232,0,0,0-.116-.061l-.153-.066c-.067-.028-.118-.051-.153-.068a.81.81,0,0,1-.532-.759.705.705,0,0,1,.3-.606,1.226,1.226,0,0,1,.739-.216,1.844,1.844,0,0,1,.685.111Zm2.3,0v.659a1.272,1.272,0,0,0-.654-.163.346.346,0,0,0-.211.055.17.17,0,0,0-.074.141.164.164,0,0,0,.026.089.255.255,0,0,0,.087.079c.041.025.079.047.116.067s.089.042.153.07.118.053.156.074a1.352,1.352,0,0,1,.39.293.615.615,0,0,1,.148.425.722.722,0,0,1-.284.611,1.213,1.213,0,0,1-.754.216,1.807,1.807,0,0,1-.812-.164V3.062a1.326,1.326,0,0,0,.769.253q.29,0,.29-.185a.167.167,0,0,0-.026-.089.25.25,0,0,0-.089-.079,1.206,1.206,0,0,0-.116-.061L26.2,2.836c-.067-.028-.118-.051-.153-.068a.81.81,0,0,1-.532-.759.705.705,0,0,1,.3-.606,1.225,1.225,0,0,1,.739-.216,1.844,1.844,0,0,1,.685.111Zm.638,2.594V1.218h.769V3.89ZM27.949.758a.445.445,0,1,1,.316.132A.431.431,0,0,1,27.95.759ZM30.49,3.932a1.244,1.244,0,0,1-.97-.377,1.383,1.383,0,0,1-.342-.968,1.458,1.458,0,0,1,.358-1.015,1.371,1.371,0,0,1,1.919-.014,1.419,1.419,0,0,1,.342.981,1.458,1.458,0,0,1-.345,1,1.214,1.214,0,0,1-.962.392Zm-.005-2.15A.412.412,0,0,0,30.105,2a1.291,1.291,0,0,0,0,1.12.422.422,0,0,0,.387.219.408.408,0,0,0,.377-.214A1.1,1.1,0,0,0,31,2.567q0-.784-.51-.785Zm2.583-.564V1.67a.785.785,0,0,1,.308-.351.927.927,0,0,1,.5-.129.841.841,0,0,1,.643.245,1.008,1.008,0,0,1,.232.719V3.89h-.769V2.3a.526.526,0,0,0-.111-.361.4.4,0,0,0-.311-.124.44.44,0,0,0-.351.166.759.759,0,0,0-.14.5V3.89H32.3V1.218Z" transform="translate(13.352 45.906)" fill="#e14124"/>
      <path id="Path_26224" data-name="Path 26224" d="M1.653,1.5V1.491a.448.448,0,0,0-.1-.3.659.659,0,0,0-.266-.174.532.532,0,0,0,.1-.066.441.441,0,0,0,.08-.091A.462.462,0,0,0,1.523.741.481.481,0,0,0,1.544.593V.587A.443.443,0,0,0,1.373.221.733.733,0,0,0,.9.084H0V2.031H.925A1.23,1.23,0,0,0,1.223,2a.687.687,0,0,0,.23-.1A.462.462,0,0,0,1.6,1.731.506.506,0,0,0,1.653,1.5ZM1.12.665a.169.169,0,0,1-.083.158A.451.451,0,0,1,.812.872h-.4V.459H.839a.359.359,0,0,1,.208.051A.173.173,0,0,1,1.12.658V.664Zm.109.779a.178.178,0,0,1-.08.16.411.411,0,0,1-.223.051H.417V1.228h.5a.4.4,0,0,1,.242.057.184.184,0,0,1,.075.154Zm2.089.587V.54H2.895v.83a.32.32,0,0,1-.071.226.251.251,0,0,1-.193.077A.236.236,0,0,1,2.442,1.6a.334.334,0,0,1-.067-.226V.54H1.952v.965a.588.588,0,0,0,.132.406.478.478,0,0,0,.374.148A.5.5,0,0,0,2.6,2.04a.516.516,0,0,0,.117-.053.613.613,0,0,0,.1-.077.942.942,0,0,0,.079-.092v.213h.423ZM4.149.375V0H3.706V.375ZM4.138,2.031V.54H3.715V2.031Zm.84,0V0H4.555v2.03Zm1.9,0V0H6.452V.734A.732.732,0,0,0,6.267.579.532.532,0,0,0,5.988.513a.672.672,0,0,0-.256.05.613.613,0,0,0-.216.148.752.752,0,0,0-.15.242.885.885,0,0,0-.057.329v.006a.885.885,0,0,0,.057.33.75.75,0,0,0,.151.243.63.63,0,0,0,.217.148.666.666,0,0,0,.253.05.523.523,0,0,0,.277-.068.673.673,0,0,0,.188-.172V2.03Zm-.417-.743a.474.474,0,0,1-.03.169.409.409,0,0,1-.078.131.346.346,0,0,1-.395.085.355.355,0,0,1-.115-.085.4.4,0,0,1-.079-.131.474.474,0,0,1-.03-.169V1.283a.467.467,0,0,1,.03-.17A.4.4,0,0,1,5.84.982.353.353,0,0,1,5.955.9.339.339,0,0,1,6.35.982a.417.417,0,0,1,.078.131.474.474,0,0,1,.03.169ZM7.706.376V0H7.263V.376ZM7.7,2.032V.541H7.273V2.032Zm1.764,0V1.067A.588.588,0,0,0,9.326.661.475.475,0,0,0,8.952.513a.5.5,0,0,0-.145.019.5.5,0,0,0-.117.053.61.61,0,0,0-.1.077.864.864,0,0,0-.079.092V.541H8.093V2.031h.423V1.2A.32.32,0,0,1,8.587.977.249.249,0,0,1,8.78.9a.238.238,0,0,1,.189.077.334.334,0,0,1,.067.226v.828h.423ZM11.325,1.7V.542H10.9v.2a.813.813,0,0,0-.2-.158.559.559,0,0,0-.284-.064.684.684,0,0,0-.248.045A.617.617,0,0,0,9.962.7a.671.671,0,0,0-.148.218.744.744,0,0,0-.056.3v.006a.76.76,0,0,0,.054.3.65.65,0,0,0,.146.218.614.614,0,0,0,.211.135.693.693,0,0,0,.25.046.554.554,0,0,0,.281-.064.761.761,0,0,0,.207-.178V1.74a.408.408,0,0,1-.1.3.443.443,0,0,1-.321.1.892.892,0,0,1-.269-.037,1.183,1.183,0,0,1-.235-.1l-.145.317a1.308,1.308,0,0,0,.309.116,1.489,1.489,0,0,0,.35.04,1.341,1.341,0,0,0,.364-.044.648.648,0,0,0,.26-.139.578.578,0,0,0,.156-.243,1.111,1.111,0,0,0,.052-.362Zm-.417-.481a.346.346,0,0,1-.028.139.327.327,0,0,1-.077.11.335.335,0,0,1-.115.07.408.408,0,0,1-.145.025.368.368,0,0,1-.259-.094.326.326,0,0,1-.1-.25V1.209a.347.347,0,0,1,.028-.139A.335.335,0,0,1,10.286.96.353.353,0,0,1,10.4.889a.409.409,0,0,1,.143-.025.421.421,0,0,1,.145.025A.35.35,0,0,1,10.8.96a.332.332,0,0,1,.077.109.345.345,0,0,1,.028.139v.006Zm3.468-.155V1.053A.97.97,0,0,0,14.3.67a.907.907,0,0,0-.213-.307.986.986,0,0,0-.328-.2,1.151,1.151,0,0,0-.418-.073h-.757V2.032h.759a1.122,1.122,0,0,0,.418-.075,1.013,1.013,0,0,0,.328-.207.91.91,0,0,0,.213-.309.976.976,0,0,0,.075-.383Zm-.448.005a.621.621,0,0,1-.043.237.562.562,0,0,1-.118.183.513.513,0,0,1-.185.12.669.669,0,0,1-.239.042h-.331V.472h.331a.645.645,0,0,1,.239.043.525.525,0,0,1,.185.121.554.554,0,0,1,.118.186.636.636,0,0,1,.043.237ZM15.166.377V0h-.444V.377Zm-.011,1.656V.542h-.423V2.034Zm1.9-.337V.543h-.423v.2a.814.814,0,0,0-.2-.158.56.56,0,0,0-.284-.064A.685.685,0,0,0,15.9.561.619.619,0,0,0,15.689.7a.671.671,0,0,0-.148.218.744.744,0,0,0-.056.3v.006a.759.759,0,0,0,.054.3.65.65,0,0,0,.146.218.613.613,0,0,0,.211.135.692.692,0,0,0,.25.046.553.553,0,0,0,.281-.064.763.763,0,0,0,.207-.178v.072a.408.408,0,0,1-.1.3.442.442,0,0,1-.321.1.893.893,0,0,1-.269-.037,1.183,1.183,0,0,1-.235-.1l-.145.317a1.31,1.31,0,0,0,.309.116,1.488,1.488,0,0,0,.35.041,1.34,1.34,0,0,0,.364-.044.648.648,0,0,0,.26-.139A.577.577,0,0,0,17,2.058a1.111,1.111,0,0,0,.052-.363Zm-.417-.481a.346.346,0,0,1-.028.139.327.327,0,0,1-.076.11.334.334,0,0,1-.115.07.408.408,0,0,1-.145.025.368.368,0,0,1-.259-.094.325.325,0,0,1-.1-.25V1.21a.346.346,0,0,1,.028-.139.335.335,0,0,1,.076-.109A.355.355,0,0,1,16.127.89.409.409,0,0,1,16.27.865a.421.421,0,0,1,.145.025.35.35,0,0,1,.115.071.332.332,0,0,1,.077.109.347.347,0,0,1,.028.139v.006ZM17.883.378V0H17.44V.378Zm-.011,1.656V.543h-.423V2.034Zm1.235-.061v-.34a.428.428,0,0,1-.209.053q-.136,0-.136-.145V.9h.35V.543h-.347V.163h-.423v.38h-.177V.9h.177v.707a.617.617,0,0,0,.032.215.358.358,0,0,0,.089.138.321.321,0,0,0,.136.074.71.71,0,0,0,.177.021.671.671,0,0,0,.186-.024.648.648,0,0,0,.148-.062Zm1.6.061V1.169a.579.579,0,0,0-.665-.643,1.349,1.349,0,0,0-.323.033,1.693,1.693,0,0,0-.256.087l.106.323a1.442,1.442,0,0,1,.2-.059.979.979,0,0,1,.216-.021.36.36,0,0,1,.239.069.254.254,0,0,1,.081.2v.025a1.273,1.273,0,0,0-.166-.044,1.052,1.052,0,0,0-.2-.017.939.939,0,0,0-.243.03.564.564,0,0,0-.189.089.4.4,0,0,0-.124.148.467.467,0,0,0-.045.211v.005a.448.448,0,0,0,.04.2.419.419,0,0,0,.11.143.46.46,0,0,0,.163.089.656.656,0,0,0,.2.03.6.6,0,0,0,.264-.052.585.585,0,0,0,.186-.137v.161h.409Zm-.4-.526a.231.231,0,0,1-.091.189.374.374,0,0,1-.24.072.274.274,0,0,1-.167-.047.156.156,0,0,1-.064-.134V1.584a.174.174,0,0,1,.078-.153.382.382,0,0,1,.214-.053.672.672,0,0,1,.146.015.751.751,0,0,1,.124.04v.075Zm1.207.526V0H21.09v2.03Zm2.923,0V.088h-.428V.857h-.79V.088H22.79V2.034h.428V1.252h.79v.782Zm1.814-.7V1.325a1.073,1.073,0,0,0-.043-.3.747.747,0,0,0-.133-.258.657.657,0,0,0-.227-.179.722.722,0,0,0-.323-.067.712.712,0,0,0-.3.061.7.7,0,0,0-.232.167.761.761,0,0,0-.151.247.834.834,0,0,0-.054.3V1.3a.807.807,0,0,0,.059.313.734.734,0,0,0,.163.243.718.718,0,0,0,.248.158.852.852,0,0,0,.31.056.794.794,0,0,0,.353-.073.751.751,0,0,0,.256-.2l-.242-.214a.656.656,0,0,1-.172.118.479.479,0,0,1-.189.036.379.379,0,0,1-.237-.074.356.356,0,0,1-.127-.218h1.037c0-.02,0-.038,0-.053s0-.032,0-.053Zm-.412-.159H25.2a.433.433,0,0,1,.107-.231.286.286,0,0,1,.216-.086.278.278,0,0,1,.214.089.411.411,0,0,1,.1.225Zm2.008.862V1.169a.579.579,0,0,0-.665-.643,1.333,1.333,0,0,0-.323.033A1.659,1.659,0,0,0,26.6.646l.106.323A1.482,1.482,0,0,1,26.9.91.979.979,0,0,1,27.12.889a.36.36,0,0,1,.239.069.254.254,0,0,1,.081.2v.025a1.273,1.273,0,0,0-.166-.044,1.051,1.051,0,0,0-.2-.017.939.939,0,0,0-.243.03.564.564,0,0,0-.189.089.4.4,0,0,0-.124.148.467.467,0,0,0-.044.211v.005a.449.449,0,0,0,.04.2.422.422,0,0,0,.11.144.465.465,0,0,0,.163.089.657.657,0,0,0,.2.03.6.6,0,0,0,.264-.052.583.583,0,0,0,.186-.137v.161h.409Zm-.4-.526a.23.23,0,0,1-.091.189.372.372,0,0,1-.24.072.274.274,0,0,1-.167-.047.156.156,0,0,1-.064-.133V1.584a.174.174,0,0,1,.078-.153.382.382,0,0,1,.214-.053.731.731,0,0,1,.146.015.752.752,0,0,1,.124.04v.075Zm1.207.526V0H28.23v2.03Zm1.235-.061v-.34a.428.428,0,0,1-.209.053q-.136,0-.136-.145V.905h.35V.544h-.35V.163H29.12V.544h-.177V.905h.177v.707a.617.617,0,0,0,.032.215.355.355,0,0,0,.089.138.317.317,0,0,0,.136.074.71.71,0,0,0,.177.021.671.671,0,0,0,.186-.024.649.649,0,0,0,.148-.062Zm1.683.061V1.069a.587.587,0,0,0-.132-.406.475.475,0,0,0-.374-.148.5.5,0,0,0-.145.019A.5.5,0,0,0,30.8.587a.6.6,0,0,0-.1.077.841.841,0,0,0-.079.091V0H30.2v2.03h.423V1.205A.32.32,0,0,1,30.7.979.252.252,0,0,1,30.89.9a.237.237,0,0,1,.189.077.333.333,0,0,1,.067.226v.828h.424Zm2.726,0V1.653H33.239V1.244h.917V.863h-.917V.469h1.043V.088H32.817V2.034Zm1.652-.239-.248-.25a.821.821,0,0,1-.157.116.384.384,0,0,1-.185.043.361.361,0,0,1-.275-.118.379.379,0,0,1-.077-.131.479.479,0,0,1-.026-.161V1.287a.46.46,0,0,1,.026-.157A.4.4,0,0,1,35.083,1,.36.36,0,0,1,35.2.912.323.323,0,0,1,35.343.88a.376.376,0,0,1,.19.044.7.7,0,0,1,.148.12L35.94.767a.781.781,0,0,0-.245-.184.809.809,0,0,0-.35-.067.8.8,0,0,0-.316.061.749.749,0,0,0-.246.167.769.769,0,0,0-.161.247.783.783,0,0,0-.059.3V1.3a.771.771,0,0,0,.059.3.749.749,0,0,0,.408.411.783.783,0,0,0,.31.061.745.745,0,0,0,.362-.077.946.946,0,0,0,.248-.2Zm1.816-.5V1.286a.745.745,0,0,0-.061-.3A.76.76,0,0,0,37.535.74a.773.773,0,0,0-.254-.164.883.883,0,0,0-.642,0,.793.793,0,0,0-.256.167.771.771,0,0,0-.17.245.752.752,0,0,0-.061.3V1.3a.751.751,0,0,0,.061.3.768.768,0,0,0,.168.244.785.785,0,0,0,.255.164.885.885,0,0,0,.642,0,.8.8,0,0,0,.256-.167.778.778,0,0,0,.17-.246.75.75,0,0,0,.062-.306Zm-.417.006a.464.464,0,0,1-.026.157.388.388,0,0,1-.076.129.361.361,0,0,1-.121.089.391.391,0,0,1-.163.032.367.367,0,0,1-.16-.033.4.4,0,0,1-.2-.221.444.444,0,0,1-.028-.157V1.288a.46.46,0,0,1,.026-.157A.385.385,0,0,1,36.672,1a.358.358,0,0,1,.121-.089.387.387,0,0,1,.163-.032.37.37,0,0,1,.159.034A.387.387,0,0,1,37.239,1a.4.4,0,0,1,.08.131.44.44,0,0,1,.028.157Zm1.816.283V1.576a.345.345,0,0,0-.042-.175.425.425,0,0,0-.106-.122.655.655,0,0,0-.145-.085q-.081-.035-.159-.059L38.6,1.1a.9.9,0,0,1-.1-.041.272.272,0,0,1-.067-.044A.072.072,0,0,1,38.41.957V.951a.09.09,0,0,1,.039-.074.2.2,0,0,1,.117-.029.559.559,0,0,1,.186.038,1.262,1.262,0,0,1,.217.1l.161-.292a1.056,1.056,0,0,0-.269-.127.956.956,0,0,0-.288-.046.712.712,0,0,0-.213.03.5.5,0,0,0-.172.092.439.439,0,0,0-.16.351V1a.385.385,0,0,0,.04.183.4.4,0,0,0,.1.126.538.538,0,0,0,.143.083,1.422,1.422,0,0,0,.157.055l.117.037a1.037,1.037,0,0,1,.1.034.22.22,0,0,1,.068.043.081.081,0,0,1,.025.059v.006a.094.094,0,0,1-.043.08.233.233,0,0,1-.135.03.664.664,0,0,1-.227-.044,1.026,1.026,0,0,1-.243-.134l-.181.278a1.048,1.048,0,0,0,.64.225.821.821,0,0,0,.224-.029A.541.541,0,0,0,39,1.945a.4.4,0,0,0,.121-.148.5.5,0,0,0,.045-.219ZM40.885.544h-.439L40.12,1.559,39.781.544h-.448l.584,1.5a.192.192,0,0,1-.059.076.157.157,0,0,1-.089.02.276.276,0,0,1-.091-.016.479.479,0,0,1-.09-.042l-.142.306a.8.8,0,0,0,.17.075.684.684,0,0,0,.207.028.573.573,0,0,0,.167-.022.351.351,0,0,0,.129-.072.538.538,0,0,0,.1-.129,1.151,1.151,0,0,0,.089-.194L40.886.545Zm1.344,1.038V1.576a.346.346,0,0,0-.042-.175.426.426,0,0,0-.106-.122.657.657,0,0,0-.145-.085q-.081-.035-.159-.059L41.663,1.1a.887.887,0,0,1-.1-.041.273.273,0,0,1-.067-.044.072.072,0,0,1-.025-.054V.951a.088.088,0,0,1,.01-.042.089.089,0,0,1,.029-.032.2.2,0,0,1,.117-.029.56.56,0,0,1,.186.038,1.262,1.262,0,0,1,.217.1L42.2.695a1.057,1.057,0,0,0-.269-.127.957.957,0,0,0-.288-.046.712.712,0,0,0-.213.03.5.5,0,0,0-.172.092.438.438,0,0,0-.16.351V1a.385.385,0,0,0,.04.183.4.4,0,0,0,.1.126.538.538,0,0,0,.143.083,1.416,1.416,0,0,0,.157.055l.117.037a1.033,1.033,0,0,1,.1.034.22.22,0,0,1,.068.043.081.081,0,0,1,.025.059v.006a.093.093,0,0,1-.043.08.233.233,0,0,1-.135.03.664.664,0,0,1-.227-.044,1.027,1.027,0,0,1-.243-.134l-.181.278a1.048,1.048,0,0,0,.64.225.821.821,0,0,0,.224-.029.541.541,0,0,0,.182-.087.4.4,0,0,0,.121-.148.5.5,0,0,0,.045-.219Zm1.14.392V1.634a.427.427,0,0,1-.208.053q-.136,0-.136-.145V.906h.35V.545h-.35V.163H42.6V.545h-.177V.906H42.6v.707a.615.615,0,0,0,.032.215.355.355,0,0,0,.089.138.318.318,0,0,0,.136.074.71.71,0,0,0,.177.021.67.67,0,0,0,.186-.024.648.648,0,0,0,.148-.062Zm1.708-.642V1.325a1.074,1.074,0,0,0-.043-.3A.747.747,0,0,0,44.9.762a.656.656,0,0,0-.227-.179.723.723,0,0,0-.323-.067.712.712,0,0,0-.3.061.7.7,0,0,0-.232.167.762.762,0,0,0-.151.247.834.834,0,0,0-.054.3V1.3a.81.81,0,0,0,.059.313.742.742,0,0,0,.163.243.716.716,0,0,0,.248.158.852.852,0,0,0,.31.056.794.794,0,0,0,.353-.073A.751.751,0,0,0,45,1.79l-.242-.214a.63.63,0,0,1-.172.118.479.479,0,0,1-.189.036.381.381,0,0,1-.237-.074.356.356,0,0,1-.127-.219h1.037c0-.02,0-.038,0-.053s0-.032,0-.053Zm-.412-.159h-.637a.433.433,0,0,1,.107-.231.286.286,0,0,1,.216-.086.278.278,0,0,1,.214.089.41.41,0,0,1,.1.224Zm3,.862V1.064a.569.569,0,0,0-.134-.409.488.488,0,0,0-.37-.139.594.594,0,0,0-.273.059.68.68,0,0,0-.217.177.414.414,0,0,0-.165-.177.5.5,0,0,0-.255-.062.478.478,0,0,0-.264.072.6.6,0,0,0-.1.078.875.875,0,0,0-.079.091V.542h-.423V2.032h.423V1.2a.329.329,0,0,1,.068-.226A.24.24,0,0,1,46.07.9a.225.225,0,0,1,.184.077.343.343,0,0,1,.064.226v.828h.423V1.2a.329.329,0,0,1,.068-.226A.24.24,0,0,1,47,.9a.226.226,0,0,1,.184.077.344.344,0,0,1,.064.226v.828h.423Z" transform="translate(6.361 53.222)" fill="#29298c"/>
    </g>
  </g>
</svg>
