<svg xmlns="http://www.w3.org/2000/svg" width="74" height="74" viewBox="0 0 74 74">
  <g id="Group_31768" data-name="Group 31768" transform="translate(-15963 -15677)">
    <circle id="Ellipse_94" data-name="Ellipse 94" cx="37" cy="37" r="37" transform="translate(15963 15677)" fill="#fff"/>
    <g id="Layer_x0020_1" transform="translate(15972.009 15688.01)">
      <g id="Group_31767" data-name="Group 31767" transform="translate(-0.009 -0.01)">
        <path id="Path_27554" data-name="Path 27554" d="M59.857,31.93a27.818,27.818,0,0,1,17.454,6.123l-.428.428a27.337,27.337,0,0,0-34.052,0l-.428-.428A27.818,27.818,0,0,1,59.857,31.93ZM81.67,42.412a27.939,27.939,0,0,1,0,34.908l-.428-.428a27.338,27.338,0,0,0,0-34.052l.428-.428ZM38.044,77.32a27.939,27.939,0,0,1,0-34.908l.428.428a27.337,27.337,0,0,0,0,34.052Zm21.813-40.7A23.14,23.14,0,0,1,73.968,41.4l-.429.43a22.645,22.645,0,0,0-27.363,0l-.429-.429A23.14,23.14,0,0,1,59.857,36.624Zm18.47,9.131a23.247,23.247,0,0,1,0,28.222l-.43-.43a22.645,22.645,0,0,0,0-27.363ZM41.387,73.977a23.247,23.247,0,0,1,0-28.222l.429.429a22.645,22.645,0,0,0,0,27.363ZM59.857,41.5a18.284,18.284,0,0,1,10.626,3.384l-.432.432a17.773,17.773,0,0,0-20.387,0l-.432-.432A18.283,18.283,0,0,1,59.857,41.5ZM74.841,49.24a18.375,18.375,0,0,1,0,21.251l-.432-.432a17.773,17.773,0,0,0,0-20.387l.432-.432ZM44.872,70.492a18.376,18.376,0,0,1,0-21.251l.432.432a17.774,17.774,0,0,0,0,20.388Z" transform="translate(-31.77 -31.78)" fill="#2b2a29"/>
        <path id="_1" data-name="1" d="M45.638,6.37l-.213-.213.012.224-.45-.353-.457-.344-.464-.334L43.6,5.025l-.478-.315L42.632,4.4l-.492-.3-.5-.286-.5-.276-.511-.266-.517-.255-.523-.245-.529-.234-.535-.224-.54-.213-.546-.2-.551-.191-.556-.179-.561-.168L35.2,1.213l-.571-.145L34.056.936l-.58-.121L32.892.706,32.3.61,31.711.526l-.6-.071L30.514.4,29.91.35,29.3.317,28.691.3,28.077.291v-.3L28.7,0l.618.02L29.93.05,30.54.1l.607.059.6.072.6.085.595.1.591.11.586.122L34.7.776l.577.146.572.158.567.17.562.181.557.193.552.2.546.215.54.226.535.237.529.248.523.258.516.269.51.279.5.289.5.3.49.309.483.319.476.329.469.338.462.347.454.357.012.224Zm-.012-.224a.15.15,0,1,1-.188.235l.188-.235ZM45,6.585l.428-.428.213.213L45.21,6.8l-.2.011L45,6.585Zm.213.213A.15.15,0,0,1,45,6.585ZM28.077.893v-.3h0L28.682.6l.6.02.6.032.6.045.592.058.588.07.584.082.58.095.576.107.572.119.567.13L35.1,1.5l.558.153.553.165.548.176.543.187.538.2.533.209.527.22.522.23.516.241.51.251.5.261.5.271.492.281.485.291.479.3.472.31.465.319.458.329.451.338.444.347-.188.235-.439-.343-.446-.334-.453-.325-.46-.316-.467-.307-.473-.3-.48-.288L41.3,4.323l-.492-.268-.5-.258-.5-.248L39.3,3.31l-.516-.228-.521-.217-.527-.207-.532-.2-.537-.185L36.123,2.1l-.547-.163-.552-.152-.557-.14-.561-.129L33.341,1.4l-.57-.105L32.2,1.2l-.578-.082-.582-.069L30.453,1,29.864.951,29.272.919,28.676.9l-.6-.006h0Zm0,0a.15.15,0,0,1,0-.3ZM10.945,6.8l.213-.213-.2-.011.444-.347.451-.338.458-.329.465-.319.472-.31.479-.3.485-.291L14.7,4.06l.5-.271.5-.261.51-.251.516-.241.522-.23.527-.22.533-.209.538-.2.543-.187.548-.176.553-.165.558-.153.563-.142.567-.13.572-.119L23.332,1l.58-.095L24.5.823l.588-.07L25.676.7l.6-.045.6-.032.6-.02.605-.007v.3l-.6.006-.6.019L26.291.95,25.7,1l-.585.057-.581.069-.578.082-.574.094-.57.105-.565.117-.561.129-.557.14-.552.152-.547.163-.542.174-.537.185-.532.2-.527.207-.521.217-.516.228-.51.238-.5.248-.5.258-.492.268-.486.278-.48.288-.473.3-.467.307-.46.316-.453.325-.446.334-.439.343-.2-.011Zm.2.011a.15.15,0,0,1-.188-.235l.188.235Zm-.416-.652.428.428-.213.213-.428-.428.012-.224.2.011Zm-.213.213a.15.15,0,0,1,.213-.213ZM28.077-.01v.3h0L27.463.3l-.611.02L26.244.35,25.64.4l-.6.059-.6.071L23.851.61l-.588.1-.584.109L22.1.936l-.575.133-.571.145-.566.156-.561.168-.556.179-.551.191-.546.2-.54.213-.535.224-.529.234-.523.245-.517.256-.511.266-.5.276-.5.286-.492.3-.485.306-.478.315-.471.325-.464.334-.457.344-.45.353-.188-.235.454-.357.462-.347.469-.338.476-.328.483-.319.49-.309.5-.3.5-.289.51-.279.516-.269.523-.258.529-.248.535-.237.54-.226.546-.215.552-.2.557-.193.562-.181.567-.17.572-.158.577-.146.582-.134L22.62.52l.591-.11.595-.1.6-.085.6-.072L25.614.1,26.225.05l.614-.033L27.456,0l.621-.007h0Zm0,0a.15.15,0,1,1,0,.3ZM56.164,28.076h-.3l-.007-.614-.02-.611-.033-.608-.046-.6-.059-.6-.071-.6-.084-.593-.1-.589-.109-.584-.121-.58-.133-.575-.145-.571-.156-.566-.168-.561-.179-.556-.191-.551-.2-.546-.213-.54-.224-.535-.234-.529-.245-.523-.256-.517-.266-.511-.276-.5-.286-.5-.3-.492-.306-.485-.315-.478-.325-.471-.334-.464-.344-.457-.353-.45.235-.188.357.454.347.462.338.469.329.476.319.483.309.49.3.5.289.5.279.51.269.516.258.523.248.529.237.535.226.54.215.546.2.552.193.557.181.562.17.567.158.572.146.577.134.582.122.586.11.591.1.595.085.6.072.6.059.607.046.611.033.614.02.618.007.621h0Zm0,0a.15.15,0,0,1-.3,0h.3Zm-6.38,17.561L50,45.424l-.224.012.353-.45.344-.457.334-.464.325-.471.315-.478.306-.485.3-.492.286-.5.276-.5.266-.511.255-.517.245-.523.234-.529.224-.535.213-.54.2-.546.191-.551.179-.556.168-.561.156-.566.145-.571.133-.575.121-.58.109-.584.1-.589.084-.593.071-.6.059-.6.046-.6.033-.608.02-.611.007-.614h.3l-.007.621-.02.618-.033.614-.046.611L56,31.146l-.072.6-.085.6-.1.595-.11.591-.122.586-.134.582-.146.577-.158.572-.17.567-.181.562-.193.557-.2.552-.215.546-.226.54-.237.535-.248.529-.258.523-.269.516-.279.51-.289.5-.3.5-.309.49-.319.483-.328.476-.338.469-.347.462-.357.454-.224.012Zm.224-.012a.15.15,0,0,1-.235-.188l.235.188ZM49.568,45l.428.428-.213.213-.428-.428-.011-.2L49.568,45Zm-.213.213A.15.15,0,0,1,49.568,45Zm5.905-17.132h.3l-.007.605-.02.6-.032.6-.045.6-.058.592-.07.588-.082.584-.095.58-.107.576-.119.572-.13.567-.142.563-.153.558-.165.553-.176.548-.187.543-.2.538-.209.533-.22.527-.23.522-.241.516-.251.51-.261.5-.271.5-.281.492-.291.485-.3.479-.31.472-.319.465-.329.458-.338.451-.347.444-.235-.188.343-.439.334-.446.325-.453.316-.46.307-.467.3-.473.288-.48.278-.486.268-.492.258-.5.248-.5.238-.51.228-.516.217-.521.207-.527.2-.532.185-.537.174-.542.163-.547.152-.552.14-.557.129-.561.117-.565.105-.57.094-.574.082-.578.069-.581.057-.585.045-.589.032-.592.019-.6.006-.6h0Zm0,0a.15.15,0,1,1,.3,0h-.3ZM49.356,10.944l.213.213.011-.2.347.444.338.451.329.458.319.465.31.472.3.479.291.485.281.492.271.5.261.5.251.51.241.516.23.522.22.527.209.533.2.538.187.543.176.548.165.553.153.558.142.563.13.567.119.572.107.576.095.58.082.584.07.588.058.592.045.6.032.6.02.6.007.605h-.3l-.006-.6-.019-.6L55.2,26.29l-.045-.589-.057-.585-.069-.581-.082-.578-.094-.574-.105-.57-.117-.565-.129-.561-.14-.557-.152-.552-.163-.547-.174-.542-.185-.537-.2-.532-.207-.527-.217-.521-.228-.516-.238-.51-.248-.5-.258-.5-.268-.492-.278-.486-.288-.48-.3-.473-.307-.467-.316-.46-.325-.453-.334-.446-.343-.439.011-.2Zm-.011.2a.15.15,0,0,1,.235-.188l-.235.188ZM50,10.729l-.428.428-.213-.213.428-.428.224.012-.011.2Zm-.213-.213a.15.15,0,0,1,.213.213ZM-.009,28.076h.3l.007.614.02.611.033.608.046.6.059.6.071.6.084.593.1.589.109.584.121.58.133.575.145.571.156.566.168.561.179.556.191.551.2.546.213.54.224.535.234.529.245.523.255.517.266.511.276.5.286.5.3.492.306.485.315.478.325.471.334.464.344.457.353.45-.235.188L5.79,45.17l-.347-.462-.338-.469-.329-.476-.319-.483-.309-.49-.3-.5-.289-.5-.279-.51-.269-.516-.258-.523-.248-.529-.237-.535-.226-.54-.215-.546-.2-.552-.193-.557-.181-.562-.17-.567-.158-.572L.777,34.7.643,34.12l-.122-.586-.11-.591-.1-.595-.085-.6-.072-.6L.1,30.539l-.046-.611-.033-.614L0,28.7l-.007-.621h0Zm0,0a.15.15,0,1,1,.3,0Zm6.38-17.561-.213.213.224-.012-.353.45-.344.457-.334.464-.325.471-.315.478-.306.485-.3.492-.286.5-.276.5-.266.511-.255.517-.245.523-.234.529-.224.535-.213.54-.2.546-.191.551-.179.556-.168.561-.156.566-.145.571L.937,22.1l-.121.58-.109.584-.1.589-.084.593-.071.6-.059.6-.046.6-.033.608-.02.611-.007.614h-.3L0,27.456l.02-.618.033-.614L.1,25.614l.059-.607.072-.6.085-.6.1-.595.11-.591.122-.586.134-.582.146-.577.158-.572.17-.567.181-.562.193-.557.2-.552.215-.546.226-.54.237-.535.248-.529.258-.523.269-.516.279-.51.289-.5.3-.5.309-.49.319-.483.329-.476.338-.469.347-.462.357-.454.224-.012Zm-.224.012a.15.15,0,0,1,.235.188l-.235-.188Zm.439.629-.428-.428.213-.213.428.428.011.2-.224.013Zm.213-.213a.15.15,0,0,1-.213.213ZM.894,28.076h-.3L.6,27.471l.02-.6.032-.6.045-.6.058-.592.07-.588.082-.584L1,23.331l.107-.576.119-.572.13-.567.142-.563.153-.558.165-.553.176-.548.187-.543.2-.538.209-.533.22-.527.23-.522.241-.516.251-.51.261-.5.271-.5.281-.492.291-.485.3-.479.31-.472.319-.465.329-.458.338-.451.347-.444.235.188-.343.439-.334.446-.325.453-.316.46-.307.467-.3.473-.288.48-.278.486-.268.492-.258.5-.248.5-.238.51-.228.516-.217.521-.207.527-.2.532-.185.537-.174.542-.163.547-.152.552-.14.557-.129.561-.117.565-.105.57-.094.574-.082.578-.069.582L1,25.7l-.045.589-.032.592-.019.6-.006.6h0Zm0,0a.15.15,0,1,1-.3,0ZM6.8,45.209,6.586,45l-.011.2-.347-.444L5.891,44.3l-.329-.458-.319-.465-.31-.472-.3-.479-.291-.485-.281-.492-.271-.5-.261-.5-.251-.51-.241-.516-.23-.522-.22-.527-.209-.533-.2-.538-.187-.543-.176-.548-.165-.553L1.5,35.1l-.142-.563-.13-.567L1.108,33.4,1,32.822l-.095-.58-.082-.584-.07-.588L.7,30.478l-.045-.6-.032-.6-.02-.6-.007-.605h.3l.006.6.019.6.032.592L1,30.452l.057.585.069.581L1.2,32.2l.094.574.105.57.117.565.129.561.14.557.152.552.163.547.174.542.185.537.2.532.207.527.217.521.228.516.238.51.248.5.258.5.268.492.278.486.288.48.3.473.307.467.316.46.325.453.334.446.343.439-.011.2Zm.011-.2a.15.15,0,0,1-.235.188l.235-.188Zm-.652.416L6.586,45l.213.213-.428.428-.224-.012.011-.2Zm.213.213a.15.15,0,0,1-.213-.213ZM42.295,9.713,42.082,9.5l.015.226-.367-.275-.373-.268-.378-.261-.384-.253-.389-.246-.394-.238-.4-.231-.4-.223L38.6,7.515l-.414-.207-.419-.2-.423-.191-.428-.182-.432-.174L36.047,6.4l-.44-.157-.444-.148-.448-.139-.452-.13L33.805,5.7l-.46-.112-.463-.1-.467-.094-.47-.084-.473-.075L31,5.167l-.479-.055-.482-.046-.485-.036-.488-.026L28.57,4.99l-.493-.005v-.3l.5.005.5.016.494.026.492.036.489.046.486.056.483.066L32,5.011l.476.085.473.095.469.1.466.114.462.123.458.132.454.141.45.15.446.159.442.168.438.176.433.185.429.193.424.2.419.21.414.218.41.226.4.234.4.242.394.249.389.257.383.264.378.272.372.279.015.226Zm-.015-.226a.15.15,0,1,1-.183.239l.183-.239Zm-.627.443.43-.43.213.213-.429.43-.2.013-.015-.226Zm.213.213a.15.15,0,1,1-.213-.213ZM28.077,5.586v-.3h0l.484.005.481.015.479.025L30,5.365l.473.044.471.054.468.064.465.073.461.082.458.091.455.1.451.11.448.119.444.127.44.136.437.145.433.153.429.162.424.17.42.178.416.186L38,7.555l.407.2.4.21.4.218.393.225.388.233.383.24.377.248.372.255.367.262.361.269-.182.24-.357-.265-.362-.258-.367-.251-.372-.244L39.832,8.9l-.383-.23-.387-.222-.392-.215-.4-.207-.4-.2-.406-.192-.41-.184-.415-.176-.419-.168L35.8,6.947,35.372,6.8l-.431-.143-.435-.134-.438-.126-.442-.117-.445-.108-.449-.1-.452-.09L31.824,5.9l-.458-.072L30.9,5.762l-.464-.053-.467-.044-.47-.034-.473-.025-.475-.015-.478,0h0Zm0,0a.15.15,0,1,1,0-.3ZM14.289,10.143,14.5,9.93l-.2-.013.361-.269.367-.262.372-.255.377-.248.383-.24.388-.233.393-.225.4-.218.4-.21.407-.2.411-.194.416-.186L19.4,7l.424-.17.429-.162.433-.153.437-.145.441-.136.444-.127.448-.119.451-.11.455-.1.458-.092L24.28,5.6l.465-.073.468-.064.471-.054.474-.044.476-.035.479-.025.481-.015.484-.005v.3l-.478,0-.475.015-.473.025-.47.034-.467.044-.464.053-.461.063L24.33,5.9l-.455.081-.452.09-.449.1-.445.108-.442.117-.438.126-.435.134-.431.143-.427.151-.423.159-.419.168L19.1,7.45l-.41.184-.406.192-.4.2-.4.207-.392.215-.387.222-.383.23-.378.237-.372.244-.367.251-.362.258-.357.265-.2-.013Zm.2.013a.15.15,0,0,1-.182-.24l.182.24ZM14.073,9.5l.429.429-.213.213-.429-.429.015-.226.2.013Zm-.213.213a.15.15,0,0,1,.213-.213ZM28.077,4.684v.3h0l-.493.005-.491.015-.488.026-.485.036-.482.046-.479.055-.476.065-.473.075-.47.084-.467.094-.463.1-.46.112-.456.121-.452.13-.448.139-.444.148-.44.157-.436.165-.432.174-.428.182-.423.191-.419.2-.414.207-.409.215-.4.223-.4.231-.394.238-.389.246-.384.253-.378.261-.373.268-.367.275-.183-.239.372-.279.378-.272.383-.264.389-.257.394-.249.4-.242.4-.234L17,7.466l.414-.218.419-.21.424-.2.429-.193.433-.185.438-.176L20,6.115l.446-.159.45-.15.454-.141.458-.132.462-.123L22.74,5.3l.469-.1.473-.095.476-.085.479-.076.483-.066.486-.056.489-.046.492-.036.494-.026.5-.016.5-.005h0Zm0,0a.15.15,0,0,1,0,.3v-.3ZM51.47,28.076h-.3l-.005-.493-.015-.491-.026-.488-.036-.485-.046-.482-.055-.479-.065-.476-.075-.473-.084-.47-.094-.467-.1-.463-.112-.46-.121-.456-.13-.452-.139-.448-.148-.445-.157-.44-.165-.436-.174-.432-.182-.428-.191-.423-.2-.419-.207-.414-.215-.409-.223-.4-.231-.4-.238-.394-.246-.389-.253-.384-.261-.378-.268-.373-.275-.367.239-.183.279.372.272.378.264.383.257.389.249.394.242.4.234.4.226.41.218.414.21.419.2.424.193.429.185.433.176.438.168.442.159.446.15.45.141.454.132.458.123.462.114.466.1.469.095.473.085.476.076.479.066.483.056.486.046.489.036.492.026.494.016.5.005.5h0Zm0,0a.15.15,0,1,1-.3,0h.3ZM46.441,42.294l.213-.213-.226.015.275-.367.268-.373.261-.378.253-.384.246-.389.238-.394.231-.4.223-.4.215-.409.207-.414.2-.419.191-.423.182-.428.174-.432.165-.436.157-.44.148-.445.139-.448.13-.452.121-.456.112-.46.1-.463.094-.467.084-.47.075-.473L50.986,31l.055-.479.046-.482.036-.485.026-.488.015-.491.005-.493h.3l-.005.5-.016.5-.026.494-.036.492-.046.489-.056.486-.066.483-.076.479-.085.476-.095.473-.1.469-.114.466-.123.462-.132.458-.141.454-.15.45-.159.446-.168.442-.176.438-.185.433-.193.429-.2.424-.21.419-.218.414-.226.41-.234.4-.242.4-.249.394-.257.389-.264.383-.272.378-.279.372-.226.015Zm.226-.015a.15.15,0,1,1-.239-.183l.239.183Zm-.443-.627.43.43-.213.213-.43-.43-.013-.2.226-.015Zm-.213.213a.15.15,0,0,1,.213-.213Zm4.556-13.788h.3l-.005.484-.015.481-.025.479L50.788,30l-.044.473-.054.471-.064.468-.073.465-.082.461-.092.458-.1.455-.11.451-.119.448-.127.444-.136.441-.145.437-.153.433-.162.429-.17.424-.178.42-.186.416L48.6,38l-.2.407-.21.4-.218.4-.225.393-.233.388-.24.383-.248.377-.255.372-.262.367-.269.361L46,41.667l.265-.357.258-.362.251-.367.244-.372.237-.378.23-.383.222-.387.215-.392.207-.4.2-.4.192-.406.184-.41.176-.415.168-.419.159-.423.151-.427.143-.431.134-.435.126-.438.117-.442.108-.445.1-.449.09-.452.081-.455.072-.458.063-.462.053-.464.044-.467.034-.47.025-.473.015-.475,0-.478h0Zm0,0a.15.15,0,1,1,.3,0ZM46.011,14.289l.213.213.013-.2.269.361.262.367.255.372.248.377.24.383.233.388.225.393.218.4.21.4.2.407.194.411.186.416.178.42.17.424.162.429.153.433.145.437.136.441.127.444.119.448.11.451.1.455.091.458.082.461.073.465.064.468.054.471.044.474.035.476.025.479.015.481.005.484h-.3l0-.478-.015-.475-.025-.473-.034-.47-.044-.467-.053-.464-.063-.462-.072-.458-.081-.455-.09-.452-.1-.449-.108-.445-.117-.442-.126-.438-.134-.435-.143-.431-.151-.427-.159-.423-.168-.419L48.7,19.1l-.184-.41-.192-.406-.2-.4-.207-.4-.215-.392-.222-.387-.23-.383-.237-.377-.244-.372-.251-.367-.258-.362L46,14.486l.013-.2Zm-.013.2a.15.15,0,1,1,.24-.182l-.24.182Zm.656-.414-.429.43-.213-.213.43-.43.226.015-.013.2Zm-.213-.213a.15.15,0,1,1,.213.213ZM4.685,28.076h.3l.005.493.015.491.026.488.036.485.046.482L5.168,31l.065.476.075.473.084.47.094.467.1.463.112.46.121.456.13.452.139.448.148.444.157.44.166.436.174.432.182.428.191.423.2.419.207.414.215.409.223.4.231.4.238.394.246.389.253.384.261.378.268.373.275.367-.239.183-.279-.372-.272-.378-.264-.383-.257-.389-.249-.394-.242-.4-.234-.4-.226-.41-.218-.414-.21-.419-.2-.424-.193-.429-.185-.433-.176-.438-.168-.442L5.956,35.7l-.15-.45L5.665,34.8l-.132-.458-.123-.462L5.3,33.413l-.1-.469L5.1,32.471,5.011,32l-.076-.479-.066-.483-.056-.486-.046-.489-.036-.492-.026-.494-.016-.5-.005-.5h0Zm0,0a.15.15,0,1,1,.3,0h-.3Zm5.03-14.217-.213.213.226-.015-.275.367-.268.373-.261.378-.253.384-.246.389-.238.394-.231.4-.223.4-.215.409-.207.414-.2.419-.191.423-.182.428-.174.432-.165.436-.157.44-.148.445-.139.448-.13.452-.121.456-.112.46-.1.463-.094.467-.084.47-.075.473-.065.476-.055.479-.046.482-.036.485-.026.488-.015.491-.005.493h-.3l.005-.5.016-.5.026-.494.036-.492.046-.489.056-.486.066-.483.076-.479.085-.476.095-.473.1-.469.114-.466.123-.462.132-.458.141-.454.15-.45L6.115,20l.168-.442.176-.438.185-.433.193-.429.2-.424.21-.419L7.466,17l.226-.41.234-.4.242-.4.249-.394.257-.389.264-.383.272-.378.279-.372.226-.015Zm-.226.015a.15.15,0,0,1,.239.183l-.239-.183Zm.443.627L9.5,14.072l.213-.213.429.429.013.2-.226.015Zm.213-.213a.15.15,0,0,1-.213.213ZM5.587,28.076h-.3l.005-.484.015-.481.025-.479.035-.476.044-.473.054-.471.064-.468.073-.465.082-.461.091-.458.1-.455.11-.451.119-.448.127-.444.136-.441.145-.437.153-.433.162-.429L7,19.4l.178-.42.186-.416.194-.411.2-.407.21-.4.218-.4.225-.393.233-.388.24-.383.248-.377.255-.372.262-.367.269-.361.24.182-.265.357-.258.362-.251.367-.244.372-.237.378-.23.383-.222.387-.215.392-.207.4-.2.4-.192.406-.184.41-.176.415-.168.419-.159.423-.151.427-.143.431-.134.435-.126.438-.117.442-.108.445-.1.449-.09.452-.081.455-.072.458-.063.461-.053.464-.044.467-.034.47-.025.473-.015.475,0,.478h0Zm0,0a.15.15,0,1,1-.3,0Zm4.556,13.788-.213-.213-.013.2-.269-.361-.262-.367-.255-.372-.248-.377-.24-.383L8.411,39.6l-.225-.393-.218-.4-.21-.4L7.556,38l-.194-.411-.186-.416L7,36.754l-.17-.424L6.665,35.9l-.153-.433-.145-.437-.136-.44L6.1,34.147,5.985,33.7l-.11-.451-.1-.455-.091-.458L5.6,31.873l-.073-.465-.064-.468-.054-.471L5.366,30l-.035-.476-.025-.479-.015-.481-.005-.484h.3l0,.478.015.475.025.473.034.47.044.467.053.464.063.461.072.458.081.455.09.452.1.449.108.445.117.442.126.438.134.435.143.431.151.427.159.423.168.419.176.415.184.41.192.406.2.4.207.4.215.392.222.387.23.383.237.378.244.372.251.367.258.362.265.357-.013.2Zm.013-.2a.15.15,0,1,1-.24.182l.24-.182Zm-.656.414.43-.43.213.213-.43.43-.226-.015.013-.2Zm.213.213a.15.15,0,1,1-.213-.213Zm29.1-29.1-.213-.213.019.229-.281-.2-.285-.19-.288-.185-.292-.18-.3-.174-.3-.169-.3-.163-.306-.158-.309-.152-.313-.147-.316-.141-.319-.135-.322-.129-.325-.123-.328-.117-.331-.111-.334-.1-.336-.1-.339-.092-.342-.086-.344-.079-.347-.073-.349-.066-.351-.059-.354-.053-.356-.046L29.9,9.948l-.36-.032-.362-.025-.364-.018-.366-.011-.367,0v-.3l.373,0,.372.011.37.018.368.025.366.033.364.04.362.047.359.054.357.06.355.067.352.074.35.081.347.087.345.094.342.1.339.106.336.113.333.119.33.125.327.131.324.137.321.143.318.149.315.155.311.161.308.166.3.172.3.177.3.183.293.188.289.194.286.2.019.229Zm-.019-.229a.15.15,0,0,1-.174.245Zm-.625.448.432-.432.213.213-.432.432-.193.017-.02-.23Zm.213.213a.15.15,0,1,1-.213-.213Zm-10.3-3.17v-.3h0l.358,0,.356.01.354.017.352.024.351.031.349.038.347.044.344.051.342.057.34.064.338.07.335.076.333.083.331.089.328.1.325.1.323.107.32.113.317.119.314.125.311.13.308.136.305.142.3.147.3.153.3.158.292.163.289.169.285.174.282.179.278.184.275.189-.173.246-.27-.186-.274-.181-.277-.176-.281-.171-.284-.166-.287-.161-.291-.155-.294-.15-.3-.145-.3-.139-.3-.134-.306-.128-.309-.123-.312-.117-.315-.111-.317-.105-.32-.1-.322-.093-.325-.087-.327-.081-.33-.075-.332-.069-.334-.063-.337-.056-.339-.05-.341-.044-.343-.037-.345-.03-.347-.024-.348-.017-.35-.01-.352,0h0Zm0,0a.15.15,0,1,1,0-.3v.3Zm-10.3,3.17.213-.213L17.8,13.4l.275-.189.278-.184.282-.179.285-.174.289-.169.292-.163.3-.158.3-.153.3-.147.305-.142.308-.136.311-.13.314-.125.317-.119.32-.113.323-.107.325-.1.328-.1.331-.089.333-.083.335-.076.338-.07.34-.064.342-.057.345-.051.347-.044.349-.038.351-.031.352-.024.354-.017.356-.01.358,0v.3l-.352,0-.35.01-.348.017-.347.024-.345.03-.343.037-.341.044-.339.05-.336.056-.334.063-.332.069-.33.075-.327.081-.325.087-.322.093-.32.1-.317.105-.314.111-.312.117-.309.122-.306.128-.3.134-.3.139-.3.145-.294.15-.291.155-.287.161-.284.166-.281.171-.277.176-.274.181-.27.186-.193-.017Zm.193.017A.15.15,0,1,1,17.8,13.4Zm-.412-.661.432.432-.213.213-.432-.432.019-.229.194.016Zm-.213.213a.15.15,0,0,1,.213-.213ZM28.077,9.558v.3h0l-.367,0-.366.011-.364.018-.362.025-.36.032-.358.039-.356.046-.353.053-.351.059-.349.066-.347.073-.344.079-.342.086-.339.092-.336.1-.334.1-.331.111-.328.117-.325.123-.322.129-.319.135-.316.141-.313.147-.309.152-.306.158-.3.164-.3.169-.3.175-.292.18-.288.185-.285.19-.281.2-.174-.245.286-.2.289-.194.293-.188.3-.183.3-.177.3-.172.308-.166.311-.161.314-.155.318-.149.321-.143.324-.137.327-.131.33-.125.333-.119.336-.113.339-.106.342-.1.345-.094.347-.087.35-.081.352-.074.355-.067.357-.06.359-.054.362-.047.364-.04.366-.033.368-.025.37-.018.372-.011.373,0h0Zm0,0a.15.15,0,0,1,0,.3v-.3ZM46.6,28.077h-.3l0-.367-.011-.366-.018-.364-.025-.362-.032-.36-.039-.358-.046-.356-.053-.354-.059-.351-.066-.349-.073-.347L45.79,23.8l-.086-.342-.092-.339-.1-.336-.1-.334-.111-.331-.117-.328-.123-.325-.129-.322-.135-.319-.141-.316-.147-.313-.152-.309-.158-.306-.163-.3-.169-.3-.174-.3-.18-.292-.185-.288-.19-.285-.2-.281.245-.174.2.286.194.289.188.293.183.3.177.3.172.3.166.308.161.311.155.315.149.318.143.321.137.324.131.327.125.33.119.333.113.336.106.339.1.342.094.345.087.347.081.35.074.352.067.355.06.357.054.359.047.362.04.364.033.366.025.368.018.37.011.372,0,.373h0Zm0,0a.15.15,0,1,1-.3,0ZM42.955,38.809l.213-.213-.229.019.2-.281.19-.285.185-.288.18-.292.174-.3.169-.3.164-.3.158-.306.152-.309.147-.313.141-.316.135-.319.129-.322.123-.325.117-.328.111-.331.1-.334.1-.336.092-.339.086-.342.079-.344.073-.347.066-.349.059-.351.053-.354.046-.356.039-.358.032-.36.025-.362.018-.364.011-.366,0-.367h.3l0,.373-.011.372-.018.37-.025.368-.033.366-.04.364-.047.362-.054.359-.06.357-.067.355-.074.352-.081.35L46,32.77l-.094.345-.1.342L45.7,33.8l-.113.336-.119.333-.125.33-.131.327-.137.324-.143.321-.149.318-.155.314-.161.311-.166.308-.172.3-.177.3-.183.3-.188.293-.194.289-.2.286-.229.019Zm.229-.019a.15.15,0,0,1-.245-.174l.245.174Zm-.448-.625.432.432-.213.213-.432-.432-.017-.193.23-.02Zm-.213.213a.15.15,0,0,1,.213-.213Zm3.17-10.3h.3l0,.358-.01.356-.017.354-.024.352-.031.351-.038.349-.044.347-.051.344-.057.342-.064.34-.07.338-.076.335-.083.333-.089.331-.1.328-.1.325-.107.323-.113.32-.119.317-.125.314-.13.311-.136.308-.142.305-.147.3-.153.3-.158.3-.163.292-.169.289-.174.285-.179.282-.184.278-.189.275-.246-.173.186-.27.181-.274.176-.277.171-.281.166-.284.161-.287.155-.291.15-.294.145-.3.139-.3.134-.3.128-.306.122-.309.117-.312.111-.314.105-.317.1-.32.093-.322.087-.325.081-.327.075-.33.069-.332.063-.334.056-.337.05-.339.044-.341.037-.343.03-.345.024-.347.017-.348.01-.35,0-.352h0Zm0,0a.15.15,0,0,1,.3,0Zm-3.17-10.3.213.213.017-.193.189.275.184.278.179.282.174.285.169.289.163.292.158.3.153.3.147.3.142.305.136.308.13.311.125.314.119.317.113.32.107.323.1.325.1.328.089.331.083.333.076.335.07.338.064.34.057.342.051.345.044.347.038.349.031.35.024.352.017.354.01.356,0,.358h-.3l0-.352-.01-.35-.017-.348-.024-.347-.03-.345-.037-.343-.044-.341-.05-.339-.056-.336-.063-.334-.069-.332-.075-.33-.081-.327-.087-.325-.093-.322-.1-.32-.105-.317-.111-.315-.117-.312-.123-.309-.128-.306-.134-.3-.139-.3-.145-.3-.15-.294-.155-.291-.161-.287-.166-.284-.171-.281-.176-.277-.181-.274-.186-.27.017-.193Zm-.017.193a.15.15,0,0,1,.246-.173Zm.661-.412-.432.432-.213-.213.432-.432.229.019-.016.194Zm-.213-.213a.15.15,0,1,1,.213.213ZM9.559,28.077h.3l0,.367.011.366.018.364.025.362.032.36.039.358.046.356.053.353.059.351.066.349.073.347.079.344.086.342.092.339.1.336.1.334.111.331.117.328.123.325.129.322.135.319.141.316.147.313.152.309.158.306.163.3.169.3.174.3.18.292.185.288.19.285.2.281-.245.174-.2-.286-.194-.289-.188-.293-.183-.3-.177-.3-.172-.3-.166-.308-.161-.311-.155-.314-.149-.318-.143-.321-.137-.324-.131-.327-.125-.33-.119-.333-.113-.336-.106-.339-.1-.342-.094-.345-.087-.347-.081-.35-.074-.352-.067-.355-.06-.357-.054-.359-.047-.362-.04-.364-.033-.366-.025-.368-.018-.37-.011-.372,0-.373h0Zm0,0a.15.15,0,1,1,.3,0h-.3ZM13.2,17.344l-.213.213.229-.019-.2.281-.19.285-.185.288-.18.292-.174.3-.169.3-.163.3-.158.306-.152.309-.147.313-.141.316-.135.319-.129.322-.123.325-.117.328-.111.331-.1.334-.1.336-.092.339-.086.342-.079.344-.073.347-.066.349-.059.351-.053.354-.046.356-.039.358-.032.36-.025.362-.018.364-.011.366,0,.367h-.3l0-.373.011-.372.018-.37.025-.368.033-.366.04-.364.047-.362.054-.359.06-.357.067-.355.074-.352.081-.35.087-.347.094-.345.1-.342.106-.339.113-.336.119-.333.125-.33.131-.327.137-.324.143-.321.149-.318.155-.314.161-.311.166-.308.172-.3.177-.3.183-.3.188-.293.194-.289.2-.286.229-.019Zm-.229.019a.15.15,0,0,1,.245.174Zm.448.625-.432-.432.213-.213.432.432.017.193-.23.02Zm.213-.213a.15.15,0,1,1-.213.213Zm-3.17,10.3h-.3l0-.358.01-.356.017-.354.024-.352.031-.351.038-.349.044-.347.051-.344.057-.342.064-.34.07-.338.077-.335.083-.333.089-.331.1-.328.1-.325.107-.323.113-.32.119-.317.125-.314.13-.311.136-.308.142-.305.147-.3.153-.3.158-.3.163-.292.169-.289.174-.285.179-.282.184-.278L13.4,17.8l.246.173-.186.27-.181.274-.176.277-.171.281-.166.284-.161.287-.155.291-.15.294-.145.3-.139.3-.134.3-.128.306-.122.309-.117.312-.111.315-.105.317-.1.32-.093.322-.087.325-.081.327-.075.33-.069.332-.063.334-.056.337-.05.339-.044.341-.037.343-.03.345-.024.347-.017.348-.01.35,0,.352h0Zm0,0a.15.15,0,0,1-.3,0h.3Zm3.17,10.3-.213-.213-.017.193-.189-.275-.184-.278-.179-.282-.174-.285-.169-.289-.163-.292-.158-.3-.153-.3-.147-.3-.142-.305-.136-.308-.13-.311-.125-.314-.119-.317-.113-.32-.107-.323-.1-.325-.1-.328-.089-.331-.083-.333-.076-.335-.07-.338-.064-.34-.057-.342-.051-.344-.044-.347-.038-.349-.031-.351-.024-.352-.017-.354-.01-.356,0-.358h.3l0,.352.01.35.017.348.024.347.03.345.037.343.044.341.05.339.056.337.063.334.069.332.075.33.081.327.087.325.093.322.1.32.105.317.111.315.117.312.123.309.128.306.134.3.139.3.145.3.15.294.155.291.16.287.166.284.171.281.176.277.181.274.186.27-.017.193Zm.017-.193a.15.15,0,1,1-.246.173Zm-.661.412.432-.432.213.213-.432.432-.229-.019.016-.194Zm.213.213a.15.15,0,1,1-.213-.213Z" transform="translate(0.009 0.01)" fill="#2b2a29"/>
      </g>
      <path id="Path_27555" data-name="Path 27555" d="M2538.009,5365.956a6.377,6.377,0,0,1-.328-.622,2.123,2.123,0,0,1-.124-.813,2.3,2.3,0,0,1,.509-1.3c-.237-.113-.429-.282-.689-.44a10.723,10.723,0,0,0-2.271-1.062,11.194,11.194,0,0,0-3.831-.587,11.465,11.465,0,0,0-7.864,3.435,11.054,11.054,0,0,0,2.881,2.158,11.245,11.245,0,0,0,8.362.858A11.014,11.014,0,0,0,2538.009,5365.956Z" transform="translate(-2511.531 -5335.876)" fill="#056137" fill-rule="evenodd"/>
      <path id="Path_27556" data-name="Path 27556" d="M6295.761,5364.465a5.991,5.991,0,0,1,.361.622,2.258,2.258,0,0,1-.327,2.135c.52.282.746.52,1.547.9a10.956,10.956,0,0,0,6.339,1.062,11.156,11.156,0,0,0,3.819-1.209,10.117,10.117,0,0,0,2.881-2.159,11.254,11.254,0,0,0-3.288-2.339,10.821,10.821,0,0,0-4.576-1.074,10.48,10.48,0,0,0-3.842.565A11.765,11.765,0,0,0,6295.761,5364.465Z" transform="translate(-6266.107 -5337.109)" fill="#056137" fill-rule="evenodd"/>
      <path id="Path_27557" data-name="Path 27557" d="M4495.711,6678.879a6.863,6.863,0,0,0-2.9-.9c-2.7,0-4.011,2.282-1.57,3.321,1.57.678,3.017.147,4.418-.576.44-.226.813-.474,1.22-.689a5.641,5.641,0,0,1,.769.417c.26.147.486.283.757.407a9.29,9.29,0,0,0,1.718.656,3.5,3.5,0,0,0,3.514-1.04,1.258,1.258,0,0,0-.237-1.65,3.059,3.059,0,0,0-1.6-.768c-1.91-.362-3.13.7-3.717.824.1-.1.361-.44.486-.587.5-.576,2.361-2.689,2.587-3.118.407-.735-.1-1.152-.825-1.152H4493.5c-.734,0-1.209.384-.847,1.129a8.421,8.421,0,0,0,1.006,1.277c.418.52,1.762,2.011,2.056,2.452Z" transform="translate(-4468.803 -6642.586)" fill="#e14124" fill-rule="evenodd"/>
      <path id="Path_27558" data-name="Path 27558" d="M6001.546,3667.386l-.034.034-.6.587c-1.164,1.142-2.757,4.305-2.711,5.718a2.009,2.009,0,0,1,.791.226c.26.135.418.35.6.452a12.445,12.445,0,0,1,2.926-1.492,10.533,10.533,0,0,1,3.842-.565c.045-.1.9-1.119,1.209-1.582a3.487,3.487,0,1,0-2.7-5.548,10.419,10.419,0,0,0-1.8.961A7.488,7.488,0,0,0,6001.546,3667.386Z" transform="translate(-5969.949 -3647.036)" fill="#018d41" fill-rule="evenodd"/>
      <path id="Path_27559" data-name="Path 27559" d="M3524.222,3669.08a10.688,10.688,0,0,1,3.831.588,11.334,11.334,0,0,1,2.271,1.062c.259.158.452.316.689.44a2.164,2.164,0,0,1,1.378-.689,10.78,10.78,0,0,0-1.209-3.56,12.169,12.169,0,0,0-.949-1.469c-.373-.474-.746-.859-1.119-1.265a14.441,14.441,0,0,0-1.559-1.231,11.738,11.738,0,0,0-6.486-1.91,17.114,17.114,0,0,0,.271,2.5,11.444,11.444,0,0,0,2.553,5.141A3.38,3.38,0,0,1,3524.222,3669.08Z" transform="translate(-3504.489 -3643.804)" fill="#018d41" fill-rule="evenodd"/>
      <path id="Path_27560" data-name="Path 27560" d="M5229.133,2656.914c-.1.5-.271.983-.373,1.525-.113.6-.113,1.107-.181,1.717.373.407.757.791,1.119,1.265a10.3,10.3,0,0,1,.949,1.469,11.159,11.159,0,0,1,1.209,3.559h.35c-.045-1.412,1.548-4.576,2.711-5.717l.6-.587.034-.034c-.057-.034-.079.056-.1-.294a10.716,10.716,0,0,0-1.073-4.249,10.977,10.977,0,0,0-2.35-3.3,11.249,11.249,0,0,0-2.351,3.311C5229.483,2656,5229.314,2656.586,5229.133,2656.914Z" transform="translate(-5203.954 -2639.784)" fill="#95be32" fill-rule="evenodd"/>
      <path id="Path_27561" data-name="Path 27561" d="M5526.1,5665.068a2.3,2.3,0,0,0-.508,1.3,2.179,2.179,0,0,0,.124.813c.1.26.226.4.328.622a7.793,7.793,0,0,0,.622.474,2.085,2.085,0,0,0,1.9.045,5.242,5.242,0,0,0,.689-.5,2.241,2.241,0,0,0,.328-2.135,5.991,5.991,0,0,0-.361-.622c-.181-.1-.339-.316-.6-.452a2.013,2.013,0,0,0-.791-.226h-.35A2.161,2.161,0,0,0,5526.1,5665.068Z" transform="translate(-5499.57 -5637.712)" fill="#e14124" fill-rule="evenodd"/>
      <path id="Path_27562" data-name="Path 27562" d="M3709.36,8487.451h.434l-.019-.063c-.052-.175-.094-.324-.127-.447s-.053-.2-.061-.238l-.01-.054a7.63,7.63,0,0,1-.2.739Zm.642.7-.11-.369h-.632l-.11.369h-.431l.6-1.8h.52l.6,1.8Zm1.041-.021-.525-1.336h.426l.147.423q.056.164.092.281c.024.078.039.13.044.155l.008.037c.02-.07.068-.229.144-.474l.134-.423h.4l-.49,1.316q-.211.571-.645.57a.778.778,0,0,1-.15-.013v-.311a.389.389,0,0,0,.091.011A.336.336,0,0,0,3711.043,8488.132Zm1.887-1.336h.391v1.357h-.391v-.218a.413.413,0,0,1-.412.229.441.441,0,0,1-.325-.117.465.465,0,0,1-.116-.344v-.907h.391v.819c0,.157.07.238.209.238q.253,0,.254-.341Zm1.569.04v.335a.643.643,0,0,0-.332-.084.164.164,0,0,0-.107.029.082.082,0,0,0-.038.07.088.088,0,0,0,.014.046.15.15,0,0,0,.044.04l.059.033a.711.711,0,0,0,.078.036c.033.015.06.026.079.037a.678.678,0,0,1,.2.148.313.313,0,0,1,.075.216.368.368,0,0,1-.145.311.623.623,0,0,1-.383.11.915.915,0,0,1-.412-.084v-.347a.677.677,0,0,0,.391.127c.1,0,.147-.03.147-.094a.092.092,0,0,0-.013-.046.139.139,0,0,0-.046-.039c-.021-.012-.041-.023-.059-.031l-.077-.032c-.034-.016-.06-.026-.078-.036a.41.41,0,0,1-.27-.385.357.357,0,0,1,.151-.308.622.622,0,0,1,.376-.11A.941.941,0,0,1,3714.5,8486.836Zm.7-.575v.765a.4.4,0,0,1,.406-.243.437.437,0,0,1,.323.125.526.526,0,0,1,.125.381v.865h-.391v-.8a.269.269,0,0,0-.059-.185.2.2,0,0,0-.152-.067.217.217,0,0,0-.076.013.291.291,0,0,0-.079.043.217.217,0,0,0-.07.1.532.532,0,0,0-.026.179v.718h-.391v-1.893Zm1.552.535v.211a.394.394,0,0,1,.383-.225.37.37,0,0,1,.381.256.377.377,0,0,1,.152-.188.463.463,0,0,1,.252-.067.409.409,0,0,1,.317.127.537.537,0,0,1,.116.373v.871h-.391v-.808a.319.319,0,0,0-.045-.181.15.15,0,0,0-.131-.067.217.217,0,0,0-.162.074.379.379,0,0,0-.071.264v.718h-.391v-.808a.319.319,0,0,0-.045-.181.152.152,0,0,0-.132-.067.217.217,0,0,0-.162.074.377.377,0,0,0-.071.264v.718h-.391V8486.8Zm2.58.8h-.126a.234.234,0,0,0-.152.044.131.131,0,0,0-.054.109c0,.09.053.136.158.136a.162.162,0,0,0,.129-.051.2.2,0,0,0,.046-.139Zm-.635-.383v-.351a.969.969,0,0,1,.463-.09.638.638,0,0,1,.43.123.489.489,0,0,1,.142.387v.871h-.383v-.166a.34.34,0,0,1-.337.173.413.413,0,0,1-.309-.111.387.387,0,0,1-.111-.282.36.36,0,0,1,.143-.3.7.7,0,0,1,.424-.108h.171v-.093c0-.114-.076-.172-.228-.172A.735.735,0,0,0,3718.7,8487.213Zm1.735-.417v.229a.4.4,0,0,1,.156-.178.477.477,0,0,1,.253-.065.431.431,0,0,1,.326.124.514.514,0,0,1,.118.366v.881h-.391v-.81a.269.269,0,0,0-.056-.183.2.2,0,0,0-.158-.063.22.22,0,0,0-.178.086.378.378,0,0,0-.071.252v.718h-.391V8486.8Zm2.256,1.027h.217c.2,0,.305-.068.305-.208s-.1-.21-.3-.21h-.219Zm0-1.145v.4h.152a.407.407,0,0,0,.242-.06.181.181,0,0,0,.082-.154c0-.127-.086-.189-.257-.189Zm-.412-.33h.7a.651.651,0,0,1,.452.141.46.46,0,0,1,.155.356.425.425,0,0,1-.075.25.373.373,0,0,1-.2.146.4.4,0,0,1,.314.422.451.451,0,0,1-.154.352.6.6,0,0,1-.419.139h-.779Zm2-.088v.765a.4.4,0,0,1,.407-.243.436.436,0,0,1,.323.125.526.526,0,0,1,.125.381v.865h-.391v-.8a.269.269,0,0,0-.059-.185.2.2,0,0,0-.153-.067.223.223,0,0,0-.076.013.308.308,0,0,0-.079.043.217.217,0,0,0-.069.1.532.532,0,0,0-.027.179v.718h-.391v-1.893Zm1.833,1.335h-.126a.237.237,0,0,0-.153.044.133.133,0,0,0-.053.109c0,.09.052.136.158.136a.162.162,0,0,0,.128-.051.2.2,0,0,0,.046-.139Zm-.635-.383v-.351a.968.968,0,0,1,.463-.09.639.639,0,0,1,.431.123.489.489,0,0,1,.142.387v.871h-.382v-.166a.34.34,0,0,1-.338.173.412.412,0,0,1-.309-.111.385.385,0,0,1-.111-.282.361.361,0,0,1,.143-.3.7.7,0,0,1,.424-.108h.172v-.093c0-.114-.076-.172-.228-.172A.735.735,0,0,0,3725.473,8487.213Zm1.732-.417v.252a.393.393,0,0,1,.125-.19.317.317,0,0,1,.2-.07.354.354,0,0,1,.1.012v.368a.351.351,0,0,0-.147-.029.257.257,0,0,0-.2.093.369.369,0,0,0-.077.244v.679h-.391l0-1.357Zm1.274.8h-.125a.235.235,0,0,0-.153.044.132.132,0,0,0-.053.109c0,.09.052.136.158.136a.162.162,0,0,0,.128-.051.2.2,0,0,0,.046-.139Zm-.635-.383v-.351a.969.969,0,0,1,.463-.09.637.637,0,0,1,.431.123.489.489,0,0,1,.142.387v.871h-.383v-.166a.338.338,0,0,1-.337.173.413.413,0,0,1-.309-.111.385.385,0,0,1-.111-.282.361.361,0,0,1,.143-.3.7.7,0,0,1,.424-.108h.171v-.093c0-.114-.076-.172-.228-.172A.735.735,0,0,0,3727.844,8487.213Zm1.8-.131v.624a.134.134,0,0,0,.041.108.155.155,0,0,0,.109.039.347.347,0,0,0,.19-.054v.324a.713.713,0,0,1-.268.042.409.409,0,0,1-.463-.463v-.621h-.2v-.286h.2v-.321h.391v.321h.315v.286Z" transform="translate(-3691.255 -8446.288)" fill="#2b2a29"/>
      <path id="Path_27563" data-name="Path 27563" d="M2636.715,9064.835h.343a.883.883,0,0,0,.7-.284,1.188,1.188,0,0,0,.248-.8,1,1,0,0,0-.25-.709.924.924,0,0,0-.706-.266h-.338Zm-.775-2.687h1.137a1.686,1.686,0,0,1,1.221.458,1.519,1.519,0,0,1,.476,1.14,1.665,1.665,0,0,1-.469,1.251,1.7,1.7,0,0,1-1.238.456h-1.128Zm3.349,3.3v-2.486h.716v2.486Zm.063-2.913a.414.414,0,1,1,.294.123A.4.4,0,0,1,2639.353,9062.54Zm2.369,2.261a.422.422,0,0,0,.36-.174.684.684,0,0,0,.13-.419c0-.444-.162-.668-.485-.668a.4.4,0,0,0-.338.168.761.761,0,0,0-.123.46.8.8,0,0,0,.118.472A.393.393,0,0,0,2641.722,9064.8Zm.49-1.834h.711v2.246a1.115,1.115,0,0,1-.358.9,1.349,1.349,0,0,1-.9.3,2.118,2.118,0,0,1-.917-.187v-.729a1.309,1.309,0,0,0,.843.273.68.68,0,0,0,.471-.137.568.568,0,0,0,.147-.433v-.166a.758.758,0,0,1-.686.334.958.958,0,0,1-.709-.3,1.248,1.248,0,0,1-.3-.9,1.321,1.321,0,0,1,.287-.874.929.929,0,0,1,.753-.347.707.707,0,0,1,.652.353Zm1.3,2.486v-2.486h.716v2.486Zm.063-2.913a.413.413,0,1,1,.294.123A.4.4,0,0,1,2643.575,9062.54Zm2.094.951v1.144a.258.258,0,0,0,.076.2.284.284,0,0,0,.2.069.62.62,0,0,0,.348-.1v.594a1.233,1.233,0,0,1-.49.079.75.75,0,0,1-.848-.849v-1.138h-.358v-.524h.358v-.589h.716v.589h.579v.524Zm2.295.941h-.23a.441.441,0,0,0-.28.079.247.247,0,0,0-.1.2c0,.166.1.25.289.25a.3.3,0,0,0,.236-.093.373.373,0,0,0,.083-.256Zm-1.162-.7v-.642a1.733,1.733,0,0,1,.848-.168,1.165,1.165,0,0,1,.79.229.892.892,0,0,1,.26.707v1.595h-.7v-.3a.622.622,0,0,1-.618.319.763.763,0,0,1-.566-.206.7.7,0,0,1-.2-.515.657.657,0,0,1,.262-.557,1.273,1.273,0,0,1,.777-.2h.314v-.171q0-.315-.417-.314A1.331,1.331,0,0,0,2646.8,9063.731Zm2.486,1.722v-3.467H2650v3.467Zm2.506,0,.284-3.3h.829l.461,1.2c.078.2.146.383.2.549s.092.284.108.353l.025.1a8.7,8.7,0,0,1,.343-1l.466-1.2h.829l.343,3.3h-.755l-.123-1.28-.063-.965q-.128.366-.353.965l-.466,1.245h-.446l-.461-1.245q-.112-.3-.191-.544t-.1-.334l-.025-.087c0,.23-.015.554-.044.965l-.1,1.28Zm4.452,0v-2.486h.716v2.486Zm.064-2.913a.414.414,0,1,1,.294.123A.4.4,0,0,1,2656.309,9062.54Zm2.834.5v.614a1.163,1.163,0,0,0-.608-.153.33.33,0,0,0-.2.052.156.156,0,0,0-.044.214.245.245,0,0,0,.081.073c.038.022.074.044.108.062s.082.04.142.065.109.05.145.068a1.272,1.272,0,0,1,.363.272.57.57,0,0,1,.137.395.672.672,0,0,1-.265.569,1.133,1.133,0,0,1-.7.2,1.691,1.691,0,0,1-.755-.15v-.637a1.243,1.243,0,0,0,.716.233c.18,0,.27-.058.27-.171a.162.162,0,0,0-.024-.084.238.238,0,0,0-.083-.073,1.21,1.21,0,0,0-.108-.057l-.142-.062c-.062-.025-.109-.048-.142-.063a.753.753,0,0,1-.5-.706.657.657,0,0,1,.277-.563,1.144,1.144,0,0,1,.689-.2A1.718,1.718,0,0,1,2659.144,9063.04Zm2.138,0v.614a1.161,1.161,0,0,0-.608-.153.33.33,0,0,0-.2.052.156.156,0,0,0-.044.214.245.245,0,0,0,.081.073c.038.022.074.044.108.062s.082.04.142.065.108.05.144.068a1.278,1.278,0,0,1,.363.272.571.571,0,0,1,.137.395.672.672,0,0,1-.265.569,1.132,1.132,0,0,1-.7.2,1.688,1.688,0,0,1-.755-.15v-.637a1.241,1.241,0,0,0,.716.233c.179,0,.27-.058.27-.171a.16.16,0,0,0-.024-.084.238.238,0,0,0-.083-.073c-.039-.022-.075-.042-.108-.057l-.142-.062c-.062-.025-.11-.048-.142-.063a.753.753,0,0,1-.5-.706.658.658,0,0,1,.277-.563,1.144,1.144,0,0,1,.689-.2A1.717,1.717,0,0,1,2661.281,9063.04Zm.594,2.413v-2.486h.716v2.486Zm.064-2.913a.413.413,0,1,1,.294.123A.4.4,0,0,1,2661.938,9062.54Zm2.363,2.953a1.158,1.158,0,0,1-.9-.351,1.289,1.289,0,0,1-.319-.9,1.356,1.356,0,0,1,.333-.943,1.277,1.277,0,0,1,1.785-.013,1.324,1.324,0,0,1,.319.913,1.354,1.354,0,0,1-.321.929A1.128,1.128,0,0,1,2664.3,9065.493Zm0-2a.383.383,0,0,0-.353.2,1.2,1.2,0,0,0,0,1.041.391.391,0,0,0,.36.2.376.376,0,0,0,.351-.2,1.023,1.023,0,0,0,.115-.518Q2664.772,9063.492,2664.3,9063.491Zm2.4-.524v.422a.729.729,0,0,1,.287-.326.861.861,0,0,1,.463-.12.79.79,0,0,1,.6.228.942.942,0,0,1,.216.67v1.613h-.716v-1.481a.488.488,0,0,0-.1-.335.364.364,0,0,0-.289-.115.41.41,0,0,0-.326.154.7.7,0,0,0-.13.463v1.314h-.716v-2.486Z" transform="translate(-2623.53 -9019.144)" fill="#e14124"/>
      <path id="Path_27564" data-name="Path 27564" d="M1257.387,10508.683v0a.412.412,0,0,0-.09-.283.6.6,0,0,0-.247-.162.572.572,0,0,0,.091-.062.4.4,0,0,0,.074-.083.431.431,0,0,0,.051-.108.443.443,0,0,0,.019-.138v0a.412.412,0,0,0-.159-.342.687.687,0,0,0-.438-.127h-.84v1.812h.86a1.218,1.218,0,0,0,.278-.031.647.647,0,0,0,.214-.094.423.423,0,0,0,.137-.154.474.474,0,0,0,.048-.219Zm-.494-.772a.155.155,0,0,1-.078.146.4.4,0,0,1-.21.046h-.368v-.383h.393a.338.338,0,0,1,.194.047.163.163,0,0,1,.067.14Zm.1.724a.164.164,0,0,1-.075.149.38.38,0,0,1-.207.049h-.474v-.4h.461a.371.371,0,0,1,.225.053.17.17,0,0,1,.07.144v0Zm1.943.547v-1.387h-.393v.771a.3.3,0,0,1-.066.21.234.234,0,0,1-.18.07.222.222,0,0,1-.176-.07.31.31,0,0,1-.062-.21v-.771h-.393v.9a.542.542,0,0,0,.123.378.442.442,0,0,0,.348.138.413.413,0,0,0,.135-.019.52.52,0,0,0,.109-.048.537.537,0,0,0,.089-.074.667.667,0,0,0,.074-.084v.2Zm.774-1.54v-.349h-.414v.349Zm-.01,1.54v-1.387h-.393v1.387Zm.781,0v-1.889h-.393v1.889Zm1.765,0v-1.889h-.393v.681a.711.711,0,0,0-.172-.144.5.5,0,0,0-.26-.062.657.657,0,0,0-.238.046.581.581,0,0,0-.2.139.715.715,0,0,0-.14.226.825.825,0,0,0-.053.307v0a.822.822,0,0,0,.053.307.669.669,0,0,0,.141.225.583.583,0,0,0,.2.139.613.613,0,0,0,.235.047.491.491,0,0,0,.257-.062.619.619,0,0,0,.175-.161v.2Zm-.388-.691a.442.442,0,0,1-.027.158.389.389,0,0,1-.072.122.312.312,0,0,1-.106.078.32.32,0,0,1-.369-.078.379.379,0,0,1-.074-.122.445.445,0,0,1-.027-.158v0a.435.435,0,0,1,.027-.159.38.38,0,0,1,.074-.12.345.345,0,0,1,.107-.08.336.336,0,0,1,.261,0,.331.331,0,0,1,.106.08.379.379,0,0,1,.072.122.429.429,0,0,1,.027.157Zm1.162-.849v-.349h-.414v.349Zm-.01,1.54v-1.387h-.393v1.387Zm1.64,0v-.9a.543.543,0,0,0-.123-.378.442.442,0,0,0-.348-.138.472.472,0,0,0-.135.019.377.377,0,0,0-.109.05.482.482,0,0,0-.089.071.806.806,0,0,0-.074.085v-.2h-.393v1.387h.393v-.772a.3.3,0,0,1,.066-.21.235.235,0,0,1,.18-.071.223.223,0,0,1,.176.071.31.31,0,0,1,.062.21v.772Zm1.736-.313v-1.073h-.393v.181a.747.747,0,0,0-.184-.147.53.53,0,0,0-.264-.06.641.641,0,0,0-.23.043.582.582,0,0,0-.2.125.621.621,0,0,0-.137.2.7.7,0,0,0-.052.276v0a.709.709,0,0,0,.05.276.6.6,0,0,0,.136.2.566.566,0,0,0,.2.125.648.648,0,0,0,.233.042.515.515,0,0,0,.261-.06.7.7,0,0,0,.191-.164v.067a.379.379,0,0,1-.1.281.411.411,0,0,1-.3.1.821.821,0,0,1-.25-.034,1.084,1.084,0,0,1-.219-.093l-.135.3a1.27,1.27,0,0,0,.287.106,1.363,1.363,0,0,0,.326.038,1.211,1.211,0,0,0,.339-.042.6.6,0,0,0,.242-.129.538.538,0,0,0,.145-.227A1.032,1.032,0,0,0,1266.385,10508.867Zm-.388-.448a.311.311,0,0,1-.026.129.3.3,0,0,1-.071.1.3.3,0,0,1-.107.065.378.378,0,0,1-.135.023.346.346,0,0,1-.241-.087.3.3,0,0,1-.1-.234v0a.324.324,0,0,1,.026-.131.309.309,0,0,1,.071-.1.32.32,0,0,1,.106-.065.366.366,0,0,1,.133-.023.379.379,0,0,1,.135.023.318.318,0,0,1,.107.065.305.305,0,0,1,.071.1.323.323,0,0,1,.026.131v0Zm3.226-.144v0a.9.9,0,0,0-.07-.356.836.836,0,0,0-.2-.286.954.954,0,0,0-.305-.19,1.066,1.066,0,0,0-.389-.068h-.706v1.812h.706a1.066,1.066,0,0,0,.389-.069.959.959,0,0,0,.305-.192.835.835,0,0,0,.2-.288A.894.894,0,0,0,1269.223,10508.275Zm-.417,0a.574.574,0,0,1-.04.22.514.514,0,0,1-.111.17.48.48,0,0,1-.172.112.625.625,0,0,1-.223.038h-.308v-1.092h.308a.625.625,0,0,1,.223.039.541.541,0,0,1,.172.113.532.532,0,0,1,.111.174.582.582,0,0,1,.04.221Zm1.151-.64v-.349h-.414v.349Zm-.01,1.54v-1.387h-.393v1.387Zm1.764-.313v-1.073h-.393v.181a.741.741,0,0,0-.183-.147.531.531,0,0,0-.264-.06.641.641,0,0,0-.23.043.567.567,0,0,0-.2.125.616.616,0,0,0-.137.2.7.7,0,0,0-.052.276v0a.709.709,0,0,0,.051.276.6.6,0,0,0,.136.2.566.566,0,0,0,.2.125.646.646,0,0,0,.233.042.514.514,0,0,0,.261-.06.7.7,0,0,0,.192-.164v.067a.379.379,0,0,1-.1.281.413.413,0,0,1-.3.1.819.819,0,0,1-.25-.034,1.08,1.08,0,0,1-.219-.093l-.135.3a1.275,1.275,0,0,0,.287.106,1.364,1.364,0,0,0,.326.038,1.209,1.209,0,0,0,.339-.042.6.6,0,0,0,.242-.129.538.538,0,0,0,.145-.227A1.035,1.035,0,0,0,1271.712,10508.867Zm-.388-.448a.315.315,0,0,1-.026.129.3.3,0,0,1-.071.1.3.3,0,0,1-.107.065.377.377,0,0,1-.135.023.346.346,0,0,1-.241-.087.3.3,0,0,1-.1-.234v0a.328.328,0,0,1,.026-.131.313.313,0,0,1,.071-.1.32.32,0,0,1,.106-.065.368.368,0,0,1,.133-.023.379.379,0,0,1,.135.023.319.319,0,0,1,.107.065.307.307,0,0,1,.071.1.328.328,0,0,1,.026.131Zm1.162-.778v-.349h-.414v.349Zm-.01,1.54v-1.387h-.393v1.387Zm1.149-.058v-.315a.4.4,0,0,1-.194.05c-.084,0-.127-.046-.127-.135v-.594h.326v-.335h-.326v-.355h-.393v.355h-.166v.335h.166v.657a.581.581,0,0,0,.03.2.324.324,0,0,0,.083.128.3.3,0,0,0,.127.069.659.659,0,0,0,.164.019.585.585,0,0,0,.173-.021.606.606,0,0,0,.137-.059Zm1.488.058v-.806a.538.538,0,0,0-.618-.6,1.213,1.213,0,0,0-.3.031,1.479,1.479,0,0,0-.238.079l.1.3a1.839,1.839,0,0,1,.182-.056,1.014,1.014,0,0,1,.2-.019.333.333,0,0,1,.223.064.236.236,0,0,1,.075.188v.024a.927.927,0,0,0-.154-.042,1.02,1.02,0,0,0-.185-.016.9.9,0,0,0-.226.027.528.528,0,0,0-.176.081.376.376,0,0,0-.115.138.434.434,0,0,0-.041.2v.006a.428.428,0,0,0,.037.183.4.4,0,0,0,.1.133.443.443,0,0,0,.151.081.6.6,0,0,0,.185.027.581.581,0,0,0,.246-.048.563.563,0,0,0,.173-.128v.15Zm-.373-.49a.215.215,0,0,1-.084.177.348.348,0,0,1-.224.067.269.269,0,0,1-.155-.043.149.149,0,0,1-.06-.125v-.006a.159.159,0,0,1,.073-.142.347.347,0,0,1,.2-.05.553.553,0,0,1,.136.015.611.611,0,0,1,.115.037Zm1.123.49v-1.889h-.393v1.889Zm2.719,0v-1.812h-.4v.717h-.735v-.717h-.4v1.812h.4v-.728h.735v.728Zm1.687-.654v-.006a.989.989,0,0,0-.04-.283.694.694,0,0,0-.124-.241.626.626,0,0,0-.211-.167.681.681,0,0,0-.3-.062.663.663,0,0,0-.278.057.681.681,0,0,0-.216.155.712.712,0,0,0-.141.231.772.772,0,0,0-.05.278v0a.756.756,0,0,0,.054.292.68.68,0,0,0,.151.227.667.667,0,0,0,.23.146.777.777,0,0,0,.288.052.735.735,0,0,0,.329-.068.688.688,0,0,0,.238-.189l-.225-.2a.583.583,0,0,1-.16.108.439.439,0,0,1-.176.034.356.356,0,0,1-.221-.067.332.332,0,0,1-.118-.205h.965c0-.018,0-.034,0-.048S1280.267,10508.545,1280.267,10508.526Zm-.383-.148h-.593a.4.4,0,0,1,.1-.214.26.26,0,0,1,.2-.08.256.256,0,0,1,.2.081A.383.383,0,0,1,1279.885,10508.378Zm1.868.8v-.806a.538.538,0,0,0-.618-.6,1.215,1.215,0,0,0-.3.031,1.478,1.478,0,0,0-.238.079l.1.3a1.811,1.811,0,0,1,.182-.056,1.01,1.01,0,0,1,.2-.019.333.333,0,0,1,.222.064.235.235,0,0,1,.075.188v.024a.926.926,0,0,0-.154-.042,1.019,1.019,0,0,0-.185-.016.9.9,0,0,0-.226.027.529.529,0,0,0-.176.081.374.374,0,0,0-.115.138.434.434,0,0,0-.042.2v.006a.427.427,0,0,0,.037.183.4.4,0,0,0,.1.133.442.442,0,0,0,.151.081.6.6,0,0,0,.185.027.58.58,0,0,0,.246-.048.565.565,0,0,0,.173-.128v.15Zm-.373-.49a.215.215,0,0,1-.084.177.347.347,0,0,1-.224.067.269.269,0,0,1-.155-.043.149.149,0,0,1-.059-.125v-.006a.159.159,0,0,1,.073-.142.347.347,0,0,1,.2-.05.6.6,0,0,1,.136.015.612.612,0,0,1,.115.037Zm1.123.49v-1.889h-.393v1.889Zm1.149-.058v-.315a.4.4,0,0,1-.194.05c-.084,0-.127-.046-.127-.135v-.594h.326v-.335h-.326v-.355h-.393v.355h-.166v.335h.166v.657a.577.577,0,0,0,.03.2.323.323,0,0,0,.083.128.3.3,0,0,0,.127.069.659.659,0,0,0,.164.019.585.585,0,0,0,.173-.021A.6.6,0,0,0,1283.651,10509.123Zm1.565.058v-.9a.542.542,0,0,0-.123-.378.442.442,0,0,0-.348-.138.473.473,0,0,0-.135.019.379.379,0,0,0-.109.05.48.48,0,0,0-.089.071.807.807,0,0,0-.074.085v-.7h-.393v1.889h.393v-.772a.3.3,0,0,1,.066-.21.235.235,0,0,1,.18-.071.223.223,0,0,1,.176.071.31.31,0,0,1,.062.21v.772Zm2.535,0v-.354h-.983v-.382h.854v-.353h-.854v-.367h.97v-.355h-1.363v1.812Zm1.537-.223-.23-.233a.683.683,0,0,1-.146.107.372.372,0,0,1-.317.011.341.341,0,0,1-.111-.082.357.357,0,0,1-.071-.121.448.448,0,0,1-.025-.15v0a.423.423,0,0,1,.025-.146.346.346,0,0,1,.07-.12.313.313,0,0,1,.106-.082.308.308,0,0,1,.136-.029.35.35,0,0,1,.177.041.654.654,0,0,1,.138.11l.241-.259a.68.68,0,0,0-.554-.232.737.737,0,0,0-.294.057.706.706,0,0,0-.229.156.7.7,0,0,0-.15.23.72.72,0,0,0-.054.279v0a.716.716,0,0,0,.054.278.706.706,0,0,0,.15.228.719.719,0,0,0,.229.155.741.741,0,0,0,.288.056.691.691,0,0,0,.336-.071A.848.848,0,0,0,1289.289,10508.958Zm1.689-.469v0a.7.7,0,0,0-.214-.508.714.714,0,0,0-.237-.153.783.783,0,0,0-.3-.056.772.772,0,0,0-.3.057.754.754,0,0,0-.238.156.706.706,0,0,0-.158.229.69.69,0,0,0-.057.28v0a.691.691,0,0,0,.057.281.71.71,0,0,0,.156.228.731.731,0,0,0,.237.152.775.775,0,0,0,.836-.156.726.726,0,0,0,.158-.229A.7.7,0,0,0,1290.978,10508.489Zm-.388,0a.442.442,0,0,1-.024.147.364.364,0,0,1-.071.119.339.339,0,0,1-.113.082.37.37,0,0,1-.151.03.364.364,0,0,1-.149-.031.387.387,0,0,1-.115-.084.375.375,0,0,1-.075-.122.411.411,0,0,1-.026-.146v0a.423.423,0,0,1,.025-.146.337.337,0,0,1,.071-.12.31.31,0,0,1,.113-.082.354.354,0,0,1,.151-.029.365.365,0,0,1,.147.029.386.386,0,0,1,.116.086.363.363,0,0,1,.075.121.4.4,0,0,1,.026.146Zm1.689.264v0a.316.316,0,0,0-.039-.162.4.4,0,0,0-.1-.114.531.531,0,0,0-.135-.078,1.236,1.236,0,0,0-.147-.056l-.107-.037a.662.662,0,0,1-.089-.037.227.227,0,0,1-.062-.042.067.067,0,0,1-.023-.05v-.006a.08.08,0,0,1,.036-.067.177.177,0,0,1,.109-.028.55.55,0,0,1,.173.035,1.143,1.143,0,0,1,.2.095l.15-.272a.993.993,0,0,0-.25-.117.9.9,0,0,0-.268-.043.677.677,0,0,0-.2.029.454.454,0,0,0-.161.085.409.409,0,0,0-.149.326v.006a.35.35,0,0,0,.038.17.376.376,0,0,0,.1.117.537.537,0,0,0,.133.078,1.3,1.3,0,0,0,.146.05c.038.013.074.023.109.033a.879.879,0,0,1,.092.034.2.2,0,0,1,.063.039.075.075,0,0,1,.023.055v0a.086.086,0,0,1-.04.075.215.215,0,0,1-.125.028.6.6,0,0,1-.211-.042.908.908,0,0,1-.226-.123l-.168.258a.964.964,0,0,0,.294.159.979.979,0,0,0,.3.052.752.752,0,0,0,.208-.028.518.518,0,0,0,.17-.081.363.363,0,0,0,.112-.139A.462.462,0,0,0,1292.279,10508.758Zm1.6-.964h-.409l-.3.944-.316-.944h-.417l.543,1.391a.165.165,0,0,1-.056.071.134.134,0,0,1-.082.021.277.277,0,0,1-.084-.016.456.456,0,0,1-.084-.039l-.132.284a.725.725,0,0,0,.158.07.633.633,0,0,0,.192.025.535.535,0,0,0,.155-.02.349.349,0,0,0,.12-.067.532.532,0,0,0,.1-.121,1.063,1.063,0,0,0,.083-.179Zm1.25.964v0a.315.315,0,0,0-.039-.162.393.393,0,0,0-.1-.114.529.529,0,0,0-.135-.078,1.22,1.22,0,0,0-.147-.056l-.107-.037a.658.658,0,0,1-.089-.037.23.23,0,0,1-.062-.042.067.067,0,0,1-.023-.05v-.006a.08.08,0,0,1,.036-.067.176.176,0,0,1,.109-.028.55.55,0,0,1,.173.035,1.148,1.148,0,0,1,.2.095l.15-.272a.989.989,0,0,0-.25-.117.894.894,0,0,0-.268-.043.679.679,0,0,0-.2.029.452.452,0,0,0-.161.085.409.409,0,0,0-.149.326v.006a.351.351,0,0,0,.038.17.373.373,0,0,0,.1.117.534.534,0,0,0,.133.078,1.273,1.273,0,0,0,.146.05c.038.013.074.023.109.033a.9.9,0,0,1,.092.034.2.2,0,0,1,.063.039.075.075,0,0,1,.023.055v0a.086.086,0,0,1-.04.075.214.214,0,0,1-.125.028.6.6,0,0,1-.211-.042.907.907,0,0,1-.226-.123l-.168.258a.965.965,0,0,0,.294.159.98.98,0,0,0,.3.052.752.752,0,0,0,.208-.028.518.518,0,0,0,.169-.081.363.363,0,0,0,.112-.139A.461.461,0,0,0,1295.13,10508.758Zm1.061.365v-.315a.4.4,0,0,1-.194.05c-.085,0-.127-.046-.127-.135v-.594h.326v-.335h-.326v-.355h-.393v.355h-.166v.335h.166v.659a.573.573,0,0,0,.03.2.325.325,0,0,0,.083.128.3.3,0,0,0,.127.069.659.659,0,0,0,.164.019.584.584,0,0,0,.173-.021A.6.6,0,0,0,1296.191,10509.123Zm1.589-.6v-.006a.989.989,0,0,0-.04-.283.7.7,0,0,0-.124-.241.626.626,0,0,0-.211-.167.681.681,0,0,0-.3-.062.652.652,0,0,0-.494.213.689.689,0,0,0-.141.23.772.772,0,0,0-.05.278v0a.759.759,0,0,0,.054.292.684.684,0,0,0,.151.227.665.665,0,0,0,.23.146.776.776,0,0,0,.288.052.735.735,0,0,0,.328-.068.689.689,0,0,0,.238-.189l-.225-.2a.6.6,0,0,1-.16.107.438.438,0,0,1-.176.034.356.356,0,0,1-.221-.067.331.331,0,0,1-.118-.205h.965c0-.018,0-.033,0-.048S1297.78,10508.545,1297.78,10508.526Zm-.383-.148h-.593a.4.4,0,0,1,.1-.214.259.259,0,0,1,.2-.08.256.256,0,0,1,.2.081A.383.383,0,0,1,1297.4,10508.378Zm2.791.8v-.9a.527.527,0,0,0-.124-.381.452.452,0,0,0-.344-.13.56.56,0,0,0-.254.056.664.664,0,0,0-.2.165.393.393,0,0,0-.154-.163.457.457,0,0,0-.237-.058.487.487,0,0,0-.136.019.439.439,0,0,0-.11.05.519.519,0,0,0-.089.071.793.793,0,0,0-.074.085v-.2h-.393v1.387h.393v-.771a.306.306,0,0,1,.063-.211.224.224,0,0,1,.175-.071.212.212,0,0,1,.171.071.32.32,0,0,1,.06.211v.771h.393v-.771a.305.305,0,0,1,.063-.211.223.223,0,0,1,.175-.071.212.212,0,0,1,.171.071.321.321,0,0,1,.059.211v.771h.393Z" transform="translate(-1249.942 -10457.797)" fill="#29298c"/>
    </g>
  </g>
</svg>
