<svg xmlns="http://www.w3.org/2000/svg" width="17.409" height="22.86" viewBox="0 0 17.409 22.86">
  <g id="Group_70139" data-name="Group 70139" transform="translate(7948.083 56.91)">
    <path id="noun-about-us-3264355" d="M149.051,0a4.417,4.417,0,1,0,4.419,4.419A4.428,4.428,0,0,0,149.051,0Zm0,1.429a2.988,2.988,0,1,1-2.984,2.99A2.982,2.982,0,0,1,149.051,1.429Zm0,8.517a5.982,5.982,0,0,0-5.979,5.979v3.388h0a.714.714,0,0,0,.714.714H150.4a5.375,5.375,0,1,0,3.4-7.709,5.955,5.955,0,0,0-4.752-2.372Zm0,1.429a4.51,4.51,0,0,1,3.377,1.5c-.019.011-.036.025-.054.036a5.359,5.359,0,0,0-.46.313c-.033.025-.067.048-.1.074a5.409,5.409,0,0,0-.9.9c-.031.04-.061.081-.091.121q-.153.206-.286.427c-.023.039-.047.076-.07.116a5.317,5.317,0,0,0-.287.575h0s0,0,0,.006a5.326,5.326,0,0,0-.208.6c-.012.042-.021.086-.032.128q-.063.246-.1.5c-.009.059-.019.118-.026.177a5.344,5.344,0,0,0-.043.645h0v0c0,.031,0,.062.006.093a5.355,5.355,0,0,0,.107,1H144.5V15.924a4.525,4.525,0,0,1,4.55-4.55Zm6.072,2.2a3.928,3.928,0,1,1-3.594,5.516h0q-.009-.029-.021-.057A3.93,3.93,0,0,1,151.2,17.5h0a3.952,3.952,0,0,1,.043-.551c0-.034.01-.068.015-.1a3.921,3.921,0,0,1,2.514-3.029h0l.046-.019a3.944,3.944,0,0,1,1.31-.226Zm-.011.727h0a.715.715,0,0,0-.706.723v2.59a.715.715,0,1,0,1.429,0v-2.59a.714.714,0,0,0-.723-.723Zm0,4.657h0a.714.714,0,0,0-.706.721V20.2a.715.715,0,1,0,1.429,0V19.68a.714.714,0,0,0-.723-.721Z" transform="translate(-8091.157 -56.91)" fill="#d66025"/>
    <g id="Ellipse_34" data-name="Ellipse 34" transform="translate(-7941.651 -44.792)" fill="none" stroke="#152c69" stroke-width="1.5">
      <ellipse cx="5.488" cy="5.371" rx="5.488" ry="5.371" stroke="none"/>
      <ellipse cx="5.488" cy="5.371" rx="4.738" ry="4.621" fill="none"/>
    </g>
  </g>
</svg>
