<svg id="ico-notification" xmlns="http://www.w3.org/2000/svg" width="28" height="28" viewBox="0 0 28 28">
  <path id="Path_26576" data-name="Path 26576" d="M0,0H28V28H0Z" fill="none"/>
  <path id="Path_26577" data-name="Path 26577" d="M14,26a2.464,2.464,0,0,0,2.5-2.41h-5A2.464,2.464,0,0,0,14,26Zm7.5-7.231V12.744c0-3.7-2.038-6.8-5.625-7.616V4.308a1.876,1.876,0,0,0-3.75,0v.819C8.55,5.947,6.5,9.032,6.5,12.744v6.026L4,21.179v1.205H24V21.179ZM19,19.974H9V12.744c0-2.989,1.887-5.423,5-5.423s5,2.434,5,5.423Z" transform="translate(0 0)" fill="#fff"/>
</svg>
