<svg xmlns="http://www.w3.org/2000/svg" width="26" height="30.881" viewBox="0 0 26 30.881">
  <g id="Biometric_Authentication" data-name="Biometric Authentication" transform="translate(0 0)">
    <path id="Path_28922" data-name="Path 28922" d="M9.553.207A12.117,12.117,0,0,0,.261,9.5a14.4,14.4,0,0,0-.251,2.9c.024.268.065.728.088,1.028a12.437,12.437,0,0,0,1.182,3.885c.1.195.4.728.68,1.2a11.341,11.341,0,0,1,1.3,3.075l.218.85.048,4.023c.048,3.926.057,4.03.218,4.193a1.066,1.066,0,0,0,.461.218c.251.041.324.008.542-.211L5,30.4l-.032-3.982c-.032-3.732-.041-4.039-.211-4.775a12.694,12.694,0,0,0-1.6-3.942A10.432,10.432,0,0,1,1.807,14.59,10.074,10.074,0,0,1,1.685,9.83,10.52,10.52,0,0,1,21.329,7.087c1.012,1.942,1.263,3.359,1.15,6.483-.041,1.287-.041,1.279,1.683,4.233.64,1.085.583,1.222-.6,1.627-1.1.372-1.076.364-1.206.623a8.337,8.337,0,0,0-.121,2.4c0,2.1-.008,2.185-.194,2.574a2.261,2.261,0,0,1-1.1,1.125c-.34.154-.534.17-2.679.194l-2.322.025-.187.2c-.194.2-.194.227-.194,2.072V30.5l.227.195a.7.7,0,0,0,1.149-.315c.025-.1.048-.729.065-1.393l.016-1.214L19,27.734a6.8,6.8,0,0,0,2.4-.211,3.791,3.791,0,0,0,2.153-2.339,18.97,18.97,0,0,0,.129-2.258l.048-2.008.631-.226A2.017,2.017,0,0,0,26,18.668c0-.574.008-.55-1.093-2.468-1.053-1.829-1.085-1.959-.98-3.318a11.8,11.8,0,0,0-1.295-6.435A12.051,12.051,0,0,0,13.859.093,16.3,16.3,0,0,0,9.553.207" fill="#152c69"/>
    <g id="Group_31766" data-name="Group 31766">
      <path id="Path_28923" data-name="Path 28923" d="M4.956,12.17c.235,0,.332-.138.437-.607a8.2,8.2,0,0,1,5.787-6.24A5.524,5.524,0,0,1,13.366,5.1a6.68,6.68,0,0,1,2.1.178,10.206,10.206,0,0,1,2.663,1.263,10.592,10.592,0,0,1,1.951,1.951A9.551,9.551,0,0,1,21.42,11.28a3,3,0,0,0,.283.8.375.375,0,0,0,.574-.186,5.973,5.973,0,0,0-.647-2.282,9.323,9.323,0,0,0-6.969-5.294,12.7,12.7,0,0,0-3.076.114A8.978,8.978,0,0,0,4.746,10.94c-.242.971-.2,1.23.211,1.23" transform="translate(-1.368 -1.271)" fill="#d66025"/>
      <path id="Path_28924" data-name="Path 28924" d="M16.863,6.507c-1.36-.211-3.756.251-3.756.721a.8.8,0,0,0,.154.259c.146.178.17.186.5.088a6.788,6.788,0,0,1,5.9.817,10.164,10.164,0,0,1,.947.81c.494.478.615.551.785.51a.353.353,0,0,0,.259-.251c.065-.268-.283-.7-1.109-1.36a7.734,7.734,0,0,0-3.683-1.594" transform="translate(-3.902 -1.922)" fill="#d66025"/>
      <path id="Path_28925" data-name="Path 28925" d="M8.551,18.057a6.173,6.173,0,0,1-1.084-3.691A6.465,6.465,0,0,1,9.935,9.211c.4-.364.453-.5.251-.7s-.388-.154-.825.186a7.564,7.564,0,0,0-2.145,2.938,5.709,5.709,0,0,0-.494,2.817,5.391,5.391,0,0,0,.227,1.975,7.953,7.953,0,0,0,1.012,2.153,4.242,4.242,0,0,1,.647,2.25c.048.857.1.979.429.987.364,0,.478-.631.3-1.692a4.924,4.924,0,0,0-.785-2.064" transform="translate(-2.001 -2.497)" fill="#d66025"/>
      <path id="Path_28926" data-name="Path 28926" d="M21.052,14.814a15.57,15.57,0,0,0-1.044-2.72,4.348,4.348,0,0,0-1.06-1.5A5.731,5.731,0,0,0,15.856,8.93a7.761,7.761,0,0,0-2.428.129,5.718,5.718,0,0,0-3.488,2.809c-.324.623-.324.914.008,1,.268.065.316.025.664-.639A5.072,5.072,0,0,1,12.659,10.2a4.506,4.506,0,0,1,2.509-.527,4.563,4.563,0,0,1,2.687.955c.955.721,1.466,1.546,2.178,3.529.4,1.1.429,1.166.68,1.166s.4-.195.34-.51" transform="translate(-2.887 -2.645)" fill="#d66025"/>
      <path id="Path_28927" data-name="Path 28927" d="M20.482,13.813a4.122,4.122,0,0,0-2.906-2.266c-.566-.13-1.011.024-1.011.356,0,.211.3.372.809.429a3.077,3.077,0,0,1,1.813.947,14.7,14.7,0,0,1,2.072,5.043,18.236,18.236,0,0,1,.647,4.8c0,1.093.008,1.157.178,1.271.235.162.275.162.47-.032.137-.138.162-.268.162-.955a23.935,23.935,0,0,0-.688-5.278,27.418,27.418,0,0,0-1.546-4.314" transform="translate(-4.932 -3.424)" fill="#d66025"/>
      <path id="Path_28928" data-name="Path 28928" d="M28.544,19.105a33.819,33.819,0,0,0-2.533-7.252.363.363,0,0,0-.607.057c-.073.17-.024.332.34,1.157a33.594,33.594,0,0,1,1.935,5.73c.186.769.2.8.461.882.291.089.461-.154.4-.574" transform="translate(-7.555 -3.488)" fill="#d66025"/>
      <path id="Path_28929" data-name="Path 28929" d="M13.36,18.861c.17-.178.129-.348-.364-1.408a8.692,8.692,0,0,1-.485-1.287A3.506,3.506,0,0,1,12.7,14.11a4.194,4.194,0,0,1,1.36-1.393c.291-.178.4-.453.235-.655s-.445-.13-.963.218a3.559,3.559,0,0,0-1.6,2.372,4.643,4.643,0,0,0,.542,3.075c.178.381.324.713.324.737a1,1,0,0,0,.17.291c.186.268.4.3.6.105" transform="translate(-3.467 -3.559)" fill="#d66025"/>
      <path id="Path_28930" data-name="Path 28930" d="M18.732,16.965c.17-.211.145-.332-.324-1.4a2.647,2.647,0,0,0-1.433-1.6,1.748,1.748,0,0,0-.882-.129,2.12,2.12,0,0,0-2.064,2.145,2.515,2.515,0,0,0,.364,1.311,15.74,15.74,0,0,1,1.393,5.058c.056.9.178,1.141.534,1.053.3-.073.332-.291.219-1.409a15.473,15.473,0,0,0-1.416-4.969,3.908,3.908,0,0,1-.364-.98,1.659,1.659,0,0,1,.826-1.32,1.724,1.724,0,0,1,1.254.017c.388.186.607.51,1,1.473.284.688.372.834.542.882a.3.3,0,0,0,.348-.129" transform="translate(-4.177 -4.116)" fill="#d66025"/>
      <path id="Path_28931" data-name="Path 28931" d="M9.9,16.553c0-.388-.041-.583-.129-.672a.3.3,0,0,0-.454-.032c-.437.356-.065,2.525.64,3.675A6.9,6.9,0,0,1,10.8,21.9a10.778,10.778,0,0,1-.162,3.237c-.138.607-.146.713-.041.867a.312.312,0,0,0,.542.04A7.354,7.354,0,0,0,11.623,23a6.407,6.407,0,0,0-.882-3.634A6.13,6.13,0,0,1,9.9,16.553" transform="translate(-2.718 -4.692)" fill="#d66025"/>
      <path id="Path_28932" data-name="Path 28932" d="M18.552,21.125c.364-.089.332-.453-.145-1.886a14.991,14.991,0,0,0-1.1-2.574c-.162-.275-.243-.341-.445-.341a.3.3,0,0,0-.324.195c-.081.162-.048.275.195.7a16.458,16.458,0,0,1,1.3,3.569.408.408,0,0,0,.518.332" transform="translate(-4.912 -4.86)" fill="#d66025"/>
      <path id="Path_28933" data-name="Path 28933" d="M5.168,17.713a1.279,1.279,0,0,0-.081-.429.406.406,0,0,0-.656.016,7.22,7.22,0,0,0,.68,3.294c.429.971,1.206,2.121,1.441,2.121a.411.411,0,0,0,.4-.364,2.422,2.422,0,0,0-.4-.769,8.677,8.677,0,0,1-1.384-3.869" transform="translate(-1.305 -5.098)" fill="#d66025"/>
      <path id="Path_28934" data-name="Path 28934" d="M26.306,19.6a.407.407,0,0,0-.647-.008c-.057.114-.025.364.113.955a35.57,35.57,0,0,1,.664,3.505c.073.68.138.809.438.809.364,0,.429-.194.324-1.036a26.758,26.758,0,0,0-.89-4.225" transform="translate(-7.631 -5.786)" fill="#d66025"/>
      <path id="Path_28935" data-name="Path 28935" d="M21.094,19.494a.449.449,0,0,0-.526.073c-.089.105-.057.3.154,1.19a16.535,16.535,0,0,1,.453,6.912c-.129.761-.072,1,.243,1,.5,0,.656-.8.656-3.318a17.815,17.815,0,0,0-.146-2.711,10.689,10.689,0,0,0-.834-3.141" transform="translate(-6.11 -5.787)" fill="#d66025"/>
      <path id="Path_28936" data-name="Path 28936" d="M13.737,23.406c-.129.145-.138.218-.048.721a11.04,11.04,0,0,1-.388,4.654c-.121.331-.146.51-.089.615a.363.363,0,0,0,.558.129,9.257,9.257,0,0,0,.817-3.812,7.807,7.807,0,0,0-.291-2.291c-.145-.218-.364-.227-.558-.016" transform="translate(-3.925 -6.923)" fill="#d66025"/>
      <path id="Path_28937" data-name="Path 28937" d="M19.489,24.741a.338.338,0,0,0-.453-.032c-.1.065-.121.324-.13,1.473a12.624,12.624,0,0,1-.413,3.529c-.194.8-.194.841-.065.987A.321.321,0,0,0,19,30.666a12.4,12.4,0,0,0,.607-2.728,16.753,16.753,0,0,0,.073-1.927c-.032-1.027-.048-1.165-.186-1.27" transform="translate(-5.46 -7.335)" fill="#d66025"/>
      <path id="Path_28938" data-name="Path 28938" d="M16.334,28.658a1.953,1.953,0,0,0-.178.664,10.074,10.074,0,0,1-.51,2.039c-.218.624-.21.777.049.915.3.162.5-.089.777-.955.437-1.425.6-2.436.421-2.655a.4.4,0,0,0-.558-.008" transform="translate(-4.612 -8.5)" fill="#d66025"/>
    </g>
  </g>
</svg>
