<svg xmlns="http://www.w3.org/2000/svg" xmlns:xlink="http://www.w3.org/1999/xlink" width="140" height="42" viewBox="0 0 140 42">
  <defs>
    <clipPath id="clip-path">
      <rect id="Rectangle_21957" data-name="Rectangle 21957" width="140" height="42" transform="translate(0)" fill="#fff"/>
    </clipPath>
    <linearGradient id="linear-gradient" x1="0.914" y1="0.05" x2="-0.384" y2="0.719" gradientUnits="objectBoundingBox">
      <stop offset="0" stop-color="#00a0ff"/>
      <stop offset="0.007" stop-color="#00a1ff"/>
      <stop offset="0.26" stop-color="#00beff"/>
      <stop offset="0.512" stop-color="#00d2ff"/>
      <stop offset="0.76" stop-color="#00dfff"/>
      <stop offset="1" stop-color="#00e3ff"/>
    </linearGradient>
    <linearGradient id="linear-gradient-2" x1="1.074" y1="0.501" x2="-1.304" y2="0.501" gradientUnits="objectBoundingBox">
      <stop offset="0" stop-color="#ffe000"/>
      <stop offset="0.409" stop-color="#ffbd00"/>
      <stop offset="0.775" stop-color="orange"/>
      <stop offset="1" stop-color="#ff9c00"/>
    </linearGradient>
    <linearGradient id="linear-gradient-3" x1="0.862" y1="0.179" x2="-0.501" y2="1.948" gradientUnits="objectBoundingBox">
      <stop offset="0" stop-color="#ff3a44"/>
      <stop offset="1" stop-color="#c31162"/>
    </linearGradient>
    <linearGradient id="linear-gradient-4" x1="-0.188" y1="-0.543" x2="0.421" y2="0.248" gradientUnits="objectBoundingBox">
      <stop offset="0" stop-color="#32a071"/>
      <stop offset="0.069" stop-color="#2da771"/>
      <stop offset="0.476" stop-color="#15cf74"/>
      <stop offset="0.801" stop-color="#06e775"/>
      <stop offset="1" stop-color="#00f076"/>
    </linearGradient>
  </defs>
  <g id="Group_31815" data-name="Group 31815" transform="translate(19845.139 21670)">
    <g id="play_Store" transform="translate(-19845.139 -21670)" clip-path="url(#clip-path)">
      <path id="Path_27626" data-name="Path 27626" d="M134.678,40.975H5.182A5.166,5.166,0,0,1,0,35.853V5.122A5.16,5.16,0,0,1,5.182,0h129.5a5.162,5.162,0,0,1,5.182,5.122V35.853A5.168,5.168,0,0,1,134.678,40.975Z" transform="translate(0.14)" fill="#fff" fill-rule="evenodd"/>
      <path id="Path_27627" data-name="Path 27627" d="M134.678.82a4.341,4.341,0,0,1,4.356,4.3V35.853a4.332,4.332,0,0,1-4.356,4.3H5.182a4.341,4.341,0,0,1-4.356-4.3V5.122A4.333,4.333,0,0,1,5.182.82Zm0-.82H5.182A5.166,5.166,0,0,0,0,5.122V35.853a5.16,5.16,0,0,0,5.182,5.122h129.5a5.162,5.162,0,0,0,5.182-5.122V5.122A5.168,5.168,0,0,0,134.678,0Z" transform="translate(0.14)" fill="#fff" fill-rule="evenodd"/>
      <path id="Path_27628" data-name="Path 27628" d="M91.982,16.606a3.151,3.151,0,0,1-2.344-.963,3.268,3.268,0,0,1-.947-2.35,3.194,3.194,0,0,1,.947-2.348,3.14,3.14,0,0,1,2.341-.963,3.184,3.184,0,0,1,2.344.963,3.384,3.384,0,0,1,0,4.7A3.125,3.125,0,0,1,91.982,16.606Zm-27.79,0a3.268,3.268,0,0,1-2.354-.95,3.18,3.18,0,0,1-.97-2.36,3.18,3.18,0,0,1,.97-2.36,3.226,3.226,0,0,1,2.354-.95,3.3,3.3,0,0,1,1.315.271,2.658,2.658,0,0,1,1,.71l.062.074-.7.68-.072-.084a1.988,1.988,0,0,0-1.618-.692,2.245,2.245,0,0,0-1.613.654,2.276,2.276,0,0,0-.679,1.7,2.276,2.276,0,0,0,.679,1.7,2.371,2.371,0,0,0,3.27,0,1.763,1.763,0,0,0,.473-1.065H64.076v-.955h3.2l.013.087a3.483,3.483,0,0,1,.046.48,2.864,2.864,0,0,1-.8,2.12A3.124,3.124,0,0,1,64.191,16.606Zm36.95-.135h-.985l-3.018-4.795.026.864v3.929h-.986V10.12H97.3l.031.049,2.838,4.516-.026-.861v-3.7h1Zm-16.564,0h-1v-5.4H81.847V10.12h4.459v.955H84.574v5.4Zm-3.543,0h-1V10.12h1Zm-5.6,0h-1v-5.4H72.71V10.12h4.459v.955H75.438Zm-3.358-.01H68.262V10.12H72.08v.955H69.26v1.742H71.8v.945H69.26V15.5h2.82Zm18.288-1.474a2.21,2.21,0,0,0,1.613.664,2.154,2.154,0,0,0,1.613-.664,2.289,2.289,0,0,0,.659-1.691A2.294,2.294,0,0,0,93.6,11.6a2.215,2.215,0,0,0-1.613-.664,2.145,2.145,0,0,0-1.61.664,2.292,2.292,0,0,0-.659,1.691A2.292,2.292,0,0,0,90.368,14.986Z" transform="translate(-18.163 -3.051)" fill="#191919"/>
      <path id="Path_27629" data-name="Path 27629" d="M88.515,29.968a4.358,4.358,0,1,0,4.4,4.358A4.306,4.306,0,0,0,88.515,29.968Zm0,6.989a2.647,2.647,0,1,1,2.476-2.641A2.53,2.53,0,0,1,88.515,36.958Zm-9.6-6.989a4.358,4.358,0,1,0,4.4,4.358A4.306,4.306,0,0,0,78.91,29.968Zm0,6.989a2.647,2.647,0,1,1,2.475-2.641A2.53,2.53,0,0,1,78.91,36.958ZM67.481,31.3v1.844H71.94a3.874,3.874,0,0,1-1.009,2.322,4.566,4.566,0,0,1-3.44,1.354,4.918,4.918,0,0,1,0-9.835,4.778,4.778,0,0,1,3.358,1.321L72.166,27A6.5,6.5,0,0,0,67.5,25.13a6.764,6.764,0,1,0,0,13.524,6.257,6.257,0,0,0,4.757-1.9,6.094,6.094,0,0,0,1.616-4.325,5.666,5.666,0,0,0-.1-1.15H67.478S67.481,31.3,67.481,31.3Zm46.749,1.436a4.075,4.075,0,0,0-3.759-2.777,4.154,4.154,0,0,0-4.137,4.358,4.274,4.274,0,0,0,4.356,4.358,4.363,4.363,0,0,0,3.656-1.934l-1.49-.991a2.5,2.5,0,0,1-2.156,1.206,2.244,2.244,0,0,1-2.134-1.321l5.869-2.414S114.229,32.735,114.229,32.735Zm-5.985,1.456a2.4,2.4,0,0,1,2.293-2.539,1.694,1.694,0,0,1,1.629.922Zm-4.767,4.223H105.4V25.61h-1.927Zm-3.165-7.477h-.069a3.05,3.05,0,0,0-2.316-.978,4.357,4.357,0,0,0,0,8.709,3.043,3.043,0,0,0,2.316-.991h.069V38.3c0,1.663-.9,2.56-2.338,2.56a2.433,2.433,0,0,1-2.213-1.548l-1.675.695a4.189,4.189,0,0,0,3.885,2.572c2.259,0,4.173-1.321,4.173-4.542v-7.82h-1.822v.718ZM98.1,36.958a2.648,2.648,0,0,1,0-5.28,2.456,2.456,0,0,1,2.338,2.652A2.426,2.426,0,0,1,98.1,36.958ZM123.252,25.61h-4.608v12.8h1.927V33.565h2.684a3.985,3.985,0,1,0,0-7.955Zm.057,6.167h-2.741V27.383h2.741a2.2,2.2,0,1,1,0,4.394Zm11.9-1.832a3.635,3.635,0,0,0-3.441,1.957l1.708.705a1.837,1.837,0,0,1,1.755-.945,1.858,1.858,0,0,1,2.03,1.65v.135a4.342,4.342,0,0,0-2.007-.49c-1.845,0-3.715,1-3.715,2.879a2.973,2.973,0,0,0,3.2,2.823,2.718,2.718,0,0,0,2.452-1.252h.069V38.4h1.858v-4.9C139.117,31.21,137.408,29.945,135.209,29.945Zm-.242,7.012c-.631,0-1.513-.307-1.513-1.093,0-.991,1.1-1.367,2.041-1.367a3.363,3.363,0,0,1,1.755.432A2.313,2.313,0,0,1,134.967,36.958Zm10.927-6.739-2.213,5.554h-.07l-2.292-5.554h-2.074l3.441,7.763L140.725,42.3h2.007l5.292-12.078Zm-17.347,8.2h1.927V25.61h-1.927Z" transform="translate(-18.079 -7.682)" fill="#191919" fill-rule="evenodd"/>
      <path id="Path_27630" data-name="Path 27630" d="M15.192,11.085a2.066,2.066,0,0,0-.471,1.446V35.182a1.966,1.966,0,0,0,.481,1.433l.08.069L28.064,23.993V23.71L15.271,11.016Z" transform="translate(-4.287 -3.368)" fill="#fff" fill-rule="evenodd"/>
      <path id="Path_27631" data-name="Path 27631" d="M38.05,31.96l-4.263-4.233v-.3L38.05,23.2l.093.056L43.186,26.1c1.443.807,1.443,2.141,0,2.958L38.143,31.9Z" transform="translate(-10.02 -7.092)" fill="#fff" fill-rule="evenodd"/>
      <path id="Path_27632" data-name="Path 27632" d="M32.613,33.833l-4.356-4.325L15.394,42.279a1.7,1.7,0,0,0,2.143.069Z" transform="translate(-4.489 -9.02)" fill="#fff" fill-rule="evenodd"/>
      <path id="Path_27633" data-name="Path 27633" d="M32.613,19.385l-15.075-8.5a1.681,1.681,0,0,0-2.143.069L28.257,23.71Z" transform="translate(-4.489 -3.222)" fill="#fff" fill-rule="evenodd"/>
      <path id="Path_27634" data-name="Path 27634" d="M32.523,35.6,17.551,44.05a1.709,1.709,0,0,1-2.063.01l-.08.079.08.069a1.713,1.713,0,0,0,2.063-.01l15.075-8.5Z" transform="translate(-4.494 -10.884)" fill-rule="evenodd" opacity="0.2"/>
      <path id="Path_27635" data-name="Path 27635" d="M45.014,30.839l-5.148,2.9.093.092L45,30.987a1.8,1.8,0,0,0,1.078-1.479A1.845,1.845,0,0,1,45.014,30.839Z" transform="translate(-11.848 -9.02)" fill-rule="evenodd" opacity="0.12"/>
      <path id="Path_27636" data-name="Path 27636" d="M17.335,11.03,37.453,22.377a1.885,1.885,0,0,1,1.078,1.331,1.8,1.8,0,0,0-1.078-1.479L17.335,10.881c-1.443-.82-2.614-.135-2.614,1.5v.148C14.721,10.892,15.891,10.22,17.335,11.03Z" transform="translate(-4.287 -3.22)" fill="#fff" fill-rule="evenodd" opacity="0.25"/>
    </g>
    <g id="Group_31814" data-name="Group 31814" transform="translate(-19834.652 -21662.359)">
      <path id="Path_27639" data-name="Path 27639" d="M134.774,310.989a2.028,2.028,0,0,0-.474,1.423v22.431a2.028,2.028,0,0,0,.474,1.423l.074.074,12.572-12.572v-.3L134.849,310.9Z" transform="translate(-134.3 -310.576)" fill="url(#linear-gradient)"/>
      <path id="Path_27640" data-name="Path 27640" d="M226.981,376.088l-4.181-4.2v-.3l4.2-4.2.089.059,4.967,2.817c1.423.8,1.423,2.12,0,2.935l-4.967,2.817Z" transform="translate(-209.679 -358.701)" fill="url(#linear-gradient-2)"/>
      <path id="Path_27641" data-name="Path 27641" d="M154.431,400.985l-4.285-4.285L137.5,409.346a1.641,1.641,0,0,0,2.105.059Z" transform="translate(-137.025 -383.656)" fill="url(#linear-gradient-3)"/>
      <path id="Path_27642" data-name="Path 27642" d="M154.431,317.575l-14.825-8.421a1.657,1.657,0,0,0-2.105.059l12.646,12.646Z" transform="translate(-137.025 -308.802)" fill="url(#linear-gradient-4)"/>
      <path id="Path_27643" data-name="Path 27643" d="M154.327,425l-14.722,8.362a1.672,1.672,0,0,1-2.031.015l-.074.074.074.074a1.674,1.674,0,0,0,2.031-.015l14.825-8.421Z" transform="translate(-137.025 -407.763)" opacity="0.2"/>
      <path id="Path_27644" data-name="Path 27644" d="M134.774,409.2a2.028,2.028,0,0,1-.474-1.423v.148a2.028,2.028,0,0,0,.474,1.423l.074-.074Zm21.882-11.178L151.6,400.9l.089.089,4.967-2.817a1.778,1.778,0,0,0,1.067-1.468A1.868,1.868,0,0,1,156.657,398.02Z" transform="translate(-134.3 -383.656)" opacity="0.12"/>
      <path id="Path_27645" data-name="Path 27645" d="M136.88,309.2l19.777,11.238a1.907,1.907,0,0,1,1.067,1.319,1.778,1.778,0,0,0-1.067-1.468L136.88,309.053c-1.423-.8-2.58-.133-2.58,1.483v.148C134.3,309.068,135.456,308.4,136.88,309.2Z" transform="translate(-134.3 -308.714)" fill="#fff" opacity="0.25"/>
    </g>
  </g>
</svg>
