<svg id="aivalable-on-the-app-store-2" xmlns="http://www.w3.org/2000/svg" width="140" height="41.492" viewBox="0 0 140 41.492">
  <path id="Path_27746" data-name="Path 27746" d="M148.829,46.351a3.974,3.974,0,0,1-3.978,3.974H14.664a3.979,3.979,0,0,1-3.983-3.974V14.659a3.984,3.984,0,0,1,3.983-3.979H144.85a3.978,3.978,0,0,1,3.978,3.979V46.351Z" transform="translate(-9.757 -9.757)" fill="#fff"/>
  <path id="Path_27747" data-name="Path 27747" d="M135.093,41.492H4.907A4.908,4.908,0,0,1,0,36.594V4.9A4.911,4.911,0,0,1,4.907,0H135.092A4.913,4.913,0,0,1,140,4.9v31.69a4.907,4.907,0,0,1-4.906,4.9Z" fill="#fff"/>
  <path id="Path_27748" data-name="Path 27748" d="M148.829,46.351a3.974,3.974,0,0,1-3.978,3.974H14.664a3.979,3.979,0,0,1-3.983-3.974V14.659a3.984,3.984,0,0,1,3.983-3.979H144.85a3.978,3.978,0,0,1,3.978,3.979V46.351Z" transform="translate(-9.757 -9.757)" fill="#fff"/>
  <path id="Path_27749" data-name="Path 27749" d="M171.492,88.681a6.015,6.015,0,0,1,2.865-5.047,6.16,6.16,0,0,0-4.852-2.623c-2.041-.215-4.021,1.221-5.06,1.221-1.06,0-2.661-1.2-4.387-1.165a6.46,6.46,0,0,0-5.437,3.316c-2.351,4.07-.6,10.052,1.655,13.342,1.127,1.612,2.444,3.411,4.167,3.347,1.686-.068,2.316-1.074,4.351-1.074,2.016,0,2.607,1.074,4.365,1.033,1.81-.028,2.949-1.619,4.036-3.245a13.3,13.3,0,0,0,1.846-3.759,5.819,5.819,0,0,1-3.549-5.348Zm-3.32-9.834a5.921,5.921,0,0,0,1.355-4.243,6.031,6.031,0,0,0-3.9,2.017,5.634,5.634,0,0,0-1.39,4.086A4.981,4.981,0,0,0,168.172,78.847Z" transform="translate(-140.231 -68.153)" fill="#1c1b1b"/>
  <path id="Path_27750" data-name="Path 27750" d="M825.648,0H755.916l27.313,41.492h42.419a4.911,4.911,0,0,0,4.907-4.9V4.9A4.911,4.911,0,0,0,825.648,0Z" transform="translate(-690.555)" fill="none"/>
  <g id="Group_31854" data-name="Group 31854" transform="translate(44.025 18.676)">
    <path id="Path_27751" data-name="Path 27751" d="M520.817,230h-2.356l-1.291-4.056h-4.487L511.454,230H509.16l4.446-13.808h2.745Zm-4.036-5.758-1.167-3.606q-.185-.553-.7-2.6h-.041q-.205.881-.656,2.6l-1.148,3.606Zm15.448.657a5.638,5.638,0,0,1-1.38,4.015,4.046,4.046,0,0,1-3.069,1.312,3.073,3.073,0,0,1-2.843-1.412v5.224h-2.212V223.318q0-1.6-.082-3.273h1.945l.123,1.578h.041a3.935,3.935,0,0,1,6.3-.391A5.506,5.506,0,0,1,532.229,224.9Zm-2.254.081a4.1,4.1,0,0,0-.656-2.4,2.266,2.266,0,0,0-1.926-.983,2.3,2.3,0,0,0-1.485.543,2.517,2.517,0,0,0-.87,1.425,2.889,2.889,0,0,0-.1.673V225.9a2.664,2.664,0,0,0,.666,1.835,2.211,2.211,0,0,0,1.731.748,2.267,2.267,0,0,0,1.945-.963A4.239,4.239,0,0,0,529.975,224.983Zm13.706-.081a5.639,5.639,0,0,1-1.38,4.015,4.049,4.049,0,0,1-3.07,1.312,3.073,3.073,0,0,1-2.843-1.412v5.224h-2.212V223.318q0-1.6-.082-3.273h1.945l.123,1.578h.042a3.936,3.936,0,0,1,6.3-.391A5.511,5.511,0,0,1,543.681,224.9Zm-2.255.081a4.1,4.1,0,0,0-.657-2.4,2.262,2.262,0,0,0-1.924-.983,2.31,2.31,0,0,0-1.487.543,2.516,2.516,0,0,0-.87,1.425,2.959,2.959,0,0,0-.1.673V225.9a2.673,2.673,0,0,0,.665,1.835,2.216,2.216,0,0,0,1.733.748,2.265,2.265,0,0,0,1.945-.963A4.238,4.238,0,0,0,541.426,224.983Zm15.059,1.147A3.689,3.689,0,0,1,555.257,229a5.441,5.441,0,0,1-3.761,1.209,6.565,6.565,0,0,1-3.576-.86l.511-1.844a6.154,6.154,0,0,0,3.2.861,3.016,3.016,0,0,0,1.946-.563,1.841,1.841,0,0,0,.7-1.5,1.928,1.928,0,0,0-.575-1.414,5.329,5.329,0,0,0-1.9-1.065q-3.627-1.353-3.628-3.955a3.492,3.492,0,0,1,1.281-2.786,5.063,5.063,0,0,1,3.391-1.086,6.7,6.7,0,0,1,3.135.656l-.555,1.8a5.481,5.481,0,0,0-2.653-.635,2.7,2.7,0,0,0-1.83.574,1.642,1.642,0,0,0-.555,1.251,1.691,1.691,0,0,0,.636,1.352,7.168,7.168,0,0,0,2.007,1.065,6.8,6.8,0,0,1,2.622,1.679A3.5,3.5,0,0,1,556.485,226.129Zm7.333-4.423H561.38v4.834q0,1.844,1.291,1.843a3.89,3.89,0,0,0,.983-.1l.061,1.68a5.009,5.009,0,0,1-1.72.245,2.652,2.652,0,0,1-2.049-.8,3.923,3.923,0,0,1-.738-2.684V221.7h-1.453v-1.66h1.453v-1.823l2.173-.656v2.479h2.438Zm10.98,3.236a5.462,5.462,0,0,1-1.312,3.77,4.675,4.675,0,0,1-3.646,1.516,4.457,4.457,0,0,1-3.494-1.453,5.3,5.3,0,0,1-1.3-3.667,5.418,5.418,0,0,1,1.342-3.789A4.651,4.651,0,0,1,570,219.844a4.55,4.55,0,0,1,3.523,1.455,5.227,5.227,0,0,1,1.271,3.644Zm-2.293.051a4.458,4.458,0,0,0-.592-2.349,2.19,2.19,0,0,0-1.988-1.186,2.221,2.221,0,0,0-2.028,1.186,4.531,4.531,0,0,0-.594,2.391,4.444,4.444,0,0,0,.594,2.35,2.269,2.269,0,0,0,4-.02A4.476,4.476,0,0,0,572.5,224.993Zm9.486-3a3.842,3.842,0,0,0-.7-.061,2.088,2.088,0,0,0-1.8.882,3.322,3.322,0,0,0-.552,1.966V230h-2.212v-6.821q0-1.72-.064-3.135h1.927l.081,1.9h.061a3.415,3.415,0,0,1,1.106-1.578,2.676,2.676,0,0,1,1.6-.533,3.541,3.541,0,0,1,.553.041Zm9.894,2.562a5.188,5.188,0,0,1-.081,1h-6.636a2.888,2.888,0,0,0,.963,2.256,3.293,3.293,0,0,0,2.171.7,7.341,7.341,0,0,0,2.685-.47l.346,1.535a8.3,8.3,0,0,1-3.338.615,4.839,4.839,0,0,1-3.638-1.361,5.033,5.033,0,0,1-1.321-3.656,5.7,5.7,0,0,1,1.231-3.748,4.24,4.24,0,0,1,3.481-1.6,3.71,3.71,0,0,1,3.259,1.6,5.373,5.373,0,0,1,.878,3.131Zm-2.11-.574a2.994,2.994,0,0,0-.43-1.7,1.932,1.932,0,0,0-1.762-.923,2.1,2.1,0,0,0-1.761.9,3.3,3.3,0,0,0-.655,1.72Z" transform="translate(-509.16 -215.99)" fill="#1c1b1b"/>
  </g>
  <g id="Group_31855" data-name="Group 31855" transform="translate(44.849 6.799)">
    <path id="Path_27752" data-name="Path 27752" d="M524.419,85.775H523.26l-.634-1.993h-2.2l-.6,1.993h-1.128l2.185-6.787h1.349Zm-1.984-2.83-.574-1.772c-.06-.182-.171-.6-.342-1.278H521.5c-.071.292-.171.715-.323,1.278l-.563,1.772Zm7.448-2.064-1.853,4.893h-1.057l-1.793-4.893h1.168l.836,2.588c.141.433.261.846.352,1.238h.03c.081-.352.2-.765.352-1.238l.826-2.588Zm3.945,4.893-.081-.564h-.03a1.669,1.669,0,0,1-1.43.674,1.424,1.424,0,0,1-1.5-1.44c0-1.208,1.047-1.832,2.86-1.832v-.09c0-.644-.342-.967-1.017-.967a2.285,2.285,0,0,0-1.278.363l-.221-.715a3.133,3.133,0,0,1,1.682-.423c1.278,0,1.924.674,1.924,2.024v1.8a7.26,7.26,0,0,0,.071,1.168h-.978Zm-.151-2.437c-1.209,0-1.813.293-1.813.987a.693.693,0,0,0,.745.765,1.041,1.041,0,0,0,1.068-1Zm3.481-3.262a.65.65,0,1,1,.685-.655A.639.639,0,0,1,537.157,80.075Zm.564,5.7h-1.087V80.881h1.087Zm3.019,0h-1.087V78.636h1.087Zm4.621,0-.081-.564h-.03a1.669,1.669,0,0,1-1.43.674,1.424,1.424,0,0,1-1.5-1.44c0-1.208,1.047-1.832,2.86-1.832v-.09c0-.644-.342-.967-1.017-.967a2.285,2.285,0,0,0-1.278.363l-.222-.716a3.133,3.133,0,0,1,1.682-.423c1.278,0,1.924.674,1.924,2.024v1.8a7.539,7.539,0,0,0,.07,1.168h-.976Zm-.151-2.437c-1.209,0-1.813.293-1.813.987a.693.693,0,0,0,.745.765,1.041,1.041,0,0,0,1.068-1Zm5.464,2.548a1.661,1.661,0,0,1-1.539-.866h-.022l-.062.755h-.927c.03-.392.04-.836.04-1.319v-5.82h1.088V81.6h.021a1.679,1.679,0,0,1,1.561-.816c1.179,0,2,1.008,2,2.477A2.355,2.355,0,0,1,550.675,85.886Zm-.221-4.25a1.251,1.251,0,0,0-1.2,1.3v.856a1.2,1.2,0,0,0,1.18,1.229c.815,0,1.3-.664,1.3-1.721C551.733,82.311,551.229,81.636,550.454,81.636Zm5.081,4.139h-1.086V78.636h1.086Zm5.919-2.185H558.19a1.4,1.4,0,0,0,1.541,1.45,3.671,3.671,0,0,0,1.319-.231l.169.755a4.079,4.079,0,0,1-1.64.3,2.272,2.272,0,0,1-2.437-2.466,2.39,2.39,0,0,1,2.315-2.628,2.427,2.427,0,0,1,2,2.819Zm-1-.775c0-.755-.383-1.289-1.078-1.289a1.291,1.291,0,0,0-1.189,1.289Zm7.589,3.071a2.329,2.329,0,0,1-2.356-2.517,2.383,2.383,0,0,1,2.438-2.588,2.311,2.311,0,0,1,2.356,2.508A2.4,2.4,0,0,1,568.046,85.886Zm.042-4.31c-.786,0-1.289.735-1.289,1.762,0,1.008.514,1.742,1.278,1.742s1.277-.785,1.277-1.763C569.355,82.321,568.852,81.576,568.087,81.576Zm8.242,4.2h-1.086v-2.81c0-.865-.332-1.3-.987-1.3a1.13,1.13,0,0,0-1.088,1.2v2.91h-1.086V82.28c0-.433-.011-.9-.041-1.4H573l.051.755h.03a1.756,1.756,0,0,1,1.55-.856c1.026,0,1.7.785,1.7,2.064v2.931h0Zm7.115-4.078h-1.2v2.376q0,.907.633.907a2.153,2.153,0,0,0,.484-.051l.03.826a2.422,2.422,0,0,1-.845.121c-.857,0-1.369-.473-1.369-1.712V81.7h-.714v-.816h.714v-.9l1.067-.323V80.88h1.2Zm5.759,4.078h-1.089V82.986c0-.876-.332-1.319-.987-1.319a1.065,1.065,0,0,0-1.086,1.158v2.95h-1.088V78.636h1.088v2.94h.021a1.647,1.647,0,0,1,1.47-.8c1.037,0,1.671.805,1.671,2.085Zm5.556-2.185H591.5a1.4,1.4,0,0,0,1.54,1.45,3.667,3.667,0,0,0,1.319-.231l.17.755a4.085,4.085,0,0,1-1.641.3,2.272,2.272,0,0,1-2.437-2.466,2.39,2.39,0,0,1,2.315-2.628A2.056,2.056,0,0,1,594.8,83.1a2.114,2.114,0,0,1-.036.493Zm-1-.775c0-.755-.382-1.289-1.077-1.289a1.29,1.29,0,0,0-1.189,1.289Z" transform="translate(-518.688 -78.636)" fill="#1c1b1b"/>
  </g>
</svg>
