<svg xmlns="http://www.w3.org/2000/svg" width="13" height="13" viewBox="0 0 13 13">
  <g id="Group_31476" data-name="Group 31476" transform="translate(-175 -275)">
    <path id="Path_26406" data-name="Path 26406" d="M0,0H13V13H0Z" transform="translate(175 275)" fill="none"/>
    <path id="Path_26407" data-name="Path 26407" d="M5.528,7.363H6.792V8.554H5.528Zm8.847-2.979v8.342a1.233,1.233,0,0,1-1.264,1.192H4.264A1.229,1.229,0,0,1,3,12.725l.006-8.342A1.223,1.223,0,0,1,4.264,3.192H4.9V2H6.16V3.192h5.056V2h1.264V3.192h.632A1.233,1.233,0,0,1,14.375,4.383ZM4.264,5.575h8.847V4.383H4.264Zm8.847,7.15V6.767H4.264v5.958ZM10.583,8.554h1.264V7.363H10.583Zm-2.528,0H9.319V7.363H8.056Z" transform="translate(172.813 273.542)" fill="#d66025"/>
  </g>
</svg>
