<svg xmlns="http://www.w3.org/2000/svg" width="26" height="27.688" viewBox="0 0 26 27.688">
  <g id="Group_31573" data-name="Group 31573" transform="translate(0 -0.001)">
    <path id="Path_28781" data-name="Path 28781" d="M6.039.457c-.334.421-.37.7-.37,2.651,0,2.072.019,2.195.439,2.6a1.119,1.119,0,0,0,1.669.088c.317-.317.35-.58.35-2.721S8.093.668,7.777.352a1.142,1.142,0,0,0-1.738.1" transform="translate(0.155)" fill="#152c69"/>
    <path id="Path_28782" data-name="Path 28782" d="M15.646.457c-.333.421-.369.7-.369,2.616s.036,2.194.369,2.615a1.142,1.142,0,0,0,1.738.106c.317-.317.351-.58.351-2.721S17.7.668,17.384.352a1.142,1.142,0,0,0-1.738.1" transform="translate(0.418)" fill="#152c69"/>
    <path id="Path_28783" data-name="Path 28783" d="M1.782,2A2.924,2.924,0,0,0,.324,3.337C.015,3.949,0,4.319,0,13.569c0,9.379,0,9.6.34,10.183a3.293,3.293,0,0,0,.907.982l.6.4,6.043.048,6.044.048-.341-.579-.34-.563H2.236l-.55-.547L1.134,23V8.968l10.824.049,10.807.032.049,2.912.032,2.911.454.226c.243.112.487.241.567.274.179.1.13-10.73-.048-11.422a3.311,3.311,0,0,0-1.474-1.818,5.143,5.143,0,0,0-2.009-.241H18.8V3.4c0,1.287-.048,1.577-.372,2.043a1.85,1.85,0,0,1-2.253.741c-.972-.4-1.182-.9-1.182-2.719V1.89H8.912V3.37A3.5,3.5,0,0,1,8.588,5.4a1.866,1.866,0,0,1-3.111.161c-.308-.435-.372-.772-.422-2.092L4.99,1.89,3.5,1.906A10.5,10.5,0,0,0,1.782,2" transform="translate(0 0.217)" fill="#d66025"/>
    <path id="Path_28784" data-name="Path 28784" d="M4.41,13.655V15.5H8.1V11.812H4.41Z" transform="translate(0.101 0.281)" fill="#d66025"/>
    <path id="Path_28785" data-name="Path 28785" d="M9.922,13.655V15.5h3.686V11.812H9.922Z" transform="translate(0.228 0.281)" fill="#d66025"/>
    <path id="Path_28786" data-name="Path 28786" d="M15.434,13.48a10.459,10.459,0,0,0,.07,1.668c.035,0,.492-.193,1.018-.439a6.619,6.619,0,0,1,1.773-.544l.825-.123V11.812H15.434Z" transform="translate(0.354 0.295)" fill="#d66025"/>
    <path id="Path_28787" data-name="Path 28787" d="M17.434,15.069a6.933,6.933,0,0,0-3.827,3.6,5.018,5.018,0,0,0-.457,2.739,4.772,4.772,0,0,0,.562,2.914,6.61,6.61,0,0,0,5.793,3.81,6.6,6.6,0,0,0,6.478-3.792,4.719,4.719,0,0,0,.509-2.845,10.279,10.279,0,0,0-.14-2.177c-.124-.315-.14-.315-.545.054-.368.333-.386.474-.263,1.264a5.8,5.8,0,0,1-3.405,6.056,4.089,4.089,0,0,1-2.546.387,4.648,4.648,0,0,1-2.475-.58c-4.986-2.721-3.424-10.393,2.194-10.762a4.806,4.806,0,0,1,3.493.756c.966.579,1.037.6,1.334.333.387-.351.246-.614-.719-1.212a7.062,7.062,0,0,0-5.987-.544" transform="translate(-0.492 -0.452)" fill="#152c69"/>
    <path id="Path_28788" data-name="Path 28788" d="M22.01,19.4l-3.037,3.02-1.3-1.264a4.88,4.88,0,0,0-1.668-1.264.937.937,0,0,0-.755,1.176A24.892,24.892,0,0,0,18.99,24.63a44.366,44.366,0,0,0,3.7-3.458c2.827-2.827,3.477-3.547,3.477-3.95a.879.879,0,0,0-.9-.843A32.173,32.173,0,0,0,22.01,19.4" transform="translate(-0.258 -0.252)" fill="#152c69"/>
    <path id="Path_28789" data-name="Path 28789" d="M4.41,19.168v1.844H8.1V17.324H4.41Z" transform="translate(0.101 0.412)" fill="#d66025"/>
    <path id="Path_28790" data-name="Path 28790" d="M9.922,19.168v1.844H12.5l.123-1a7.737,7.737,0,0,1,.457-1.773,8.2,8.2,0,0,0,.351-.843,11.715,11.715,0,0,0-1.756-.07H9.922Z" transform="translate(0.234 0.412)" fill="#d66025"/>
  </g>
</svg>
