<svg xmlns="http://www.w3.org/2000/svg" width="26" height="27.387" viewBox="0 0 26 27.387">
  <g id="Group_31568" data-name="Group 31568" transform="translate(0 0)">
    <path id="Path_28773" data-name="Path 28773" d="M1.417,2.436a3.232,3.232,0,0,0-.987.938L0,4.024V23.342l.589.7c.955,1.112.94,1.112,7.214,1.112h5.573l-.271-.556-.271-.556H2.229l-.51-.461-.525-.461V9.187H22.373l.048,2.717.032,2.717.574.254.557.27-.048-5.607-.048-5.624-.4-.572c-.669-.969-1.322-1.223-3.09-1.223H18.471V3.706c0,1.525-.015,1.589-.477,2.129a1.7,1.7,0,0,1-2.15.476c-.844-.4-1.036-.905-1.036-2.684V2.118H8.758V3.706c0,1.589,0,1.6-.526,2.161a1.366,1.366,0,0,1-1.178.6C5.589,6.5,5.1,5.8,5.1,3.643V2.118H3.551a4.441,4.441,0,0,0-2.133.318" transform="translate(0 -0.147)" fill="#d66025"/>
    <path id="Path_28774" data-name="Path 28774" d="M4.943,14.964v1.725H8.392v-3.45H4.943Z" transform="translate(-0.49 -1.31)" fill="#d66025"/>
    <path id="Path_28775" data-name="Path 28775" d="M11.121,14.963V16.7l1.774-.049,1.757-.049V13.321L12.9,13.272l-1.774-.049Z" transform="translate(-1.104 -1.309)" fill="#d66025"/>
    <path id="Path_28776" data-name="Path 28776" d="M17.476,14.635v1.38L18.2,15.7a12.88,12.88,0,0,1,1.724-.509l1-.2V13.239H17.476Z" transform="translate(-1.734 -1.3)" fill="#d66025"/>
    <g id="Group_31569" data-name="Group 31569" transform="translate(6.304 0)">
      <path id="Path_28771" data-name="Path 28771" d="M6.756.345c-.279.312-.312.608-.312,2.562,0,2.135.016,2.234.394,2.529a1.112,1.112,0,0,0,1.511,0c.362-.295.378-.41.394-2.529C8.743.953,8.71.657,8.431.345a1.19,1.19,0,0,0-1.676,0" transform="translate(-6.444 0)" fill="#152c69"/>
      <path id="Path_28772" data-name="Path 28772" d="M17.524.345c-.279.312-.312.608-.312,2.562,0,2.135.016,2.234.394,2.529a1.112,1.112,0,0,0,1.511,0c.378-.312.394-.394.394-2.529,0-1.955-.033-2.251-.312-2.562a1.19,1.19,0,0,0-1.676,0" transform="translate(-7.764 0)" fill="#152c69"/>
      <path id="Path_28777" data-name="Path 28777" d="M18.953,16.3a7.04,7.04,0,0,0-4.057,3.7,4.749,4.749,0,0,0-.509,2.727,4.561,4.561,0,0,0,.624,2.906,6.736,6.736,0,0,0,3.2,3.2c.854.427,1.084.461,2.826.461,1.773,0,1.954-.033,2.874-.493a6.861,6.861,0,0,0,3.728-7.16,6.725,6.725,0,0,0-3.777-4.961,5,5,0,0,0-2.661-.558,8.01,8.01,0,0,0-2.25.18m3.1.772a5.755,5.755,0,0,1,3.137,1.774,5.411,5.411,0,0,1,1.281,5.567,5.753,5.753,0,0,1-4.55,3.958,5.68,5.68,0,0,1-6.11-3.235,4.445,4.445,0,0,1-.444-2.414,4.443,4.443,0,0,1,.444-2.414,5.985,5.985,0,0,1,4.138-3.253,3.973,3.973,0,0,1,2.1.017" transform="translate(-8.046 -1.902)" fill="#152c69"/>
      <path id="Path_28778" data-name="Path 28778" d="M20.94,17.867a8.009,8.009,0,0,0-.23,2.348l-.049,2.119-1.725.082c-1.593.082-1.724.114-1.724.41s.148.345,1.724.427a19.325,19.325,0,0,1,2.152.23c.3.083.476.033.575-.114a25.783,25.783,0,0,0-.132-5.519c-.213-.246-.378-.246-.591.017" transform="translate(-6.891 0.081)" fill="#152c69"/>
    </g>
    <path id="Path_28779" data-name="Path 28779" d="M4.943,21.143v1.725H8.392v-3.45H4.943Z" transform="translate(-0.49 -1.922)" fill="#d66025"/>
    <path id="Path_28780" data-name="Path 28780" d="M11.236,19.534a7.14,7.14,0,0,0-.115,1.725v1.625l1.1-.049,1.117-.049.114-.936a6.708,6.708,0,0,1,.378-1.528,4.478,4.478,0,0,0,.247-.755,8.2,8.2,0,0,0-2.841-.033" transform="translate(-1.097 -1.923)" fill="#d66025"/>
  </g>
</svg>
