<svg xmlns="http://www.w3.org/2000/svg" width="23.6" height="16.126" viewBox="0 0 23.6 16.126">
  <g id="Group_31153" data-name="Group 31153" transform="translate(-199.201 -148.621)">
    <path id="Path_26895" data-name="Path 26895" d="M206.431,149.453l-.643.839,2.3.02c1.265.007,3.331.007,4.6,0l2.295-.02-.643-.833-.636-.832-3.311-.007h-3.317Z" transform="translate(0.611)" fill="#fff"/>
    <path id="Path_26896" data-name="Path 26896" d="M215.959,149.239a1.342,1.342,0,0,0-.079.59v.511l1.625-.013,1.619-.02.02-.465c.026-.708.092-.682-1.652-.682A5.581,5.581,0,0,0,215.959,149.239Z" transform="translate(1.546 0.05)" fill="#fff"/>
    <path id="Path_26897" data-name="Path 26897" d="M201.192,150.031c-.17.2-.013.236,1.278.236h1.277l-.02-.151c-.02-.144-.033-.144-1.238-.164C201.48,149.939,201.257,149.952,201.192,150.031Z" transform="translate(0.179 0.123)" fill="#fff"/>
    <path id="Path_26898" data-name="Path 26898" d="M199.627,150.491c-.341.223-.426.472-.426,1.259v.708h1c.911,0,1.029.013,1.292.144a1.8,1.8,0,0,1,.485.4l.2.256.02,4.288c.02,4.661.033,4.458-.341,4.865-.288.328-.465.367-1.593.393l-1.069.026v.544c0,.622.131.9.525,1.094.216.111.892.118,11.275.118s11.059-.007,11.276-.118a1.07,1.07,0,0,0,.374-.334l.151-.222v-6.458c0-6.438,0-6.458-.138-6.681-.275-.446.643-.413-11.675-.413C199.981,150.36,199.824,150.36,199.627,150.491Zm12.357.793a6.368,6.368,0,0,1,4.688,3.553,5.234,5.234,0,0,1,.538,2.413,4.267,4.267,0,0,1-.138,1.639,6.122,6.122,0,0,1-1.751,3.049,5.263,5.263,0,0,1-1.534,1.088,5.854,5.854,0,0,1-2.786.656,6.231,6.231,0,0,1-6.228-6.274,5.981,5.981,0,0,1,1.868-4.393,6.83,6.83,0,0,1,1.134-.911,7.876,7.876,0,0,1,2.177-.82A8.432,8.432,0,0,1,211.984,151.284Zm9.82.1c.131.092.144.151.144.774a1.787,1.787,0,0,1-.079.747,25.363,25.363,0,0,1-4.234-.007,2.4,2.4,0,0,1-.085-.734c-.013-.944-.164-.885,2.2-.885C221.372,151.278,221.68,151.291,221.8,151.383Z" transform="translate(0 0.161)" fill="#fff"/>
    <path id="Path_26899" data-name="Path 26899" d="M209.469,151.844a5.623,5.623,0,0,0-4.543,5.8,5.184,5.184,0,0,0,.583,2.177,5.67,5.67,0,0,0,3.5,2.878,6.7,6.7,0,0,0,2.931,0,5.969,5.969,0,0,0,2.858-1.869,6.981,6.981,0,0,0,1.082-2.164,5.583,5.583,0,0,0-6.412-6.825Zm2.111,1.311a4.5,4.5,0,0,1,2.747,2.255,4.883,4.883,0,0,1,.472,1.895,4.82,4.82,0,0,1-.924,2.662,4.467,4.467,0,0,1-3.4,1.672,4.4,4.4,0,0,1-3.39-1.672,4.214,4.214,0,0,1-.885-2.721,3.984,3.984,0,0,1,.492-2,5.637,5.637,0,0,1,1.619-1.652A4.453,4.453,0,0,1,211.58,153.155Z" transform="translate(0.529 0.29)" fill="#fff"/>
    <path id="Path_26900" data-name="Path 26900" d="M209.693,153.524a4.465,4.465,0,0,0-1.895.951,3.68,3.68,0,0,0-1.2,2.747,5.928,5.928,0,0,0,.033.983l.066.3.007-.341a8,8,0,0,1,.393-1.928,4.62,4.62,0,0,1,3.219-2.74c.229-.059.229-.059.033-.059A4.564,4.564,0,0,0,209.693,153.524Z" transform="translate(0.685 0.446)" fill="#fff"/>
    <path id="Path_26901" data-name="Path 26901" d="M199.2,157.449v4.989l1.036-.026c1.147-.026,1.324-.072,1.6-.459l.151-.216V157.43c0-4.242,0-4.307-.138-4.491a1.516,1.516,0,0,0-.42-.334c-.262-.131-.38-.144-1.259-.144h-.97Z" transform="translate(0 0.356)" fill="#fff"/>
  </g>
</svg>
