<svg xmlns="http://www.w3.org/2000/svg" width="64" height="64" viewBox="0 0 64 64">
  <g id="consent_based_linking" data-name="consent based linking" transform="translate(12148 22985)">
    <rect id="Rectangle_144578" data-name="Rectangle 144578" width="64" height="64" transform="translate(-12148 -22985)" fill="none"/>
    <g id="Group_71095" data-name="Group 71095" transform="translate(-186.5 -55)">
      <g id="Group_71096" data-name="Group 71096" transform="translate(-11957.5 -22925)">
        <path id="Path_29103" data-name="Path 29103" d="M20.786,34.437V20.447a.663.663,0,0,1,.658-.658h7a2.743,2.743,0,0,0,2.75-2.75v-7a.663.663,0,0,1,.658-.658H49.962a2.016,2.016,0,0,1,2.033,2.033V25.05l3.886-4.245V11.419A5.894,5.894,0,0,0,49.962,5.5H31.368a5.881,5.881,0,0,0-4.185,1.734l-8.55,8.55A5.781,5.781,0,0,0,16.9,19.968V34.437a10.286,10.286,0,0,1,1.913-.12A10.933,10.933,0,0,1,20.786,34.437Z" transform="translate(-8.291 -5.5)" fill="#264488"/>
        <path id="Path_29104" data-name="Path 29104" d="M61.928,69.026v2.332a2.016,2.016,0,0,1-2.033,2.033H42.557a12.356,12.356,0,0,1-.957,3.886H59.835a5.894,5.894,0,0,0,5.919-5.919V65.2l-2.272,2.451A5.718,5.718,0,0,1,61.928,69.026Z" transform="translate(-18.223 -29.507)" fill="#264488"/>
        <path id="Path_29105" data-name="Path 29105" d="M49.446,68.786a4.2,4.2,0,0,1,.06-2.571l.419-1.315H40a12.575,12.575,0,0,1,1.554,3.826h7.892Z" transform="translate(-17.58 -29.387)" fill="#264488"/>
        <path id="Path_29106" data-name="Path 29106" d="M50.649,50.9H32.713A1.926,1.926,0,0,0,30.8,52.813a1.967,1.967,0,0,0,1.913,1.913H47.66a8.458,8.458,0,0,1,1.375-2.093Z" transform="translate(-13.88 -23.757)" fill="#264488"/>
        <path id="Path_29107" data-name="Path 29107" d="M51.247,36.9H32.713a1.913,1.913,0,1,0,0,3.826H51.247a1.913,1.913,0,0,0,0-3.826Z" transform="translate(-13.88 -18.127)" fill="#264488"/>
        <path id="Path_29108" data-name="Path 29108" d="M57.882,22.9H49.213a1.913,1.913,0,0,0,0,3.826h8.669A1.889,1.889,0,0,0,59.8,24.813,1.926,1.926,0,0,0,57.882,22.9Z" transform="translate(-20.515 -12.497)" fill="#264488"/>
        <path id="Path_29109" data-name="Path 29109" d="M62.5,66.134,67.278,64.1a4.946,4.946,0,0,0,.957-.538L63.093,58.9a5.3,5.3,0,0,0-.478,1.016L61.06,64.879A1.056,1.056,0,0,0,62.5,66.134Z" transform="translate(-26.025 -26.974)" fill="#264488"/>
        <path id="Path_29110" data-name="Path 29110" d="M85.159,35.222l-3.169-2.87a1.428,1.428,0,0,0-2.033.12L68,45.565l5.261,4.843L85.219,37.314A1.443,1.443,0,0,0,85.159,35.222Z" transform="translate(-28.84 -16.15)" fill="#264488"/>
        <path id="Path_29111" data-name="Path 29111" d="M13.082,59.2A10.582,10.582,0,1,0,23.665,69.782,10.6,10.6,0,0,0,13.082,59.2Zm4.723,9.506-4.962,4.962a1.588,1.588,0,0,1-2.272,0L8.12,71.217a1.649,1.649,0,0,1,2.332-2.332L11.767,70.2l3.767-3.767a1.624,1.624,0,0,1,2.332,0A1.607,1.607,0,0,1,17.805,68.706Z" transform="translate(-2.5 -27.094)" fill="#264488"/>
      </g>
      <g id="Group_71097" data-name="Group 71097" transform="translate(-11957.5 -22893.313)">
        <circle id="Ellipse_87" data-name="Ellipse 87" cx="10.791" cy="10.791" r="10.791" transform="translate(0 0)" fill="#d66025"/>
        <g id="Group_71085" data-name="Group 71085" transform="translate(5.26 4.508)">
          <path id="Path_29091" data-name="Path 29091" d="M5.07,16.166c-.019.021-.037.041-.056.059l-.03.035L4.035,17.3a1.218,1.218,0,0,1-1.793.028l-.009-.009a1.219,1.219,0,0,1-.13-1.789l.949-1.037.039-.041c.015-.017.03-.035.047-.052l1.682-1.84a2.775,2.775,0,0,0-3.077.581l-1.1,1.205a2.988,2.988,0,0,0,.5,4.169l.01.009a2.99,2.99,0,0,0,4.2.125l1.1-1.205a2.768,2.768,0,0,0,.3-3.113Z" transform="translate(0 -7.318)" fill="#fff"/>
          <path id="Path_29092" data-name="Path 29092" d="M17.232.923a3,3,0,0,0-4.2-.12l-1.1,1.2a2.773,2.773,0,0,0-.306,3.116l1.755-1.918a.164.164,0,0,0,.012-.012l0,0,.949-1.038a1.236,1.236,0,0,1,1.814-.034,1.233,1.233,0,0,1,.118,1.8l-.925,1.011-.037.04L13.555,6.893a2.774,2.774,0,0,0,3.077-.581l1.1-1.2A3,3,0,0,0,17.232.923Z" transform="translate(-6.695 -0.001)" fill="#fff"/>
          <path id="Path_29093" data-name="Path 29093" d="M8.033,13.2l.05.046A.926.926,0,0,0,9.4,13.183l3.545-3.874a.925.925,0,0,0-.057-1.314l-.05-.046a.925.925,0,0,0-1.313.061L7.979,11.885A.925.925,0,0,0,8.033,13.2Z" transform="translate(-4.585 -4.57)" fill="#fff"/>
        </g>
      </g>
    </g>
  </g>
</svg>
