<svg xmlns="http://www.w3.org/2000/svg" width="25.42" height="30.53" viewBox="0 0 25.42 30.53">
  <g id="Group_92" data-name="Group 92" transform="translate(-155 -45)">
    <path id="Path_26761" data-name="Path 26761" d="M318.65,271.245a8.554,8.554,0,0,0-2.134.67,7.755,7.755,0,0,0-2.627,2.311,7.086,7.086,0,0,0-.986,5.586,6.984,6.984,0,0,0,6.4,5.24,6.853,6.853,0,0,0,5.387-2.193,6.935,6.935,0,0,0,1.626-2.841,4.945,4.945,0,0,0,.2-1.862,5.573,5.573,0,0,0-.618-3A6.992,6.992,0,0,0,318.65,271.245Zm5.019,3.981a.9.9,0,0,1,.265.729,34.408,34.408,0,0,1-2.973,3.128c-2.922,2.922-2.936,2.936-3.238,2.936a.534.534,0,0,1-.523-.258,16.706,16.706,0,0,1-1.6-2.966.693.693,0,0,1,.258-.471c.228-.228.294-.258.53-.221.353.059.478.191.92.964.206.368.419.751.478.846.11.169.132.155,2.554-2.252,1.339-1.339,2.5-2.473,2.583-2.517A.875.875,0,0,1,323.669,275.227Z" transform="translate(-146.097 -209.532)" fill="#152c69"/>
    <g id="Group_91" data-name="Group 91" transform="translate(155 45)">
      <path id="Path_26762" data-name="Path 26762" d="M157.554,47.561,155,50.115v9.023c0,5.8.029,9.17.074,9.42a3.858,3.858,0,0,0,2.686,2.9,24.576,24.576,0,0,0,3.915.11h3.481V69.735l-3.4-.022c-3.275-.022-3.422-.029-3.739-.177a2.2,2.2,0,0,1-.942-.868c-.118-.213-.125-.846-.147-8.714l-.015-8.478h1.339c1.258,0,1.369-.015,1.722-.177a2.378,2.378,0,0,0,.64-.486c.442-.515.493-.78.493-2.48v-1.5l5.542.022,5.534.022.4.221a2.2,2.2,0,0,1,.567.442c.412.545.4.272.4,6.66v5.888h1.913V54.14c0-6.447.007-6.278-.412-7.146a4.562,4.562,0,0,0-1.545-1.568c-.81-.434-.684-.427-7.315-.427h-6.072Z" transform="translate(-155 -45)" fill="#d66025"/>
      <path id="Path_26763" data-name="Path 26763" d="M215.919,172.206a.643.643,0,0,0-.037.964l.191.191h10.686l.177-.206a.678.678,0,0,0,0-.913l-.177-.206-5.306-.022-5.3-.015Z" transform="translate(-211.216 -162.653)" fill="#d66025"/>
      <path id="Path_26764" data-name="Path 26764" d="M216.17,216.326a.679.679,0,0,0-.228,1.1l.191.191h10.686l.177-.206a.678.678,0,0,0,0-.913l-.177-.206-5.255-.015C218.679,216.275,216.251,216.3,216.17,216.326Z" transform="translate(-211.276 -203.675)" fill="#d66025"/>
      <path id="Path_26765" data-name="Path 26765" d="M216.147,260.055a.665.665,0,0,0-.191,1.126l.228.206h8.088l.53-.4a8.978,8.978,0,0,1,1.074-.677,3.753,3.753,0,0,0,.537-.3C226.413,259.959,216.287,260,216.147,260.055Z" transform="translate(-211.253 -244.166)" fill="#d66025"/>
      <path id="Path_26766" data-name="Path 26766" d="M216.221,304.191a.508.508,0,0,0-.221.471c0,.743-.037.736,3.363.736h2.855l.331-.64c.184-.353.346-.67.353-.7s-1.428-.059-3.216-.059l-3.238.007Z" transform="translate(-211.511 -284.939)" fill="#d66025"/>
    </g>
  </g>
</svg>
