<svg xmlns="http://www.w3.org/2000/svg" width="64" height="64" viewBox="0 0 64 64">
  <g id="Continuum_of_care" data-name="Continuum of care" transform="translate(12148 22985)">
    <rect id="Rectangle_144578" data-name="Rectangle 144578" width="64" height="64" transform="translate(-12148 -22985)" fill="none"/>
    <path id="Path_29079" data-name="Path 29079" d="M11.056,32.586a3.967,3.967,0,0,0-2.648,3.741v21.32a3.966,3.966,0,0,0,3.965,3.965H52.4a3.966,3.966,0,0,0,3.945-3.56c0-.006,0-.012,0-.019s3.827-23.211,5.233-31.745a3.964,3.964,0,0,0-3.912-4.61H52.2V16.216a3.965,3.965,0,0,0-3.965-3.965h-1.3a3.965,3.965,0,0,0-3.965-3.907H15.02a3.965,3.965,0,0,0-3.965,3.965V32.586ZM52.4,29.344H39.58a1.37,1.37,0,0,0-.977.41l-3.946,4.018a3.966,3.966,0,0,1-2.829,1.187H12.682a1.293,1.293,0,0,1-.328.042,1.32,1.32,0,0,1-.227-.02A1.369,1.369,0,0,0,11,36.327v21.32a1.37,1.37,0,0,0,1.368,1.368H52.4a1.368,1.368,0,0,0,1.368-1.368V30.713A1.368,1.368,0,0,0,52.4,29.344Zm-.2-5.07v2.474h.2a3.965,3.965,0,0,1,3.965,3.965V41.964l2.654-16.1a1.369,1.369,0,0,0-1.35-1.591Zm-7.857,2.474V12.309a1.368,1.368,0,0,0-1.368-1.368H15.02a1.368,1.368,0,0,0-1.368,1.368V32.362H31.829a1.367,1.367,0,0,0,.976-.41l3.946-4.017a3.966,3.966,0,0,1,2.829-1.187ZM19.073,28.3v-.628A1.368,1.368,0,0,1,20.441,26.3H25.7a1.368,1.368,0,0,1,1.368,1.368V28.3a1.3,1.3,0,1,0,2.6,0v-.628A3.964,3.964,0,0,0,25.7,23.7H20.441a3.965,3.965,0,0,0-3.965,3.965V28.3a1.3,1.3,0,0,0,2.6,0ZM46.939,14.848v11.9H49.6V16.216a1.369,1.369,0,0,0-1.368-1.368Zm-14.554,6.9H40.36a1.3,1.3,0,1,0,0-2.6H32.385a1.3,1.3,0,0,0,0,2.6ZM23.07,13.411a4.09,4.09,0,1,0,4.09,4.09A4.091,4.091,0,0,0,23.07,13.411Zm0,2.6A1.493,1.493,0,1,1,21.577,17.5,1.494,1.494,0,0,1,23.07,16.007Zm9.315.267H40.36a1.3,1.3,0,1,0,0-2.6H32.385a1.3,1.3,0,0,0,0,2.6Z" transform="translate(-12151.027 -22988.004)" fill="#264488" fill-rule="evenodd"/>
    <path id="Path_29082" data-name="Path 29082" d="M45.142,24.752h7.975a1.3,1.3,0,1,0,0-2.6H45.142a1.3,1.3,0,0,0,0,2.6Zm0-5.478h7.975a1.3,1.3,0,1,0,0-2.6H45.142a1.3,1.3,0,0,0,0,2.6Z" transform="translate(-12163.765 -22991.004)" fill="#d66025" fill-rule="evenodd"/>
    <path id="Path_29081" data-name="Path 29081" d="M44.615,59.6V55.581a1.3,1.3,0,0,0-1.3-1.3H37.982a1.3,1.3,0,0,0-1.3,1.3V59.6H32.662a1.3,1.3,0,0,0-1.3,1.3v5.334a1.3,1.3,0,0,0,1.3,1.3h4.022v4.022a1.3,1.3,0,0,0,1.3,1.3h5.334a1.3,1.3,0,0,0,1.3-1.3V67.534h4.022a1.3,1.3,0,0,0,1.3-1.3V60.9a1.3,1.3,0,0,0-1.3-1.3Zm-2.6,1.3a1.3,1.3,0,0,0,1.3,1.3h4.022v2.737H43.316a1.3,1.3,0,0,0-1.3,1.3v4.022H39.281V66.236a1.3,1.3,0,0,0-1.3-1.3H33.96V62.2h4.022a1.3,1.3,0,0,0,1.3-1.3V56.879h2.737Z" transform="translate(-12159.284 -23004.121)" fill="#d66025" fill-rule="evenodd"/>
  </g>
</svg>
