<svg xmlns="http://www.w3.org/2000/svg" width="18" height="23.866" viewBox="0 0 18 23.866">
  <g id="Group_31527" data-name="Group 31527" transform="translate(0 0)">
    <path id="Path_28709" data-name="Path 28709" d="M6.491.7c-1.32.382-2.935.851-3.6,1.047C1.047,2.27.447,2.51.218,2.8.011,3.055,0,3.273,0,7.015c0,4.113.065,4.964.545,6.829a16.136,16.136,0,0,0,5.236,8.084,15.379,15.379,0,0,0,2.651,1.745c.469.229.545.24.927.109A15.84,15.84,0,0,0,12.6,21.59a15.7,15.7,0,0,0,1.582-1.6,16.243,16.243,0,0,0,3.273-6.142c.48-1.865.545-2.716.545-6.818,0-4.385.011-4.287-.753-4.615-.218-.087-.96-.327-1.647-.513s-1.844-.535-2.564-.742C9.775.2,9.033-.01,8.967,0,8.924,0,7.811.317,6.491.7M10.3,1.79c.655.207,1.244.382,1.3.382s.655.164,1.32.371,1.767.535,2.444.742l1.244.36L16.549,7.79c-.055,4.615-.087,4.876-.84,6.873a14.657,14.657,0,0,1-5.618,7.1,4.446,4.446,0,0,1-1.058.589,6.887,6.887,0,0,1-2.095-1.3,14.826,14.826,0,0,1-5.215-8.193c-.207-.84-.229-1.342-.273-5.073L1.4,3.633l1.462-.415C4.244,2.826,4.833,2.652,7.582,1.8c.665-.207,1.276-.371,1.364-.382A9.735,9.735,0,0,1,10.3,1.79" transform="translate(0 0)" fill="#f8a3a8"/>
    <path id="Path_28710" data-name="Path 28710" d="M47.44,44.379c-1.385.545-2.018,1.549-2.116,3.327L45.269,48.8l-.327.055c-.218.044-.338.131-.382.316a42.485,42.485,0,0,0,.12,5.858,48.261,48.261,0,0,0,7.942.011,43.638,43.638,0,0,0,.044-6.087.849.849,0,0,0-.36-.12c-.262-.033-.273-.065-.338-1.135a3.418,3.418,0,0,0-1.942-3.262,4.023,4.023,0,0,0-2.585-.055m2.291.818a2.68,2.68,0,0,1,1.462,2.793l-.033.807H46.142V47.75c0-1.015.011-1.069.371-1.593A3.137,3.137,0,0,1,48,45a3.313,3.313,0,0,1,1.735.2m-.175,5.127A1.227,1.227,0,0,1,49.4,52.19l-.273.218.2.785a2.839,2.839,0,0,1,.12.84,3.192,3.192,0,0,1-.873.033l-.807-.033.142-.862c.131-.775.131-.884-.022-.96a1.486,1.486,0,0,1-.491-1.08,1.219,1.219,0,0,1,2.16-.807" transform="translate(-39.651 -39.371)" fill="#d11c25"/>
  </g>
</svg>
