<svg xmlns="http://www.w3.org/2000/svg" width="28" height="34.633" viewBox="0 0 28 34.633">
  <g id="Group_31537" data-name="Group 31537" transform="translate(-75 -411)">
    <g id="Group_31535" data-name="Group 31535" transform="translate(75 411)">
      <path id="Path_28715" data-name="Path 28715" d="M.632,4.518a1.364,1.364,0,0,0-.41.365L.03,5.138.012,18.594C-.015,31.222-.006,32.069.149,32.37c.328.674-.109.638,8.427.638,4.192,0,7.626-.018,7.626-.046a2.532,2.532,0,0,0-.237-.4,5.536,5.536,0,0,1-.447-.974l-.218-.628L8.8,30.93c-5.977-.018-6.5-.028-6.605-.173-.092-.118-.118-2.688-.118-12.108V6.686l.2-.137c.163-.118.474-.145,1.457-.145H5v-2H2.928a9.678,9.678,0,0,0-2.3.118" transform="translate(0 -0.597)" fill="#d66025"/>
      <path id="Path_28716" data-name="Path 28716" d="M22.537,5.4v1h1.321c1.2,0,1.34.018,1.5.182.182.182.182.3.182,7.963v7.771l.528.064a6.18,6.18,0,0,1,1,.227l.474.164V13.931c0-9.73.036-9.092-.547-9.393A7.622,7.622,0,0,0,24.632,4.4h-2.1Z" transform="translate(-3.056 -0.597)" fill="#d66025"/>
      <path id="Path_28717" data-name="Path 28717" d="M8.414,12.006v.227h6.559v-.455H8.414Z" transform="translate(-1.141 -1.597)" fill="#d66025"/>
      <path id="Path_28718" data-name="Path 28718" d="M16.951,12.006v.227h5.557v-.455H16.951Z" transform="translate(-2.298 -1.597)" fill="#d66025"/>
      <path id="Path_28719" data-name="Path 28719" d="M8.414,13.27V13.5h8.837v-.455H8.414Z" transform="translate(-1.141 -1.769)" fill="#d66025"/>
      <path id="Path_28720" data-name="Path 28720" d="M11.676,17.114l-3.262.028V17.6h6.559v-.274a.805.805,0,0,0-.018-.255c-.018.018-1.494.036-3.28.046" transform="translate(-1.141 -2.314)" fill="#d66025"/>
      <path id="Path_28721" data-name="Path 28721" d="M16.951,17.346V17.6h4.2l-.028-.227-.028-.237-2.077-.018L16.951,17.1Z" transform="translate(-2.298 -2.319)" fill="#d66025"/>
      <path id="Path_28722" data-name="Path 28722" d="M8.45,18.4a.641.641,0,0,0-.036.255v.21h8.837v-.5H12.869c-2.406,0-4.4.018-4.419.036" transform="translate(-1.141 -2.49)" fill="#d66025"/>
      <g id="Group_31536" data-name="Group 31536" transform="translate(4.357 0)">
        <path id="Path_28723" data-name="Path 28723" d="M23.2,26.146a6.09,6.09,0,0,0-4.62,4.236,5.09,5.09,0,0,0-.209,1.731,4.641,4.641,0,0,0,.264,1.859A6.229,6.229,0,0,0,22.884,38a6.957,6.957,0,0,0,3.325-.081A6.082,6.082,0,0,0,23.2,26.146m5.275,2.642c.446.419.319.865-.592,2.05-.128.174-.966,1.312-1.859,2.533a27.979,27.979,0,0,1-1.776,2.3.816.816,0,0,1-.355.092,13.949,13.949,0,0,1-1.914-1.5c-1.5-1.3-1.74-1.549-1.795-1.832a.615.615,0,0,1,.118-.564.927.927,0,0,1,.857-.429A11.245,11.245,0,0,1,22.5,32.486a7.519,7.519,0,0,0,1.285.975,23.447,23.447,0,0,0,1.667-2.123c2.086-2.86,2.013-2.778,2.433-2.778a.781.781,0,0,1,.592.227" transform="translate(-6.849 -3.528)" fill="#152c69"/>
        <path id="Path_28724" data-name="Path 28724" d="M11.821.114a2.679,2.679,0,0,0-1.595,2.158l-.064.437H6.728V6.9H19.574V2.71H16.221l-.054-.345A2.79,2.79,0,0,0,14.8.232,2.791,2.791,0,0,0,13.333.005a5.114,5.114,0,0,0-1.512.109m2.3,1.667a.953.953,0,0,1,.346.875,1,1,0,0,1-.237.784,1.305,1.305,0,0,1-2.241-1.313,1.161,1.161,0,0,1,1.285-.756.956.956,0,0,1,.847.41" transform="translate(-5.269 -0.001)" fill="#152c69"/>
        <path id="Path_28725" data-name="Path 28725" d="M5.041,12.509v1.048H7.182v-2.1H5.041Z" transform="translate(-5.041 -1.554)" fill="#152c69"/>
        <path id="Path_28726" data-name="Path 28726" d="M5.042,17.885v1.048h.446c.419,0,.456-.018.492-.255l.036-.245.018.245c.01.255.018.255.6.255.528,0,.592-.018.592-.182,0-.1-.046-.182-.091-.182-.064,0-.064-.055-.01-.164a2.906,2.906,0,0,0,.073-.865v-.7H5.042Zm.209.775c-.028.1-.064.182-.082.182s-.036-.082-.036-.182.036-.182.082-.182.064.082.036.182" transform="translate(-5.041 -2.283)" fill="#152c69"/>
        <path id="Path_28727" data-name="Path 28727" d="M5.041,23.647v1.075H6.08c.92,0,1.038-.018,1.074-.164a16.445,16.445,0,0,0-.009-1.886,2.834,2.834,0,0,0-1.057-.091H5.041Z" transform="translate(-5.041 -3.062)" fill="#152c69"/>
      </g>
      <path id="Path_28728" data-name="Path 28728" d="M8.478,22.908a.458.458,0,0,0-.064.273v.21h6.56v-.547H11.758c-1.776,0-3.252.028-3.28.064" transform="translate(-1.141 -3.097)" fill="#d66025"/>
      <path id="Path_28729" data-name="Path 28729" d="M16.951,23.118v.273h5.011v-.546H16.951Z" transform="translate(-2.298 -3.098)" fill="#d66025"/>
      <path id="Path_28730" data-name="Path 28730" d="M8.478,24.175a.458.458,0,0,0-.064.273v.21h8.847l-.028-.256-.027-.246-4.337-.028c-2.378-.009-4.364.01-4.391.046" transform="translate(-1.141 -3.272)" fill="#d66025"/>
      <path id="Path_28731" data-name="Path 28731" d="M8.471,27.135a13.264,13.264,0,0,0-.847,1.339,11.441,11.441,0,0,1-.9,1.385,1.739,1.739,0,0,1-.8.118c-.583,0-.656.018-.7.182-.045.182-.018.191.966.164L7.2,30.3l.674-1.12a6.408,6.408,0,0,1,.72-1.075c.028.028.365.9.747,1.941.684,1.868.7,1.895.957,1.895s.309-.091,1.048-1.476A7.555,7.555,0,0,1,12.216,29a3.317,3.317,0,0,1,.428.619,5.067,5.067,0,0,0,.437.692c.064.082.4.118,1.048.118.957,0,.957,0,.957-.227s-.018-.219-.793-.246l-.8-.027-.52-.911c-.464-.811-.546-.911-.774-.911s-.31.109-1.021,1.43a12.221,12.221,0,0,1-.829,1.44c-.027,0-.355-.839-.729-1.877-.674-1.9-.839-2.178-1.148-1.968" transform="translate(-0.706 -3.671)" fill="#d66025"/>
    </g>
  </g>
</svg>
