<svg xmlns="http://www.w3.org/2000/svg" width="30.001" height="32.668" viewBox="0 0 30.001 32.668">
  <g id="Group_31552" data-name="Group 31552" transform="translate(0.001 0)" opacity="0.4">
    <g id="Group_31554" data-name="Group 31554">
      <path id="Path_28747" data-name="Path 28747" d="M7.244,29.634H2.216l-.28-.291-.291-.28V17.685c0-6.255.035-11.459.07-11.564.163-.421.712-.525,2.731-.49l1.925.023.035.653c.058,1.155-.245,1.1,5.3,1.1h4.784l.222-.28a1.293,1.293,0,0,0,.221-.84V5.713h2.159c2.824,0,2.625-.186,2.625,2.451v1.947h1.634V8.21c0-2.147-.093-2.625-.607-3.255-.63-.759-.829-.805-3.419-.875l-2.334-.058-.058-.63c-.093-.829-.256-.945-1.459-.945h-.956L14.386,2A2.828,2.828,0,0,0,10.419.3,2.528,2.528,0,0,0,9.03,1.862l-.21.583H7.887c-1.2,0-1.365.117-1.459.945l-.058.63-2.334.058c-2.579.07-2.754.105-3.419.864a2.5,2.5,0,0,0-.478.851c-.2.677-.175,23.139.012,23.77a2.838,2.838,0,0,0,1.564,1.575c.291.082,2.275.129,5.484.129h4.993V29.634Zm3.746-27.7a.726.726,0,0,1,.688-.3.726.726,0,0,1,.688.3A.91.91,0,0,1,12.321,3.2a.92.92,0,0,1-1.33-1.272" fill="#d66025"/>
      <path id="Path_28748" data-name="Path 28748" d="M7.267,17.3c.187,0,.735-.443,1.8-1.47,1.262-1.213,1.529-1.529,1.529-1.8a.6.6,0,0,0-.256-.513c-.362-.257-.479-.234-.933.128-.211.164-.794.7-1.284,1.179l-.887.875-.618-.49a2.331,2.331,0,0,0-.864-.478.685.685,0,0,0-.548,1A7.592,7.592,0,0,0,7.267,17.3" transform="translate(-1.131 -2.953)" fill="#d66025"/>
      <path id="Path_28749" data-name="Path 28749" d="M6.391,24.677c.829.7.969.653,2.532-.875.735-.712,1.412-1.354,1.505-1.4.2-.117.222-.794.023-.991a.828.828,0,0,0-.5-.14c-.3,0-.572.2-1.529,1.108a12.671,12.671,0,0,1-1.237,1.109,3.091,3.091,0,0,1-.618-.467,2.059,2.059,0,0,0-.735-.467.755.755,0,0,0-.724.688c0,.327.152.5,1.283,1.435" transform="translate(-1.13 -4.705)" fill="#d66025"/>
      <path id="Path_28750" data-name="Path 28750" d="M8.427,30.236l-1.2,1.19-.537-.478a3.3,3.3,0,0,0-.747-.525.653.653,0,0,0-.805.583c-.035.326.058.443.864,1.132,1.272,1.086,1.237,1.1,3.092-.653,1.576-1.505,1.762-1.808,1.319-2.241-.4-.408-.724-.233-1.984.992" transform="translate(-1.135 -6.425)" fill="#d66025"/>
    </g>
    <g id="Group_31553" data-name="Group 31553">
      <path id="Path_28746" data-name="Path 28746" d="M33.439,24.081c-.035-9.814-.035-9.884-.28-10.21a3.382,3.382,0,0,0-.63-.6c-.373-.245-.478-.257-3.045-.257H26.812v-.037H25.178v.025l-4.166.035c-4.107.035-4.189.035-4.539.291-.782.561-.747.105-.747,10.118v9.055h-.071v1.634h.036l.28.431a3.037,3.037,0,0,0,.607.665c.326.245.443.245,7.818.28l7.491.023.525-.257a1.632,1.632,0,0,0,.794-.794l.257-.525Zm-1.4,10.035c-.105.105-1.937.14-7.526.14-7.1,0-7.386-.012-7.491-.222-.082-.14-.117-3.571-.105-9.825.012-9.125.023-9.6.234-9.814s.6-.21,7.433-.21c6.418,0,7.246.023,7.41.187s.187,1.213.187,9.895c0,7.4-.035,9.744-.14,9.849" transform="translate(-3.462 -2.872)" fill="#152c69"/>
      <path id="Path_28751" data-name="Path 28751" d="M19.4,22.2h2.1l.035,1.073a2.766,2.766,0,0,0,.14,1.086c.07.012.548.012,1.085.012l.957.012.035-1.027a2.7,2.7,0,0,1,.174-1.132,3.811,3.811,0,0,1,1.051-.047l.9.058V20.052L24.8,20.017c-.759-.023-1.085-.082-1.1-.187-.012-.069-.023-.56-.035-1.073l-.012-.934h-2.1V20.04H19.326l.035,1.074Z" transform="translate(-4.274 -3.942)" fill="#152c69"/>
      <path id="Path_28752" data-name="Path 28752" d="M31.837,17.824a5.449,5.449,0,0,0-1.867.14.514.514,0,0,0-.14.326c0,.409.245.467,1.937.467,1.354,0,1.692-.035,1.843-.187.222-.21.222-.234.07-.525-.117-.2-.268-.222-1.843-.222" transform="translate(-6.598 -3.942)" fill="#152c69"/>
      <path id="Path_28753" data-name="Path 28753" d="M31.739,21.42c-1.47,0-1.681.023-1.855.222a.372.372,0,0,0,.21.653,17.33,17.33,0,0,0,1.868.035c1.377-.035,1.633-.07,1.75-.234.093-.152.07-.257-.093-.431-.21-.222-.35-.245-1.879-.245" transform="translate(-6.581 -4.738)" fill="#152c69"/>
      <path id="Path_28754" data-name="Path 28754" d="M31.871,25.058a7.251,7.251,0,0,0-1.832.093c-.21.117-.292.63-.105.735a14.753,14.753,0,0,0,1.808.082c1.925.023,2.171-.047,1.9-.6-.139-.292-.163-.292-1.773-.315" transform="translate(-6.598 -5.541)" fill="#152c69"/>
      <path id="Path_28755" data-name="Path 28755" d="M25.38,28.611c-4.539,0-5.683.035-5.857.152a.38.38,0,0,0-.129.467l.07.315h5.893c5.741,0,5.893,0,6.009-.234.093-.175.07-.28-.117-.467-.233-.234-.373-.234-5.869-.234" transform="translate(-4.284 -6.328)" fill="#152c69"/>
      <path id="Path_28756" data-name="Path 28756" d="M25.343,32.357c-5.018,0-5.893.023-5.951.164a.839.839,0,0,0-.023.385c.035.2.35.21,5.928.245,5.368.023,5.9.012,6.033-.164a.333.333,0,0,0,.023-.408c-.105-.21-.373-.222-6.009-.222" transform="translate(-4.281 -7.157)" fill="#152c69"/>
      <path id="Path_28757" data-name="Path 28757" d="M25.435,35.953c-4.364,0-5.847.035-5.952.14a.423.423,0,0,0,.082.677c.151.07,2.217.117,5.893.117h5.66l.174-.257a.394.394,0,0,0,.058-.467c-.105-.2-.4-.21-5.915-.21" transform="translate(-4.28 -7.952)" fill="#152c69"/>
    </g>
  </g>
</svg>
