<svg xmlns="http://www.w3.org/2000/svg" width="32" height="32" viewBox="0 0 32 32">
  <g id="Create_ABHA_Number_" data-name="Create ABHA Number " transform="translate(12284 22998)">
    <rect id="Rectangle_144579" data-name="Rectangle 144579" width="32" height="32" transform="translate(-12284 -22998)" fill="none"/>
    <g id="ABHA_Number" data-name="ABHA Number" transform="translate(-12281 -22991)">
      <rect id="Rectangle_2081" data-name="Rectangle 2081" width="21.081" height="14.383" transform="translate(2.934 1.511)" fill="#fff"/>
      <path id="Path_4980" data-name="Path 4980" d="M236.652,23.1H211.774c-.262,0-.393.261-.262.392l.524.784a1.326,1.326,0,0,0,.916.523h22.39a1.166,1.166,0,0,0,1.047-.654l.262-.654c.393-.131.262-.392,0-.392" transform="translate(-210.804 -6.943)" fill="#fff"/>
      <path id="Path_4981" data-name="Path 4981" d="M235.631,25.705h-22.39a1.867,1.867,0,0,1-1.571-.785l-.524-.784a1.147,1.147,0,0,1-.131-.915.877.877,0,0,1,.916-.523H236.81a.934.934,0,0,1,.786.392.631.631,0,0,1,0,.915l-.262.654a2.911,2.911,0,0,1-1.7,1.046Zm-23.045-1.831.131.261c.131.261.262.261.524.261h22.39a.681.681,0,0,0,.524-.261l.131-.131h-23.7Z" transform="translate(-210.962 -7.065)" fill="#2f3a7b"/>
      <path id="Path_4982" data-name="Path 4982" d="M213.246,24.118a.618.618,0,0,1-.655-.654h0V22.286a.577.577,0,0,1,.786-.523.563.563,0,0,1,.524.523v1.177a.618.618,0,0,1-.655.654Z" transform="translate(-210.443 -7.307)" fill="#2e3a7c"/>
      <path id="Path_4983" data-name="Path 4983" d="M233.8,27.475a.618.618,0,0,1-.655-.654V12.569a.282.282,0,0,0-.262-.261H215.991a.884.884,0,0,1-.786-.523.883.883,0,0,1,.523-.785h17.022a1.673,1.673,0,0,1,1.571,1.438V26.821A.527.527,0,0,1,233.8,27.475Z" transform="translate(-209.651 -10.666)" fill="#2e3a7c"/>
      <rect id="Rectangle_2082" data-name="Rectangle 2082" width="2.619" height="9.807" transform="translate(1.886 4.388)" fill="#d66025"/>
      <path id="Path_4985" data-name="Path 4985" d="M224.425,13.4H216.7V24.121h7.725a5.389,5.389,0,0,0,5.368-5.361,5.306,5.306,0,0,0-5.368-5.361h0" transform="translate(-209.183 -9.926)" fill="#d66025"/>
      <path id="Path_4986" data-name="Path 4986" d="M221.662,18.359a1.83,1.83,0,1,0,0-3.661h-.131a1.871,1.871,0,0,0-1.833,1.831,1.989,1.989,0,0,0,1.963,1.831m0-2.877a1.032,1.032,0,0,1,1.047,1.046,1.126,1.126,0,0,1-1.047,1.045,1.032,1.032,0,0,1-1.047-1.046.963.963,0,0,1,1.047-1.046" transform="translate(-208.254 -9.525)" fill="#fff"/>
      <path id="Path_4987" data-name="Path 4987" d="M221.881,18.117a2.357,2.357,0,0,0-1.963.915A3.084,3.084,0,0,0,219,21.125a.282.282,0,0,0,.262.261h4.976a.282.282,0,0,0,.262-.261v-.131a2.6,2.6,0,0,0-.916-2.092,1.685,1.685,0,0,0-1.7-.784m-2.1,2.484a3.228,3.228,0,0,1,.524-1.177,1.905,1.905,0,0,1,2.75-.131l.131.131h0a1.419,1.419,0,0,1,.524,1.177Z" transform="translate(-208.472 -8.499)" fill="#fff"/>
      <ellipse id="Ellipse_175" data-name="Ellipse 175" cx="1.628" cy="1.626" rx="1.628" ry="1.626" transform="translate(1.436 0)" fill="#2e3a7c"/>
    </g>
    <g id="Group_71112" data-name="Group 71112" transform="translate(-12266 -22981.313)">
      <circle id="Ellipse_87" data-name="Ellipse 87" cx="6" cy="6" r="6" transform="translate(0 0.313)" fill="#fff"/>
      <g id="ico-add" transform="translate(1.183 1.497)">
        <path id="Path_26446" data-name="Path 26446" d="M12.633,8.757H9.757v2.876H7.876V8.757H5V6.876H7.876V4h1.88V6.876h2.876Z" transform="translate(-4 -3.002)" fill="#d66025"/>
      </g>
    </g>
  </g>
</svg>
