<svg xmlns="http://www.w3.org/2000/svg" width="64" height="64" viewBox="0 0 64 64">
  <g id="easy_sharing_health_records" data-name="easy sharing health records" transform="translate(12284 22998)">
    <rect id="Rectangle_144579" data-name="Rectangle 144579" width="64" height="64" transform="translate(-12284 -22998)" fill="none"/>
    <g id="Group_71078" data-name="Group 71078" transform="translate(-11.268 -11.656)">
      <path id="Path_29083" data-name="Path 29083" d="M58.071,33.33h-3.8l-.034-17.485a1.066,1.066,0,0,0-1.066-1.066h-3.2v-3.2A1.066,1.066,0,0,0,48.9,10.515H45.277v-3.2A1.066,1.066,0,0,0,44.211,6.25h-21.5a1.067,1.067,0,0,0-.863.44L18.3,11.581H12.44a1.066,1.066,0,0,0-1.066,1.066V24.055c0,.021,0,.042.006.063v.408l-1.328-1.554a1.066,1.066,0,0,0-1.876.693V44.729a1.064,1.064,0,0,0,.185.6l9.374,13.75c.016.024.034.049.052.072a1.064,1.064,0,0,0,.763.4c.022,0,.044,0,.066,0V32.988l-.636-.744,0-14.48H23.64a1.066,1.066,0,0,0,.85-.423l3.548-4.694h19.8v2.132h-16a1.067,1.067,0,0,0-.85.423L27.442,19.9h-5.62a1.066,1.066,0,0,0-1.066,1.066l0,12.367H19.246V59.557H58.072a1.066,1.066,0,0,0,1.066-1.066V34.4A1.067,1.067,0,0,0,58.071,33.33ZM43.145,10.515H27.508a1.066,1.066,0,0,0-.85.423l-3.548,4.694H16.918A1.066,1.066,0,0,0,15.851,16.7l0,13.052-2.335-2.732-.007-13.306h5.338a1.067,1.067,0,0,0,.863-.44l3.549-4.89h19.89v2.132ZM22.892,33.33l0-11.3h5.084a1.067,1.067,0,0,0,.85-.423l3.548-4.695H52.1l.034,16.419H22.892Z" transform="translate(-12274.175 -22987.25)" fill="#152c69"/>
      <g id="Rectangle_144580" data-name="Rectangle 144580" transform="translate(-12254.732 -22954.344)" fill="#fff" stroke="#152c69" stroke-width="2">
        <path d="M0,0H39a1,1,0,0,1,1,1V26a1,1,0,0,1-1,1H0a0,0,0,0,1,0,0V0A0,0,0,0,1,0,0Z" stroke="none"/>
        <rect x="1" y="1" width="38" height="25" fill="none"/>
      </g>
      <path id="Path_29084" data-name="Path 29084" d="M8.365,7.626a3.389,3.389,0,1,0,2.24,5.927L15.193,16.1a3.389,3.389,0,1,0,1.1-1.973L11.7,11.58a3.159,3.159,0,0,0,0-1.13L16.291,7.9a3.432,3.432,0,1,0-1.1-1.973L10.6,8.477a3.372,3.372,0,0,0-2.24-.851Z" transform="translate(-12249.236 -22951.752)" fill="#d66025"/>
      <path id="Path_29085" data-name="Path 29085" d="M45.142,23.755h7.975c.717,0,1.3-.358,1.3-.8s-.582-.8-1.3-.8H45.142c-.716,0-1.3.358-1.3.8S44.426,23.755,45.142,23.755Z" transform="translate(-12279.634 -22984.348)" fill="#d66025" fill-rule="evenodd"/>
      <path id="Path_29087" data-name="Path 29087" d="M45.142,23.755h7.975c.717,0,1.3-.358,1.3-.8s-.582-.8-1.3-.8H45.142c-.716,0-1.3.358-1.3.8S44.426,23.755,45.142,23.755Z" transform="translate(-12279.634 -22988.195)" fill="#d66025" fill-rule="evenodd"/>
      <path id="Path_29086" data-name="Path 29086" d="M45.142,23.755h7.975c.717,0,1.3-.358,1.3-.8s-.582-.8-1.3-.8H45.142c-.716,0-1.3.358-1.3.8S44.426,23.755,45.142,23.755Z" transform="translate(-12279.634 -22980.5)" fill="#d66025" fill-rule="evenodd"/>
      <path id="Path_29088" data-name="Path 29088" d="M45.142,23.755h7.975c.717,0,1.3-.358,1.3-.8s-.582-.8-1.3-.8H45.142c-.716,0-1.3.358-1.3.8S44.426,23.755,45.142,23.755Z" transform="translate(-12293.396 -22984.348)" fill="#264488" fill-rule="evenodd"/>
      <path id="Path_29089" data-name="Path 29089" d="M45.142,23.755h7.975c.717,0,1.3-.358,1.3-.8s-.582-.8-1.3-.8H45.142c-.716,0-1.3.358-1.3.8S44.426,23.755,45.142,23.755Z" transform="translate(-12293.396 -22980.5)" fill="#264488" fill-rule="evenodd"/>
    </g>
  </g>
</svg>
