<svg xmlns="http://www.w3.org/2000/svg" width="24.969" height="25.18" viewBox="0 0 24.969 25.18">
  <g id="Ed9itProfile" transform="translate(-238.342 -238.488)">
    <path id="Path_26852" data-name="Path 26852" d="M249.411,239.021a4.829,4.829,0,0,0-2.528,1.039,5.411,5.411,0,0,0-1.564,2.023c-.409.873-.439,1.045-.464,2.9l-.02,1.64-.172.2a1.137,1.137,0,0,0-.278,1.08,8.489,8.489,0,0,0,.515,1.791.653.653,0,0,0,.222.252c.141.066.227.272.227.565a3.989,3.989,0,0,0,1.16,2.366c.358.383.358.358.116,1.12a3.719,3.719,0,0,1-1.2,1.892c-.1.061-1.256.469-2.578.908a27.673,27.673,0,0,0-2.633.953,3,3,0,0,0-1.2,1.73l-.176.545v1.262a4.712,4.712,0,0,0,.076,1.412c.166.323-.187.308,6,.293l5.625-.015.136-.141.141-.136.025-1.3c.025-1.241.03-1.306.146-1.549a14.116,14.116,0,0,1,1.731-1.872c1.912-1.922,1.822-1.756,1.241-2.381a4.452,4.452,0,0,1-.974-1.892l-.131-.494.278-.288a3.907,3.907,0,0,0,1.216-2.392c.03-.449.055-.529.176-.57.172-.055.3-.272.474-.828.434-1.342.434-1.882.005-2.326l-.172-.176-.02-1.816a9.973,9.973,0,0,0-.106-2.114,2.726,2.726,0,0,0-.631-1.135,1.17,1.17,0,0,1-.323-.515,2.636,2.636,0,0,0-.722-1.095,4.6,4.6,0,0,0-1.554-.767A7.088,7.088,0,0,0,249.411,239.021Z" transform="translate(0)" fill="#d66025" stroke="#f9faff" stroke-width="1"/>
    <g id="Group_31137" data-name="Group 31137" transform="translate(251.858 252.002)">
      <path id="Path_26853" data-name="Path 26853" d="M280.611,267.142l-.888.883,1.362,1.362,1.362,1.362.843-.842c.9-.9,1.009-1.059.9-1.322a13.911,13.911,0,0,0-1.156-1.231C281.6,265.921,281.816,265.941,280.611,267.142Z" transform="translate(-273.24 -266.258)" fill="#152c69" stroke="#fff" stroke-width="1"/>
      <path id="Path_26854" data-name="Path 26854" d="M268.991,274.413l-2.86,2.86v1.2c0,1.327.015,1.392.313,1.493a11.011,11.011,0,0,0,2.376-.015c.091-.041,1.372-1.286,2.986-2.9l2.826-2.83-1.337-1.337c-.737-.736-1.358-1.337-1.388-1.337S270.565,272.834,268.991,274.413Z" transform="translate(-266.131 -269.024)" fill="#152c69" stroke="#fff" stroke-width="1"/>
    </g>
  </g>
</svg>
