<svg xmlns="http://www.w3.org/2000/svg" xmlns:xlink="http://www.w3.org/1999/xlink" width="139" height="139" viewBox="0 0 139 139">
  <defs>
    <filter id="Ellipse_34" x="18" y="20" width="103" height="103" filterUnits="userSpaceOnUse">
      <feOffset dy="2" input="SourceAlpha"/>
      <feGaussianBlur stdDeviation="2" result="blur"/>
      <feFlood flood-color="#262626" flood-opacity="0.161"/>
      <feComposite operator="in" in2="blur"/>
      <feComposite in="SourceGraphic"/>
    </filter>
  </defs>
  <g id="empty-notification" transform="translate(-646.455 -378.455)">
    <circle id="Ellipse_33" data-name="Ellipse 33" cx="69.5" cy="69.5" r="69.5" transform="translate(646.455 378.455)" fill="#eff1f2"/>
    <g transform="matrix(1, 0, 0, 1, 646.46, 378.46)" filter="url(#Ellipse_34)">
      <g id="Ellipse_34-2" data-name="Ellipse 34" transform="translate(24 24)" fill="#fff" stroke="rgba(191,191,191,0.31)" stroke-width="1">
        <circle cx="45.5" cy="45.5" r="45.5" stroke="none"/>
        <circle cx="45.5" cy="45.5" r="45" fill="none"/>
      </g>
    </g>
    <g id="ico-notification" transform="translate(694.515 426.515)">
      <path id="Path_26576" data-name="Path 26576" d="M0,0H42.88V42.88H0Z" fill="none"/>
      <path id="Path_26577" data-name="Path 26577" d="M21.44,40.88c2.4,0,4.36-.508,4.36-2.673H17.08C17.08,40.372,19.042,40.88,21.44,40.88ZM34.52,29.071V19.23c0-6.042-3.553-11.1-9.81-12.439V5.452A3.119,3.119,0,0,0,21.44,2.5a3.119,3.119,0,0,0-3.27,2.952V6.791C11.935,8.129,8.36,13.168,8.36,19.23v9.841L4,33.007v1.968H38.88V33.007Zm-4.36,1.968H12.72V19.23c0-4.881,3.292-8.857,8.72-8.857s8.72,3.976,8.72,8.857Z" transform="translate(0 0)" fill="#264488"/>
      <path id="Path_29117" data-name="Path 29117" d="M16.961,28.855a5.382,5.382,0,0,0,5.461-5.265H11.5A5.382,5.382,0,0,0,16.961,28.855Z" transform="translate(4.479 12.796)" fill="#d66025"/>
    </g>
  </g>
</svg>
