<svg xmlns="http://www.w3.org/2000/svg" xmlns:xlink="http://www.w3.org/1999/xlink" width="139" height="139" viewBox="0 0 139 139">
  <defs>
    <filter id="Ellipse_34" x="18" y="20" width="103" height="103" filterUnits="userSpaceOnUse">
      <feOffset dy="2" input="SourceAlpha"/>
      <feGaussianBlur stdDeviation="2" result="blur"/>
      <feFlood flood-color="#262626" flood-opacity="0.161"/>
      <feComposite operator="in" in2="blur"/>
      <feComposite in="SourceGraphic"/>
    </filter>
  </defs>
  <g id="empty-consent" transform="translate(-646.455 -378.455)">
    <circle id="Ellipse_33" data-name="Ellipse 33" cx="69.5" cy="69.5" r="69.5" transform="translate(646.455 378.455)" fill="#eff1f2"/>
    <g transform="matrix(1, 0, 0, 1, 646.46, 378.46)" filter="url(#Ellipse_34)">
      <g id="Ellipse_34-2" data-name="Ellipse 34" transform="translate(24 24)" fill="#fff" stroke="rgba(191,191,191,0.31)" stroke-width="1">
        <circle cx="45.5" cy="45.5" r="45.5" stroke="none"/>
        <circle cx="45.5" cy="45.5" r="45" fill="none"/>
      </g>
    </g>
    <g id="consent_based_linking" data-name="consent based linking" transform="translate(12842.455 23411.455)">
      <rect id="Rectangle_144578" data-name="Rectangle 144578" width="43" height="43" transform="translate(-12148 -22985)" fill="none"/>
      <g id="Group_71095" data-name="Group 71095" transform="translate(-12145.32 -22981.65)">
        <g id="Group_71096" data-name="Group 71096" transform="translate(3.32 0.65)">
          <path id="Path_29103" data-name="Path 29103" d="M19.5,24.888V15.515a.445.445,0,0,1,.441-.441h4.687a1.838,1.838,0,0,0,1.843-1.843V8.544a.445.445,0,0,1,.441-.441H39.052a1.351,1.351,0,0,1,1.362,1.362V32.4l2.573-2.79.032-20.142A3.949,3.949,0,0,0,39.052,5.5H26.594a3.941,3.941,0,0,0-2.8,1.162L18.062,12.39a3.873,3.873,0,0,0-1.162,2.8v9.694a6.892,6.892,0,0,1,1.282-.08A7.326,7.326,0,0,1,19.5,24.888Z" transform="translate(-11.132 -5.5)" fill="#264488"/>
          <path id="Path_29104" data-name="Path 29104" d="M55.22,67.764v1.562a1.351,1.351,0,0,1-1.362,1.362H42.241a8.279,8.279,0,0,1-.641,2.6H53.818a3.949,3.949,0,0,0,3.966-3.966V65.2l-1.522,1.642A3.831,3.831,0,0,1,55.22,67.764Z" transform="translate(-25.937 -41.285)" fill="#264488"/>
          <path id="Path_29105" data-name="Path 29105" d="M46.65,67.464V64.9H40a8.425,8.425,0,0,1,1.042,2.564l5.608-.04Z" transform="translate(-24.978 -41.105)" fill="#264488"/>
          <path id="Path_29106" data-name="Path 29106" d="M44.1,50.9H32.082A1.291,1.291,0,0,0,30.8,52.182a1.318,1.318,0,0,0,1.282,1.282H44.1V50.9Z" transform="translate(-19.464 -32.714)" fill="#264488"/>
          <path id="Path_29107" data-name="Path 29107" d="M44.5,36.9H32.082a1.282,1.282,0,1,0,0,2.564H44.5a1.282,1.282,0,0,0,0-2.564Z" transform="translate(-19.464 -24.322)" fill="#264488"/>
          <path id="Path_29108" data-name="Path 29108" d="M54.39,22.9H48.582a1.282,1.282,0,1,0,0,2.564H54.39a1.265,1.265,0,0,0,1.282-1.282A1.291,1.291,0,0,0,54.39,22.9Z" transform="translate(-29.354 -15.93)" fill="#264488"/>
          <path id="Path_29111" data-name="Path 29111" d="M9.59,59.2a7.09,7.09,0,1,0,7.09,7.09A7.1,7.1,0,0,0,9.59,59.2Zm3.165,6.369L9.43,68.894a1.064,1.064,0,0,1-1.522,0L6.265,67.252a1.1,1.1,0,0,1,1.562-1.562l.881.881,2.524-2.524a1.088,1.088,0,0,1,1.562,0A1.077,1.077,0,0,1,12.755,65.569Z" transform="translate(-2.5 -37.689)" fill="#d66025"/>
        </g>
      </g>
    </g>
  </g>
</svg>
