<svg xmlns="http://www.w3.org/2000/svg" xmlns:xlink="http://www.w3.org/1999/xlink" width="139" height="139" viewBox="0 0 139 139">
  <defs>
    <filter id="Ellipse_34" x="18" y="20" width="103" height="103" filterUnits="userSpaceOnUse">
      <feOffset dy="2" input="SourceAlpha"/>
      <feGaussianBlur stdDeviation="2" result="blur"/>
      <feFlood flood-color="#262626" flood-opacity="0.161"/>
      <feComposite operator="in" in2="blur"/>
      <feComposite in="SourceGraphic"/>
    </filter>
  </defs>
  <g id="empty-helth-locker" transform="translate(-646.455 -378.455)">
    <circle id="Ellipse_33" data-name="Ellipse 33" cx="69.5" cy="69.5" r="69.5" transform="translate(646.455 378.455)" fill="#eff1f2"/>
    <g transform="matrix(1, 0, 0, 1, 646.46, 378.46)" filter="url(#Ellipse_34)">
      <g id="Ellipse_34-2" data-name="Ellipse 34" transform="translate(24 24)" fill="#fff" stroke="rgba(191,191,191,0.31)" stroke-width="1">
        <circle cx="45.5" cy="45.5" r="45.5" stroke="none"/>
        <circle cx="45.5" cy="45.5" r="45" fill="none"/>
      </g>
    </g>
    <g id="ico-notification" transform="translate(694.515 426.515)">
      <path id="Path_26576" data-name="Path 26576" d="M0,0H42.88V42.88H0Z" fill="none"/>
      <g id="Group_71113" data-name="Group 71113" transform="translate(6.812 2.25)">
        <path id="Path_26864" data-name="Path 26864" d="M231.155,230.823a12.523,12.523,0,0,1-3.058,3.132,17.989,17.989,0,0,1-7.785,2.62c-.446.049-1.346.091-2.008.091h-1.2v8.653c0,8.2.008,8.7.157,9.363,1.066,4.777,5.265,9.206,11.818,12.471.712.356,1.6.768,1.976.918l.677.281.686-.281a41.966,41.966,0,0,0,4.355-2.215,26.714,26.714,0,0,0,5.256-4.05,15.821,15.821,0,0,0,3.868-5.984c.479-1.454.463-1.123.463-10.52v-8.637h-1.2a18.3,18.3,0,0,1-9.792-2.711,12.523,12.523,0,0,1-3.058-3.132,7.644,7.644,0,0,0-.579-.852A7.727,7.727,0,0,0,231.155,230.823Zm3.223,4.5a19.525,19.525,0,0,0,9.445,2.959l.884.058-.016,7.983-.025,7.984-.223.678a13.239,13.239,0,0,1-3.537,5.57c-.612.619-1.5,1.43-1.966,1.8a34,34,0,0,1-6.223,3.786l-.984.454-1.007-.471a33.07,33.07,0,0,1-6.166-3.752,15.758,15.758,0,0,1-5.487-7.24l-.273-.826-.025-8-.017-7.992h.431c.239,0,.917-.058,1.5-.123,4.355-.513,7.9-2.066,10.289-4.5l.711-.727.951.918A14.833,14.833,0,0,0,234.378,235.326Z" transform="translate(-217.105 -229.971)" fill="#d66025"/>
        <g id="Group_31139" data-name="Group 31139" transform="translate(7.508 8.607)">
          <path id="Path_26865" data-name="Path 26865" d="M231.506,241.475a4.625,4.625,0,0,0-3.422,3.388c-.1.424-.448,4.065-.459,4.707,0,.092.367.127,1.125.116l1.115-.012.057-2.136c.057-2.124.057-2.136.4-2.7a3.08,3.08,0,0,1,.907-.907,2.082,2.082,0,0,1,1.458-.345,1.777,1.777,0,0,1,1.378.345,4.253,4.253,0,0,1,.85.85l.344.493.057,2.194.059,2.2.987.035.987.034.08-.54a19.632,19.632,0,0,0-.045-3.663,4.663,4.663,0,0,0-2.377-3.525A5.2,5.2,0,0,0,231.506,241.475Z" transform="translate(-225.442 -241.368)" fill="#264488"/>
          <path id="Path_26866" data-name="Path 26866" d="M227.66,247.468l-1.527.035v5.121c0,5.007.012,5.145.241,5.638.644,1.321,3.433,2.526,6.248,2.7,2.5.149,5.581-.711,6.959-1.951.827-.747.793-.471.793-6.293v-5.225H238c-1.321,0-3.835-.012-5.6-.035S228.487,247.445,227.66,247.468Zm6.293,3.732a2.125,2.125,0,0,1,.609.7.914.914,0,0,1,.08.873,1.727,1.727,0,0,1-.471.724l-.332.287.173,1.068c.091.6.183,1.252.218,1.447l.069.379h-1.046c-.7,0-1.033-.045-1.033-.138,0-.069.1-.712.241-1.425l.241-1.3-.345-.3a1.422,1.422,0,0,1,.436-2.458A1.055,1.055,0,0,1,233.953,251.2Z" transform="translate(-226.133 -238.554)" fill="#264488"/>
        </g>
      </g>
    </g>
  </g>
</svg>
