<svg xmlns="http://www.w3.org/2000/svg" width="24" height="18.889" viewBox="0 0 24 18.889">
  <g id="Group_31144" data-name="Group 31144" transform="translate(-180.908 -146.5)">
    <path id="Path_26874" data-name="Path 26874" d="M194.42,146.558a11.261,11.261,0,0,0-5.04,2,8.468,8.468,0,0,0-1.318,1.213l-.133.182h1.451a8.916,8.916,0,0,1,3.491.533c2.937,1.038,5.034,3.316,5.349,5.819a6.331,6.331,0,0,1-1.438,5.048l-.393.483.231-.006c.127,0,.526-.042.884-.092l.652-.084,1.529,1.283a14.345,14.345,0,0,0,1.655,1.283c.112,0,.119-.084.077-1.107-.021-.6-.063-1.416-.084-1.809l-.042-.7.442-.259a9.889,9.889,0,0,0,2.453-2.089,5.1,5.1,0,0,0,.827-1.36,5.007,5.007,0,0,0,.6-2.769,4.579,4.579,0,0,0-.2-1.718c-.862-2.832-3.554-5.005-7.1-5.721A17.681,17.681,0,0,0,194.42,146.558Z" transform="translate(-0.7)" fill="#d66025"/>
    <path id="Path_26875" data-name="Path 26875" d="M187.528,151.585a8.531,8.531,0,0,0-5.138,2.517,5.226,5.226,0,0,0-.673,6.436,8.321,8.321,0,0,0,2.089,2.047l.547.35-.022,1.473c-.021,1.262-.014,1.472.077,1.486a9.1,9.1,0,0,0,1.353-1.031l1.248-1.044.329.049c.183.028.849.05,1.486.05a7.51,7.51,0,0,0,1.879-.161,8.121,8.121,0,0,0,3.933-2.012,5.4,5.4,0,0,0,1.83-4.053,6.043,6.043,0,0,0-3.611-5.188,8.059,8.059,0,0,0-3.926-.925C188.279,151.565,187.648,151.572,187.528,151.585Zm3.281,1.031a6.849,6.849,0,0,1,4.144,2.811,3.863,3.863,0,0,1,.645,2.188,3.028,3.028,0,0,1-.168,1.409c-.9,2.8-4.326,4.507-8.076,4l-.618-.077-.652.546c-.365.3-.715.6-.785.66-.126.1-.133.077-.113-.793l.022-.9-.659-.393a5.874,5.874,0,0,1-2.531-2.861,2.676,2.676,0,0,0-.154-.434,5.57,5.57,0,0,1,.077-2.286,6.017,6.017,0,0,1,3.19-3.365,7.8,7.8,0,0,1,3.765-.708A6.638,6.638,0,0,1,190.81,152.616Z" transform="translate(0 -0.506)" fill="#152c69"/>
    <path id="Path_26876" data-name="Path 26876" d="M188.6,154.523c-.9.211-1,.322-1,1.1a2.294,2.294,0,0,0,.056.652,1.745,1.745,0,0,0,.526-.2c1.016-.512,1.816-.329,1.816.407,0,.35-.168.624-.666,1.065a2.8,2.8,0,0,0-.609.723,1.783,1.783,0,0,0-.148,1.22c.07.189.084.2.666.2.631,0,.687-.035.624-.372-.07-.365.049-.568.757-1.241.6-.582.715-.722.842-1.087a1.8,1.8,0,0,0-1.83-2.523A4.265,4.265,0,0,0,188.6,154.523Z" transform="translate(-0.668 -0.794)" fill="#152c69"/>
    <path id="Path_26877" data-name="Path 26877" d="M189.054,160.908a.8.8,0,0,0-.028,1.479c.877.448,1.753-.561,1.108-1.262A.949.949,0,0,0,189.054,160.908Z" transform="translate(-0.761 -1.429)" fill="#152c69"/>
  </g>
</svg>
