<svg xmlns="http://www.w3.org/2000/svg" width="18" height="23.953" viewBox="0 0 18 23.953">
  <g id="Group_31531" data-name="Group 31531" transform="translate(0 0)">
    <path id="Path_28711" data-name="Path 28711" d="M4.821,1.179C2.655,1.821.747,2.406.594,2.473c-.623.259-.623.249-.575,5.09.029,4.064.048,4.428.249,5.32a16.168,16.168,0,0,0,5.569,9.173A10.356,10.356,0,0,0,9,23.953a10.336,10.336,0,0,0,3.163-1.9,16.179,16.179,0,0,0,5.569-9.173c.2-.891.22-1.246.249-5.31.048-4.678.038-4.793-.441-5.032C17.2,2.358,9.154-.01,8.933,0c-.1.01-1.946.537-4.112,1.179m8.013,1.428,3.69,1.083V7.62a23.759,23.759,0,0,1-.182,4.783,14.829,14.829,0,0,1-2.272,5.416,16.638,16.638,0,0,1-3.949,3.911,10.309,10.309,0,0,1-1.112.69,11,11,0,0,1-1.121-.69A16.159,16.159,0,0,1,3.93,17.818,14.829,14.829,0,0,1,1.658,12.4,23.691,23.691,0,0,1,1.476,7.62V3.7L5.118,2.616c2-.594,3.729-1.083,3.834-1.083s1.85.479,3.882,1.074" transform="translate(0 0)" fill="#8ee9c2"/>
    <path id="Path_28712" data-name="Path 28712" d="M54.052,44.14a3.317,3.317,0,0,0-2.329,2.339c-.067.2-.038.22.307.22.364,0,.4-.029.594-.431a2.818,2.818,0,0,1,2.31-1.486,2.7,2.7,0,0,1,1.812.824,2.446,2.446,0,0,1,.709,2.1l.01.959-3.2.029a21.543,21.543,0,0,0-3.336.125,36.074,36.074,0,0,0-.01,6.106,65.737,65.737,0,0,0,8.013,0,38.072,38.072,0,0,0,0-6.1.629.629,0,0,0-.383-.115h-.268v-.767a4.9,4.9,0,0,0-.383-2.109,3.431,3.431,0,0,0-3.844-1.7m1.677,5.924a1.21,1.21,0,0,1,.422,1.294,1.345,1.345,0,0,1-.633.815c-.086.029-.058.249.077.834.105.441.192.834.192.891a2.214,2.214,0,0,1-.863.086c-1,0-.949.067-.728-1.1l.134-.661-.268-.249a1.251,1.251,0,0,1,.058-1.907,1.239,1.239,0,0,1,1.61,0" transform="translate(-45.924 -39.808)" fill="#4abb8b"/>
  </g>
</svg>
