<svg xmlns="http://www.w3.org/2000/svg" width="20" height="26.237" viewBox="0 0 20 26.237">
  <g id="Group_31140" data-name="Group 31140" transform="translate(-217.105 -229.971)">
    <path id="Path_26864" data-name="Path 26864" d="M226.71,230.553a8.561,8.561,0,0,1-2.091,2.141,12.3,12.3,0,0,1-5.322,1.791c-.305.034-.92.062-1.372.062h-.82v5.916c0,5.6.006,5.949.107,6.4.729,3.266,3.6,6.293,8.079,8.525.486.243,1.091.525,1.351.628l.463.192.469-.192a28.689,28.689,0,0,0,2.977-1.514,18.262,18.262,0,0,0,3.593-2.769,10.815,10.815,0,0,0,2.644-4.091c.327-.994.317-.768.317-7.192v-5.9h-.82a12.511,12.511,0,0,1-6.694-1.853,8.561,8.561,0,0,1-2.091-2.141,5.225,5.225,0,0,0-.4-.582A5.283,5.283,0,0,0,226.71,230.553Zm2.2,3.079a13.347,13.347,0,0,0,6.457,2.023l.6.04-.011,5.457-.017,5.458-.153.463a9.05,9.05,0,0,1-2.418,3.808c-.418.423-1.028.977-1.344,1.231a23.243,23.243,0,0,1-4.254,2.588l-.673.31-.689-.322a22.6,22.6,0,0,1-4.215-2.565,10.772,10.772,0,0,1-3.751-4.949l-.186-.565-.017-5.469-.012-5.464h.294c.163,0,.627-.04,1.028-.084a11.54,11.54,0,0,0,7.034-3.079l.486-.5.65.628A10.142,10.142,0,0,0,228.913,233.632Z" transform="translate(0 0)" fill="#d66025"/>
    <g id="Group_31139" data-name="Group 31139" transform="translate(222.237 235.855)">
      <path id="Path_26865" data-name="Path 26865" d="M230.278,241.441a3.162,3.162,0,0,0-2.339,2.316c-.071.29-.306,2.779-.314,3.218,0,.063.251.087.769.079l.762-.008.039-1.46c.039-1.452.039-1.46.275-1.845a2.106,2.106,0,0,1,.62-.62,1.423,1.423,0,0,1,1-.236,1.215,1.215,0,0,1,.942.236,2.908,2.908,0,0,1,.581.581l.235.337.039,1.5.04,1.507.675.024.675.023.055-.369a13.42,13.42,0,0,0-.031-2.5,3.188,3.188,0,0,0-1.625-2.41A3.554,3.554,0,0,0,230.278,241.441Z" transform="translate(-226.133 -241.368)" fill="#152c69"/>
      <path id="Path_26866" data-name="Path 26866" d="M227.177,247.462l-1.044.024v3.5c0,3.423.008,3.517.165,3.854.44.9,2.347,1.727,4.271,1.845a7.423,7.423,0,0,0,4.757-1.334c.565-.511.542-.322.542-4.3v-3.572h-1.625c-.9,0-2.622-.008-3.831-.024S227.742,247.446,227.177,247.462Zm4.3,2.551a1.453,1.453,0,0,1,.416.479.625.625,0,0,1,.055.6,1.181,1.181,0,0,1-.322.495l-.227.2.118.73c.062.408.125.856.149.989l.047.259H231c-.478,0-.706-.031-.706-.094,0-.047.071-.487.165-.974l.165-.887-.236-.2a.972.972,0,0,1,.3-1.68A.721.721,0,0,1,231.479,250.013Z" transform="translate(-226.133 -241.368)" fill="#152c69"/>
    </g>
  </g>
</svg>
