<svg xmlns="http://www.w3.org/2000/svg" width="26.001" height="25.903" viewBox="0 0 26.001 25.903">
  <g id="Group_31559" data-name="Group 31559" opacity="0.4">
    <path id="Path_28763" data-name="Path 28763" d="M.711.233c0,.135.154,1.494.329,3.007l.33,2.776H3.426V4.462H22.441V6.015h2.076L24.653,4.7c.078-.719.175-1.591.233-1.941L25,2.134H9.655l-.64-1.067L8.375,0H4.552C1.6,0,.711.058.711.233" transform="translate(0.065)" fill="#d66025"/>
    <path id="Path_28764" data-name="Path 28764" d="M11.1,5.62a2.475,2.475,0,0,0-.97.874l-.33.582H4.91C.835,7.076,0,7.114,0,7.346c0,.33,1.514,12.943,1.669,13.932L1.786,22l3.454-.039,3.472-.038.194.8c.446,1.785,1.824,2.7,4.094,2.7,2.232,0,3.609-.892,4.074-2.639l.214-.756h6.926l.117-.737C24.468,20.4,26,7.579,26,7.289c0-.135-.816-.213-2.464-.213H21.053l-.524-.66a2.3,2.3,0,0,0-2.58-.892,2.953,2.953,0,0,0-1.222.892,1.346,1.346,0,0,1-1.4.66c-.777,0-.912-.078-1.2-.582a2.83,2.83,0,0,0-2.037-1.164,4.051,4.051,0,0,0-.99.291M13,6.881a1.269,1.269,0,0,1-.213,2c-.564.446-.6.563-.622,1.707a4.394,4.394,0,0,0,1.339,3.474,2.788,2.788,0,0,0,4.462-.874c.854-1.475.874-3.9.039-4.269a1.309,1.309,0,0,1-.62-.737c-.156-.427-.117-.62.213-1.067a1.194,1.194,0,0,1,1.8-.272c.368.292.465.6.543,1.708.252,3.609-.058,4.851-1.61,6.4a4.458,4.458,0,0,1-1.61,1.145l-.622.135v3.085c0,3.551-.135,4.016-1.358,4.638-1.552.8-3.9.291-4.56-.97A6.667,6.667,0,0,1,9.9,20.327c0-2.076,0-2.076-.6-2.7-.485-.5-.737-.62-1.125-.543a1.887,1.887,0,0,1-1.96-.932A1.693,1.693,0,0,1,6.6,13.809a1.831,1.831,0,0,1,3.1,1.435c0,.679.137.95.777,1.649l.776.854V19.92a11.717,11.717,0,0,0,.155,2.406,2.3,2.3,0,0,0,3.183,0,18.239,18.239,0,0,0,.155-3.066V16.408l-1.067-.524A5.536,5.536,0,0,1,10.749,10.1c.078-.757.117-1.707.117-2.1-.02-1.3,1.262-2,2.134-1.125" transform="translate(0 0.492)" fill="#152c69"/>
    <path id="Path_28765" data-name="Path 28765" d="M6.824,13.812c-.369.135-.31.99.078,1.2a.685.685,0,0,0,.8-1.105c-.252-.252-.465-.272-.873-.1" transform="translate(0.607 1.264)" fill="#d66025"/>
  </g>
</svg>
