<svg xmlns="http://www.w3.org/2000/svg" xmlns:xlink="http://www.w3.org/1999/xlink" width="139" height="139" viewBox="0 0 139 139">
  <defs>
    <filter id="Ellipse_34" x="18" y="20" width="103" height="103" filterUnits="userSpaceOnUse">
      <feOffset dy="2" input="SourceAlpha"/>
      <feGaussianBlur stdDeviation="2" result="blur"/>
      <feFlood flood-color="#262626" flood-opacity="0.161"/>
      <feComposite operator="in" in2="blur"/>
      <feComposite in="SourceGraphic"/>
    </filter>
  </defs>
  <g id="no_health_record" data-name="no health record" transform="translate(-646.455 -378.455)">
    <circle id="Ellipse_33" data-name="Ellipse 33" cx="69.5" cy="69.5" r="69.5" transform="translate(646.455 378.455)" fill="#eff1f2"/>
    <g transform="matrix(1, 0, 0, 1, 646.45, 378.45)" filter="url(#Ellipse_34)">
      <g id="Ellipse_34-2" data-name="Ellipse 34" transform="translate(24 24)" fill="#fff" stroke="rgba(191,191,191,0.31)" stroke-width="1">
        <circle cx="45.5" cy="45.5" r="45.5" stroke="none"/>
        <circle cx="45.5" cy="45.5" r="45" fill="none"/>
      </g>
    </g>
    <g id="Group_71116" data-name="Group 71116" transform="translate(5885.455 17606.455)">
      <rect id="Outline" width="32" height="32" transform="translate(-5185 -17174)" fill="none"/>
      <g id="Group_70141" data-name="Group 70141" transform="translate(-5243.931 -17237)">
        <g id="Group_84" data-name="Group 84" transform="translate(61.931 69)">
          <path id="Path_26754" data-name="Path 26754" d="M63.17,69.126a2.034,2.034,0,0,0-1.141,1.468c-.12.487-.133,14.549-.02,15.09.073.334.194.461.194.194,0-.127,1.9-9.984,2.109-10.985a3.367,3.367,0,0,1,2.476-2.456c.327-.087,1.568-.1,8.876-.1,4.672,0,8.5-.013,8.5-.033a1.954,1.954,0,0,0-.127-.287,2.673,2.673,0,0,0-1.061-.968c-.314-.147-.354-.147-5.733-.18l-5.419-.033-.214-.434a3.959,3.959,0,0,0-.594-.814c-.6-.6-.521-.587-4.331-.587C63.684,69,63.417,69.013,63.17,69.126Z" transform="translate(-61.931 -69)" fill="#d66025"/>
          <path id="Path_26755" data-name="Path 26755" d="M88.6,136.353a2.881,2.881,0,0,0-1.749,1.348,21.239,21.239,0,0,0-.794,3.551c-.047.254-.154.781-.227,1.168s-.414,2.109-.747,3.838c-.567,2.923-.6,3.163-.534,3.477a1.625,1.625,0,0,0,.821,1.068l.354.194h19.288l.461-.227a2.958,2.958,0,0,0,1.235-1.128c.214-.414,2.369-11.613,2.309-12a1.607,1.607,0,0,0-.868-1.128l-.394-.2-9.444-.013C92.774,136.3,88.756,136.32,88.6,136.353Zm18.774,1.442c.194.053.207-.027-.36,2.856-.24,1.208-.7,3.584-1.028,5.266l-.587,3.07-.24.214a1.431,1.431,0,0,1-.5.294c-.314.08-18.52.067-18.607-.02a8.075,8.075,0,0,1,.2-1.335c.8-4.151,1.261-6.541,1.348-6.954.047-.26.187-.948.294-1.535s.24-1.155.28-1.255a1.161,1.161,0,0,1,.721-.567C89.157,137.755,107.1,137.722,107.377,137.795Z" transform="translate(-83.019 -131.808)" fill="#d66025"/>
        </g>
        <path id="Path_26756" data-name="Path 26756" d="M209.417,180.093a1.032,1.032,0,0,0-.287.28c-.113.174-.127.32-.127,1.408V183h-1.2c-1.749,0-1.8.047-1.8,1.435s.053,1.435,1.8,1.435H209v1.2c0,1.755.04,1.8,1.468,1.8h.868l.254-.227.247-.227.02-1.275.02-1.268,1.261-.02,1.268-.02.214-.22.22-.214V183.47l-.22-.214-.214-.22-1.268-.02-1.268-.02v-1.168c0-1.268-.033-1.422-.374-1.689-.16-.127-.267-.14-1.054-.14A3.26,3.26,0,0,0,209.417,180.093Z" transform="translate(-134.454 -103.592)" fill="#152c69"/>
      </g>
    </g>
    <g id="Group_71117" data-name="Group 71117" transform="translate(5892.455 17581.455)" opacity="0.08">
      <rect id="Outline-2" data-name="Outline" width="17" height="17" transform="translate(-5185 -17174)" fill="none"/>
      <g id="Group_70141-2" data-name="Group 70141" transform="translate(-5183.414 -17170.828)">
        <g id="Group_84-2" data-name="Group 84">
          <path id="Path_26754-2" data-name="Path 26754" d="M62.586,69.067a1.076,1.076,0,0,0-.6.776c-.064.258-.071,7.693-.011,7.979.039.176.1.243.1.1,0-.067,1-5.279,1.115-5.809a1.78,1.78,0,0,1,1.309-1.3c.173-.046.829-.053,4.693-.053,2.47,0,4.492-.007,4.492-.018a1.033,1.033,0,0,0-.067-.152,1.413,1.413,0,0,0-.561-.512c-.166-.078-.187-.078-3.031-.1L67.16,69.97l-.113-.229a2.093,2.093,0,0,0-.314-.431c-.318-.318-.275-.311-2.29-.311A6.762,6.762,0,0,0,62.586,69.067Z" transform="translate(-61.931 -69)" fill="#d66025"/>
          <path id="Path_26755-2" data-name="Path 26755" d="M86.682,136.328a1.523,1.523,0,0,0-.925.713,11.231,11.231,0,0,0-.42,1.877c-.025.134-.081.413-.12.618s-.219,1.115-.4,2.029a6.425,6.425,0,0,0-.282,1.839.859.859,0,0,0,.434.565l.187.1h10.2l.243-.12a1.564,1.564,0,0,0,.653-.6c.113-.219,1.253-6.14,1.221-6.345a.85.85,0,0,0-.459-.6l-.208-.106-4.993-.007C88.888,136.3,86.763,136.311,86.682,136.328Zm9.927.762c.1.028.109-.014-.191,1.51-.127.639-.371,1.9-.543,2.784l-.311,1.623-.127.113a.757.757,0,0,1-.265.155c-.166.042-9.793.035-9.839-.011a4.268,4.268,0,0,1,.106-.706c.423-2.2.667-3.458.713-3.677.025-.138.1-.5.155-.812s.127-.61.148-.663a.614.614,0,0,1,.381-.3C86.975,137.069,96.464,137.052,96.609,137.09Z" transform="translate(-83.729 -133.925)" fill="#d66025"/>
        </g>
        <path id="Path_26756-2" data-name="Path 26756" d="M207.807,180.049a.545.545,0,0,0-.152.148c-.06.092-.067.169-.067.745v.646h-.635c-.925,0-.953.025-.953.759s.028.759.953.759h.635v.635c0,.928.021.953.776.953h.459l.134-.12.131-.12.011-.674.011-.671.667-.011.671-.011.113-.116.116-.113v-1.023l-.116-.113-.113-.116-.671-.011-.67-.011v-.618c0-.671-.018-.752-.2-.893-.085-.067-.141-.074-.558-.074A1.723,1.723,0,0,0,207.807,180.049Z" transform="translate(-200.916 -176.083)" fill="#152c69"/>
      </g>
    </g>
    <g id="Group_71118" data-name="Group 71118" transform="translate(5870.455 17633.455)" opacity="0.08">
      <rect id="Outline-3" data-name="Outline" width="17" height="17" transform="translate(-5185 -17174)" fill="none"/>
      <g id="Group_70141-3" data-name="Group 70141" transform="translate(-5183.414 -17170.828)">
        <g id="Group_84-3" data-name="Group 84">
          <path id="Path_26754-3" data-name="Path 26754" d="M62.586,69.067a1.076,1.076,0,0,0-.6.776c-.064.258-.071,7.693-.011,7.979.039.176.1.243.1.1,0-.067,1-5.279,1.115-5.809a1.78,1.78,0,0,1,1.309-1.3c.173-.046.829-.053,4.693-.053,2.47,0,4.492-.007,4.492-.018a1.033,1.033,0,0,0-.067-.152,1.413,1.413,0,0,0-.561-.512c-.166-.078-.187-.078-3.031-.1L67.16,69.97l-.113-.229a2.093,2.093,0,0,0-.314-.431c-.318-.318-.275-.311-2.29-.311A6.762,6.762,0,0,0,62.586,69.067Z" transform="translate(-61.931 -69)" fill="#d66025"/>
          <path id="Path_26755-3" data-name="Path 26755" d="M86.682,136.328a1.523,1.523,0,0,0-.925.713,11.231,11.231,0,0,0-.42,1.877c-.025.134-.081.413-.12.618s-.219,1.115-.4,2.029a6.425,6.425,0,0,0-.282,1.839.859.859,0,0,0,.434.565l.187.1h10.2l.243-.12a1.564,1.564,0,0,0,.653-.6c.113-.219,1.253-6.14,1.221-6.345a.85.85,0,0,0-.459-.6l-.208-.106-4.993-.007C88.888,136.3,86.763,136.311,86.682,136.328Zm9.927.762c.1.028.109-.014-.191,1.51-.127.639-.371,1.9-.543,2.784l-.311,1.623-.127.113a.757.757,0,0,1-.265.155c-.166.042-9.793.035-9.839-.011a4.268,4.268,0,0,1,.106-.706c.423-2.2.667-3.458.713-3.677.025-.138.1-.5.155-.812s.127-.61.148-.663a.614.614,0,0,1,.381-.3C86.975,137.069,96.464,137.052,96.609,137.09Z" transform="translate(-83.729 -133.925)" fill="#d66025"/>
        </g>
        <path id="Path_26756-3" data-name="Path 26756" d="M207.807,180.049a.545.545,0,0,0-.152.148c-.06.092-.067.169-.067.745v.646h-.635c-.925,0-.953.025-.953.759s.028.759.953.759h.635v.635c0,.928.021.953.776.953h.459l.134-.12.131-.12.011-.674.011-.671.667-.011.671-.011.113-.116.116-.113v-1.023l-.116-.113-.113-.116-.671-.011-.67-.011v-.618c0-.671-.018-.752-.2-.893-.085-.067-.141-.074-.558-.074A1.723,1.723,0,0,0,207.807,180.049Z" transform="translate(-200.916 -176.083)" fill="#152c69"/>
      </g>
    </g>
    <g id="Group_71119" data-name="Group 71119" transform="translate(5917.455 17633.455)" opacity="0.08">
      <rect id="Outline-4" data-name="Outline" width="17" height="17" transform="translate(-5185 -17174)" fill="none"/>
      <g id="Group_70141-4" data-name="Group 70141" transform="translate(-5183.414 -17170.828)">
        <g id="Group_84-4" data-name="Group 84">
          <path id="Path_26754-4" data-name="Path 26754" d="M62.586,69.067a1.076,1.076,0,0,0-.6.776c-.064.258-.071,7.693-.011,7.979.039.176.1.243.1.1,0-.067,1-5.279,1.115-5.809a1.78,1.78,0,0,1,1.309-1.3c.173-.046.829-.053,4.693-.053,2.47,0,4.492-.007,4.492-.018a1.033,1.033,0,0,0-.067-.152,1.413,1.413,0,0,0-.561-.512c-.166-.078-.187-.078-3.031-.1L67.16,69.97l-.113-.229a2.093,2.093,0,0,0-.314-.431c-.318-.318-.275-.311-2.29-.311A6.762,6.762,0,0,0,62.586,69.067Z" transform="translate(-61.931 -69)" fill="#d66025"/>
          <path id="Path_26755-4" data-name="Path 26755" d="M86.682,136.328a1.523,1.523,0,0,0-.925.713,11.231,11.231,0,0,0-.42,1.877c-.025.134-.081.413-.12.618s-.219,1.115-.4,2.029a6.425,6.425,0,0,0-.282,1.839.859.859,0,0,0,.434.565l.187.1h10.2l.243-.12a1.564,1.564,0,0,0,.653-.6c.113-.219,1.253-6.14,1.221-6.345a.85.85,0,0,0-.459-.6l-.208-.106-4.993-.007C88.888,136.3,86.763,136.311,86.682,136.328Zm9.927.762c.1.028.109-.014-.191,1.51-.127.639-.371,1.9-.543,2.784l-.311,1.623-.127.113a.757.757,0,0,1-.265.155c-.166.042-9.793.035-9.839-.011a4.268,4.268,0,0,1,.106-.706c.423-2.2.667-3.458.713-3.677.025-.138.1-.5.155-.812s.127-.61.148-.663a.614.614,0,0,1,.381-.3C86.975,137.069,96.464,137.052,96.609,137.09Z" transform="translate(-83.729 -133.925)" fill="#d66025"/>
        </g>
        <path id="Path_26756-4" data-name="Path 26756" d="M207.807,180.049a.545.545,0,0,0-.152.148c-.06.092-.067.169-.067.745v.646h-.635c-.925,0-.953.025-.953.759s.028.759.953.759h.635v.635c0,.928.021.953.776.953h.459l.134-.12.131-.12.011-.674.011-.671.667-.011.671-.011.113-.116.116-.113v-1.023l-.116-.113-.113-.116-.671-.011-.67-.011v-.618c0-.671-.018-.752-.2-.893-.085-.067-.141-.074-.558-.074A1.723,1.723,0,0,0,207.807,180.049Z" transform="translate(-200.916 -176.083)" fill="#152c69"/>
      </g>
    </g>
  </g>
</svg>
