<svg xmlns="http://www.w3.org/2000/svg" width="22" height="15.039" viewBox="0 0 22 15.039">
  <g id="Group_31479" data-name="Group 31479" transform="translate(-0.419 0.084)">
    <path id="Path_28574" data-name="Path 28574" d="M7.279.082a.718.718,0,0,0-.4.473c-.034.107-.043,2.183-.034,6.527l.013,6.368H6.613c-.215,0-.249-.013-.279-.1-.021-.052-.043-2.325-.047-5.049L6.273,3.347l-2.2.013a9.8,9.8,0,0,0-2.333.086.907.907,0,0,0-.4.5C1.3,4.056,1.289,5.526,1.3,8.779l.013,4.671H0v1.59H22v-1.59H20.8V8.714c0-4.718,0-4.735-.09-4.92a.7.7,0,0,0-.288-.305l-.2-.116L17.974,3.36l-2.247-.013L15.714,8.3c0,2.724-.026,5-.047,5.053-.03.082-.064.095-.279.095h-.241l.013-6.368c.009-4.344,0-6.42-.034-6.527a.718.718,0,0,0-.4-.473C14.554,0,14.36,0,11,0S7.446,0,7.279.082m4.572.4A2.741,2.741,0,0,1,13.6,2.234a2.145,2.145,0,0,1,.125.795,2.443,2.443,0,0,1-.279,1.263,2.158,2.158,0,0,1-.524.713A2.55,2.55,0,0,1,11,5.8a2.528,2.528,0,0,1-1.912-.795,2.616,2.616,0,0,1-.8-2.252A2.787,2.787,0,0,1,10.407.408a3.039,3.039,0,0,1,1.444.077m-8.241,5.4V6.45l-.546-.013-.55-.013L2.5,5.874l-.013-.546H3.609Zm1.753-.013-.013.55L4.8,6.437l-.55.013V5.328H5.375Zm12.684.013v.559H16.973V5.328h1.074ZM19.8,5.874l-.013.55-.546.013-.55.013V5.328h1.121ZM3.609,7.777V8.34l-.546-.013-.55-.013L2.5,7.764l-.013-.546H3.609Zm1.753-.013-.013.55L4.8,8.327l-.55.013V7.219H5.375Zm12.684.013v.559H16.973V7.219h1.074ZM19.8,7.764l-.013.55-.546.013-.55.013V7.219h1.121ZM3.609,9.711v.559H2.492V9.152H3.609Zm1.762,0v.559H4.254V9.152H5.371Zm12.676,0v.559H16.973V9.152h1.074Zm1.762,0v.559H18.691V9.152h1.117Zm-7.09,1.654v2.041H9.453V9.324h3.266Z" transform="translate(0.419 -0.084)" fill="#d66025"/>
    <path id="Path_28575" data-name="Path 28575" d="M217.061,31.192a2.7,2.7,0,0,0-.03.541v.507H216v1.375h1.031v1.031h1.375V33.616h1.031V32.241h-1.027l-.013-.529-.013-.524-.649-.013a5.092,5.092,0,0,0-.675.017" transform="translate(-206.299 -29.919)" fill="#d66025"/>
  </g>
</svg>
