<svg xmlns="http://www.w3.org/2000/svg" width="31.001" height="37.899" viewBox="0 0 31.001 37.899">
  <g id="Group_31583" data-name="Group 31583" transform="translate(0 -0.001)">
    <g id="Group_31547" data-name="Group 31547">
      <path id="Path_28737" data-name="Path 28737" d="M13.215.116a4.75,4.75,0,0,0-2.743,2.2,4.675,4.675,0,0,0,.143,4.5,4.41,4.41,0,0,0,6.676.962A4.507,4.507,0,0,0,15.528.125,5.625,5.625,0,0,0,13.215.116" transform="translate(0.675 0)" fill="#d66025"/>
      <path id="Path_28738" data-name="Path 28738" d="M9.965,9.006A6.274,6.274,0,0,0,6.6,11.9,6.113,6.113,0,0,0,6,14.188v.253l.489-.051a29.948,29.948,0,0,0,7.124-1.84l1.072-.422.953.38a28.877,28.877,0,0,0,7.191,1.848l.423.026-.026-.447A5.617,5.617,0,0,0,19.73,9.209c-1.189-.574-1.2-.574-2.1-.246a11.108,11.108,0,0,1-2.566.609,9.439,9.439,0,0,1-3.655-.693,2.253,2.253,0,0,0-.592-.185,5.223,5.223,0,0,0-.852.312" transform="translate(0.406 0.589)" fill="#d66025"/>
    </g>
    <g id="Group_31548" data-name="Group 31548">
      <path id="Path_28740" data-name="Path 28740" d="M24.722,16.471a1.282,1.282,0,0,0,.093.533c.143.4.119,1.122-.042,1.122a.8.8,0,0,0-.22.059c-.127.051-.143.009-.093-.413.051-.532-.026-.659-.38-.659a.347.347,0,0,0-.32.169c-.076.153-.05.228.16.473.321.363.329.506.043.574-.127.033-.228.05-.237.033s-.109-.152-.21-.3a1.663,1.663,0,0,1-.246-.667c-.067-.439-.262-.633-.5-.48-.337.21-.32.337.119.776s.608.8.439,1c-.194.236-.389.084-.54-.447a.3.3,0,0,0-.464-.194c-.329.177-.279.675.076.675a.641.641,0,0,1,.321.153c.177.135.177.152.042.329s-.152.186-.439.042a2.821,2.821,0,0,1-.642-.506c-.379-.389-.59-.4-.675-.05-.084.32.017.455.32.455a1.973,1.973,0,0,1,.718.254c.389.219.43.279.372.447-.1.278-.3.27-.608-.017a1.357,1.357,0,0,0-.329-.262c-.119,0-.338.312-.338.489,0,.253.144.313.659.279.4-.026.439-.009.439.152,0,.346-.692.464-1.224.211-.4-.186-.583-.127-.616.186-.034.372.152.506.48.337a1.936,1.936,0,0,1,.752-.135c.447,0,.506.025.549.186.076.286-.017.337-.5.278-.506-.059-.608.026-.506.414a.281.281,0,0,0,.506.152c.22-.2.557-.38.608-.329a.634.634,0,0,1,.06.279c.017.2-.043.27-.406.472a1.885,1.885,0,0,1-.7.237c-.337,0-.422.177-.236.463s.329.263.59-.076a1.831,1.831,0,0,1,.608-.472c.354-.177.4-.177.524-.051.185.186.059.389-.33.515-.194.068-.295.161-.312.287a.337.337,0,1,0,.649.177,1.757,1.757,0,0,1,.194-.413c.11-.16.127-.16.313-.017l.194.152-.17.33a2.649,2.649,0,0,1-.515.641c-.379.338-.388.532-.025.667.278.11.439-.034.439-.38,0-.27.43-1.063.582-1.063.38,0,.447.3.136.59-.347.33-.228.676.219.676.279,0,.32-.093.27-.6-.05-.431.009-.516.3-.406.16.06.186.136.186.49a2.021,2.021,0,0,1-.136.718q-.266.556.2.556c.372,0,.48-.177.312-.506a1.435,1.435,0,0,1-.109-.743c.025-.455.033-.48.262-.506l.236-.026-.026.49-.025.489h.286c.4,0,.532-.219.287-.48a2.187,2.187,0,0,1-.27-.389c-.093-.169-.076-.194.119-.27.126-.05.262-.067.3-.033a2.523,2.523,0,0,1,.5,1.131c0,.3.169.4.472.27.279-.136.254-.389-.05-.608a1.934,1.934,0,0,1-.473-.609c-.2-.4-.2-.422-.059-.539a.785.785,0,0,1,.2-.119c.093,0,.253.236.32.473.093.346.3.439.506.253.237-.22.228-.532-.007-.6-.54-.152-.7-.337-.447-.548.2-.169.54-.026.979.43s.6.48.768.126c.119-.279-.026-.472-.372-.472a1.858,1.858,0,0,1-.979-.439c-.119-.144-.042-.49.11-.49a1.227,1.227,0,0,1,.422.253c.4.313.633.237.633-.21,0-.313-.1-.389-.439-.287s-.574.009-.574-.228c0-.16.06-.2.313-.253a1.6,1.6,0,0,1,.658.043c.667.2.7.2.794.017.185-.347-.27-.709-.54-.439-.093.084-.338.117-.87.1-.346-.009-.362-.016-.337-.245s.034-.227.507-.2c.422.026.48.009.532-.152.059-.177-.144-.59-.287-.59a.955.955,0,0,0-.321.194c-.388.32-.523.337-.625.084-.042-.119-.05-.246-.009-.27a2.148,2.148,0,0,1,1-.464.836.836,0,0,0,.389-.119c.135-.135.009-.506-.2-.573-.143-.043-.236.017-.456.279a2.009,2.009,0,0,1-.625.489c-.329.152-.346.152-.463-.009a.685.685,0,0,1-.127-.21c0-.06.279-.2.616-.33.27-.093.3-.329.076-.532-.262-.236-.43-.177-.608.228-.194.456-.279.515-.464.3-.135-.143-.135-.194-.033-.439a2.517,2.517,0,0,1,.48-.633c.406-.379.422-.565.084-.692-.3-.11-.388-.026-.489.447-.119.566-.464,1-.743.929-.236-.068-.186-.3.119-.633.245-.253.194-.473-.119-.557-.372-.093-.48.059-.456.582.034.456.026.464-.177.431-.16-.034-.227-.11-.262-.313a1.588,1.588,0,0,1,.186-1.046c.093-.152.1-.211.017-.313-.136-.16-.583-.169-.642-.009m.346,2.71c0,.127-.067.177-.287.194-.32.033-.48-.076-.4-.279.034-.1.135-.127.363-.11.253.017.32.06.32.194m1.292-.026c.143.144.126.406-.017.406-.253,0-.389-.11-.389-.3,0-.219.228-.279.406-.1m-2.9,1.148a.308.308,0,0,1-.21.144c-.153,0-.2-.27-.067-.43.092-.11.117-.11.236.009a.186.186,0,0,1,.042.278m3.815.228c.161.245.1.464-.117.464a.358.358,0,0,1-.354-.38c0-.354.262-.406.472-.084m-1.881.135c.135.22.009.414-.27.414-.313,0-.507-.27-.338-.473a.432.432,0,0,1,.609.059m-1.849.946c.153.2.153.245.043.354s-.143.109-.313-.009c-.253-.177-.245-.684.017-.6a.944.944,0,0,1,.253.253m2.786.641c.084.136-.034.321-.262.423-.177.084-.245.076-.346-.026-.119-.119-.119-.152.026-.3.16-.177.5-.227.582-.093m-1.857.4c.169.16.1.287-.152.287-.27,0-.473-.237-.3-.346a.307.307,0,0,1,.447.059" transform="translate(1.381 1.108)" fill="#152c69"/>
      <path id="Path_28741" data-name="Path 28741" d="M13.08,18.785a13.8,13.8,0,0,0-.059,1.772v1.714H9.476v2.954h3.545V28.77H15.89V25.225l1.8-.017,1.789-.026v-2.87l-1.789-.025-1.8-.017V18.726H14.515a9.162,9.162,0,0,0-1.435.059" transform="translate(0.642 1.268)" fill="#152c69"/>
      <path id="Path_28742" data-name="Path 28742" d="M3.28,21.856c-.1.127-.042.464.084.464s.337.464.414.886c.076.4,0,.549-.254.549-.169,0-.245-.169-.245-.549a.585.585,0,0,0-.126-.38.47.47,0,0,0-.642.186c-.084.16-.051.22.312.54.406.346.406.363.246.49a.692.692,0,0,1-.279.135c-.186,0-.827-.718-.886-.988-.06-.3-.253-.4-.482-.279-.337.186-.27.676.093.676a2.785,2.785,0,0,1,1,.895.66.66,0,0,1-.119.227c-.152.2-.413.076-.6-.27a.717.717,0,0,0-.237-.287c-.21-.076-.48.177-.48.447s.009.27.7.38c.329.05.389.16.194.422-.1.144-.152.153-.574.051a1.326,1.326,0,0,1-.658-.3c-.262-.279-.574-.279-.676.009a.431.431,0,0,0,0,.38c.084.143.153.16.5.11a1.88,1.88,0,0,1,.852.092c.389.127.43.17.406.363-.034.287-.27.338-.642.136-.346-.186-.549-.093-.592.27-.05.38.169.473.625.27s.625-.152.625.135c0,.169-.067.228-.43.346a1.8,1.8,0,0,1-.835.093c-.49-.067-.667.076-.54.439a.372.372,0,0,0,.649.119,1.544,1.544,0,0,1,.878-.4c.3-.051.363-.034.447.126.136.253.026.346-.455.4-.456.059-.6.227-.447.54.169.329.388.3.742-.11l.313-.363.194.186.185.186-.236.3a1.55,1.55,0,0,1-.912.633c-.337,0-.245.608.1.7a.369.369,0,0,0,.43-.372,2.027,2.027,0,0,1,.862-.919.317.317,0,0,1,.286.38.908.908,0,0,1-.346.3c-.169.1-.295.245-.295.329,0,.177.3.423.523.423.186,0,.262-.127.279-.523.025-.439.143-.549.422-.423.177.084.2.136.16.33A2.04,2.04,0,0,1,3.4,30.651c-.236.262-.245.3-.067.482.312.32.776.076.625-.321a1.062,1.062,0,0,1,0-.616c.135-.573.227-.7.506-.7.3,0,.32.136.093.625-.186.389-.152.54.126.608.447.11.642-.16.423-.608s-.177-.625.109-.625c.211,0,.254.043.38.447a3.075,3.075,0,0,1,.119.862c-.026.413-.026.422.236.446.515.051.566-.278.119-.826-.22-.279-.329-1-.16-1.106a.531.531,0,0,1,.219-.076c.119,0,.245.38.2.616-.051.363.43.532.692.245.211-.227.186-.3-.245-.658l-.4-.321.194-.152a.679.679,0,0,1,.262-.152c.186,0,.76.633.836.928a.622.622,0,0,0,.227.372.47.47,0,0,0,.532-.4c0-.153-.076-.228-.379-.337-.49-.186-1-.76-.886-.988.177-.321.227-.3.8.363.127.143.161.152.321.042a.441.441,0,0,0,.186-.4c0-.279-.009-.287-.4-.33a1.215,1.215,0,0,1-.48-.126c-.119-.127.05-.464.227-.464a2.248,2.248,0,0,1,1.131.422.337.337,0,0,0,.609-.1c.126-.363-.051-.506-.54-.439-.507.068-1.309-.169-1.233-.363a.834.834,0,0,0,.051-.245c0-.16.262-.152.625.017.389.186.557.11.557-.245,0-.447-.153-.515-.659-.3a1.2,1.2,0,0,1-.464.143A1.116,1.116,0,0,1,7.8,26.1c-.05-.21-.025-.236.38-.363a1.811,1.811,0,0,1,.836-.092c.489.067.666-.077.54-.44-.11-.312-.406-.346-.676-.076A1.815,1.815,0,0,1,7.72,25.5a.373.373,0,0,1-.16-.227c-.05-.2.194-.338.608-.338.354,0,.5-.21.337-.489-.193-.354-.4-.329-.759.084l-.313.363-.193-.186-.186-.177.262-.329a1.945,1.945,0,0,1,.971-.65c.227-.076.16-.482-.11-.616-.169-.084-.227-.076-.354.034a.476.476,0,0,0-.152.3,1.988,1.988,0,0,1-.861.9.318.318,0,0,1-.228-.119c-.143-.169.009-.43.313-.573s.337-.439.067-.616c-.321-.211-.557-.1-.557.253a1.474,1.474,0,0,1-.093.5c-.093.2-.11.2-.337.093l-.228-.126.1-.456a2,2,0,0,1,.338-.726.971.971,0,0,0,.219-.38c0-.177-.227-.312-.482-.279-.227.026-.236.043-.245.532a3.35,3.35,0,0,1-.117.87c-.1.337-.136.363-.372.337s-.262-.051-.237-.27a1.174,1.174,0,0,1,.153-.43.414.414,0,0,0,.067-.33c-.119-.3-.793-.227-.793.1a.622.622,0,0,0,.126.3.817.817,0,0,1,.127.413c0,.211-.026.237-.227.211s-.262-.093-.389-.49a1.208,1.208,0,0,1-.076-.768c.05-.22.05-.346-.009-.4a.558.558,0,0,0-.65.033m2.431,2.457c.219.152.245.329.05.4-.279.1-.625-.253-.43-.447.119-.119.152-.119.38.043m-1.334.354a.4.4,0,0,1-.1.253c-.143.143-.566.126-.625-.026-.084-.2.127-.38.439-.38.22,0,.287.034.287.153m2.633.751c.211.194.2.532-.017.532-.193,0-.506-.279-.506-.447,0-.262.279-.3.523-.084m-3.984.836c0,.245-.135.337-.3.2a.332.332,0,0,1-.025-.489c.135-.136.32.026.32.287m2.034-.22c.3.169.144.592-.219.592s-.523-.414-.228-.583a.355.355,0,0,1,.447-.009M3.483,27.562c.354.279.253.566-.16.464-.27-.067-.43-.354-.287-.523.127-.161.177-.153.447.059m3.072.042c.051.347-.506.633-.633.321-.059-.16.3-.557.482-.523a.262.262,0,0,1,.152.2m-1.747.845c.093.119.084.152-.05.253a.616.616,0,0,1-.211.119.616.616,0,0,1-.211-.119c-.135-.1-.143-.135-.05-.253a.379.379,0,0,1,.262-.135.379.379,0,0,1,.262.135" transform="translate(0 1.472)" fill="#152c69"/>
      <path id="Path_28744" data-name="Path 28744" d="M19.061,28.715a.5.5,0,0,0,.093.347,1.787,1.787,0,0,1,.211.515c.059.245.042.312-.093.379-.161.093-.186.043-.262-.463-.034-.22-.263-.253-.447-.076-.136.143-.136.16.117.362.3.246.33.389.119.464-.177.068-.515-.236-.667-.608-.126-.287-.27-.337-.439-.169s-.109.312.177.439a1.225,1.225,0,0,1,.473.354c.169.211.169.245.05.363s-.16.11-.37-.152-.237-.27-.38-.136c-.177.186-.143.414.076.447.523.076.557.1.464.279-.076.136-.152.16-.363.119a1.616,1.616,0,0,1-.506-.228c-.3-.2-.482-.143-.482.153,0,.193.026.219.236.177a1.663,1.663,0,0,1,.592.042c.295.076.354.119.354.287,0,.236-.084.253-.414.076-.21-.1-.262-.11-.346,0a.385.385,0,0,0-.067.27c.034.152.16.169.6.059.194-.042.228-.025.228.119,0,.211-.482.4-.836.329-.219-.042-.43.06-.43.2a.5.5,0,0,0,.127.194c.117.11.16.11.439-.076.37-.253.895-.3.852-.068-.017.1-.127.17-.32.194-.338.051-.447.313-.2.507.119.109.169.084.372-.17.236-.278.253-.286.388-.152s.144.16-.135.447a1,1,0,0,1-.439.3.219.219,0,0,0-.152.38c.169.2.329.143.455-.153a1.232,1.232,0,0,1,.354-.472c.211-.17.246-.17.363-.051s.11.16-.16.38c-.253.2-.279.253-.169.372.194.245.456.135.506-.2.043-.27.084-.3.338-.27.117.026.007.532-.177.793-.194.279-.2.456-.034.523.253.093.4-.042.346-.312-.067-.346.11-.9.287-.9.227,0,.253.084.117.4-.135.338-.067.464.228.423.211-.026.227-.119.11-.6-.043-.194-.026-.227.117-.227s.2.084.27.346a1.562,1.562,0,0,1,.043.582c-.034.17-.017.246.076.279.329.127.506-.177.27-.439-.152-.169-.313-.843-.211-.869.246-.034.287,0,.33.27.05.337.312.447.506.2.11-.119.084-.169-.169-.372-.27-.22-.287-.253-.16-.38s.152-.119.363.051a1.232,1.232,0,0,1,.354.472c.126.3.286.354.455.153a.219.219,0,0,0-.152-.38,1,1,0,0,1-.439-.3c-.245-.253-.262-.3-.16-.43s.135-.11.346.143c.194.237.262.27.389.194.152-.093.245-.447.126-.464-.033-.007-.177-.025-.312-.042-.3-.034-.33-.067-.27-.27.05-.143.1-.16.363-.1a1.875,1.875,0,0,1,.54.245c.21.161.245.161.362.043a.412.412,0,0,0,.136-.194c0-.143-.211-.245-.43-.2-.337.068-.836-.117-.836-.32,0-.186.321-.228.482-.067s.363.016.363-.22-.211-.372-.363-.219-.482.117-.482-.06c0-.194.54-.379.9-.3.194.033.27.016.313-.093.05-.153-.077-.38-.22-.38a1.053,1.053,0,0,0-.3.16c-.337.237-.759.313-.826.136s-.017-.22.32-.287c.22-.043.279-.1.279-.262,0-.313-.279-.321-.515-.026-.177.211-.2.228-.33.1s-.117-.152.051-.363a1.225,1.225,0,0,1,.473-.354c.295-.127.354-.287.152-.456a.22.22,0,0,0-.38.152,1,1,0,0,1-.3.44c-.269.262-.312.278-.43.152s-.117-.152.127-.329c.32-.237.329-.389.042-.516-.253-.117-.37,0-.37.363,0,.279-.068.346-.254.245-.126-.067-.135-.135-.084-.379a1.787,1.787,0,0,1,.211-.515c.177-.27.11-.473-.143-.44-.161.017-.194.077-.177.279a1.96,1.96,0,0,1-.068.566c-.067.262-.117.32-.295.32s-.2-.025-.153-.193a1.06,1.06,0,0,1,.136-.3c.119-.143-.084-.372-.3-.337-.186.025-.2.135-.093.582.043.16.017.236-.076.27-.186.076-.329-.236-.337-.743-.009-.37-.034-.422-.2-.447a.222.222,0,0,0-.236.093m1.722,1.773c.016.092-.026.143-.144.143-.194,0-.295-.127-.219-.262s.329-.051.363.119m-1.039.135c0,.186-.27.32-.388.2-.077-.076-.077-.136.009-.237.126-.16.379-.135.379.034m1.882.532c.152.152.119.32-.067.32-.169,0-.372-.27-.279-.37a.249.249,0,0,1,.346.05m-2.786.506c-.016.11-.059.194-.109.194s-.093-.084-.11-.194c-.017-.126.017-.186.11-.186s.126.06.109.186m1.486.009c.1.169-.06.33-.287.287a.232.232,0,0,1-.067-.4c.143-.093.245-.06.354.117m-1.132.946a.261.261,0,0,1,.051.253c-.067.186-.389.009-.389-.211,0-.2.186-.219.337-.042m2.111.042c0,.22-.321.4-.389.211a.316.316,0,0,1,.27-.38c.067,0,.119.076.119.169m-1.182.633c0,.076-.076.127-.211.127s-.21-.051-.21-.127.076-.127.21-.127.211.051.211.127" transform="translate(1.134 1.938)" fill="#152c69"/>
    </g>
    <g id="Group_31549" data-name="Group 31549">
      <path id="Path_28739" data-name="Path 28739" d="M14.475,13.112A29.586,29.586,0,0,1,10.8,14.353a23.852,23.852,0,0,1-5.064.776l-1.435.06-.05.253a32.9,32.9,0,0,0,.05,4.684c.2,2.11.22,2.178.389,2.22.1.026.169-.017.211-.126a.826.826,0,0,1,.414-.33l.353-.16-.066-.439a23.007,23.007,0,0,1-.211-3.132l-.06-1.831H5.79a28.663,28.663,0,0,0,8.086-1.705c.861-.312.988-.337,1.224-.245A30.37,30.37,0,0,0,23.38,16.3c.633.034.886.084.886.16,0,.06.1.186.236.27.515.372.947-.025.947-.878,0-.718.032-.692-1.09-.7A26.583,26.583,0,0,1,14.9,13.01a.724.724,0,0,0-.422.1" transform="translate(0.284 0.881)" fill="#d66025"/>
      <path id="Path_28743" data-name="Path 28743" d="M21.781,25.574c-.177.515-.506,1.351-.735,1.857-.379.845-.4.937-.253.937a.8.8,0,0,1,.583.59c0,.363.193.135.582-.7A23.856,23.856,0,0,0,23.1,25.347l.127-.447L23,24.941a.893.893,0,0,1-.565-.119c-.177-.093-.33-.169-.338-.169s-.143.414-.312.92" transform="translate(1.402 1.669)" fill="#d66025"/>
      <path id="Path_28745" data-name="Path 28745" d="M8.3,29.6a1.341,1.341,0,0,1-.422.389l-.287.143a19.017,19.017,0,0,0,1.68,2.153A16.675,16.675,0,0,0,12.009,34.6a17.483,17.483,0,0,0,2.49,1.308,6.075,6.075,0,0,0,2.111-.962c.532-.32,1-.608,1.021-.633a1.38,1.38,0,0,0,.11-.413c.05-.354.042-.363-.279-.523l-.337-.161-.406.279a12.493,12.493,0,0,1-1.975,1.1c-.245.059-.861-.22-1.848-.827a14.626,14.626,0,0,1-3.925-3.7l-.506-.718Z" transform="translate(0.514 1.988)" fill="#d66025"/>
    </g>
  </g>
</svg>
