<svg xmlns="http://www.w3.org/2000/svg" width="24" height="26.711" viewBox="0 0 24 26.711">
  <g id="Group_31143" data-name="Group 31143" transform="translate(-245.057 -251.897)">
    <g id="Group_31141" data-name="Group 31141" transform="translate(245.057 251.897)">
      <path id="Path_26867" data-name="Path 26867" d="M257.622,251.988a6.58,6.58,0,0,0-2.059.758,6.79,6.79,0,0,0-1.383,1.178,2.558,2.558,0,0,0,.4.368l.4.327.438-.42a4.783,4.783,0,0,1,2.521-1.266,5.075,5.075,0,0,1,1.494-.094,7.093,7.093,0,0,1,2.614.531,9.711,9.711,0,0,1,5.112,4.575c.409.817.782,1.995.63,1.995-.035,0-.292-.052-.572-.117a4.712,4.712,0,0,0-.548-.105c-.047.018,1.7,3.151,1.768,3.163.047.006,1.668-2.217,1.692-2.316a1.73,1.73,0,0,0-.619-.239l-.636-.181-.163-.642a10.817,10.817,0,0,0-8.654-7.551A10.254,10.254,0,0,0,257.622,251.988Z" transform="translate(-246.127 -251.897)" fill="#152c69"/>
      <path id="Path_26868" data-name="Path 26868" d="M245.127,256.717c-.052.052-.07,1.558-.07,6.413v6.349l.128.087c.117.081.747.094,5.649.094,5.993,0,5.777.011,5.777-.31,0-.07-.105-.6-.233-1.178s-.268-1.249-.321-1.488-.117-.531-.146-.642c-.064-.257-.275-1.214-1.231-5.6-.42-1.943-.805-3.588-.852-3.664l-.076-.128h-4.277A42.474,42.474,0,0,0,245.127,256.717Zm6.418,6.349c.478,1.2.975,2.439,1.1,2.743l.228.554-.59.018a5.265,5.265,0,0,1-.606-.006c-.011-.011-.117-.28-.228-.595s-.216-.583-.222-.59c-.035-.035-1.908-.07-2.089-.047s-.222.071-.28.251c-.041.117-.14.386-.228.6l-.157.4H247.9c-.653,0-.624.034-.373-.525.064-.146.186-.461.275-.7.186-.5,1.453-3.764,1.592-4.1l.094-.222.595.018.59.018Z" transform="translate(-245.057 -252.454)" fill="#152c69"/>
    </g>
    <path id="Path_26869" data-name="Path 26869" d="M250.244,263.872c-.2.554-.362,1.021-.362,1.044a8.3,8.3,0,0,0,1.517.024c0-.029-.758-2.036-.776-2.06C250.612,262.875,250.443,263.318,250.244,263.872Z" transform="translate(-0.566 -1.288)" fill="#152c69"/>
    <g id="Group_31142" data-name="Group 31142" transform="translate(245.763 260.996)">
      <path id="Path_26870" data-name="Path 26870" d="M257.3,262.241a1.667,1.667,0,0,0-.671.256,1.819,1.819,0,0,0,.129.315c.093.192.151.257.222.228.42-.181.776-.2,4.12-.2,2.019,0,3.519.024,3.7.059a2.755,2.755,0,0,1,2.095,2.194c.029.192.047,1.71.041,3.378-.011,2.947-.017,3.046-.134,3.362a2.705,2.705,0,0,1-1.768,1.686c-.35.111-.554.116-3.915.116s-3.565-.005-3.915-.116a2.566,2.566,0,0,1-1.6-1.371,2.925,2.925,0,0,1-.239-.718l-.035-.3h-.338c-.4,0-.4-.006-.234.653a3.267,3.267,0,0,0,2.754,2.492c.5.081,6.722.081,7.224,0a3.305,3.305,0,0,0,1.978-1.039,3.73,3.73,0,0,0,.828-1.61c.047-.245.058-1.348.047-3.588-.018-3.216-.023-3.239-.157-3.6a3.611,3.611,0,0,0-1.587-1.855c-.735-.385-.672-.38-4.75-.373C259.071,262.212,257.361,262.223,257.3,262.241Z" transform="translate(-246.888 -262.204)" fill="#d66025"/>
      <path id="Path_26871" data-name="Path 26871" d="M262.966,264.006a.9.9,0,0,0-.344.805v.321l-1.092.023c-.933.018-1.12.035-1.248.123a.639.639,0,0,0-.087,1l.192.21h2.444c2.62,0,2.579.006,2.807-.291a.842.842,0,0,0,.006-.666c-.123-.286-.31-.35-1.021-.373l-.659-.023v-.35a1.422,1.422,0,0,0-.087-.513A.678.678,0,0,0,262.966,264.006Z" transform="translate(-247.515 -262.406)" fill="#d66025"/>
      <path id="Path_26872" data-name="Path 26872" d="M264.994,267a.78.78,0,0,0-.525.543,3.479,3.479,0,0,1-.782,1.19l-.239.234-.624-.659a6.737,6.737,0,0,0-.788-.741.747.747,0,0,0-.741.029.805.805,0,0,0-.268.636,4.827,4.827,0,0,0,.718.84c.414.42.653.711.618.741s-.4.333-.834.671a8.664,8.664,0,0,0-.869.742.672.672,0,0,0,.234.9c.361.187.5.129,1.423-.595.467-.367.9-.706.963-.741.1-.059.216.034,1.062.881a6.388,6.388,0,0,0,1.126,1,.648.648,0,0,0,.787-.49c.029-.391.012-.42-.933-1.354l-.928-.922.367-.391a5.032,5.032,0,0,0,.939-1.435.79.79,0,0,0-.268-1.033A.5.5,0,0,0,264.994,267Z" transform="translate(-247.582 -262.763)" fill="#d66025"/>
      <path id="Path_26873" data-name="Path 26873" d="M246.423,273.606l-.566,1.354.624.034c.344.024.659.042.695.047a1.523,1.523,0,0,1,.314.485,10.642,10.642,0,0,0,7.276,5.274,10.777,10.777,0,0,0,3.484.094,6.376,6.376,0,0,0,4.16-2.334,3.21,3.21,0,0,0,.525-.91c-.415-.2-.939-.443-.952-.432s-.1.175-.2.367a6.2,6.2,0,0,1-1.663,1.645,6.774,6.774,0,0,1-3.881.876,8.912,8.912,0,0,1-3.676-.922,8.574,8.574,0,0,1-1.728-1.05,9.374,9.374,0,0,1-2.45-2.865l-.14-.28h.368c.21,0,.5-.018.642-.035l.262-.035-1.231-1.336c-.676-.735-1.248-1.336-1.266-1.336S246.732,272.86,246.423,273.606Z" transform="translate(-245.857 -263.382)" fill="#d66025"/>
    </g>
  </g>
</svg>
