<svg xmlns="http://www.w3.org/2000/svg" width="24.626" height="30.53" viewBox="0 0 24.626 30.53">
  <g id="Group_88" data-name="Group 88" transform="translate(-103.5 -75.074)">
    <path id="Path_26757" data-name="Path 26757" d="M106.232,75.175a3.678,3.678,0,0,0-2.426,1.956l-.306.612v25.239l.306.612a4.035,4.035,0,0,0,1.8,1.77l.514.24h19.339l.623-.306a3.557,3.557,0,0,0,1.836-2.142c.219-.7.219-.961.2-10.609l-.033-9.888-.273-.448c-.153-.251-1.65-1.857-3.322-3.573-2.437-2.491-3.158-3.169-3.573-3.354-.5-.208-.7-.219-7.441-.208C109.673,75.088,106.417,75.12,106.232,75.175Zm13.494,3.9c0,2.273.011,2.4.262,2.939a3.408,3.408,0,0,0,.732.951c.732.634,1.235.732,3.671.732H126.5v18.935l-.262.448a2.248,2.248,0,0,1-.7.7l-.437.24H106.483l-.437-.24a2.248,2.248,0,0,1-.7-.7l-.262-.448V90.362c0-12.237,0-12.259.229-12.674a2.253,2.253,0,0,1,.677-.688l.448-.3h13.286Z" fill="#d66025"/>
    <g id="Group_88-2" data-name="Group 88" transform="translate(108.908 86.544)">
      <path id="Path_26758" data-name="Path 26758" d="M211.2,180.323a13.391,13.391,0,0,0-3.037,3.048,2.822,2.822,0,0,0-.164.874c0,.524.284,1.267.481,1.267a3.039,3.039,0,0,0,1.125-1.267,12.774,12.774,0,0,1,2.294-2.6c.393-.153.645-.022,1.464.776,1.2,1.169,1.2,1.191-.328,2.688-.852.841-1.257,1.169-1.442,1.169s-.448.186-.787.524a3.176,3.176,0,0,0-.514.59c0,.131.9.415,1.322.415.754,0,1.191-.284,2.589-1.672a6.3,6.3,0,0,0,1.442-1.715,3.019,3.019,0,0,0-.066-1.8,10.567,10.567,0,0,0-2.48-2.4A2.287,2.287,0,0,0,211.2,180.323Z" transform="translate(-201.991 -180.056)" fill="#152c69"/>
      <path id="Path_26759" data-name="Path 26759" d="M188.581,216.221c-.361.2-4.862,4.7-5.037,5.037a.964.964,0,0,0,.874,1.388c.295,0,.656-.328,2.928-2.6,2.1-2.1,2.6-2.655,2.6-2.884A.938.938,0,0,0,188.581,216.221Z" transform="translate(-180.113 -212.163)" fill="#152c69"/>
      <path id="Path_26760" data-name="Path 26760" d="M156.485,235.153c-.59.208-.918.47-2.1,1.694S153,238.431,153,239.272c0,.8.208,1.136,1.4,2.305.94.918,1.125,1.06,1.606,1.158,1.114.24,1.6-.011,3.234-1.694,1.049-1.06,1.3-1.377,1.409-1.781a2.455,2.455,0,0,0-.175-1.726l-.175-.262-.535.524c-.35.35-.535.623-.535.8s-.317.59-1.114,1.4a9.8,9.8,0,0,1-1.377,1.246c-.361.142-.721-.076-1.519-.918-.983-1.016-.962-1.136.328-2.447,1.016-1.049,1.475-1.388,1.737-1.289.2.076,1.235-.972,1.125-1.147a1.859,1.859,0,0,0-1.169-.437A3.3,3.3,0,0,0,156.485,235.153Z" transform="translate(-153 -228.997)" fill="#152c69"/>
    </g>
  </g>
</svg>
