<svg id="Group_70225" data-name="Group 70225" xmlns="http://www.w3.org/2000/svg" width="18" height="18.071" viewBox="0 0 18 18.071">
  <path id="Path_26758" data-name="Path 26758" d="M212.187,180.406a17.515,17.515,0,0,0-3.973,3.987,3.691,3.691,0,0,0-.214,1.143c0,.686.372,1.658.629,1.658a3.975,3.975,0,0,0,1.472-1.658,16.7,16.7,0,0,1,3-3.4c.514-.2.843-.029,1.915,1.015,1.572,1.529,1.572,1.558-.429,3.515-1.115,1.1-1.643,1.529-1.886,1.529s-.586.243-1.029.686a4.154,4.154,0,0,0-.672.772c0,.171,1.172.543,1.729.543.986,0,1.558-.372,3.387-2.186A8.24,8.24,0,0,0,218,185.764a3.949,3.949,0,0,0-.086-2.358,13.82,13.82,0,0,0-3.244-3.144A2.991,2.991,0,0,0,212.187,180.406Z" transform="translate(-200.14 -180.056)" fill="#fff"/>
  <path id="Path_26759" data-name="Path 26759" d="M190.164,216.258c-.472.257-6.359,6.145-6.588,6.588a1.26,1.26,0,0,0,1.143,1.815c.386,0,.857-.429,3.83-3.4,2.744-2.744,3.4-3.473,3.4-3.773A1.226,1.226,0,0,0,190.164,216.258Z" transform="translate(-179.089 -210.95)" fill="#fff"/>
  <path id="Path_26760" data-name="Path 26760" d="M157.559,235.2c-.772.272-1.2.614-2.744,2.215S153,239.487,153,240.587c0,1.043.271,1.486,1.829,3.015,1.229,1.2,1.472,1.386,2.1,1.515,1.458.314,2.086-.014,4.23-2.215,1.372-1.386,1.7-1.8,1.843-2.329a3.21,3.21,0,0,0-.229-2.258l-.229-.343-.7.686c-.457.457-.7.815-.7,1.043s-.414.772-1.458,1.829a12.811,12.811,0,0,1-1.8,1.629c-.472.186-.943-.1-1.986-1.2-1.286-1.329-1.258-1.486.429-3.2,1.329-1.372,1.929-1.815,2.272-1.686.257.1,1.615-1.272,1.472-1.5a2.432,2.432,0,0,0-1.529-.572A4.316,4.316,0,0,0,157.559,235.2Z" transform="translate(-153 -227.148)" fill="#fff"/>
</svg>
