<svg id="Group_31593" data-name="Group 31593" xmlns="http://www.w3.org/2000/svg" width="42.424" height="36.594" viewBox="0 0 42.424 36.594">
  <path id="Path_28791" data-name="Path 28791" d="M80.283,49.586a14.961,14.961,0,0,1-6.063,1.032L72.228,50.6v3.66c.014,3.9.056,4.282.806,6.741,1.243,4.126,4.423,7.645,7.673,8.479a3.8,3.8,0,0,0,2.742-.325c3.109-1.173,6.119-5.2,7.108-9.553a22.235,22.235,0,0,0,.353-5.158l.07-3.887-1.823.043a15.149,15.149,0,0,1-6.882-1.258c-.692-.325-.608-.339-1.993.24m3.476,2.077a4.463,4.463,0,0,1,2.36,4.112c-.043.551-.043.551-.636.537-.339,0-.664-.014-.749-.014s-.141-.367-.141-.791a2.8,2.8,0,0,0-4.536-2.289,3.246,3.246,0,0,0-1.1,2.275c-.085.791-.113.862-.438.89a2.816,2.816,0,0,1-.692-.056c-.325-.085-.325-.127-.269-1.088a4.168,4.168,0,0,1,1.456-3.024,3.825,3.825,0,0,1,2.854-1,2.961,2.961,0,0,1,1.894.452m3,5.766a.887.887,0,0,1,.452.424c.042.141.085,1.6.085,3.236,0,2.812-.014,3-.3,3.462-.594.961-.721.989-5.257.989-3.872,0-4.07-.014-4.437-.3-.961-.707-.975-.777-1.018-4.084-.042-3.166.014-3.519.565-3.731a82.7,82.7,0,0,1,9.907,0" transform="translate(-48.557 -33.023)" fill="#152c69"/>
  <path id="Path_28792" data-name="Path 28792" d="M98.648,79.835a1.142,1.142,0,0,0-.466,1.809c.226.2.283.438.283,1.131,0,.933.156,1.2.664,1.2.424,0,.622-.41.594-1.243a1.858,1.858,0,0,1,.2-1.032,1.453,1.453,0,0,0,0-1.583,1.563,1.563,0,0,0-1.272-.283" transform="translate(-65.819 -53.648)" fill="#152c69"/>
  <path id="Path_28793" data-name="Path 28793" d="M7.378.338c0,.2.225,2.171.479,4.37l.479,4.031h2.988V6.484H38.952V8.739h3.016l.2-1.917c.113-1.043.254-2.312.338-2.819l.169-.9h-22.3l-.93-1.55L18.513,0H12.96C8.675,0,7.378.085,7.378.338" transform="translate(-4.96)" fill="#d66025"/>
  <path id="Path_28794" data-name="Path 28794" d="M33.04,34.283c-.1-1.7.848-1.54-9.567-1.54-6.1,0-8.534-.034-9.18-.141H0v8.507C0,52.7.014,53.191.283,53.756a2.208,2.208,0,0,0,.735.89c.452.283.678.283,11.885.283h11.4l-.438-.749a19.537,19.537,0,0,1-2.12-5.582c-.282-1.1-.311-1.738-.367-6.43l-.071-5.2,1.329.113a26.868,26.868,0,0,0,6.472-.155,13.108,13.108,0,0,0,3.194-1.23l.791-.452ZM15.722,43.735v1.693l-1.387-.09a5.877,5.877,0,0,0-1.621.072,4.16,4.16,0,0,0-.27,1.747l-.054,1.585-1.477-.018c-.828,0-1.567,0-1.675-.018a4.272,4.272,0,0,1-.216-1.675l-.054-1.657H5.725L5.671,43.7l-.054-1.657h3.44V38.62H12.3l.018,1.441c.018.793.036,1.549.054,1.657.018.162.522.252,1.693.288l1.657.054Z" transform="translate(0 -21.917)" fill="#d66025"/>
</svg>
