<svg xmlns="http://www.w3.org/2000/svg" width="32.811" height="31.857" viewBox="0 0 32.811 31.857">
  <g id="Group_31601" data-name="Group 31601" transform="translate(0 0)">
    <path id="Path_28798" data-name="Path 28798" d="M31.563,13.881A15.47,15.47,0,0,0,28.08,4.57a3.31,3.31,0,0,1-.555-.881l-.153,1.738a2.76,2.76,0,0,1,.574.718A14.876,14.876,0,0,1,29.5,20.032a21.754,21.754,0,0,1-1.573,3,8.542,8.542,0,0,0-.592.724,18.091,18.091,0,0,1-3.4,3.182A14.393,14.393,0,0,1,15.7,29.4a13.4,13.4,0,0,1-4.723-.726,14.362,14.362,0,0,1-3.661-1.8A12.748,12.748,0,0,1,4.8,24.7H3.269L4.458,25.86A15.685,15.685,0,0,0,12.551,30.2a18.72,18.72,0,0,0,6.319-.011,15.926,15.926,0,0,0,7.982-4.31,15.577,15.577,0,0,0,4.712-12" transform="translate(1.234 1.392)" fill="#d66025"/>
    <path id="Path_28799" data-name="Path 28799" d="M2.15,12.377A14.927,14.927,0,0,1,11.906,1.815a12.037,12.037,0,0,1,5.024-.691c1.07.021,1.986.061,2.133.092L20.526.4A5.55,5.55,0,0,1,19.487.252,21.378,21.378,0,0,0,14.675.086,16.611,16.611,0,0,0,7.653,2.742a18.783,18.783,0,0,0-3.862,3.7A16.16,16.16,0,0,0,1,12.667c-.092.442-.185.9-.225,1.077H1.881a11.694,11.694,0,0,1,.269-1.368" transform="translate(0.293 0.005)" fill="#d66025"/>
    <path id="Path_28800" data-name="Path 28800" d="M6.037,24.751c0-.056.223-.1.5-.1.625,0,.726-.168.726-1.161,0-.446.045-.737.123-.737a1.394,1.394,0,0,1,.815.536,4.886,4.886,0,0,0,1.384,1.218c.38.189.837.2,5.661.223,6.051.033,6.084.033,6.842-.793a2.755,2.755,0,0,0,.536-.792,2.371,2.371,0,0,0-.267-1.6l-.234-.324.267-.258a1.8,1.8,0,0,0,.234-2.165l-.267-.536.346-.5a1.54,1.54,0,0,0,.358-1.139,1.886,1.886,0,0,0-.269-1.05l-.256-.413.278-.335a2.033,2.033,0,0,0,.09-2.545c-.591-.8-.837-.848-4.61-.892l-3.317-.045.112-.289a10.405,10.405,0,0,0,.435-3.07c-.011-3.35-1.317-5.1-3.125-4.187-.782.413-.916.68-1.016,2.065-.167,2.512-.457,3.684-1.227,4.79a10.8,10.8,0,0,1-2.267,2.233l-.569.379-.146-.278L7.03,12.7h-2.4c-2,0-2.41-.022-2.456-.167a.4.4,0,0,1,0-.128H1.066l-.008.039c-.034.2-.124.256-.413.256a.854.854,0,0,0-.5.134c-.19.19-.19,11.488,0,11.678a7.353,7.353,0,0,0,2.189.134H4.4l.106.1H6.037v0m1.238-10.2.782-.492a10.117,10.117,0,0,0,3.772-4.3,11.589,11.589,0,0,0,.559-3.4c.066-1.161.112-1.4.289-1.529a.954.954,0,0,1,1.106.055,5.045,5.045,0,0,1,.658,3.081,6.844,6.844,0,0,1-.658,3.428c-.212.424-.245.591-.157.759a2.831,2.831,0,0,0,.146.245c.011.011,1.786.056,3.952.09l3.918.056.291.267c.614.581.223,1.541-.748,1.808-.715.19-.693.9.033,1.106a.907.907,0,0,1,.435,1.618,2.008,2.008,0,0,1-.68.357c-.391.079-.647.5-.47.782a1.376,1.376,0,0,0,.559.335c.525.179.713.413.713.881,0,.413-.424.837-1.048,1.05-.4.123-.581.47-.413.759a1.26,1.26,0,0,0,.58.347c.916.335.96,1.149.1,1.585-.368.189-.8.212-5.548.212-5.816.011-5.493.055-6.286-.883a3.624,3.624,0,0,0-1.719-1.127c-.157,0-.179-.358-.179-3.551ZM3.636,23.59,1.124,23.6V13.71H6.149V23.59Z" transform="translate(0 1.341)" fill="#152c69"/>
    <path id="Path_28801" data-name="Path 28801" d="M14.541,1.23c.044.044-.134.335-.391.658a5.506,5.506,0,0,0,7.994,7.559A5.415,5.415,0,0,0,23.64,7c0-.169.04-.231.129-.18l.153-1.738a4.449,4.449,0,0,1-.193-.66,5.165,5.165,0,0,0-1.463-2.735A5.68,5.68,0,0,0,19.431.08a6.545,6.545,0,0,0-2.869.19,1.779,1.779,0,0,1-.58.131l-1.461.822.021.007m5.392.112a4.693,4.693,0,0,1,2.713,3.048,6.562,6.562,0,0,1,.077,1.463,4.415,4.415,0,0,1-6.407,3.617,4.5,4.5,0,0,1-2.4-4.6,4.482,4.482,0,0,1,6.017-3.527" transform="translate(4.836)" fill="#152c69"/>
    <path id="Path_28802" data-name="Path 28802" d="M15.269,6.048c.748.938,1.027,1.216,1.229,1.216A31.1,31.1,0,0,0,21.264,3.19c.134-.346-.079-.614-.481-.6-.212,0-.8.459-2.189,1.664-1.037.916-1.931,1.675-1.975,1.675a6.424,6.424,0,0,1-.837-.949c-.614-.77-.815-.949-1.061-.949a.505.505,0,0,0-.492.636c.045.09.5.715,1.038,1.384" transform="translate(5.36 0.976)" fill="#152c69"/>
  </g>
</svg>
