<svg xmlns="http://www.w3.org/2000/svg" width="23.554" height="34" viewBox="0 0 23.554 34">
  <g id="Group_31596" data-name="Group 31596" transform="translate(0 0)">
    <path id="Path_28795" data-name="Path 28795" d="M5.051.136A6.817,6.817,0,0,0,.53,3.768,4.5,4.5,0,0,0,0,6.474a4.918,4.918,0,0,0,.624,2.97A7,7,0,0,0,2.1,11.468a6.933,6.933,0,0,0,5.278,1.589c.681-.151.757-.227.814-.814l.057-.662H6.584a4.469,4.469,0,0,1-3.8-1.381,5.265,5.265,0,0,1-.889-6.054,4.865,4.865,0,0,1,4.6-2.686A4.864,4.864,0,0,1,11.54,6.493V7.836l.624.189c.568.17.624.151.719-.265A8.143,8.143,0,0,0,12.922,6,6.589,6.589,0,0,0,5.051.136" transform="translate(0 0)" fill="#d66025"/>
    <path id="Path_28796" data-name="Path 28796" d="M22.536,21.173c-.208.246-.908,1.192-1.57,2.1l-1.192,1.684-.87-.87c-.965-.946-1.4-1.078-1.722-.492-.189.341-.057.53.87,1.514.87.927,1.192,1.135,1.684,1.135.795,0,.965-.151,2.63-2.5,1.476-2.062,1.608-2.365,1.211-2.762-.341-.341-.605-.284-1.041.189" transform="translate(-13.871 -16.838)" fill="#d66025"/>
    <path id="Path_28797" data-name="Path 28797" d="M24.28,45.031a3.049,3.049,0,0,0-.908.511c-.87.795-.908,1-.927,7.795-.019,3.557-.076,6.451-.151,6.451a7.491,7.491,0,0,1-1.041-.662,2.772,2.772,0,0,0-3.122-.322,2.554,2.554,0,0,0-1.476,2.176c-.132,1.1-.038,1.249,3.405,5.827l2.686,3.576h6.659c4.446,0,6.7-.057,6.773-.208.151-.227.832-7.416.851-8.835A5.108,5.108,0,0,0,33.1,56.666c-.284-.038-1.4-.284-2.5-.549s-2.138-.492-2.308-.492c-.322,0-.341-.341-.341-4.313,0-4.976-.076-5.316-1.514-6.054a2.381,2.381,0,0,0-2.157-.227m1.892,1.722c.322.359.359.814.454,5.146l.095,4.749.946.246c.53.132,1.968.454,3.216.719,2.516.549,3.576,1.022,4.181,1.949.624.908.681,2.005.3,5.9l-.322,3.5-5.789.057-5.808.038-2.63-3.538c-1.457-1.968-2.705-3.67-2.781-3.8-.246-.435.246-1.495.814-1.722.662-.284,1.1-.114,2.762,1.1a7.908,7.908,0,0,0,1.514.965c.624,0,.662-.416.662-7.643,0-7.113,0-7.189.416-7.624a1.366,1.366,0,0,1,1.968-.038" transform="translate(-13.477 -36.382)" fill="#152c69"/>
  </g>
</svg>
