<svg xmlns="http://www.w3.org/2000/svg" width="27.989" height="26.466" viewBox="0 0 27.989 26.466">
  <g id="Group_31603" data-name="Group 31603" transform="translate(0 0.001)">
    <path id="Path_28803" data-name="Path 28803" d="M13.141.013A13.793,13.793,0,0,0,8.136,1.376C7.227,1.824,7.044,2.007,7,2.519a.947.947,0,0,0,.486.908c.347.234.612.2,1.477-.227A11.234,11.234,0,0,1,24.7,16.707a7.546,7.546,0,0,1-.688,1.634,2.368,2.368,0,0,1-.214-.517c-.259-.783-.644-1.086-1.256-.972a1.056,1.056,0,0,0-.789.965,27.742,27.742,0,0,0,1.306,3.812.96.96,0,0,0,.726.373,18.5,18.5,0,0,0,1.932-.575c1.88-.624,2.1-.738,2.227-1.192a.981.981,0,0,0-.467-1.155,1.474,1.474,0,0,0-1.167.044c-.253.088-.455.126-.455.094a2.573,2.573,0,0,1,.183-.422A14.254,14.254,0,0,0,27.076,15.5a10.611,10.611,0,0,0,.133-2.272,10.608,10.608,0,0,0-.435-3.566A13.243,13.243,0,0,0,15.95.139,18.9,18.9,0,0,0,13.141.013" fill="#152c69"/>
    <path id="Path_28804" data-name="Path 28804" d="M2.311,4.974C1.352,5.3.493,5.618.4,5.681a1.076,1.076,0,0,0-.3.4A.951.951,0,0,0,.55,7.36c.322.164.461.157,1.054-.032a2.91,2.91,0,0,1,.5-.132,6.7,6.7,0,0,1-.3.77,14.525,14.525,0,0,0-.89,2.991,16.66,16.66,0,0,0-.006,4.45,14.834,14.834,0,0,0,.745,2.644,13.32,13.32,0,0,0,14.352,8.268c1.836-.271,4.07-1.111,4.664-1.748a.908.908,0,0,0,.309-.878.89.89,0,0,0-.555-.732c-.36-.189-.6-.151-1.206.171A10.836,10.836,0,0,1,13.974,24.4a10.423,10.423,0,0,1-5.08-1.2,10.013,10.013,0,0,1-2.727-1.95,11.009,11.009,0,0,1-3.256-6.463,9.99,9.99,0,0,1-.07-1.931A9.454,9.454,0,0,1,3.3,9.865,8.733,8.733,0,0,1,4.015,8.18a1.4,1.4,0,0,1,.183.436,2.524,2.524,0,0,0,.271.6,1.008,1.008,0,0,0,1.578-.031c.278-.392.253-.581-.378-2.474A16.276,16.276,0,0,0,4.955,4.8a1,1,0,0,0-.3-.247c-.41-.214-.518-.2-2.348.417" fill="#152c69"/>
    <path id="Path_28805" data-name="Path 28805" d="M17.938,9.386c-.069.038-1.313,1.256-2.758,2.7l-2.638,2.626L11.425,13.6c-.619-.612-1.193-1.161-1.282-1.218a1.107,1.107,0,0,0-1.293.322,1.292,1.292,0,0,0-.1.915,12.83,12.83,0,0,0,1.666,1.8c1.4,1.394,1.622,1.6,1.874,1.66.575.151.493.227,3.831-3.112,1.679-1.672,3.093-3.13,3.143-3.238A1.014,1.014,0,0,0,18.9,9.443a1.288,1.288,0,0,0-.966-.057" fill="#d66025"/>
  </g>
</svg>
