<svg id="Group_70539" data-name="Group 70539" xmlns="http://www.w3.org/2000/svg" width="18" height="18" viewBox="0 0 18 18">
  <circle id="Ellipse_118" data-name="Ellipse 118" cx="9" cy="9" r="9" fill="#d8dff3"/>
  <g id="Group_32117" data-name="Group 32117" transform="translate(3 3.993)">
    <path id="Path_27813" data-name="Path 27813" d="M200.875,13.885A2.42,2.42,0,0,0,201.467,15a3.666,3.666,0,0,0,2.279,2.415,2.863,2.863,0,0,0,1.85,0A3.638,3.638,0,0,0,207.876,15a2.419,2.419,0,0,0,.592-1.117,1.68,1.68,0,0,0-.089-1.522.2.2,0,0,1-.044-.056c.03-.154.044-.307.059-.447.414-2.625-1.125-2.792-1.3-2.792-.015,0-.015-.014-.03-.014a2.031,2.031,0,0,0-2.19-1.215,13.775,13.775,0,0,1-2.989-.028.879.879,0,0,0,.34.684c-1.7.977-1.391,3.071-1.228,3.811a.194.194,0,0,0-.044.056,1.724,1.724,0,0,0-.074,1.522Zm.888-1.229h.044v-.014a1.224,1.224,0,0,1,.474-1.41,4.548,4.548,0,0,0,2.694-.335c2.324-.935,2.531,1.773,2.531,1.773h.044c.237,0,.488.182.222,1.047-.207.684-.4.88-.533.88a2.938,2.938,0,0,1-1.894,2.206,2.222,2.222,0,0,1-1.391,0A2.968,2.968,0,0,1,202.06,14.6c-.148-.014-.34-.2-.533-.88-.252-.894,0-1.061.237-1.061Z" transform="translate(-198.64 -7.812)" fill="#264488"/>
    <path id="Path_27814" data-name="Path 27814" d="M136.493,369.615a4.046,4.046,0,0,1-1.82,1.215,3.563,3.563,0,0,1-1.154.181,3.661,3.661,0,0,1-1.169-.2,4.231,4.231,0,0,1-1.806-1.215c-.636.321-1.91,1.393-3.064,2.188a7.464,7.464,0,0,0,6.039,2.558,7.552,7.552,0,0,0,6.071-2.53c-1.154-.8-2.444-1.881-3.1-2.2Z" transform="translate(-127.479 -360.583)" fill="#264488"/>
  </g>
</svg>
