<svg xmlns="http://www.w3.org/2000/svg" xmlns:xlink="http://www.w3.org/1999/xlink" width="94" height="94" viewBox="0 0 94 94">
  <defs>
    <filter id="Base" x="0" y="0" width="94" height="94" filterUnits="userSpaceOnUse">
      <feOffset dy="3" input="SourceAlpha"/>
      <feGaussianBlur stdDeviation="3" result="blur"/>
      <feFlood flood-opacity="0.071"/>
      <feComposite operator="in" in2="blur"/>
      <feComposite in="SourceGraphic"/>
    </filter>
  </defs>
  <g id="Group_31236" data-name="Group 31236" transform="translate(-54 -179)">
    <g transform="matrix(1, 0, 0, 1, 54, 179)" filter="url(#Base)">
      <rect id="Base-2" data-name="Base" width="76" height="76" rx="38" transform="translate(9 6)" fill="#e6f4f6"/>
    </g>
    <g id="Group_31233" data-name="Group 31233" transform="translate(83 193)">
      <g id="Group_31235" data-name="Group 31235" transform="translate(6.153 0)">
        <path id="Path_27987" data-name="Path 27987" d="M55.973.12a3.326,3.326,0,0,0-2.594,1.712c-.489.984-.512,1.627-.454,9.265.035,4.007.093,7.529.128,7.82.058.449.186.668.768,1.311a4.616,4.616,0,0,0,.814.765c.047,0,.093-3.522.093-7.832V5.33h8.665c6.851,0,8.665.036,8.677.146.035.716.058,1.518.081,3.169l.023,1.919.512-.4a9.773,9.773,0,0,1,.884-.619l.372-.206L73.9,6.143c-.07-3.728-.151-4.2-.954-5A4.288,4.288,0,0,0,70.2.108C69.023-.038,56.973-.038,55.973.12M70.71,2.439a.48.48,0,0,1-.3.68.663.663,0,0,1-.558-.461.663.663,0,0,1,.558-.461.633.633,0,0,1,.3.243m-4.141.267c.1.522-.186.571-3.687.559a27.787,27.787,0,0,1-3.524-.134A.451.451,0,0,1,59.23,2.5c.047-.049,1.7-.073,3.687-.061,3.466.036,3.617.049,3.652.267" transform="translate(-52.903 0)" fill="#152c69"/>
        <path id="Path_27988" data-name="Path 27988" d="M87.723,172.456c-.012,3.582-.058,7.116-.1,9.071l-.012.644-7.933.024c-8.689.036-8.6.036-8.677.716a3.746,3.746,0,0,0,.4,1.275,4.526,4.526,0,0,1,.489,1.943,2.6,2.6,0,0,1-.244,1.639A7.976,7.976,0,0,1,70.916,189l-.419.571.558.085c.3.049,3.885.085,7.944.085,7.339,0,7.386,0,8.2-.267a2.975,2.975,0,0,0,2.047-2.089c.221-.911.233-13.345.012-14.62a13.236,13.236,0,0,0-1.07-3.4l-.442-.971Zm-7.642,11.828a2.162,2.162,0,0,1,1.14,2.319,1.886,1.886,0,0,1-1.954,1.518,1.954,1.954,0,0,1-1.4-3.242,1.806,1.806,0,0,1,2.21-.6" transform="translate(-68.451 -147.94)" fill="#152c69"/>
      </g>
      <g id="Group_31234" data-name="Group 31234" transform="translate(0 10.934)">
        <path id="Path_27989" data-name="Path 27989" d="M64.822,90.276a3.486,3.486,0,0,0-1.547,1.894,8.978,8.978,0,0,0,.186,3.983c.163.668.744,2.368,1.279,3.764,1.442,3.777,1.361,3.242,1.4,8.682.012,2.574.07,4.979.1,5.343a21.449,21.449,0,0,1-.349,4.651,5.75,5.75,0,0,1-2.408,3.57c-1.128.607-4.5.814-11.422.7-5.246-.073-6.746-.17-7.479-.5a6.037,6.037,0,0,1-1.082-.7c-.593-.474-1.314-.8-1.442-.656a20.47,20.47,0,0,0,1.849,3.558,26.275,26.275,0,0,0,5.129,5.307c3.036,2.5,4.013,3.631,4.943,5.732a12.544,12.544,0,0,1,.93,3.218v.255H62.95c6.828,0,8.026-.024,7.979-.17-.256-.68-1.047-3.546-1.268-4.578A13.726,13.726,0,0,1,69.4,130.7c0-3.048.163-4.092,1.384-9.362,1.535-6.618,2.012-9.447,1.9-11.1a44.142,44.142,0,0,0-1.861-6.922,96.422,96.422,0,0,0-4.327-12c-.675-1.409-.8-1.481-1.675-1.044" transform="translate(-37.163 -90.04)" fill="#d66025"/>
        <path id="Path_27990" data-name="Path 27990" d="M1.837,94.149A1.455,1.455,0,0,0,.743,95.642a3.886,3.886,0,0,0,.093,1.166A4.311,4.311,0,0,0,2.7,98.69a14.837,14.837,0,0,0,2.268.984c.035,0,.058-1.226.058-2.72v-2.72L4.291,94.1a5.051,5.051,0,0,0-2.454.049" transform="translate(-0.651 -93.499)" fill="#d66025"/>
        <path id="Path_27991" data-name="Path 27991" d="M1.29,155.253A2.955,2.955,0,0,0,.069,158.3c.116.461.384.8,1.849,2.332C4,162.806,4.454,163.085,5.989,163.1h.977l.4-.607a1.587,1.587,0,0,0,.349-1.421c-.058-.984-.256-1.348-1.454-2.757-2.512-2.939-3.757-3.7-4.967-3.06" transform="translate(0 -147.147)" fill="#d66025"/>
        <path id="Path_27992" data-name="Path 27992" d="M4.361,219.636a4.76,4.76,0,0,0-.384,1.069c-.337,1.348-.047,1.919,1.861,3.728a9.115,9.115,0,0,0,2.908,2.1,1.792,1.792,0,0,0,2.466-1.931,4.4,4.4,0,0,0-1.012-2.1c-.489-.571-.663-.656-1.78-.9a3.816,3.816,0,0,1-2.384-1.239,5.154,5.154,0,0,0-1.093-.826c-.4-.17-.419-.17-.582.1" transform="translate(-3.408 -203.71)" fill="#d66025"/>
        <path id="Path_27993" data-name="Path 27993" d="M8.052,275.362c-.489,1.676-.3,2.125,1.593,4.056a8.776,8.776,0,0,0,2.129,1.773c1.314.68,2.338.486,2.78-.51a2.176,2.176,0,0,0-.081-2.016,2.5,2.5,0,0,0-2.082-1.421,5.48,5.48,0,0,1-2.85-1.409,4.462,4.462,0,0,0-1.314-.947,1.482,1.482,0,0,0-.174.474" transform="translate(-6.913 -252.441)" fill="#d66025"/>
      </g>
    </g>
  </g>
</svg>
