<svg xmlns="http://www.w3.org/2000/svg" xmlns:xlink="http://www.w3.org/1999/xlink" width="94" height="94" viewBox="0 0 94 94">
  <defs>
    <filter id="Base" x="0" y="0" width="94" height="94" filterUnits="userSpaceOnUse">
      <feOffset dy="3" input="SourceAlpha"/>
      <feGaussianBlur stdDeviation="3" result="blur"/>
      <feFlood flood-opacity="0.071"/>
      <feComposite operator="in" in2="blur"/>
      <feComposite in="SourceGraphic"/>
    </filter>
  </defs>
  <g id="Group_31243" data-name="Group 31243" transform="translate(-54 -179)">
    <g transform="matrix(1, 0, 0, 1, 54, 179)" filter="url(#Base)">
      <rect id="Base-2" data-name="Base" width="76" height="76" rx="38" transform="translate(9 6)" fill="#e6f4f6"/>
    </g>
    <g id="Group_31247" data-name="Group 31247" transform="translate(79 202)">
      <path id="Path_27996" data-name="Path 27996" d="M24.588,2.154,21.351,4.3H11.583v6.485l-1.6,1.071c-1.49.978-1.653,1.129-2.154,1.909A8.753,8.753,0,0,0,7.217,14.8c-.047.128.14.536.536,1.141.605.955.617.955,2.864,2.457,1.246.838,2.34,1.549,2.433,1.583.14.047.163-.92.163-7V5.926h29.34v7.056c0,6.078.023,7.044.163,7,.093-.035,1.188-.745,2.433-1.583,2.247-1.5,2.259-1.5,2.864-2.457.4-.605.582-1.013.536-1.141a8.753,8.753,0,0,0-.617-1.036c-.5-.78-.664-.931-2.142-1.909l-1.607-1.071V4.3H34.415l-3.26-2.154C29.362.955,27.871-.011,27.86,0s-1.49.966-3.272,2.154" transform="translate(-6.37 0)" fill="#d66025"/>
      <path id="Path_27997" data-name="Path 27997" d="M123.687,72.39a7.251,7.251,0,0,0-3.633,2.107,7.873,7.873,0,0,0-2.224,3.807,10.64,10.64,0,0,0-.047,4.285,7.543,7.543,0,0,0,2.957,4.308,8.233,8.233,0,0,0,5.309,1.386,8.132,8.132,0,0,0,2.759-.314c2.34-.64,4.459-2.166,4.238-3.05a.681.681,0,0,0-.8-.477,3.936,3.936,0,0,0-.9.547c-2.759,2.084-7.417,2.329-9.908.5-2.876-2.107-3.1-7.125-.419-9.815a6.979,6.979,0,0,1,6.31-1.816c2.969.629,4.82,2.946,4.366,5.5a6.366,6.366,0,0,1-1.129,2.6c-.594.71-1.49.92-1.828.442-.291-.408-.233-.92.419-3.493l.605-2.422-.245-.314c-.21-.291-.326-.326-.966-.361-.78-.035-1.164.151-1.164.582,0,.116-.047.21-.116.21a.117.117,0,0,1-.116-.116c0-.2-1.188-.792-1.758-.873a3.883,3.883,0,0,0-3.376,1.49,5.99,5.99,0,0,0-1.234,4.157c.082,1.7.629,2.69,1.77,3.213a3.318,3.318,0,0,0,3.4-.442l.256-.244.466.419c1.106,1,3.132.605,4.785-.931a6.308,6.308,0,0,0,1.688-2.946,8.873,8.873,0,0,0-.012-3.5,6.53,6.53,0,0,0-4.762-4.366,12.976,12.976,0,0,0-4.692-.058m2.422,5.053a1.971,1.971,0,0,1,.873,1.944c-.012,2.038-1.129,3.726-2.457,3.726a1.65,1.65,0,0,1-1.455-1.129,7.782,7.782,0,0,1,.175-3.074c.524-1.455,1.875-2.142,2.864-1.467" transform="translate(-103.898 -63.797)" fill="#152c69"/>
      <path id="Path_27998" data-name="Path 27998" d="M.008,156.723c.012,7.789.058,11.992.14,12.074s2.48-2.1,6.928-6.229c3.749-3.493,7.009-6.543,7.265-6.788l.442-.442-1.269-.862c-.687-.477-3.8-2.538-6.9-4.587C2,146.838.917,146.07.625,145.65c-.2-.279-.431-.594-.5-.7-.116-.151-.14,2.305-.116,11.771" transform="translate(0 -128.069)" fill="#d66025"/>
      <path id="Path_27999" data-name="Path 27999" d="M256.7,144.265c-.407.617-.745.862-5.7,4.145-2.9,1.921-6.019,3.994-6.939,4.611l-1.688,1.129.873.827c.477.454,3.435,3.213,6.567,6.124s6.031,5.6,6.427,5.984l.734.675.116-.314c.082-.2.1-4.3.093-12.074l-.035-11.771Z" transform="translate(-214.151 -126.882)" fill="#d66025"/>
      <path id="Path_28000" data-name="Path 28000" d="M20.355,248.617c-6.532,6.089-7.347,6.893-7.16,7.009.3.175,39.6.186,39.9,0,.233-.14-.058-.419-9-8.709-2.34-2.177-4.541-4.238-4.9-4.576l-.652-.64L35.9,243.459c-1.444.966-2.678,1.758-2.748,1.758s-1.292-.792-2.736-1.746-2.631-1.746-2.643-1.746-3.353,3.109-7.417,6.893" transform="translate(-11.638 -213.56)" fill="#d66025"/>
    </g>
  </g>
</svg>
