<svg xmlns="http://www.w3.org/2000/svg" xmlns:xlink="http://www.w3.org/1999/xlink" width="94" height="94" viewBox="0 0 94 94">
  <defs>
    <filter id="Base" x="0" y="0" width="94" height="94" filterUnits="userSpaceOnUse">
      <feOffset dy="3" input="SourceAlpha"/>
      <feGaussianBlur stdDeviation="3" result="blur"/>
      <feFlood flood-opacity="0.071"/>
      <feComposite operator="in" in2="blur"/>
      <feComposite in="SourceGraphic"/>
    </filter>
  </defs>
  <g id="Group_31244" data-name="Group 31244" transform="translate(-54 -179)">
    <g transform="matrix(1, 0, 0, 1, 54, 179)" filter="url(#Base)">
      <rect id="Base-2" data-name="Base" width="76" height="76" rx="38" transform="translate(9 6)" fill="#ecf1f8"/>
    </g>
    <g id="Group_31249" data-name="Group 31249" transform="translate(81 200.056)">
      <path id="Path_28001" data-name="Path 28001" d="M1.287.246C.476.674.4,1.056.4,4.651v3.3l.444.489.444.5,3.227.076A28.7,28.7,0,0,0,8.186,8.98,1.952,1.952,0,0,0,9.027,8.4l.4-.474V4.651C9.424-.167,9.577,0,4.882,0,2.373.016,1.608.062,1.287.246" transform="translate(-0.339 0)" fill="#d66025"/>
      <path id="Path_28002" data-name="Path 28002" d="M78.6.225a2.408,2.408,0,0,0-.688.535c-.382.4-.382.428-.428,3.732-.046,3.258-.046,3.319.306,3.839.566.841,1.117.948,4.558.887,4.283-.061,4.191.031,4.252-4.344.061-3.472-.046-3.962-.918-4.5C85.223.1,84.932.072,82.041.087A25.257,25.257,0,0,0,78.6.225" transform="translate(-65.614 -0.071)" fill="#d66025"/>
      <path id="Path_28003" data-name="Path 28003" d="M155.393.357c-.826.551-.933,1.117-.872,4.543.061,4.329-.061,4.206,4.635,4.206,4.68,0,4.558.138,4.482-4.757l-.046-3.3-.566-.52L162.444,0h-3.258c-3.151,0-3.289.015-3.793.352" transform="translate(-130.873 -0.004)" fill="#d66025"/>
      <path id="Path_28004" data-name="Path 28004" d="M1.532,77.219a2.627,2.627,0,0,0-.8.627c-.321.4-.337.566-.337,3.7,0,3.472.031,3.686.749,4.283.382.321.52.337,3.579.352,2.646,0,3.289-.046,3.717-.245.918-.428.979-.734.979-4.39,0-3.136-.015-3.3-.337-3.7C8.507,77.1,8.017,77,4.882,77a13.841,13.841,0,0,0-3.35.214" transform="translate(-0.339 -65.227)" fill="#d66025"/>
      <path id="Path_28005" data-name="Path 28005" d="M78.517,77.249a2.187,2.187,0,0,0-.811.734c-.275.459-.306.765-.306,3.686,0,3.564.076,3.87.979,4.3.5.245,2.08.352,2.08.138,0-.046-.352-.918-.78-1.912a6.358,6.358,0,0,1-.765-2.631,3.34,3.34,0,0,1,3.4-3.3,4.112,4.112,0,0,1,1.315.367c.948.444,1.346,1.01,2.126,2.921a9.855,9.855,0,0,0,.7,1.53c.092.107.122-.673.092-2.294-.046-2.616-.107-2.86-.918-3.411-.5-.367-6.363-.459-7.113-.122" transform="translate(-65.561 -65.257)" fill="#d66025"/>
      <path id="Path_28006" data-name="Path 28006" d="M155.6,77.25c-.948.474-1.04.765-1.086,3.793a33.912,33.912,0,0,0,.046,3.411l.092.673.719-.107a3.243,3.243,0,0,1,2.539.7c.612.551.719.551,1.1.138a3.575,3.575,0,0,1,3.747-.673c.352.2.52.214.658.076a15.813,15.813,0,0,0,.214-3.487c.061-4.818.107-4.772-4.589-4.772-2.371,0-3.044.061-3.442.245" transform="translate(-130.868 -65.226)" fill="#d66025"/>
      <path id="Path_28007" data-name="Path 28007" d="M94.414,91.482A2.268,2.268,0,0,0,93.1,93.516a14.813,14.813,0,0,0,1.27,3.686,3.97,3.97,0,0,1,.306.765,16.433,16.433,0,0,0,.658,1.606c.245.551.673,1.591.948,2.325.291.719.581,1.438.673,1.606.291.489,4.619,11.089,4.558,11.151a19.277,19.277,0,0,1-2.31-.872c-1.943-.8-2.356-.9-2.86-.826a2.619,2.619,0,0,0-1.744,1.315,2.454,2.454,0,0,0,.734,2.967c.214.138,2.126.964,4.252,1.851,2.141.872,4.818,2.05,5.95,2.585,3.013,1.438,4.359,1.713,6.271,1.239a67.18,67.18,0,0,0,7.128-2.921,8.87,8.87,0,0,0,2.692-3.013,6.873,6.873,0,0,0,.688-3.793c-.061-1.224-.168-1.53-1.851-5.659-.979-2.4-1.881-4.573-2-4.818-.122-.26-.428-1.01-.688-1.683-.979-2.554-1.637-3.289-3-3.289a2.878,2.878,0,0,0-2.2,1.377,2.722,2.722,0,0,0,.046,2.034,10.263,10.263,0,0,1,.551,1.254c.184.5.413,1.04.489,1.193a13.6,13.6,0,0,1,.979,2.677c-.153.168-.337-.2-1.285-2.57-.535-1.3-1.086-2.646-1.239-2.983-.168-.337-.444-.948-.612-1.361a2.175,2.175,0,0,0-1.331-1.407,2.618,2.618,0,0,0-3,1.117c-.459.933-.337,1.667.581,3.64a40.743,40.743,0,0,1,1.988,5.093c-.046.046-.138.015-.2-.061-.138-.153-1.468-3.334-2.065-4.956-.214-.551-.581-1.453-.841-2.019s-.581-1.254-.7-1.545A2.361,2.361,0,0,0,102.9,98.1a4.354,4.354,0,0,0-.979.719c-.4.413-.444.581-.444,1.407a3.742,3.742,0,0,0,.489,1.943c.535,1.132,3.258,7.648,3.258,7.831a.135.135,0,0,1-.138.122c-.138,0-.78-1.468-2.769-6.348-2.814-6.929-4.788-11.5-5.093-11.839a2.267,2.267,0,0,0-2.814-.459" transform="translate(-78.858 -77.241)" fill="#152c69"/>
      <path id="Path_28008" data-name="Path 28008" d="M1.147,154.673a3.223,3.223,0,0,0-.78.581L0,155.667l.031,3.4c.061,4.788-.168,4.558,4.726,4.512l3.411-.046.413-.428.428-.413L9.1,159.43c.107-3.579.046-3.946-.841-4.6-.382-.291-.642-.306-3.564-.321a19.259,19.259,0,0,0-3.549.168" transform="translate(0 -130.872)" fill="#d66025"/>
      <path id="Path_28009" data-name="Path 28009" d="M79.309,154.573a2.349,2.349,0,0,0-1.759.948,22.252,22.252,0,0,0-.153,3.5c0,4.742-.153,4.589,4.558,4.589,1.759,0,3.227-.031,3.273-.076.061-.076-3.442-8.749-3.61-8.9a7.067,7.067,0,0,0-2.31-.061" transform="translate(-65.558 -130.879)" fill="#d66025"/>
    </g>
  </g>
</svg>
