<svg xmlns="http://www.w3.org/2000/svg" xmlns:xlink="http://www.w3.org/1999/xlink" width="94" height="94" viewBox="0 0 94 94">
  <defs>
    <filter id="Base" x="0" y="0" width="94" height="94" filterUnits="userSpaceOnUse">
      <feOffset dy="3" input="SourceAlpha"/>
      <feGaussianBlur stdDeviation="3" result="blur"/>
      <feFlood flood-opacity="0.071"/>
      <feComposite operator="in" in2="blur"/>
      <feComposite in="SourceGraphic"/>
    </filter>
  </defs>
  <g id="Group_31237" data-name="Group 31237" transform="translate(-54 -179)">
    <g transform="matrix(1, 0, 0, 1, 54, 179)" filter="url(#Base)">
      <rect id="Base-2" data-name="Base" width="76" height="76" rx="38" transform="translate(9 6)" fill="#e6f4f6"/>
    </g>
    <g id="ABHA_Address" data-name="ABHA Address">
      <g id="Group_31239" data-name="Group 31239" transform="translate(76.901 201.934)">
        <path id="Path_5592" data-name="Path 5592" d="M80.565,96.515,98.187,59.943l11.777,24.762h-5.39l-6.387-14L86.136,96.515Z" transform="translate(-80.565 -59.943)" fill="#d66025"/>
        <path id="Path_5593" data-name="Path 5593" d="M219.562,211.029h-5.506l3.234,6.728h5.356Z" transform="translate(-187.729 -181.232)" fill="#d66025"/>
        <path id="Path_5594" data-name="Path 5594" d="M139.6,129.573h4.541c.482,0,.486,0,.4.462q-.958,4.948-1.919,9.9a1.068,1.068,0,0,1-1.014.873H128.447c-.513,0-.516,0-.421-.493q.958-4.959,1.922-9.919A1.068,1.068,0,0,1,131,129.57c.394-.005.79,0,1.185,0H139.6" transform="translate(-118.627 -115.837)" fill="#fff"/>
        <path id="Path_5595" data-name="Path 5595" d="M154.714,139.4h.8c.433,0,.868-.005,1.3,0a.769.769,0,0,1,.8.743v.047c.009.388.01.777,0,1.164a.751.751,0,0,1-.738.764h-.046c-.631,0-1.261,0-1.891,0h-.217v2.067a.764.764,0,0,1-.818.827q-.544,0-1.088,0a.776.776,0,0,1-.81-.821v-2.064c-.078,0-.144-.009-.21-.009h-1.853a.741.741,0,0,1-.812-.8q0-.534,0-1.068a.767.767,0,0,1,.839-.843H152V137.3a.751.751,0,0,1,.725-.776h.045q.592-.009,1.184,0a.743.743,0,0,1,.759.727v.037c0,.7,0,1.39,0,2.114" transform="translate(-135.601 -121.418)" fill="#d66025"/>
        <path id="Path_5596" data-name="Path 5596" d="M131,136.461h-8.522a1.918,1.918,0,0,1-1.2-.358,1.374,1.374,0,0,1-.58-1.389c.194-1.123.422-2.24.639-3.358.45-2.319.922-4.633,1.341-6.955a2.55,2.55,0,0,1,2.356-2.01h13.307a1.955,1.955,0,0,1,1.144.306,1.421,1.421,0,0,1,.636,1.544q-.99,5.147-2,10.289a2.43,2.43,0,0,1-2.015,1.89,3.387,3.387,0,0,1-.534.041Zm2.738-12.654h-7.412c-.394,0-.79,0-1.185,0a1.068,1.068,0,0,0-1.055.823q-.962,4.959-1.922,9.917c-.094.491-.092.492.421.492h13.158a1.068,1.068,0,0,0,1.014-.873q.96-4.95,1.919-9.9c.089-.461.086-.461-.4-.461h-4.541" transform="translate(-112.765 -110.074)" fill="#d66025"/>
      </g>
      <g id="Group_31241" data-name="Group 31241" transform="translate(106.722 206.514)">
        <path id="Path_27994" data-name="Path 27994" d="M9.2.18A9.884,9.884,0,0,0,1.563,12.357a10.949,10.949,0,0,0,1.454,3.053c.3.424.315.5.218,1.212A8.362,8.362,0,0,1,.46,22L0,22.39l.376.073A9.846,9.846,0,0,0,3.163,22.4a6.11,6.11,0,0,0,3.732-2.7c.473-.751.388-.739,1.7-.364a13.426,13.426,0,0,0,4.968.012,10.043,10.043,0,0,0,6.979-6.81,7.14,7.14,0,0,0,.327-2.605,8.307,8.307,0,0,0-.945-4.3,7.626,7.626,0,0,0-1.914-2.7A9.788,9.788,0,0,0,9.2.18m4.5,3.647A4.617,4.617,0,0,1,15.97,5.281,4.126,4.126,0,0,1,17.133,8.6a3.148,3.148,0,0,1-.4,2.036,4.163,4.163,0,0,1-3.356,2.448c-.691,0-1.091-.218-1.2-.666l-.073-.3-.557.424a1.834,1.834,0,0,1-1.624.509A2.077,2.077,0,0,1,8.2,11.666a3.7,3.7,0,0,1,.1-3.32c.994-2.1,2.993-2.8,4.362-1.539.46.424.533.46.533.242,0-.509.121-.63.679-.63a1.6,1.6,0,0,1,.533.048c0,.036-.218,1.115-.485,2.4a19.366,19.366,0,0,0-.46,2.7c.109,1.139,2.133-.291,2.593-1.83a4.945,4.945,0,0,0-.012-2.557c-.582-1.963-3.344-3.15-5.816-2.52a5.117,5.117,0,0,0-3.78,4.253,4.884,4.884,0,0,0,1.1,4.386,6.6,6.6,0,0,0,5.986,1.418A4.6,4.6,0,0,0,15.861,13.5c.509-.473.63-.533,1.139-.533.569,0,.569,0,.376.267a6.7,6.7,0,0,1-6.119,2.593c-2.763-.242-4.617-1.393-5.4-3.344a7.437,7.437,0,0,1-.182-4.289A5.454,5.454,0,0,1,6.8,5.838a5.793,5.793,0,0,1,5.319-2.254,7.981,7.981,0,0,1,1.575.242" transform="translate(0 0)" fill="#152c69"/>
        <path id="Path_27995" data-name="Path 27995" d="M75.631,59.491c-.933.945-1.369,2.872-.848,3.708.666,1.054,1.7,1.006,2.641-.109a3.386,3.386,0,0,0,.812-2.254c0-1.151-.582-1.854-1.551-1.854-.473,0-.606.061-1.054.509" transform="translate(-65.525 -51.835)" fill="#152c69"/>
      </g>
    </g>
  </g>
</svg>
