<svg xmlns="http://www.w3.org/2000/svg" xmlns:xlink="http://www.w3.org/1999/xlink" width="94" height="94" viewBox="0 0 94 94">
  <defs>
    <filter id="Base" x="0" y="0" width="94" height="94" filterUnits="userSpaceOnUse">
      <feOffset dy="3" input="SourceAlpha"/>
      <feGaussianBlur stdDeviation="3" result="blur"/>
      <feFlood flood-opacity="0.071"/>
      <feComposite operator="in" in2="blur"/>
      <feComposite in="SourceGraphic"/>
    </filter>
  </defs>
  <g id="Group_31236" data-name="Group 31236" transform="translate(-54 -179)">
    <g transform="matrix(1, 0, 0, 1, 54, 179)" filter="url(#Base)">
      <rect id="Base-2" data-name="Base" width="76" height="76" rx="38" transform="translate(9 6)" fill="#e6f4f6"/>
    </g>
    <g id="Group_31233" data-name="Group 31233" transform="translate(83 193)">
      <g id="English-Logo" transform="translate(-13 15)">
        <path id="Fill-28" d="M0,30.689a4.394,4.394,0,0,0,1.368-1.246,11.557,11.557,0,0,1,1.593-1.691,5.973,5.973,0,0,1,2.917-1.346,25.309,25.309,0,0,0-.368,4.283ZM4.109,15.345h0a4.4,4.4,0,0,0,1.808-.395,11.568,11.568,0,0,1,2.225-.668,5.966,5.966,0,0,1,3.215.3A25.17,25.17,0,0,0,7.061,22a5.978,5.978,0,0,1-1.855-2.626,11.556,11.556,0,0,1-.534-2.261A4.4,4.4,0,0,0,4.109,15.345ZM15.337,4.112h0a4.392,4.392,0,0,0,1.764.563,11.537,11.537,0,0,1,2.26.535A5.966,5.966,0,0,1,22,7.078a25.139,25.139,0,0,0-7.419,4.289,5.97,5.97,0,0,1-.3-3.22,11.541,11.541,0,0,1,.667-2.226A4.391,4.391,0,0,0,15.337,4.112ZM30.675,0h0a4.381,4.381,0,0,0,1.246,1.369,11.586,11.586,0,0,1,1.69,1.594A5.973,5.973,0,0,1,34.961,5.9a25.329,25.329,0,0,0-8.57,0,5.971,5.971,0,0,1,1.349-2.941,11.59,11.59,0,0,1,1.69-1.594A4.382,4.382,0,0,0,30.675,0ZM46.013,4.111h0a4.393,4.393,0,0,0,.395,1.809,11.58,11.58,0,0,1,.667,2.226,5.978,5.978,0,0,1-.3,3.22,25.152,25.152,0,0,0-7.419-4.289,5.967,5.967,0,0,1,2.634-1.868,11.527,11.527,0,0,1,2.261-.535A4.382,4.382,0,0,0,46.013,4.111ZM57.242,15.344h0a4.4,4.4,0,0,0-.562,1.764,11.568,11.568,0,0,1-.534,2.261A5.975,5.975,0,0,1,54.29,22a25.156,25.156,0,0,0-4.3-7.414,5.968,5.968,0,0,1,3.215-.3,11.559,11.559,0,0,1,2.225.668A4.388,4.388,0,0,0,57.242,15.344ZM55.473,26.406a5.976,5.976,0,0,1,2.917,1.346,11.543,11.543,0,0,1,1.593,1.691,4.388,4.388,0,0,0,1.368,1.246h-5.51A25.341,25.341,0,0,0,55.473,26.406ZM37.989,8.633A23.33,23.33,0,0,1,53.984,30.69H49.4A24.437,24.437,0,0,0,37.989,8.633Z" transform="translate(0 0)" fill="#d66025" fill-rule="evenodd"/>
        <path id="Fill-29" d="M40.5,32.645h2.382a25.218,25.218,0,0,0-.944-8.335,14.92,14.92,0,0,0-.569-1.531,13.094,13.094,0,0,0-2-3.174,13.76,13.76,0,0,0-3.2-2.8,12,12,0,0,0-1.113-.62h0a11.236,11.236,0,0,0-1.18-.5h0c-4.638-1.647-9.33-.476-13.265,1.666-.767.417-1.506.871-2.209,1.348s-1.372.977-2,1.488h0A27.245,27.245,0,0,0,13.793,22.6c-.182.193-.362.389-.537.588-.468.531-1.189,1.275-.976,2.045.17.611.957.43,1.231.22a8,8,0,0,0,1.279-.919c.536-.453,1.041-.942,1.572-1.4a26.487,26.487,0,0,1,6.583-4.265q.72-.317,1.439-.57t1.423-.435h0c4.1-1.065,8.55-.375,11.4,2.968C39.956,24.051,40.458,28.362,40.5,32.645Zm-29.553-3.64a8.145,8.145,0,0,0,.788-.9A1.249,1.249,0,0,0,12,26.822a.886.886,0,0,0-.239-.318.82.82,0,0,0-.344-.171,1,1,0,0,0-.995.423,4.358,4.358,0,0,0-.948,1.829,1.346,1.346,0,0,0-.011.354.872.872,0,0,0,.09.307h0a.437.437,0,0,0,.4.242.821.821,0,0,0,.121-.005,1.1,1.1,0,0,0,.137-.024h0A1.725,1.725,0,0,0,10.946,29.005Zm24.707,3.64h2.362a16.328,16.328,0,0,0-1.634-8.166A7.531,7.531,0,0,0,30.728,20.3c-3.685-.544-7.4,1.017-10.547,3.25a39.862,39.862,0,0,0-8.717,9.1l3.12,0c2.809-3.984,9.272-10.031,14.025-10.071A6.122,6.122,0,0,1,32.8,23.93a5.066,5.066,0,0,1,1.776,3.327c-.029.688-.64.9-1.225.686a2.606,2.606,0,0,1-1.094-1.019,4.562,4.562,0,0,0-4.417-1.874c-2.111.289-4.727,1.928-6.414,3.419a40.938,40.938,0,0,0-4.051,4.175h3.355a17.2,17.2,0,0,1,4.2-3.792,9.4,9.4,0,0,1,1.863-.912c1.725-.593,3.441-.443,4.2,1.706a6.75,6.75,0,0,1,.256,2.943v.055h2.282l.006-.07c0-.743-.014-1.244.053-1.981.058-.635.255-1.293.845-1.371C35.689,28.96,35.629,31.749,35.653,32.645Zm-8.515.006,1.893-.006c.249-1.6-.238-2.832-1.855-2.538-1.364.248-2.828,1.6-3.712,2.538l2.5-.011c.278-.183.823-.392,1.046-.236A.3.3,0,0,1,27.138,32.651Zm19.319,0h.026a1.054,1.054,0,0,0,.931-.522,1.282,1.282,0,0,0,.125-.29,1.731,1.731,0,0,0,.065-.379h0l0-.029c.189-6.618-1.837-12.1-5.277-15.819a16.891,16.891,0,0,0-2.161-1.967A16.289,16.289,0,0,0,37.723,12.1h0l-.014-.007h0a17.417,17.417,0,0,0-9.389-1.773,18.619,18.619,0,0,0-3.7.7l-.008,0a21.033,21.033,0,0,0-8.9,5.475q-.734.746-1.4,1.556-.33.4-.641.818a31.331,31.331,0,0,1,5.624-3.911q.667-.358,1.341-.67T22,13.7h0a20.6,20.6,0,0,1,5.186-1.3,19.185,19.185,0,0,1,5.191.131,15.738,15.738,0,0,1,3.553.98c.212.088.421.182.626.282s.4.2.6.312h0l0,0h0c3.852,2.11,6.529,6.441,7.708,11.33a24.394,24.394,0,0,1,.678,5.871h0v.057a1.427,1.427,0,0,0,.512,1.172.706.706,0,0,0,.187.085h0A.759.759,0,0,0,46.457,32.646Z" transform="translate(-1.58 -1.956)" fill="#152c69" fill-rule="evenodd"/>
      </g>
    </g>
  </g>
</svg>
