<svg xmlns="http://www.w3.org/2000/svg" width="26.227" height="25.642" viewBox="0 0 26.227 25.642">
  <g id="Group_31152" data-name="Group 31152" transform="translate(-205.873 -197.179)">
    <path id="Path_26892" data-name="Path 26892" d="M206.5,197.347a1.49,1.49,0,0,0-.454.454l-.169.293v9.4c0,9.283,0,9.4.147,9.686a1.365,1.365,0,0,0,.425.469c.146.1,2.447,1.3,5.113,2.674,3.385,1.744,4.917,2.5,5.078,2.5a.562.562,0,0,0,.41-.183l.183-.176v-5.209h3.041a16.438,16.438,0,0,0,3.245-.1,1.671,1.671,0,0,0,.667-.726c.051-.139.081-1.45.081-3.831v-3.62H221.7v5.29l-.212.213-.213.212H217.3v-6.938c0-4.279-.007-4.425-.4-4.814-.14-.132-1.407-.828-3.092-1.692l-2.865-1.466,5.18-.021,5.172-.015.206.22.2.219v2.711h2.565v-2.337a19.543,19.543,0,0,0-.081-2.55,1.663,1.663,0,0,0-.667-.725c-.168-.088-1.487-.1-8.462-.1h-8.264Z" fill="#d66025"/>
    <path id="Path_26893" data-name="Path 26893" d="M226.146,200.439a1.254,1.254,0,0,0-.674,1.817,8.706,8.706,0,0,0,1.113,1.194l1,.945-3.847.037-3.839.036-.3.2a1.472,1.472,0,0,0,.1,2.447c.264.132.513.14,4.044.162l3.766.022-1.025,1.04c-.814.82-1.048,1.106-1.114,1.333a1.182,1.182,0,0,0,.059.953,1.236,1.236,0,0,0,1.677.659,56.766,56.766,0,0,0,4.858-4.813,1.448,1.448,0,0,0,.036-1.143c-.058-.11-1.157-1.239-2.439-2.521-1.949-1.941-2.374-2.329-2.623-2.395A.956.956,0,0,0,226.146,200.439Z" fill="#152c69"/>
  </g>
</svg>
