<svg xmlns="http://www.w3.org/2000/svg" width="24" height="23.485" viewBox="0 0 24 23.485">
  <g id="noun-contact-us-1212887" transform="translate(-23.404 -35.79)">
    <path id="Path_28995" data-name="Path 28995" d="M39.745,332.486c-2.512-2.019-3.215-1.027-4.355.113-.8.8-2.81-.866-4.549-2.606s-3.4-3.753-2.606-4.549c1.14-1.14,2.132-1.843.112-4.354s-3.365-.584-4.469.521c-1.275,1.275-.067,6.024,4.627,10.718s9.444,5.9,10.718,4.627c1.1-1.1,3.034-2.449.521-4.47Z" transform="translate(0 -278.155)" fill="#152c69"/>
    <path id="Path_28996" data-name="Path 28996" d="M411.442,50.251a1.424,1.424,0,0,1-1.243-2.105,5.16,5.16,0,0,0,.394-.922,6.089,6.089,0,0,1-2.833-4.948c0-3.576,3.589-6.486,8-6.486s8,2.91,8,6.486-3.589,6.486-8,6.486c-.291,0-.593-.016-.915-.047a6.934,6.934,0,0,1-3.068,1.5,1.454,1.454,0,0,1-.336.04ZM415.76,37.27c-3.6,0-6.52,2.245-6.52,5.006a4.7,4.7,0,0,0,2.574,3.972l.446.262-.092.509a6.189,6.189,0,0,1-.608,1.723,5.183,5.183,0,0,0,2.5-1.319l.258-.264.366.047a8.457,8.457,0,0,0,1.08.076c3.6,0,6.52-2.245,6.52-5.006s-2.925-5.006-6.52-5.006Z" transform="translate(-376.356)" fill="#d66025"/>
    <path id="Path_28997" data-name="Path 28997" d="M555.147,282.846a1.317,1.317,0,1,1-1.318-1.317,1.318,1.318,0,0,1,1.318,1.317" transform="translate(-518.096 -240.624)" fill="#152c69"/>
    <path id="Path_28998" data-name="Path 28998" d="M731.5,282.846a1.317,1.317,0,1,1-1.317-1.317,1.317,1.317,0,0,1,1.317,1.317" transform="translate(-690.781 -240.624)" fill="#152c69"/>
    <path id="Path_28999" data-name="Path 28999" d="M907.833,282.846a1.317,1.317,0,1,1-1.317-1.317,1.317,1.317,0,0,1,1.317,1.317" transform="translate(-863.442 -240.624)" fill="#152c69"/>
  </g>
</svg>
