<svg xmlns="http://www.w3.org/2000/svg" width="16.759" height="16.759" viewBox="0 0 16.759 16.759">
  <g id="noun-menu-5567662" transform="translate(-99.996 -100)">
    <path id="Path_29016" data-name="Path 29016" d="M105.024,100H102.51A2.514,2.514,0,0,0,100,102.514v2.514a2.514,2.514,0,0,0,2.514,2.514h2.514a2.514,2.514,0,0,0,2.514-2.514v-2.514A2.514,2.514,0,0,0,105.024,100Zm.838,5.028a.838.838,0,0,1-.838.838H102.51a.838.838,0,0,1-.838-.838v-2.514a.838.838,0,0,1,.838-.838h2.514a.838.838,0,0,1,.838.838Z" fill="#fff"/>
    <path id="Path_29017" data-name="Path 29017" d="M655.024,100H652.51A2.514,2.514,0,0,0,650,102.514v2.514a2.514,2.514,0,0,0,2.514,2.514h2.514a2.514,2.514,0,0,0,2.514-2.514v-2.514A2.514,2.514,0,0,0,655.024,100Zm.838,5.028a.838.838,0,0,1-.838.838H652.51a.838.838,0,0,1-.838-.838v-2.514a.838.838,0,0,1,.838-.838h2.514a.838.838,0,0,1,.838.838Z" transform="translate(-540.782)" fill="#d66025"/>
    <path id="Path_29018" data-name="Path 29018" d="M105.024,650H102.51A2.514,2.514,0,0,0,100,652.514v2.514a2.514,2.514,0,0,0,2.514,2.514h2.514a2.514,2.514,0,0,0,2.514-2.514v-2.514A2.514,2.514,0,0,0,105.024,650Zm.838,5.028a.838.838,0,0,1-.838.838H102.51a.838.838,0,0,1-.838-.838v-2.514a.838.838,0,0,1,.838-.838h2.514a.838.838,0,0,1,.838.838Z" transform="translate(0 -540.782)" fill="#fff"/>
    <path id="Path_29019" data-name="Path 29019" d="M655.024,650H652.51A2.514,2.514,0,0,0,650,652.514v2.514a2.514,2.514,0,0,0,2.514,2.514h2.514a2.514,2.514,0,0,0,2.514-2.514v-2.514A2.514,2.514,0,0,0,655.024,650Zm.838,5.028a.838.838,0,0,1-.838.838H652.51a.838.838,0,0,1-.838-.838v-2.514a.838.838,0,0,1,.838-.838h2.514a.838.838,0,0,1,.838.838Z" transform="translate(-540.782 -540.782)" fill="#fff"/>
  </g>
</svg>
