<svg xmlns="http://www.w3.org/2000/svg" width="31.882" height="23.528" viewBox="0 0 31.882 23.528">
  <g id="Group_85" data-name="Group 85" transform="translate(-61.931 -69)">
    <g id="Group_84" data-name="Group 84" transform="translate(61.931 69)">
      <path id="Path_26754" data-name="Path 26754" d="M63.45,69.155a2.494,2.494,0,0,0-1.4,1.8c-.147.6-.164,17.84-.025,18.5.09.409.237.565.237.237,0-.155,2.324-12.242,2.586-13.47a4.128,4.128,0,0,1,3.036-3.012c.4-.106,1.923-.123,10.884-.123,5.728,0,10.418-.016,10.418-.041a2.4,2.4,0,0,0-.155-.352,3.277,3.277,0,0,0-1.3-1.187c-.385-.18-.434-.18-7.03-.221l-6.645-.041-.262-.532a4.855,4.855,0,0,0-.728-1c-.737-.737-.638-.72-5.311-.72C64.081,69,63.753,69.016,63.45,69.155Z" transform="translate(-61.931 -69)" fill="#d66025"/>
      <path id="Path_26755" data-name="Path 26755" d="M89.525,136.365a3.532,3.532,0,0,0-2.144,1.653,26.042,26.042,0,0,0-.974,4.354c-.057.311-.188.957-.278,1.432s-.507,2.586-.917,4.705c-.7,3.584-.737,3.879-.655,4.264a1.993,1.993,0,0,0,1.007,1.309l.434.237h23.65l.565-.278a3.628,3.628,0,0,0,1.514-1.383c.262-.507,2.905-14.239,2.831-14.714a1.97,1.97,0,0,0-1.064-1.383l-.483-.246-11.58-.016C94.639,136.3,89.713,136.325,89.525,136.365Zm23.02,1.768c.237.065.254-.033-.442,3.5-.295,1.481-.859,4.395-1.26,6.457l-.72,3.764-.295.262a1.754,1.754,0,0,1-.614.36c-.385.1-22.709.082-22.816-.025a9.9,9.9,0,0,1,.245-1.637c.982-5.09,1.547-8.02,1.653-8.527.057-.319.229-1.162.36-1.882s.295-1.416.344-1.538a1.423,1.423,0,0,1,.884-.7C90.2,138.084,112.209,138.043,112.545,138.133Z" transform="translate(-82.678 -130.792)" fill="#d66025"/>
    </g>
    <path id="Path_26756" data-name="Path 26756" d="M210.19,180.115a1.265,1.265,0,0,0-.352.344c-.139.213-.155.393-.155,1.727v1.5H208.21c-2.144,0-2.21.057-2.21,1.759s.065,1.759,2.21,1.759h1.473v1.473c0,2.152.049,2.21,1.8,2.21h1.064l.311-.278.3-.278.025-1.563.025-1.555,1.547-.025,1.555-.025.262-.27.27-.262v-2.373l-.27-.262-.262-.27-1.555-.025-1.555-.025v-1.432c0-1.555-.041-1.743-.458-2.07-.2-.155-.327-.172-1.293-.172A4,4,0,0,0,210.19,180.115Z" transform="translate(-132.279 -101.917)" fill="#152c69"/>
  </g>
</svg>
