<svg xmlns="http://www.w3.org/2000/svg" width="22.352" height="30.53" viewBox="0 0 22.352 30.53">
  <g id="Group_94" data-name="Group 94" transform="translate(-95.005 -23.316)">
    <path id="Path_26767" data-name="Path 26767" d="M188.457,110.645v1.645H184.9l.022,1.035.022,1.028,1.739.014,1.739.014.014,1.679c.007,1.652.014,1.672.159,1.665.087,0,.587-.007,1.116-.014l.956-.007-.022-1.645-.022-1.645,1.652-.014c.906,0,1.7-.007,1.76-.014.094-.007.109-.178.13-1.055l.022-1.042H190.63V109h-2.173Z" transform="translate(-83.382 -79.812)" fill="#595959"/>
    <g id="Group_93" data-name="Group 93" transform="translate(95.005 23.316)">
      <path id="Path_26768" data-name="Path 26768" d="M104.785,23.363A11.323,11.323,0,0,0,98.077,26.6a10.16,10.16,0,0,0-2.992,5.777,10.3,10.3,0,0,0,.022,2.721c.638,3.111,3.666,7.984,8.628,13.864,1.318,1.563,2.376,2.769,2.427,2.769.094-.007,2.5-2.8,3.789-4.393a66.053,66.053,0,0,0,4.745-6.6,30.543,30.543,0,0,0,2-3.838c.014-.041.1-.329.21-.651a7.143,7.143,0,0,0,.413-3.221,9.76,9.76,0,0,0-.543-2.508,11.052,11.052,0,0,0-8.4-7.018A16.237,16.237,0,0,0,104.785,23.363Zm2.065,3.632a7.163,7.163,0,0,1,3.506,1.3,6.672,6.672,0,0,1,2.557,3.673,7.765,7.765,0,0,1,.036,3,6.631,6.631,0,0,1-2.6,3.756,7.369,7.369,0,0,1-2.014,1.014c-.181.041-.471.123-.645.178a5.972,5.972,0,0,1-1.34.117,6.725,6.725,0,0,1-3.195-.617,5.786,5.786,0,0,1-1.869-1.275,5.447,5.447,0,0,1-1.4-1.857,5.6,5.6,0,0,1-.638-2.782,4.616,4.616,0,0,1,.2-1.611A6.882,6.882,0,0,1,105.372,27,4.652,4.652,0,0,1,106.85,26.995Z" transform="translate(-95.005 -23.316)" fill="#ababad"/>
      <path id="Path_26769" data-name="Path 26769" d="M123.129,392.32a13.778,13.778,0,0,0-2.767.87c-.782.391-1.362,1.007-1.362,1.432a1.627,1.627,0,0,0,.681,1.035c1.514,1.144,5.158,1.83,9.316,1.748a23.987,23.987,0,0,0,4.535-.425c2.6-.493,4.3-1.419,4.3-2.33s-1.616-1.823-4.129-2.33c-1.268-.254-1.174-.274-1.811.5-.688.843-2.536,2.933-3.072,3.475l-.406.411-.369-.377c-.536-.548-2.405-2.666-3.072-3.475S124.383,392.06,123.129,392.32Z" transform="translate(-117.262 -366.882)" fill="#ababad"/>
    </g>
  </g>
</svg>
