<svg xmlns="http://www.w3.org/2000/svg" width="30" height="18.272" viewBox="0 0 30 18.272">
  <g id="Notifications" transform="translate(0 0)">
    <g id="Group_31468" data-name="Group 31468">
      <path id="Path_28587" data-name="Path 28587" d="M2.319,4.474A9.033,9.033,0,0,0,.159,8.748,8.817,8.817,0,0,0,2.319,16.4c.363.378.419.418.624.418a.467.467,0,0,0,.5-.475c0-.17-.062-.271-.4-.639a7.975,7.975,0,0,1-1.871-3.635,8.875,8.875,0,0,1-.085-2.748A7.928,7.928,0,0,1,3.01,5.2c.5-.577.539-.73.267-1a.486.486,0,0,0-.357-.164c-.158,0-.243.062-.6.435" transform="translate(0 -1.285)" fill="#d66025"/>
      <path id="Path_28588" data-name="Path 28588" d="M39.244,4.1A.62.62,0,0,0,39,4.638a2.727,2.727,0,0,0,.408.543,7.813,7.813,0,0,1,.743,9.554,9.428,9.428,0,0,1-.725.944c-.335.385-.414.515-.414.661a.471.471,0,0,0,.5.475c.209,0,.26-.034.59-.385A9.11,9.11,0,0,0,42.277,12.2a6.906,6.906,0,0,0,.13-1.775,6.457,6.457,0,0,0-.13-1.741A8.8,8.8,0,0,0,40.111,4.48c-.346-.362-.459-.441-.6-.441a.621.621,0,0,0-.272.062" transform="translate(-12.407 -1.285)" fill="#d66025"/>
      <path id="Path_28589" data-name="Path 28589" d="M5.339,6.943A6.42,6.42,0,0,0,3.831,9.708a4.658,4.658,0,0,0-.147,1.56,4.639,4.639,0,0,0,.159,1.583,6.672,6.672,0,0,0,1.5,2.725c.255.266.312.3.516.3.567,0,.68-.577.2-1.018a5.63,5.63,0,0,1-1.338-2.7A7.159,7.159,0,0,1,4.84,9.832,5.7,5.7,0,0,1,6.082,7.6c.346-.4.374-.582.125-.837-.272-.271-.47-.232-.867.175" transform="translate(-1.172 -2.099)" fill="#d66025"/>
      <path id="Path_28590" data-name="Path 28590" d="M36.675,6.668a.586.586,0,0,0-.187.254c-.1.249-.04.407.312.786A5.388,5.388,0,0,1,38,9.976a6.15,6.15,0,0,1,.005,2.532,5.816,5.816,0,0,1-1.287,2.4c-.2.226-.266.339-.272.492a.458.458,0,0,0,.494.481c.2,0,.26-.034.527-.311a6.413,6.413,0,0,0,1.655-4.912A6.26,6.26,0,0,0,37.525,7c-.329-.385-.59-.486-.85-.333" transform="translate(-11.596 -2.1)" fill="#d66025"/>
      <path id="Path_28591" data-name="Path 28591" d="M8.244,9.52a3.811,3.811,0,0,0-.862,1.634,4.531,4.531,0,0,0,.022,1.911A3.477,3.477,0,0,0,8.6,14.936a.526.526,0,0,0,.68-.492,2.177,2.177,0,0,0-.34-.554A3.292,3.292,0,0,1,8.6,13.4a2.087,2.087,0,0,0-.125-.311c-.114-.232-.131-.356-.131-1.029a1.93,1.93,0,0,1,.17-1.13,3.436,3.436,0,0,1,.4-.656c.425-.515.453-.673.2-.933-.278-.271-.476-.232-.867.181" transform="translate(-2.32 -2.917)" fill="#d66025"/>
      <path id="Path_28592" data-name="Path 28592" d="M34.036,9.321c-.232.226-.193.481.125.865a2.906,2.906,0,0,1,.6,2.6,2.865,2.865,0,0,1-.618,1.192c-.193.237-.25.345-.25.509a.453.453,0,0,0,.494.47c.192,0,.249-.034.51-.322a4.006,4.006,0,0,0,.816-1.5,4.147,4.147,0,0,0-.023-2.233,4.046,4.046,0,0,0-.833-1.442c-.227-.243-.3-.282-.477-.282a.431.431,0,0,0-.346.141" transform="translate(-10.782 -2.921)" fill="#d66025"/>
    </g>
    <g id="Group_31469" data-name="Group 31469">
      <path id="Path_28593" data-name="Path 28593" d="M18.285.034a1.772,1.772,0,0,0-1.315,1.555l-.034.305-.391.175A5.385,5.385,0,0,0,13.88,4.738a6.577,6.577,0,0,0-.443,3.041,26.384,26.384,0,0,1-.2,3.285,9.315,9.315,0,0,1-.833,3.194,2.929,2.929,0,0,1-.856,1.029c-.068.04-.1.1-.074.153.034.085.641.09,7.205.09,5.845,0,7.171-.011,7.194-.074.017-.04-.108-.2-.284-.35-1.117-.978-1.565-2.985-1.712-7.66-.057-1.809-.108-2.08-.522-2.906a5.234,5.234,0,0,0-2.579-2.47l-.4-.175-.029-.35A1.647,1.647,0,0,0,19.418.181,1.87,1.87,0,0,0,18.285.034" transform="translate(-3.647)" fill="#152c69"/>
      <path id="Path_28594" data-name="Path 28594" d="M18.692,23.8a2.334,2.334,0,0,0,1.281,1.781,1.6,1.6,0,0,0,.97.181,1.657,1.657,0,0,0,.98-.181A2.267,2.267,0,0,0,23.2,23.864l.051-.34H18.658Z" transform="translate(-5.937 -7.485)" fill="#152c69"/>
    </g>
  </g>
</svg>
