<svg xmlns="http://www.w3.org/2000/svg" width="34" height="26.385" viewBox="0 0 34 26.385">
  <g id="Group_31557" data-name="Group 31557" transform="translate(0 0.001)" opacity="0.4">
    <path id="Path_28758" data-name="Path 28758" d="M7.935.046A3.922,3.922,0,0,0,5.712,1.239,4.117,4.117,0,0,0,4.955,4.1c.04.378.024.5-.089.62a4.216,4.216,0,0,0,.451,2.812,2.112,2.112,0,0,1,.363.669A5.758,5.758,0,0,0,6.6,9.738c.056.033-.016.258-.21.645l-.29.581-.6.225c-.685.258-.774.387-.734,1.047l.025.412.6.04a1.292,1.292,0,0,1,1.176.539c.322.436.379.749.419,2.241l.033,1.457-.21.251A1.653,1.653,0,0,1,5.6,17.6c-.273,0-.29-.016-.266-.225s.049-.218.363-.194a1.759,1.759,0,0,0,.629-.1l.282-.121V14.379l-.234-.258-.233-.266H3.126l-.234.266-.233.258v1.289c0,1.482,0,1.482.8,1.491.419,0,.443.008.443.2,0,.169-.04.209-.266.225a1.947,1.947,0,0,1-1.265-.4c-.1-.145-.121-.435-.121-1.515.008-1.474.072-1.909.37-2.36a1.261,1.261,0,0,1,1.224-.62h.5V11.64l-.379.154c-.218.081-.838.322-1.386.532-1.072.411-1.45.676-1.708,1.193A41.491,41.491,0,0,0,0,18.166c0,.161.121.161,8.9.161,8.766,0,8.9,0,8.9-.152,0-.137-.2-1.362-.644-3.932a2.116,2.116,0,0,0-.678-1.289,16.529,16.529,0,0,0-2.925-1.266l-.185-.056v1.756l.009,1.757.314.193a.9.9,0,0,1,.46.991,1.017,1.017,0,0,1-1.531.717,1.052,1.052,0,0,1-.363-.37,1.1,1.1,0,0,1,.46-1.418l.249-.112V13.412a5.75,5.75,0,0,0-.112-1.893,1.737,1.737,0,0,0-.629-.354c-.524-.194-.532-.2-.814-.782-.194-.378-.266-.612-.21-.645A5.758,5.758,0,0,0,12.126,8.2a2.112,2.112,0,0,1,.363-.669,4.163,4.163,0,0,0,.539-1.958c.04-.6.024-.724-.1-.862-.112-.121-.129-.234-.081-.628a4.992,4.992,0,0,0-.321-2.168A3.256,3.256,0,0,0,11.013.456,3.129,3.129,0,0,0,9.732.119C9.322.078,8.838.029,8.661.006a3.266,3.266,0,0,0-.725.04M7.38,10.4a2.219,2.219,0,0,0,1.523.427,2.219,2.219,0,0,0,1.523-.427,1.793,1.793,0,0,1,.322-.209,5.951,5.951,0,0,1,.532,1.136c0,.04-.363.612-.8,1.281-.894,1.353-.806,1.321-.935.306a.707.707,0,0,1,.161-.669c.217-.274.217-.282.088-.661L9.668,11.2H8.137l-.129.387c-.129.379-.129.387.088.669a.677.677,0,0,1,.161.685c-.129.918-.088.927-.951-.363-.427-.645-.781-1.208-.781-1.248a6.148,6.148,0,0,1,.54-1.136,2.37,2.37,0,0,1,.314.209" transform="translate(0 0)" fill="#d66025"/>
    <path id="Path_28759" data-name="Path 28759" d="M21.061,5.193a2.98,2.98,0,0,0-1.741.854c-.959.9-1.272,1.869-1.224,3.828.016.878,0,1-.129,1.095s-.137.161-.057.83c.145,1.12.314,1.644.579,1.8.17.1.282.273.436.709a7.685,7.685,0,0,0,.491,1.071,1.521,1.521,0,0,1,.169,1.612c-.225.451-.387.524-2.522,1.273-2.071.717-2.739,1.03-3.255,1.514-.661.621-.7.749-1.136,3.569-.218,1.394-.394,2.538-.394,2.554s4.64.032,10.312.032c9.814,0,10.313-.008,10.313-.145,0-.266-.724-4.81-.814-5.076a2.989,2.989,0,0,0-1.1-1.281,15.737,15.737,0,0,0-2.916-1.193c-.725-.249-1.548-.556-1.821-.676-.484-.218-.515-.249-.676-.693-.218-.572-.186-.749.273-1.611a6.992,6.992,0,0,0,.484-1.1.887.887,0,0,1,.354-.564,3.351,3.351,0,0,0,.637-1.982c.032-.508.015-.588-.121-.676-.154-.088-.161-.161-.121-1.354a9.526,9.526,0,0,0-.057-1.708,3.392,3.392,0,0,0-3.368-2.731,8.6,8.6,0,0,0-2.6.048" transform="translate(1.096 0.453)" fill="#152c69"/>
    <path id="Path_28760" data-name="Path 28760" d="M3.342,12.016c-.371.064-.492.129-.6.314-.065.13.041.137,1.409.113a10.045,10.045,0,0,1,1.732.057c.154.048.235.057.235,0,0-.145-.4-.451-.654-.508a11.093,11.093,0,0,0-2.126.024" transform="translate(0.244 1.067)" fill="#152c69"/>
    <path id="Path_28761" data-name="Path 28761" d="M11.7,14.469a.562.562,0,0,0-.04.863.635.635,0,0,0,1.128-.419.542.542,0,0,0-.225-.484.562.562,0,0,0-.863.04m.685.218c.169.169.161.3-.024.467a.313.313,0,0,1-.54-.161.324.324,0,0,1,.564-.306" transform="translate(1.024 1.272)" fill="#152c69"/>
    <path id="Path_28762" data-name="Path 28762" d="M0,17.392c0,.04,1.587,3.383,2.739,5.769l.339.709h9.7l.339-2.175c.379-2.433.467-2.692,1.128-3.408a4.193,4.193,0,0,1,.8-.637,3.141,3.141,0,0,0,.419-.273c0-.016-3.48-.033-7.735-.033S0,17.368,0,17.392m10.023.854c.152.322.66,1.378,1.127,2.353S12,22.371,12,22.387s-.935.032-2.078.032H7.848l-1.1-2.32c-.612-1.273-1.1-2.336-1.1-2.377A18.473,18.473,0,0,1,7.7,17.665H9.758ZM6.575,20.727l.983,2.054,1.523.024,1.523.016.137.282.137.282H6.72l-1.1-2.32c-.612-1.273-1.1-2.345-1.1-2.377a1.167,1.167,0,0,1,.54-.04l.54.024Z" transform="translate(0 1.548)" fill="#d66025"/>
  </g>
</svg>
