<svg xmlns="http://www.w3.org/2000/svg" width="44.945" height="39.974" viewBox="0 0 44.945 39.974">
  <g id="Group_70174" data-name="Group 70174" transform="translate(0)">
    <path id="noun-add-image-5346696" d="M233.221,181.872a2.541,2.541,0,0,0-2.607,2.468v17.017l6.411-6.42a5.415,5.415,0,0,1,7.71.136l7.3,7.874,2.183-2.241a5.411,5.411,0,0,1,7.849.2l3.749,4.284V190.51a1.306,1.306,0,0,1,2.607,0v19.743a5.081,5.081,0,0,1-5.215,4.936H233.221a5.081,5.081,0,0,1-5.215-4.936V184.34a5.081,5.081,0,0,1,5.215-4.936h23.466a1.236,1.236,0,1,1,0,2.468Zm32.591,27.183-5.757-6.577a2.705,2.705,0,0,0-3.925-.1l-10.073,10.341H263.2a2.541,2.541,0,0,0,2.607-2.468Zm-23.3,3.666,7.743-7.949-7.48-8.071a2.707,2.707,0,0,0-3.855-.068l-8.305,8.317v5.3a2.541,2.541,0,0,0,2.607,2.468Z" transform="translate(-228.007 -175.215)" fill="#264488" fill-rule="evenodd"/>
    <path id="Path_29013" data-name="Path 29013" d="M603.458,281.546a3.559,3.559,0,0,0,2.445-.959,3.15,3.15,0,0,0,0-4.628,3.6,3.6,0,0,0-4.89,0,3.15,3.15,0,0,0,0,4.628A3.558,3.558,0,0,0,603.458,281.546Zm0-4.364a1.186,1.186,0,0,1,.815.32,1.05,1.05,0,0,1,0,1.543,1.2,1.2,0,0,1-1.63,0,1.05,1.05,0,0,1,0-1.543A1.186,1.186,0,0,1,603.458,277.182Z" transform="translate(-577.513 -262.38)" fill="#d66025"/>
    <path id="noun-add-image-5346696-2" data-name="noun-add-image-5346696" d="M316.97,168a1.27,1.27,0,0,1,1.3,1.234v3.085h3.259a1.236,1.236,0,1,1,0,2.468h-3.259v3.085a1.306,1.306,0,0,1-2.607,0v-3.085h-3.259a1.236,1.236,0,1,1,0-2.468h3.259v-3.085A1.27,1.27,0,0,1,316.97,168Z" transform="translate(-277.891 -168)" fill="#d66025" fill-rule="evenodd"/>
  </g>
</svg>
