<svg xmlns="http://www.w3.org/2000/svg" width="32.356" height="42.227" viewBox="0 0 32.356 42.227">
  <g id="noun-scan-code-4821729" transform="translate(0)">
    <path id="Path_28992" data-name="Path 28992" d="M282.84,180.057c-1.737-1.88-1.442-3.773-1.068-6.166a14.114,14.114,0,0,0-.13-6.7,30.347,30.347,0,0,0-1.793-3.547,32.291,32.291,0,0,1-3-6.4.23.23,0,0,0-.013-.052,14.674,14.674,0,0,1-.551-3.274c-.1-1.22-.174-2.184-1.059-2.492-.022-.009-.048-.013-.069-.022a2.283,2.283,0,0,0-1.763.339v-5.58a2.257,2.257,0,0,0-2.254-2.254H256.588a2.257,2.257,0,0,0-2.254,2.254v3.795a4.117,4.117,0,0,0-1.329-.139,2.5,2.5,0,0,0-1.646.63,2.6,2.6,0,0,0-.638,2.432c.122.5.478,1.224,2.206,2.323a15.994,15.994,0,0,0,1.407.782v.117c-.052,0-.1-.009-.152-.009a2.874,2.874,0,0,0-1.672,5.215,2.872,2.872,0,0,0-1.207,2.336,2.825,2.825,0,0,0,1.133,2.28,2.872,2.872,0,0,0,1.745,5.158c.052,0,.1,0,.152-.009v5a2.257,2.257,0,0,0,2.254,2.254h4.707c.738,1.559,2.2,3.83,4.577,4.268.082.013.2.043.347.078a7.741,7.741,0,0,0,2.462.3.016.016,0,0,1,.013.009c.026.039.052.091.1.174.078.143.2.36.4.69a6.459,6.459,0,0,1,.738,1.8.649.649,0,0,0,.634.5.639.639,0,0,0,.156-.017.652.652,0,0,0,.478-.786,7.825,7.825,0,0,0-.886-2.158c-.191-.313-.3-.517-.378-.651a1.438,1.438,0,0,0-.6-.677l-.139-.1a.659.659,0,0,0-.538-.1,6.017,6.017,0,0,1-2.136-.247c-.174-.043-.317-.074-.417-.091-1.585-.291-2.705-1.819-3.348-2.987h8.384a2.257,2.257,0,0,0,2.254-2.254V168.43c.109-.174.217-.352.321-.517a10.151,10.151,0,0,0,.973-1.75c.439-1.2-.221-2.579-.981-4.177-.122-.256-.247-.521-.373-.79a10.112,10.112,0,0,1-1.142-4.077.587.587,0,0,0,0-.087,6.389,6.389,0,0,1,1.094-3.361c.347-.508.886-1.09,1.507-1a5.305,5.305,0,0,1,.2,1.359,16.047,16.047,0,0,0,.595,3.53,32.463,32.463,0,0,0,3.118,6.717A31.911,31.911,0,0,1,280.4,167.6a12.864,12.864,0,0,1,.078,6.088c-.4,2.523-.764,4.907,1.4,7.251a.651.651,0,1,0,.955-.886Zm-26.252-34.832h14.559a.951.951,0,0,1,.951.951v.569H255.637v-.569a.951.951,0,0,1,.951-.951Zm-2.966,8.893c-.968-.617-1.55-1.155-1.637-1.52a1.068,1.068,0,0,1,1.107-1.463,3.118,3.118,0,0,1,1.242.2v3.2c-.239-.13-.478-.269-.712-.417Zm.56,3.3a1.576,1.576,0,1,1-1.576,1.576A1.579,1.579,0,0,1,254.183,157.414Zm0,7.825a1.576,1.576,0,1,1,1.576-1.576A1.579,1.579,0,0,1,254.183,165.238Zm-1.576,2.987a1.576,1.576,0,1,1,1.576,1.576A1.579,1.579,0,0,1,252.606,168.225Zm4.451,0a2.869,2.869,0,0,0-1.133-2.28,2.869,2.869,0,0,0,1.133-2.28,2.915,2.915,0,0,0-1.207-2.336,2.867,2.867,0,0,0-.217-4.815v-8.463h16.461v5.076a7.494,7.494,0,0,0-1.2,4.047,11.189,11.189,0,0,0,1.2,4.442v12.644H255.638V170.7a2.875,2.875,0,0,0,1.424-2.479Zm14.085,8.819H256.588a.951.951,0,0,1-.951-.951v-.53H272.1v.53a.951.951,0,0,1-.951.951Zm2.323-11.311a1.54,1.54,0,0,1-.069.165V164.6a1.883,1.883,0,0,1,.069,1.129Z" transform="translate(-250.651 -143.919)" fill="#264488"/>
    <g id="Group_70128" data-name="Group 70128" transform="translate(6.628 10.698)">
      <path id="Path_28993" data-name="Path 28993" d="M439.334,533.136a.316.316,0,0,0,.313-.365.334.334,0,0,0-.339-.269h-1.22a.334.334,0,0,0-.339.269.318.318,0,0,0,.313.365Z" transform="translate(-435.709 -525.203)" fill="#d66025"/>
      <path id="Path_28994" data-name="Path 28994" d="M436.832,559.88h-1.155a.775.775,0,0,0-.773.773v1.155a.775.775,0,0,0,.773.773h1.155a.775.775,0,0,0,.773-.773v-1.155A.775.775,0,0,0,436.832,559.88Zm.135,1.793a.108.108,0,0,1-.109.109h-1.051a.107.107,0,0,1-.109-.109v-1.051a.107.107,0,0,1,.109-.109h1.051a.108.108,0,0,1,.109.109Z" transform="translate(-432.998 -551.313)" fill="#d66025"/>
      <path id="Path_28995" data-name="Path 28995" d="M495.831,532.867a.334.334,0,0,0-.339-.269h-.586a.334.334,0,0,0-.339.269.318.318,0,0,0,.313.365h.634a.316.316,0,0,0,.313-.365Z" transform="translate(-489.895 -525.294)" fill="#d66025"/>
      <path id="Path_28996" data-name="Path 28996" d="M511.843,587.34H510.61a.33.33,0,0,0-.33.33v.621a.316.316,0,0,0,.365.313.334.334,0,0,0,.269-.339v-.291h.951a.316.316,0,0,0,.313-.365.334.334,0,0,0-.339-.269Z" transform="translate(-504.883 -577.501)" fill="#d66025"/>
      <path id="Path_28997" data-name="Path 28997" d="M394.1,593.909h2.631a.144.144,0,0,0,.052-.022c.287-.278.1-.612-.174-.612h-2.015a.209.209,0,0,1-.208-.208v-2.015a.335.335,0,0,0-.612-.174.081.081,0,0,0-.022.052v2.631a.348.348,0,0,0,.347.347Z" transform="translate(-393.749 -580.739)" fill="#d66025"/>
      <path id="Path_28998" data-name="Path 28998" d="M394.477,377.759v-2.015a.208.208,0,0,1,.208-.208H396.7a.335.335,0,0,0,.174-.612.08.08,0,0,0-.052-.022H394.19a.348.348,0,0,0-.347.347v2.631a.145.145,0,0,0,.022.052c.278.287.612.1.612-.174Z" transform="translate(-393.838 -374.902)" fill="#d66025"/>
      <path id="Path_28999" data-name="Path 28999" d="M509.132,447.536h.634a.316.316,0,0,0,.313-.365.334.334,0,0,0-.339-.269h-.586a.334.334,0,0,0-.339.269.318.318,0,0,0,.313.365Z" transform="translate(-503.483 -443.568)" fill="#d66025"/>
      <path id="Path_29000" data-name="Path 29000" d="M579.585,418.667h1.155a.775.775,0,0,0,.773-.773v-1.155a.775.775,0,0,0-.773-.773h-1.155a.775.775,0,0,0-.773.773v1.155A.775.775,0,0,0,579.585,418.667Zm.022-1.793a.108.108,0,0,1,.109-.109h1.051a.107.107,0,0,1,.109.109v1.051a.108.108,0,0,1-.109.109h-1.051a.108.108,0,0,1-.109-.109Z" transform="translate(-570.241 -414.064)" fill="#d66025"/>
      <path id="Path_29001" data-name="Path 29001" d="M434.91,416.745V417.9a.775.775,0,0,0,.773.773h1.155a.775.775,0,0,0,.773-.773v-1.155a.775.775,0,0,0-.773-.773h-1.155A.775.775,0,0,0,434.91,416.745Zm.795.13a.108.108,0,0,1,.109-.109h1.051a.107.107,0,0,1,.109.109v1.051a.107.107,0,0,1-.109.109h-1.051a.108.108,0,0,1-.109-.109Z" transform="translate(-433.004 -414.07)" fill="#d66025"/>
      <path id="Path_29002" data-name="Path 29002" d="M512.915,532.825a.33.33,0,0,0-.33-.33h-.621a.316.316,0,0,0-.313.365.334.334,0,0,0,.339.269h.291v.634H510.7a.316.316,0,0,0-.313.365.334.334,0,0,0,.339.269h1.867a.33.33,0,0,0,.33-.33v-1.242Z" transform="translate(-504.978 -525.196)" fill="#d66025"/>
      <path id="Path_29003" data-name="Path 29003" d="M401.209,475.216a.3.3,0,0,0-.3-.3h-.656a.322.322,0,0,0-.278.478.309.309,0,0,0,.274.161h.321v.3a.307.307,0,0,0,.056.174H399.26a.378.378,0,0,0,.039-.156v-.586a.334.334,0,0,0-.269-.339.318.318,0,0,0-.365.313v.634a.262.262,0,0,0,.03.13h-1.732a.217.217,0,0,0,0,.434h8.211v.082a.316.316,0,0,0,.365.313.334.334,0,0,0,.269-.339v-.056h1.429v.039a.322.322,0,0,0,.478.278.309.309,0,0,0,.161-.274v-.043h1.594a.217.217,0,0,0,0-.434h-1.594v-.795a.322.322,0,0,0-.478-.278.309.309,0,0,0-.161.274v.321h-.317a.322.322,0,0,0-.278.478h-.834V475.3a.334.334,0,0,0-.269-.339.318.318,0,0,0-.365.313v.755h-.682a.326.326,0,0,0,.009-.317.3.3,0,0,0-.278-.161H403.9v-.634h.317a.316.316,0,0,0,.313-.365.334.334,0,0,0-.339-.269h-1.88a.316.316,0,0,0-.313.365.334.334,0,0,0,.339.269h.929v.634h-.317a.319.319,0,0,0-.278.473h-.881a.294.294,0,0,0,.048-.2.334.334,0,0,0-.339-.269h-.291v-.339Z" transform="translate(-396.607 -469.68)" fill="#d66025"/>
      <path id="Path_29004" data-name="Path 29004" d="M510.636,416.607H512.2v.951a.316.316,0,0,0,.365.313.334.334,0,0,0,.269-.339V416.3a.33.33,0,0,0-.33-.33H510.61a.316.316,0,0,0-.313.365.334.334,0,0,0,.339.269Z" transform="translate(-504.896 -414.066)" fill="#d66025"/>
      <path id="Path_29005" data-name="Path 29005" d="M568.364,587.844v-.651a.319.319,0,0,0-.473-.278.307.307,0,0,0-.161.278v.321h-.795v-.33a.322.322,0,0,0-.4-.321.332.332,0,0,0-.243.33v.321h-.634V587.2a.316.316,0,0,0-.365-.313.334.334,0,0,0-.269.339v.6a.33.33,0,0,0,.33.33h2.7a.3.3,0,0,0,.3-.3Z" transform="translate(-557.097 -577.037)" fill="#d66025"/>
      <path id="Path_29006" data-name="Path 29006" d="M609.99,375.537H612a.209.209,0,0,1,.208.208v2.015a.335.335,0,0,0,.612.174.08.08,0,0,0,.022-.052V375.25a.348.348,0,0,0-.347-.347h-2.631a.145.145,0,0,0-.052.022c-.287.278-.1.612.174.612Z" transform="translate(-599.673 -374.903)" fill="#d66025"/>
      <path id="Path_29007" data-name="Path 29007" d="M579.053,545.05a.333.333,0,0,0-.243.33v.656a.328.328,0,0,0,.326.326h1.407a.33.33,0,0,0,.33-.33v-.3h.161a.316.316,0,0,0,.313-.365.334.334,0,0,0-.339-.269h-.6a.33.33,0,0,0-.33.33v.3h-.634v-.356a.322.322,0,0,0-.4-.321Z" transform="translate(-570.239 -537.16)" fill="#d66025"/>
      <path id="Path_29008" data-name="Path 29008" d="M612.212,591.05v2.015a.208.208,0,0,1-.208.208h-2.015a.335.335,0,0,0-.174.612.08.08,0,0,0,.052.022H612.5a.348.348,0,0,0,.347-.347v-2.631a.144.144,0,0,0-.022-.052C612.547,590.59,612.212,590.781,612.212,591.05Z" transform="translate(-599.672 -580.737)" fill="#d66025"/>
    </g>
  </g>
</svg>
