<svg xmlns="http://www.w3.org/2000/svg" xmlns:xlink="http://www.w3.org/1999/xlink" width="300" height="145.883" viewBox="0 0 300 145.883">
  <defs>
    <clipPath id="clip-path">
      <rect id="Rectangle_21352" data-name="Rectangle 21352" width="300" height="2.117" fill="none"/>
    </clipPath>
    <clipPath id="clip-path-2">
      <rect id="Rectangle_21358" data-name="Rectangle 21358" width="197.562" height="144.824" fill="none"/>
    </clipPath>
    <clipPath id="clip-path-3">
      <rect id="Rectangle_21355" data-name="Rectangle 21355" width="24.103" height="23.747" fill="none"/>
    </clipPath>
  </defs>
  <g id="Group_31435" data-name="Group 31435" transform="translate(-38 -135.293)">
    <g id="Group_31312" data-name="Group 31312" transform="translate(38 279.059)">
      <g id="Group_31311" data-name="Group 31311" clip-path="url(#clip-path)">
        <path id="Path_28307" data-name="Path 28307" d="M300,2.664c0,.1-67.163.184-149.993.184C67.148,2.847,0,2.765,0,2.664S67.148,2.48,150.007,2.48c82.83,0,149.993.082,149.993.184" transform="translate(0 -0.73)" fill="#263238"/>
      </g>
    </g>
    <g id="Group_31324" data-name="Group 31324" transform="translate(100.938 135.293)">
      <g id="Group_31323" data-name="Group 31323" clip-path="url(#clip-path-2)">
        <g id="Group_31320" data-name="Group 31320">
          <g id="Group_31366" data-name="Group 31366">
            <path id="Path_28308" data-name="Path 28308" d="M97.006,6.517A4.326,4.326,0,0,0,93.095,3.57,2.787,2.787,0,0,0,91.441.3a4.827,4.827,0,0,0-3.907.282,13.088,13.088,0,0,1-2.589,1.187,14.774,14.774,0,0,1-3.731-.149,6.982,6.982,0,0,0-6.269,3.648c-.416.791-.674,1.661-1.133,2.427-.367.614-.855,1.149-1.218,1.766a5.277,5.277,0,0,0,.421,5.825l17.575-4.041a4.327,4.327,0,0,0,4.9-.071,4.326,4.326,0,0,0,1.519-4.655" transform="translate(-34.872 0)" fill="#263238"/>
            <path id="Path_28309" data-name="Path 28309" d="M182.3,136.593l-16.929-1.678-.98,8.793,19.117-.664Z" transform="translate(-79.719 -65.424)" fill="#ffc09d"/>
            <path id="Path_28310" data-name="Path 28310" d="M211.49,139.157a.938.938,0,0,1-.977.38,1.078,1.078,0,0,1-.226-.083c-.5-.254-.283-1.329-.283-1.329l-2.481-.818a27.607,27.607,0,0,0-5.05,2.841c-1.4,1.229-4.226-.392-4.226-.392l-.184-5.592,5.356-3.5s-.328.207.121-.535,1.874-.209,1.874-.209c.291-.355,1.275-.344,1.275-.344l4.036,1.123a2.854,2.854,0,0,1,1.855,1.62l1.3,3.027a7.867,7.867,0,0,1,.384,2.564.832.832,0,0,1-1.043.389s-.408,1.271-.757,1.262a2.853,2.853,0,0,1-.979-.4" transform="translate(-96.047 -62.836)" fill="#ffc09d"/>
            <path id="Path_28311" data-name="Path 28311" d="M203.775,139.3a1.5,1.5,0,0,0,.274-.148l.776-.444a28.99,28.99,0,0,1,3-1.434l-.06,0,2.475.835-.07-.121a2.832,2.832,0,0,0-.051.629,1.167,1.167,0,0,0,.192.658.638.638,0,0,0,.313.208.9.9,0,0,0,.355.078,1.055,1.055,0,0,0,.689-.25,1.132,1.132,0,0,0,.134-.133l.03-.037.014-.019.007-.009h0c.034-.008-.3.058-.158.031l0,0,.005,0,.075.046c.1.059.2.115.311.168a2.791,2.791,0,0,0,.335.142,1.326,1.326,0,0,0,.186.05.433.433,0,0,0,.243-.008.767.767,0,0,0,.3-.3,2.837,2.837,0,0,0,.182-.33,6.151,6.151,0,0,0,.277-.694l-.165.079a.979.979,0,0,0,1-.174.794.794,0,0,0,.255-.485,2.3,2.3,0,0,0-.012-.507,13.9,13.9,0,0,0-.412-1.942l0-.007,0-.009-.694-1.615-.441-1.023a5.118,5.118,0,0,0-.5-1,2.775,2.775,0,0,0-.826-.759,3.611,3.611,0,0,0-1.014-.383l-3.806-1.048-.016,0h-.014a3.608,3.608,0,0,0-.708.072,1.169,1.169,0,0,0-.656.319l.15-.022a1.44,1.44,0,0,0-1.332-.135,1.681,1.681,0,0,0-.817.938l.039-.049-3.689,2.394-1,.664a2.319,2.319,0,0,0-.337.248,2.314,2.314,0,0,0,.368-.2l1.025-.62,3.736-2.32.025-.016.014-.033a1.487,1.487,0,0,1,.719-.813,1.226,1.226,0,0,1,1.121.128l.084.051.066-.074a.987.987,0,0,1,.528-.236,3.424,3.424,0,0,1,.658-.061l-.03,0,3.8,1.069a3.362,3.362,0,0,1,.949.359,2.508,2.508,0,0,1,.746.689,4.859,4.859,0,0,1,.473.954l.44,1.023.7,1.614-.006-.016a13.731,13.731,0,0,1,.408,1.9,2.1,2.1,0,0,1,.014.448.539.539,0,0,1-.176.33.727.727,0,0,1-.733.124l-.125-.041-.04.121a6.045,6.045,0,0,1-.262.665,1.257,1.257,0,0,1-.353.508.25.25,0,0,1-.106,0,1.057,1.057,0,0,1-.153-.041,2.672,2.672,0,0,1-.307-.128c-.1-.049-.2-.1-.3-.158l-.071-.042,0,0h0l-.16.031h0l-.006.007-.012.015-.023.029a.889.889,0,0,1-.106.106.823.823,0,0,1-.535.2.686.686,0,0,1-.277-.06.419.419,0,0,1-.217-.134,1.613,1.613,0,0,1-.11-1.107l.014-.094-.085-.027-2.486-.8-.031-.01-.029.012a24.821,24.821,0,0,0-2.978,1.514c-.334.2-.587.368-.755.485a1.482,1.482,0,0,0-.247.189" transform="translate(-96.31 -62.724)" fill="#ff9b6c"/>
            <path id="Path_28312" data-name="Path 28312" d="M213.246,133.268a4.988,4.988,0,0,0,1.257.6,13.35,13.35,0,0,0,3.352.782l-.121-.113c.038.213.078.438.131.664a10.262,10.262,0,0,0,1.577,3.562,8.581,8.581,0,0,0,.742.92c.194.2.31.3.323.29.034-.03-.378-.488-.9-1.318a11.449,11.449,0,0,1-1.471-3.516c-.051-.22-.092-.439-.129-.647l-.019-.1-.1-.01a16.056,16.056,0,0,1-3.318-.683c-.818-.26-1.3-.466-1.317-.43" transform="translate(-103.409 -64.623)" fill="#ff9b6c"/>
            <path id="Path_28313" data-name="Path 28313" d="M220.067,139.12a6.639,6.639,0,0,0,2.186,4.5c.063-.055-.689-.91-1.287-2.158s-.816-2.362-.9-2.346" transform="translate(-106.707 -67.463)" fill="#ff9b6c"/>
            <path id="Path_28314" data-name="Path 28314" d="M197.354,141.034c0,.007.037.04.119.1a2.95,2.95,0,0,0,.381.221,4.464,4.464,0,0,0,1.589.442,4.529,4.529,0,0,0,2.464-.476,4.724,4.724,0,0,0,2.168-2.308l-.165.073a10.571,10.571,0,0,0,4.075.62,3.391,3.391,0,0,0,1.1-.179.837.837,0,0,0,.467-.386.77.77,0,0,0-.378-1.036l-.456-.193c-1.2-.5-2.3-.9-3.24-1.2s-1.7-.514-2.235-.647a4.718,4.718,0,0,0-.836-.173,5.51,5.51,0,0,0,.808.276c.523.164,1.278.4,2.2.728s2.014.737,3.2,1.247l.449.2a.508.508,0,0,1,.264.287.5.5,0,0,1-.019.394.567.567,0,0,1-.33.257,3.178,3.178,0,0,1-1.014.156,10.586,10.586,0,0,1-3.974-.6l-.117-.041-.048.114a4.552,4.552,0,0,1-2.031,2.211,4.455,4.455,0,0,1-2.347.509,4.811,4.811,0,0,1-1.564-.357c-.349-.145-.527-.253-.537-.236" transform="translate(-95.702 -65.895)" fill="#ff9b6c"/>
            <path id="Path_28315" data-name="Path 28315" d="M85.154,52.594A7.685,7.685,0,0,1,77.645,44.9l-.32-25.5c-.3-6.847,3.328-12.733,9.992-12.85l.617.026A12.088,12.088,0,0,1,99.348,18.34c.226,5.937.468,11.674.3,14.846-.343,6.568-6.84,7.217-6.84,7.217s-.018,2.451-.014,4.382a7.687,7.687,0,0,1-7.643,7.809" transform="translate(-37.489 -3.178)" fill="#ffc09d"/>
            <path id="Path_28316" data-name="Path 28316" d="M99.669,69.641a15.145,15.145,0,0,1-8.217-2.883s1.8,5.026,8.2,4.7Z" transform="translate(-44.348 -32.373)" fill="#ff9b6c"/>
            <path id="Path_28317" data-name="Path 28317" d="M113.805,39.943a.925.925,0,0,1-.918.91.885.885,0,0,1-.907-.886.926.926,0,0,1,.917-.91.886.886,0,0,1,.908.887" transform="translate(-54.303 -18.939)" fill="#263238"/>
            <path id="Path_28318" data-name="Path 28318" d="M113.842,33.958c-.118.117-.788-.438-1.77-.477s-1.722.435-1.823.307c-.05-.057.074-.273.4-.494a2.453,2.453,0,0,1,1.466-.4,2.371,2.371,0,0,1,1.4.532c.292.251.386.477.328.529" transform="translate(-53.457 -15.951)" fill="#263238"/>
            <path id="Path_28319" data-name="Path 28319" d="M96.5,39.943a.925.925,0,0,1-.918.909.884.884,0,0,1-.907-.886.927.927,0,0,1,.917-.91.886.886,0,0,1,.907.887" transform="translate(-45.911 -18.939)" fill="#263238"/>
            <path id="Path_28320" data-name="Path 28320" d="M95.137,33.618c-.119.117-.79-.438-1.771-.477s-1.721.436-1.823.307c-.05-.057.073-.273.4-.494a2.449,2.449,0,0,1,1.465-.4,2.368,2.368,0,0,1,1.4.533c.291.251.386.476.328.529" transform="translate(-44.386 -15.786)" fill="#263238"/>
            <path id="Path_28321" data-name="Path 28321" d="M104.647,42.036a6.338,6.338,0,0,1,1.607-.228c.252-.016.491-.057.541-.231a1.347,1.347,0,0,0-.137-.772l-.662-1.995a34.587,34.587,0,0,1-1.459-5.207,34.44,34.44,0,0,1,1.863,5.074q.331,1.05.631,2.006a1.536,1.536,0,0,1,.09,1.018.635.635,0,0,1-.428.36,1.682,1.682,0,0,1-.429.043,6.235,6.235,0,0,1-1.616-.066" transform="translate(-50.686 -16.295)" fill="#263238"/>
            <path id="Path_28322" data-name="Path 28322" d="M95.166,27.414c-.144.252-1.086-.059-2.245-.134-1.157-.1-2.133.069-2.24-.2-.046-.129.159-.353.576-.544a3.812,3.812,0,0,1,3.416.256c.385.252.557.5.492.624" transform="translate(-43.971 -12.727)" fill="#263238"/>
            <path id="Path_28323" data-name="Path 28323" d="M113.836,28.161c-.21.224-1-.036-1.966-.073-.96-.066-1.78.106-1.961-.139-.079-.119.055-.345.416-.553a3.024,3.024,0,0,1,1.608-.333,2.989,2.989,0,0,1,1.556.5c.334.245.439.484.347.594" transform="translate(-53.287 -13.121)" fill="#263238"/>
            <path id="Path_28324" data-name="Path 28324" d="M73.853,40.737c-.107-.053-4.337-1.522-4.378,2.977s4.359,3.613,4.367,3.484.01-6.461.01-6.461" transform="translate(-33.691 -19.623)" fill="#ffc09d"/>
            <path id="Path_28325" data-name="Path 28325" d="M73.567,46.843c-.019-.014-.077.054-.206.113a.74.74,0,0,1-.57.007,1.954,1.954,0,0,1-.857-1.748,2.65,2.65,0,0,1,.224-1.12.893.893,0,0,1,.578-.6.386.386,0,0,1,.448.219c.057.126.029.216.052.224s.094-.075.061-.261a.5.5,0,0,0-.169-.284.564.564,0,0,0-.42-.118,1.078,1.078,0,0,0-.8.69,2.728,2.728,0,0,0-.276,1.252,2.042,2.042,0,0,0,1.094,1.953.8.8,0,0,0,.7-.112c.136-.11.16-.21.145-.218" transform="translate(-34.735 -20.986)" fill="#ff9b6c"/>
            <path id="Path_28326" data-name="Path 28326" d="M79.125,12.316A3.217,3.217,0,0,1,81.31,9.821a4.46,4.46,0,0,1,2.955.037c2.463.9,6.668,2.239,7.767,1.379A6.868,6.868,0,0,0,93.993,9.2l.869.945c.708-.4-1.415-2.76-3.154-3.573-2.628-1.228-6.643-1.986-9.068-1.28a10.563,10.563,0,0,0-6.811,5.073,18.11,18.11,0,0,0-1.936,9.033c.026.952-.148,3.68.772,3.891a1.681,1.681,0,0,1,1.573,1.852,1.917,1.917,0,0,0,.454,1.373c.8.877,1.779.054,2.23-.771a13.336,13.336,0,0,0,1.156-5.884,13.524,13.524,0,0,0-.275-4.279,13.414,13.414,0,0,1-.705-2.764,2.362,2.362,0,0,1,.028-.5" transform="translate(-35.828 -2.432)" fill="#263238"/>
            <path id="Path_28327" data-name="Path 28327" d="M101.942,53.025c.027.068-.176.237-.582.326a2.337,2.337,0,0,1-1.583-.249,2.406,2.406,0,0,1-1.07-1.189c-.151-.385-.129-.646-.058-.663.152-.051.479.852,1.4,1.354s1.849.27,1.892.422" transform="translate(-47.811 -24.851)" fill="#263238"/>
            <path id="Path_28328" data-name="Path 28328" d="M58.678,135.491l-20.921-4.6L24.33,97.569S6.361,101.555,3.4,111.594c-2.565,8.681-7.858,47.04,4.176,70.689A18.176,18.176,0,0,0,23.8,192.138h91.54a22.7,22.7,0,0,0,22.557-20.17,99.719,99.719,0,0,0,.8-11.89L124,148.795Z" transform="translate(0 -47.314)" fill="#455a64"/>
            <g id="Group_31318" data-name="Group 31318" transform="translate(114.638 96.942)" opacity="0.3">
              <g id="Group_31317" data-name="Group 31317">
                <g id="Group_31316" data-name="Group 31316" clip-path="url(#clip-path-3)">
                  <path id="Path_28329" data-name="Path 28329" d="M222.566,191.039c6.44,8.416,14.282,15.981,23.659,20.919l.444-11.425-17.314-12.322Z" transform="translate(-222.566 -188.211)"/>
                </g>
              </g>
            </g>
            <path id="Path_28330" data-name="Path 28330" d="M87.411,82.948c0,.606,4.758,2.567,6.91,1.707,3.273-1.307,2.869-3.876,2.869-3.876L99,82.7l18.22,27.76,13.543,8.939-21.678,6.865-22.72-26.1Z" transform="translate(-41.883 -39.172)" fill="#f5f5f5"/>
            <path id="Path_28331" data-name="Path 28331" d="M66.285,66.9l-.479.894-2.161,4.035-9,5.739,18.506,22L81.6,119.528l20.242,6.337s-9.631-14.812-12.623-22.381-3.3-7.218-6.028-12.763a125.389,125.389,0,0,1-4.946-12.029Z" transform="translate(-26.498 -32.441)" fill="#bc602d"/>
            <path id="Path_28332" data-name="Path 28332" d="M135.215,111.134l3.969,3.7,1.123,2.288-14.759-6.868L114.891,95.34s-3.8-8.422-5.1-11.439c-1.373-3.174-2.4-4.97-2.4-4.97l-.015-2.506,5.386,4.851,4.49,1.338,7.5,11.853Z" transform="translate(-52.07 -37.06)" fill="#bc602d"/>
            <path id="Path_28333" data-name="Path 28333" d="M139.108,102.756s-1.791-3.824-3.254-7c-3.3-7.161-11.069-7.841-11.069-7.841l8.59,23.827L143.9,119.2s2.993,1.045,3.369,0c0,0,2.192-7.9,2.126-7.931s-7.49-2.25-7.49-2.25l-2.99-6.675" transform="translate(-60.512 -42.632)" fill="#bc602d"/>
            <path id="Path_28334" data-name="Path 28334" d="M173.7,101.871l-10.225,17.035,10.707-.317,9.442-15.783a.909.909,0,0,0-.78-1.376H174.48a.909.909,0,0,0-.78.441" transform="translate(-79.274 -49.186)" fill="#263238"/>
            <path id="Path_28335" data-name="Path 28335" d="M106.975,127.789l25.591-3.046,4.3-7.532,3.368-1.852a1.679,1.679,0,0,1,1.8.114l.317.231,2.5-.314a1.983,1.983,0,0,1,1.229.244l1.772,1.008a.849.849,0,0,1-.582,1.568l-1.722-.317-2.635.859s1.7.181,1.916,1.472-.645,1.317-.645,1.317a1.652,1.652,0,0,1,.538,2.557s1.491.992-.179,2.879c-1.131,1.277-9.281,5.436-9.281,5.436l-28.29,10.515Z" transform="translate(-51.875 -55.839)" fill="#ffc09d"/>
            <path id="Path_28336" data-name="Path 28336" d="M173.058,132.57c0-.011.192,0,.417.233a1.353,1.353,0,0,1,.272,1.263,3.717,3.717,0,0,1-1.1,1.574,13.409,13.409,0,0,1-1.8,1.484,24.018,24.018,0,0,1-3.692,2.038,10.155,10.155,0,0,1-1.616.654,12.356,12.356,0,0,1,1.534-.825,31.413,31.413,0,0,0,3.621-2.087,14.748,14.748,0,0,0,1.779-1.441,3.7,3.7,0,0,0,1.091-1.449,1.277,1.277,0,0,0-.169-1.143c-.176-.229-.349-.277-.337-.3" transform="translate(-80.275 -64.286)" fill="#ff9b6c"/>
            <path id="Path_28337" data-name="Path 28337" d="M173,116.333a6.961,6.961,0,0,1-2.626.711,6.961,6.961,0,0,1,2.626-.711" transform="translate(-82.619 -56.402)" fill="#ff9b6c"/>
            <path id="Path_28338" data-name="Path 28338" d="M178.445,120.462a13.775,13.775,0,0,1-3.638,1.209,13.775,13.775,0,0,1,3.638-1.209" transform="translate(-84.768 -58.409)" fill="#ff9b6c"/>
            <path id="Path_28339" data-name="Path 28339" d="M175.583,126.171c-.076-.008-.112-.232-.2-.481s-.192-.45-.137-.5.284.1.391.416.016.579-.055.568" transform="translate(-84.975 -60.702)" fill="#ff9b6c"/>
            <path id="Path_28340" data-name="Path 28340" d="M177.238,131.343c-.076-.017-.047-.383-.155-.8s-.294-.734-.235-.784.377.226.5.72-.039.891-.106.867" transform="translate(-85.753 -62.919)" fill="#ff9b6c"/>
            <path id="Path_28341" data-name="Path 28341" d="M49.321,86.72c-.851.518-8.088,5.457-7.032,13.553s17.074,26.4,20.418,26.755l12.849,2.112V114l-6.16-.352L61.3,97.809Z" transform="translate(-20.456 -42.053)" fill="#bc602d"/>
            <path id="Path_28342" data-name="Path 28342" d="M91.32,125.256a1.988,1.988,0,0,1-.46.045l-1.3.05-4.6.1-.064,0-.04-.054L81.6,121.026c-1.94-2.624-3.683-5.009-4.933-6.743L75.2,112.219a5.743,5.743,0,0,1-.507-.78,5.746,5.746,0,0,1,.6.713l1.543,2.008c1.292,1.7,3.061,4.069,5,6.693l3.228,4.394-.1-.052,4.6,0,1.3.022a2,2,0,0,1,.461.035" transform="translate(-36.22 -54.04)" fill="#263238"/>
            <path id="Path_28343" data-name="Path 28343" d="M86.807,85.528a2.431,2.431,0,0,1-.251-.458l-.635-1.327.137.014a16.459,16.459,0,0,0-1.24,2.137,19.121,19.121,0,0,1-1.611,2.836l-.1.144-.112-.138c-.831-1.025-1.783-2.118-2.808-3.235-2.244-2.44-4.386-4.548-5.916-6.093l-1.805-1.838a5.9,5.9,0,0,1-.633-.7,5.915,5.915,0,0,1,.712.624l1.87,1.772c1.567,1.509,3.734,3.6,5.985,6.044,1.028,1.12,1.979,2.223,2.805,3.261l-.215.006a20.012,20.012,0,0,0,1.629-2.781,14.976,14.976,0,0,1,1.312-2.127l.084-.112.053.126.567,1.358a2.423,2.423,0,0,1,.175.493" transform="translate(-34.832 -37.273)" fill="#263238"/>
            <path id="Path_28344" data-name="Path 28344" d="M115.236,85.35a2.664,2.664,0,0,1,.388.761,20.425,20.425,0,0,1,.673,2.13l.174.624-.4-.515a17.264,17.264,0,0,0-1.889-1.991c-.594-.549-1.18-1.054-1.709-1.515l.218-.084a23.342,23.342,0,0,0-.081,2.542,2.85,2.85,0,0,1-.124.994c-.032,0-.005-.368-.037-.992a16.153,16.153,0,0,1-.022-2.578l.026-.244.192.16c.54.45,1.133.951,1.733,1.506a15,15,0,0,1,1.9,2.05l-.225.11c-.224-.894-.4-1.636-.568-2.146a5.3,5.3,0,0,1-.247-.812" transform="translate(-54.495 -40.968)" fill="#263238"/>
            <path id="Path_28345" data-name="Path 28345" d="M144.067,117.252a4.553,4.553,0,0,1-.61-.563l-1.583-1.609c-.662-.7-1.454-1.475-2.317-2.438-.4-.506-.745-1.063-1.159-1.606a10.759,10.759,0,0,1-1.07-1.863c-.615-1.332-1.075-2.644-1.494-3.834s-.781-2.265-1.12-3.153-.641-1.6-.88-2.07a6.254,6.254,0,0,1-.368-.742c.008-.005.055.053.135.168a5.479,5.479,0,0,1,.332.521,17.42,17.42,0,0,1,.972,2.047c.366.884.753,1.954,1.181,3.139s.9,2.488,1.505,3.8a10.782,10.782,0,0,0,1.035,1.817c.415.551.766,1.12,1.142,1.611.808.922,1.619,1.756,2.253,2.458l1.519,1.675a4.575,4.575,0,0,1,.528.641" transform="translate(-64.72 -48.189)" fill="#263238"/>
            <path id="Path_28346" data-name="Path 28346" d="M155.643,149.394l48.582-1.366a5.373,5.373,0,0,1,2.244.417,14.181,14.181,0,0,1,7.122,7.31c3.16,6.717,17.888,35.01,17.888,35.01l-14.9,7.634-18.269-33.889-56.305-4.782.651-4.5Z" transform="translate(-68.864 -71.782)" fill="#233067"/>
            <path id="Path_28347" data-name="Path 28347" d="M278.2,228.561l7.764,13.323.517,3.368a3.775,3.775,0,0,0,4.3,3.158l23.626-3.626a1.845,1.845,0,0,0,1.46-2.526,1.61,1.61,0,0,0-1.126-.916c-1.976-.5-17.222-6.1-17.222-6.1l-6.359-12.734Z" transform="translate(-134.908 -107.9)" fill="#bc602d"/>
            <path id="Path_28348" data-name="Path 28348" d="M287.748,236.061a28.5,28.5,0,0,1-3.272-4.44,28.411,28.411,0,0,1,3.272,4.44" transform="translate(-137.949 -112.319)" fill="#263238"/>
            <path id="Path_28349" data-name="Path 28349" d="M297.211,232.133a13.847,13.847,0,0,1-2.778-4.771c.071-.031.614,1.078,1.381,2.39s1.46,2.334,1.4,2.381" transform="translate(-142.776 -110.254)" fill="#263238"/>
            <path id="Path_28350" data-name="Path 28350" d="M300.119,267.209c-.05.013-.176-.462-.53-1.154a6.856,6.856,0,0,0-4.6-3.61c-.757-.179-1.248-.189-1.247-.24a2.963,2.963,0,0,1,1.291.023,6.32,6.32,0,0,1,4.756,3.733,2.97,2.97,0,0,1,.329,1.249" transform="translate(-142.444 -127.126)" fill="#263238"/>
            <path id="Path_28351" data-name="Path 28351" d="M336.568,262.071a2.009,2.009,0,0,1-.376-.883,4.09,4.09,0,0,1,.114-2.32,5.669,5.669,0,0,1,1.23-1.966c.409-.428.706-.642.732-.614s-.208.3-.564.758a6.967,6.967,0,0,0-1.1,1.924,4.543,4.543,0,0,0-.193,2.175,5.375,5.375,0,0,1,.158.926" transform="translate(-162.972 -124.28)" fill="#263238"/>
            <path id="Path_28352" data-name="Path 28352" d="M128.556,159s50.136-5.024,52.571-4.823c4.5.371,12.788,7.462,27.5,17.339a135.374,135.374,0,0,1,21.11,17.744l-4.7,10.736s-32.973-12.018-38.143-16.339c-4.3-3.591-12.133-8.7-12.133-8.7l-19.339.195-14.372,1.268a21.131,21.131,0,0,1-18.635-8.2l-5.58-7.287Z" transform="translate(-56.657 -74.76)" fill="#233067"/>
            <path id="Path_28353" data-name="Path 28353" d="M200.944,174.351s.081.047.234.151l.675.465,2.6,1.826c2.259,1.613,5.579,3.929,9.646,7.008.255.189.5.412.774.579l.83.518c.6.3,1.194.625,1.825.922l1.94.9,2.039.9c2.782,1.2,5.794,2.464,9.007,3.768,6.425,2.611,13.638,5.451,21.422,8.441l-.174.077,4.263-10.8.031.153-5.851-5.967.008.008c-1.372-1.19-2.846-2.456-4.353-3.706a306.683,306.683,0,0,0-28.1-20.615l-.007,0-.009-.007a27.4,27.4,0,0,0-4.256-2.993A20.915,20.915,0,0,0,208.942,154c-.389-.106-.781-.19-1.167-.285l-1.171-.18-1.167-.062-1.164,0-4.5-.006-15.14-.03-9.825-.037-2.6-.021-.67-.01c-.15,0-.227-.011-.227-.011s.077-.007.227-.01l.67-.011,2.6-.021,9.825-.037,15.139-.03,4.5-.006h1.164l1.19.06,1.193.18c.393.1.792.18,1.187.287a21.1,21.1,0,0,1,4.607,1.988,27.581,27.581,0,0,1,4.3,3.017l-.015-.012a302.705,302.705,0,0,1,28.14,20.612c1.509,1.251,2.984,2.519,4.358,3.711l0,0,0,0,5.848,5.969.065.067-.034.088-4.272,10.8-.049.125-.124-.048c-7.783-3-14.992-5.853-21.413-8.481-3.211-1.312-6.22-2.582-9-3.8l-2.039-.909-1.941-.911c-.632-.3-1.234-.631-1.831-.934l-.848-.535c-.281-.175-.517-.394-.772-.584-4.047-3.094-7.354-5.434-9.6-7.07l-2.576-1.863-.662-.484c-.148-.11-.22-.17-.22-.17" transform="translate(-83.073 -74.312)" fill="#455a64"/>
            <path id="Path_28354" data-name="Path 28354" d="M306.23,223.775l13.893,5.466,2.314,2.5a3.774,3.774,0,0,0,5.334.208l17.546-16.232a1.845,1.845,0,0,0-.205-2.91,1.608,1.608,0,0,0-1.445-.128c-1.92.689-17.686,4.587-17.686,4.587l-10.562-8.424Z" transform="translate(-148.499 -101.274)" fill="#bc602d"/>
            <path id="Path_28355" data-name="Path 28355" d="M306.23,223.634s.046-.087.149-.261l.465-.775,1.808-2.986,6.68-10.964.059-.1.09.071,10.575,8.406-.106-.024,9.4-2.369,4.973-1.291c.84-.225,1.687-.45,2.532-.7.213-.059.42-.126.628-.193a2.621,2.621,0,0,1,.68-.16,1.748,1.748,0,0,1,1.317.491,1.987,1.987,0,0,1,.186,2.589,3.2,3.2,0,0,1-.47.491l-.479.443-.953.881-3.74,3.457-7.072,6.532-3.293,3.039-1.578,1.455a5.394,5.394,0,0,1-.832.669,3.887,3.887,0,0,1-4.724-.508c-.882-.923-1.685-1.82-2.475-2.671l.035.024-10.177-4.061-2.743-1.1-.706-.288c-.158-.065-.232-.1-.232-.1s.092.03.258.092l.73.277,2.782,1.07,10.157,3.939.02.008.015.016c.79.842,1.61,1.748,2.479,2.65a3.669,3.669,0,0,0,4.462.465,5.183,5.183,0,0,0,.8-.645l1.574-1.46L332.788,227l7.061-6.543L343.587,217l.952-.882a9.789,9.789,0,0,0,.914-.895,1.72,1.72,0,0,0-.153-2.237,1.484,1.484,0,0,0-1.116-.419,2.34,2.34,0,0,0-.61.146c-.214.069-.427.138-.64.2-.85.249-1.7.472-2.539.7l-4.976,1.288-9.409,2.354-.059.015-.047-.038-10.548-8.442.149-.026-6.74,10.847-1.864,2.981-.492.781c-.113.177-.178.27-.178.27" transform="translate(-148.499 -101.133)" fill="#263238"/>
            <path id="Path_28356" data-name="Path 28356" d="M342.862,249.324c-.034.039-.4-.284-1.085-.66a6.856,6.856,0,0,0-5.832-.416c-.727.275-1.14.542-1.168.5a2.967,2.967,0,0,1,1.083-.7,6.318,6.318,0,0,1,6.031.43,2.97,2.97,0,0,1,.971.851" transform="translate(-162.342 -120.007)" fill="#263238"/>
            <path id="Path_28357" data-name="Path 28357" d="M371.547,224.666a2.005,2.005,0,0,1-.806-.521,4.089,4.089,0,0,1-1.2-1.986,5.663,5.663,0,0,1-.081-2.317,2.37,2.37,0,0,1,.263-.919,3.788,3.788,0,0,1-.043.944,6.974,6.974,0,0,0,.164,2.211,4.541,4.541,0,0,0,1.057,1.91c.389.418.68.636.649.679" transform="translate(-179.119 -106.162)" fill="#263238"/>
            <path id="Path_28358" data-name="Path 28358" d="M117.055,169.284c-1.075-5.1-3.275-10.324-7.626-13.2-3.3-2.18-7.387-2.719-11.314-3.2l-82.151-10.1c-.735,12.947,4.8,29.059,10.458,40.73A11.325,11.325,0,0,0,30,188.284c2.048,1.35,4.673,1.338,7.124,1.275,27.634-.7,55.281-1.878,82.758-4.9-1.546-4.98-1.748-10.269-2.823-15.371" transform="translate(-7.71 -69.239)" fill="#455a64"/>
            <path id="Path_28359" data-name="Path 28359" d="M51.736,146.714a6.121,6.121,0,0,1-.968-.062l-2.625-.283c-2.215-.255-5.271-.634-8.641-1.1s-6.416-.931-8.613-1.316c-1.1-.195-1.986-.357-2.6-.491a6.1,6.1,0,0,1-.942-.231,6.2,6.2,0,0,1,.962.121l2.608.4c2.2.332,5.251.766,8.62,1.231l8.627,1.183,2.613.374a6.237,6.237,0,0,1,.954.174" transform="translate(-13.264 -69.454)" fill="#263238"/>
            <path id="Path_28360" data-name="Path 28360" d="M67.12,217.558a.822.822,0,0,1-.086-.158l-.225-.474-.836-1.837-.6-1.331c-.208-.491-.41-1.035-.64-1.614-.445-1.164-1-2.471-1.471-3.968l-.783-2.334c-.268-.813-.487-1.678-.746-2.562-.54-1.765-.959-3.692-1.433-5.711a93.924,93.924,0,0,1-1.859-26.842c.192-2.066.341-4.032.633-5.855.135-.912.232-1.8.386-2.641s.309-1.649.453-2.42c.26-1.548.631-2.919.911-4.132.147-.605.272-1.171.411-1.686s.286-.978.41-1.4c.246-.826.439-1.474.575-1.935.065-.208.116-.373.157-.5a.765.765,0,0,1,.063-.167.857.857,0,0,1-.035.176c-.033.13-.076.3-.129.509-.125.464-.3,1.117-.523,1.948q-.174.636-.385,1.406c-.13.516-.247,1.083-.387,1.689-.264,1.215-.622,2.587-.867,4.133q-.207,1.156-.434,2.418c-.147.841-.24,1.726-.368,2.637-.281,1.82-.421,3.782-.6,5.842a95.886,95.886,0,0,0,1.854,26.767c.466,2.015.874,3.939,1.4,5.7.254.884.466,1.748.728,2.561l.764,2.334c.457,1.5,1,2.808,1.428,3.974.222.581.416,1.126.617,1.62l.574,1.339.786,1.858c.082.2.147.362.2.486a.915.915,0,0,1,.059.17" transform="translate(-28.224 -72.734)" fill="#263238"/>
            <path id="Path_28361" data-name="Path 28361" d="M67.753,230.173a18.179,18.179,0,0,1-3.233-.005,18.115,18.115,0,0,1-3.22-.3,18.158,18.158,0,0,1,3.234.006,18.163,18.163,0,0,1,3.22.295" transform="translate(-29.726 -111.444)" fill="#263238"/>
            <path id="Path_28362" data-name="Path 28362" d="M66.436,235.386a10.161,10.161,0,0,1-3.317-.867,10.173,10.173,0,0,1-2.986-1.684c.046-.074,1.355.717,3.1,1.416s3.227,1.05,3.208,1.135" transform="translate(-29.16 -112.905)" fill="#263238"/>
            <path id="Path_28363" data-name="Path 28363" d="M54.3,187.718a4.31,4.31,0,0,1-2.139.652,4.314,4.314,0,0,1-2.224-.232c.015-.085,1,.064,2.2-.057s2.135-.444,2.166-.363" transform="translate(-24.215 -91.024)" fill="#263238"/>
            <path id="Path_28364" data-name="Path 28364" d="M57.622,183.642a4.37,4.37,0,0,1-4.21-1.784,12.491,12.491,0,0,0,1.966,1.22,12.491,12.491,0,0,0,2.244.564" transform="translate(-25.899 -88.187)" fill="#263238"/>
            <path id="Path_28365" data-name="Path 28365" d="M102.2,11.78a3.592,3.592,0,0,0-2.459-2.189,6.161,6.161,0,0,0-3.377.127L85.693,12.161a18.321,18.321,0,0,0,6.547,2.192c2.663.283,4.538.308,6.127-.606a2,2,0,0,0,2.8,1.019A2.559,2.559,0,0,0,102.2,11.78" transform="translate(-41.555 -4.563)" fill="#263238"/>
            <path id="Path_28366" data-name="Path 28366" d="M318.912,229.169a21.442,21.442,0,0,1-6.2-2.33c.033-.07,1.395.515,3.1,1.155s3.117,1.1,3.1,1.175" transform="translate(-151.642 -109.998)" fill="#263238"/>
            <path id="Path_28367" data-name="Path 28367" d="M324.184,220.032a202.575,202.575,0,0,1-5.454-2.622,18.728,18.728,0,0,1,5.454,2.622" transform="translate(-154.561 -105.425)" fill="#263238"/>
            <path id="Path_28368" data-name="Path 28368" d="M163.16,129.682l21.518.263,25.978-5.148a2.03,2.03,0,0,0,1.613-1.688L215.8,99.716a1.722,1.722,0,0,0-1.979-1.957l-26.556,4.32a1.722,1.722,0,0,0-1.432,1.487l-2.963,23.79-19.675-.095a1.211,1.211,0,0,0-.035,2.421" transform="translate(-78.548 -47.395)" fill="#e0e0e0"/>
            <path id="Path_28369" data-name="Path 28369" d="M163.134,129.557a.9.9,0,0,1-.408-.067,1.224,1.224,0,0,1-.776-.893,1.243,1.243,0,0,1,1.035-1.486c.79-.03,1.683-.009,2.7-.014l17.161.039-.1.084,2.96-23.943a1.851,1.851,0,0,1,1.134-1.341,4.469,4.469,0,0,1,.866-.184l.855-.14,3.466-.566,7.145-1.166,7.4-1.205,3.782-.616,1.91-.311.959-.156a4.722,4.722,0,0,1,1-.108,1.87,1.87,0,0,1,1.62,1.294,2.149,2.149,0,0,1,.03,1.064l-.151,1-.6,3.968q-.6,3.939-1.172,7.751t-1.131,7.469q-.138.914-.276,1.818-.068.452-.136.9a2.653,2.653,0,0,1-.249.908,2.15,2.15,0,0,1-1.459,1.128l-1.742.346-24.285,4.781-.01,0h-.01l-15.771-.235-4.264-.077-1.106-.026c-.249-.008-.376-.018-.376-.018s.128-.007.377-.009h1.106l4.264.028,15.772.151-.019,0,24.273-4.841,1.736-.347a1.9,1.9,0,0,0,1.289-1,2.4,2.4,0,0,0,.223-.831q.067-.45.135-.9l.274-1.818,1.124-7.47q.574-3.809,1.168-7.752l.6-3.969.151-1a1.869,1.869,0,0,0-.021-.944A1.6,1.6,0,0,0,214.2,97.75a4.575,4.575,0,0,0-.934.106l-.96.156-1.909.311-3.782.614-7.4,1.2L192.07,101.3l-3.467.562-.855.139a4.328,4.328,0,0,0-.815.169,1.6,1.6,0,0,0-.982,1.159l-3.012,23.916-.011.085h-.086l-17.161-.126c-1.01,0-1.92-.031-2.686-.011a1.173,1.173,0,0,0-.844.556,1.186,1.186,0,0,0,.584,1.717,1.617,1.617,0,0,0,.4.094" transform="translate(-78.521 -47.27)" fill="#263238"/>
            <path id="Path_28370" data-name="Path 28370" d="M209.494,107.614c.074.009-.639,6.221-1.592,13.873s-1.785,13.85-1.858,13.841.639-6.22,1.592-13.874,1.784-13.849,1.858-13.84" transform="translate(-99.914 -52.185)" fill="#263238"/>
            <path id="Path_28371" data-name="Path 28371" d="M234.912,125.05a1.864,1.864,0,1,0,2.621-1.255,2.079,2.079,0,0,0-2.621,1.255" transform="translate(-113.784 -59.961)" fill="#fff"/>
          </g>
        </g>
        <g id="Group_31322" data-name="Group 31322">
          <g id="Group_31321" data-name="Group 31321" clip-path="url(#clip-path-2)">
            <path id="Path_28372" data-name="Path 28372" d="M205.073,29.3H155.524a2.577,2.577,0,0,0-2.577,2.577V54.451a2.578,2.578,0,0,0,2.577,2.577h20.786l4.415,5.662,3.68-5.662h20.668a2.578,2.578,0,0,0,2.577-2.577V31.878a2.578,2.578,0,0,0-2.577-2.577" transform="translate(-74.168 -14.209)" fill="#fff"/>
            <path id="Path_28373" data-name="Path 28373" d="M204.947,29.185s.082,0,.245,0a2.508,2.508,0,0,1,.705.159,2.544,2.544,0,0,1,.977.663,2.6,2.6,0,0,1,.674,1.469c.045,2.457.033,6.033.052,10.561,0,2.264.01,4.763.015,7.475q0,2.035.007,4.226a6.1,6.1,0,0,1-.05,1.121,2.684,2.684,0,0,1-2.5,2.15l-20.787.026.1-.056-3.676,5.664-.1.15-.11-.142-4.417-5.66.1.05-17.864,0h-2.146c-.361-.007-.7.015-1.082-.019a2.7,2.7,0,0,1-1.055-.35,2.725,2.725,0,0,1-1.282-1.746,4.741,4.741,0,0,1-.067-1.079V52.8q0-4.192,0-8.256t0-7.968q0-1.952,0-3.863,0-.477,0-.952a2.71,2.71,0,0,1,1.466-2.4,2.624,2.624,0,0,1,.927-.282c.329-.03.628-.014.937-.018h1.83l3.585,0,6.855.007,12.3.016,17.815.043,4.844.025,1.26.013c.284,0,.429.014.429.014s-.145.009-.429.014l-1.26.013-4.844.025L180.6,29.28l-12.3.016-6.855.007-3.585,0h-1.83c-.3,0-.623-.01-.909.018a2.391,2.391,0,0,0-.842.257,2.466,2.466,0,0,0-1.329,2.182q0,.475,0,.952,0,1.91,0,3.863,0,3.906,0,7.968t0,8.256v1.05a4.525,4.525,0,0,0,.062,1.02,2.455,2.455,0,0,0,1.156,1.573,2.426,2.426,0,0,0,.95.316c.327.03.7.011,1.052.016h2.146l17.864,0h.064l.04.05L180.7,62.5l-.208.009,3.683-5.659.037-.057h.067l20.778.014a2.482,2.482,0,0,0,2.319-1.981,5.959,5.959,0,0,0,.05-1.082q0-2.19.007-4.226c.006-2.712.011-5.211.015-7.475,0-4.524.038-8.112.02-10.552a2.568,2.568,0,0,0-1.587-2.1,2.963,2.963,0,0,0-.935-.2" transform="translate(-74.042 -14.093)" fill="#263238"/>
            <path id="Path_28374" data-name="Path 28374" d="M175.255,43.719h-4.928a.662.662,0,0,1-.662-.662V39.54a.662.662,0,0,1,.662-.662h4.928a.662.662,0,0,1,.662.662v3.517a.662.662,0,0,1-.662.662" transform="translate(-82.275 -18.853)" fill="#bc602d"/>
            <path id="Path_28375" data-name="Path 28375" d="M169.847,39.022l2.379,2.54a.969.969,0,0,0,.511.353.75.75,0,0,0,.7-.266c.429-.444.845-.9,1.268-1.351l1.2-1.276c.057-.06-.035-.151-.091-.091l-2.273,2.42a2.114,2.114,0,0,1-.362.359c-.339.216-.631,0-.858-.24L171.033,40.1l-1.095-1.169c-.057-.061-.148.031-.091.091" transform="translate(-82.355 -18.869)" fill="#fff"/>
            <path id="Path_28376" data-name="Path 28376" d="M169.713,45.778l1.91-2.171.27-.307c.055-.062-.036-.153-.091-.091l-1.91,2.171-.27.307c-.055.062.036.153.091.091" transform="translate(-82.246 -20.943)" fill="#fff"/>
            <path id="Path_28377" data-name="Path 28377" d="M179.588,45.545l-1.788-2.08-.259-.3c-.054-.063-.145.028-.091.091l1.788,2.08.258.3c.054.063.145-.028.092-.091" transform="translate(-86.043 -20.921)" fill="#fff"/>
            <path id="Path_28378" data-name="Path 28378" d="M188.471,44.261l0-1.6-.787,1.322H187.4l-.783-1.287v1.57h-.58V41.588h.512l1,1.662.985-1.662h.508l.008,2.674Z" transform="translate(-90.215 -20.167)" fill="#263238"/>
            <path id="Path_28379" data-name="Path 28379" d="M194.892,43.955h-1.554a.548.548,0,0,0,.588.413.7.7,0,0,0,.516-.2l.317.344a1.2,1.2,0,0,1-2.02-.725,1.046,1.046,0,0,1,1.1-1.058,1.018,1.018,0,0,1,1.069,1.066c0,.046-.007.111-.011.161m-1.562-.348h1.012a.513.513,0,0,0-1.012,0" transform="translate(-93.464 -20.72)" fill="#263238"/>
            <path id="Path_28380" data-name="Path 28380" d="M197.325,44.624l.2-.428a1.408,1.408,0,0,0,.714.2c.275,0,.378-.073.378-.187,0-.336-1.241.008-1.241-.813,0-.39.351-.664.951-.664a1.692,1.692,0,0,1,.791.179l-.2.424a1.182,1.182,0,0,0-.592-.152c-.267,0-.382.084-.382.191,0,.351,1.241.012,1.241.822,0,.382-.355.653-.97.653a1.763,1.763,0,0,1-.89-.221" transform="translate(-95.688 -20.721)" fill="#263238"/>
            <path id="Path_28381" data-name="Path 28381" d="M201.261,44.624l.2-.428a1.409,1.409,0,0,0,.715.2c.275,0,.378-.073.378-.187,0-.336-1.241.008-1.241-.813,0-.39.351-.664.951-.664a1.692,1.692,0,0,1,.791.179l-.2.424a1.182,1.182,0,0,0-.592-.152c-.267,0-.382.084-.382.191,0,.351,1.241.012,1.241.822,0,.382-.355.653-.97.653a1.763,1.763,0,0,1-.89-.221" transform="translate(-97.597 -20.721)" fill="#263238"/>
            <path id="Path_28382" data-name="Path 28382" d="M207.275,43.643v1.173h-.558V44.56a.673.673,0,0,1-.626.286c-.481,0-.767-.267-.767-.623s.255-.615.882-.615h.473c0-.256-.152-.4-.473-.4a.989.989,0,0,0-.592.191l-.214-.416a1.578,1.578,0,0,1,.886-.248c.627,0,.989.29.989.913m-.6.523v-.21h-.408c-.279,0-.367.1-.367.241s.126.248.336.248a.439.439,0,0,0,.439-.279" transform="translate(-99.567 -20.721)" fill="#263238"/>
            <path id="Path_28383" data-name="Path 28383" d="M212.175,42.759v1.712a1.006,1.006,0,0,1-1.154,1.115,1.692,1.692,0,0,1-1.009-.283l.237-.428a1.232,1.232,0,0,0,.726.233c.42,0,.6-.191.6-.561V44.46a.847.847,0,0,1-.65.255.994.994,0,1,1,0-1.986.825.825,0,0,1,.68.294v-.264Zm-.588.963a.542.542,0,1,0-.539.5.5.5,0,0,0,.539-.5" transform="translate(-101.788 -20.72)" fill="#263238"/>
            <path id="Path_28384" data-name="Path 28384" d="M217.245,43.955h-1.554a.548.548,0,0,0,.588.413.7.7,0,0,0,.516-.2l.317.344a1.2,1.2,0,0,1-2.021-.725,1.046,1.046,0,0,1,1.1-1.058,1.018,1.018,0,0,1,1.069,1.066c0,.046-.007.111-.011.161m-1.562-.348h1.012a.513.513,0,0,0-1.012,0" transform="translate(-104.304 -20.72)" fill="#263238"/>
            <path id="Path_28385" data-name="Path 28385" d="M219.678,44.624l.2-.428a1.4,1.4,0,0,0,.714.2c.275,0,.378-.073.378-.187,0-.336-1.241.008-1.241-.813,0-.39.351-.664.951-.664a1.692,1.692,0,0,1,.791.179l-.2.424a1.182,1.182,0,0,0-.592-.152c-.267,0-.382.084-.382.191,0,.351,1.241.012,1.241.822,0,.382-.355.653-.97.653a1.763,1.763,0,0,1-.89-.221" transform="translate(-106.528 -20.721)" fill="#263238"/>
            <path id="Path_28386" data-name="Path 28386" d="M225.852,42.881a1.465,1.465,0,1,1,1.463,1.382,1.384,1.384,0,0,1-1.463-1.382m2.3,0a.837.837,0,1,0-.836.856.816.816,0,0,0,.836-.856" transform="translate(-109.522 -20.124)" fill="#263238"/>
            <path id="Path_28387" data-name="Path 28387" d="M232.63,42.092h-.856v-.5h2.33v.5h-.856v2.169h-.619Z" transform="translate(-112.394 -20.167)" fill="#263238"/>
            <path id="Path_28388" data-name="Path 28388" d="M239.258,42.558c0,.6-.447.966-1.161.966h-.538v.738h-.619V41.588H238.1c.714,0,1.161.37,1.161.97m-.626,0c0-.294-.191-.466-.569-.466h-.5v.928h.5c.378,0,.569-.172.569-.463" transform="translate(-114.899 -20.167)" fill="#263238"/>
            <path id="Path_28389" data-name="Path 28389" d="M168.976,58.236c0-2.523,1.4-3.955,3.277-3.955s3.278,1.431,3.278,3.955-1.388,3.955-3.278,3.955-3.277-1.432-3.277-3.955m4.774,0c0-1.737-.611-2.458-1.5-2.458s-1.485.721-1.485,2.458.612,2.458,1.485,2.458,1.5-.721,1.5-2.458" transform="translate(-81.941 -26.322)" fill="#263238"/>
            <path id="Path_28390" data-name="Path 28390" d="M189.74,59.841c0,1.442-1.289,2.349-3.233,2.349s-3.212-.907-3.212-2.349a1.946,1.946,0,0,1,1.158-1.8,1.765,1.765,0,0,1-.885-1.573c0-1.344,1.2-2.185,2.939-2.185,1.758,0,2.961.842,2.961,2.185a1.775,1.775,0,0,1-.9,1.573,1.939,1.939,0,0,1,1.169,1.8m-1.791-.055c0-.677-.557-1.092-1.442-1.092s-1.421.415-1.421,1.092.546,1.1,1.421,1.1,1.442-.426,1.442-1.1m-2.622-3.245c0,.579.459.939,1.18.939s1.2-.361,1.2-.939c0-.6-.481-.961-1.2-.961s-1.18.361-1.18.961" transform="translate(-88.885 -26.322)" fill="#263238"/>
            <path id="Path_28391" data-name="Path 28391" d="M203.742,59.841c0,1.442-1.289,2.349-3.234,2.349s-3.211-.907-3.211-2.349a1.946,1.946,0,0,1,1.158-1.8,1.765,1.765,0,0,1-.885-1.573c0-1.344,1.2-2.185,2.938-2.185,1.759,0,2.961.842,2.961,2.185a1.775,1.775,0,0,1-.9,1.573,1.939,1.939,0,0,1,1.169,1.8m-1.791-.055c0-.677-.557-1.092-1.442-1.092s-1.42.415-1.42,1.092.547,1.1,1.42,1.1,1.442-.426,1.442-1.1m-2.622-3.245c0,.579.459.939,1.18.939s1.2-.361,1.2-.939c0-.6-.481-.961-1.2-.961s-1.18.361-1.18.961" transform="translate(-95.675 -26.322)" fill="#263238"/>
            <path id="Path_28392" data-name="Path 28392" d="M214,54.535v7.647h-1.77V55.955h-1.529v-1.42Z" transform="translate(-102.177 -26.446)" fill="#263238"/>
            <path id="Path_28393" data-name="Path 28393" d="M225.022,60.617V62.06h-5.779V60.913l2.95-2.787c.677-.644.8-1.037.8-1.409,0-.6-.415-.951-1.223-.951a1.87,1.87,0,0,0-1.584.765l-1.289-.83a3.553,3.553,0,0,1,3.037-1.42c1.7,0,2.841.874,2.841,2.261a3.052,3.052,0,0,1-1.278,2.415l-1.759,1.661Z" transform="translate(-106.147 -26.322)" fill="#263238"/>
            <path id="Path_28394" data-name="Path 28394" d="M237.453,59.844c0,1.289-.994,2.469-3.168,2.469a5.257,5.257,0,0,1-2.917-.819l.688-1.355a3.716,3.716,0,0,0,2.185.688c.884,0,1.431-.361,1.431-.983,0-.579-.426-.939-1.431-.939h-.809V57.736l1.573-1.781h-3.255v-1.42H237.1v1.147l-1.726,1.966a2.173,2.173,0,0,1,2.076,2.2" transform="translate(-112.197 -26.446)" fill="#263238"/>
          </g>
        </g>
      </g>
    </g>
  </g>
</svg>
