<svg xmlns="http://www.w3.org/2000/svg" width="64" height="64" viewBox="0 0 64 64">
  <g id="paperless_management" data-name="paperless management" transform="translate(12284 22998)">
    <rect id="Rectangle_144579" data-name="Rectangle 144579" width="64" height="64" transform="translate(-12284 -22998)" fill="none"/>
    <g id="Group_71076" data-name="Group 71076" transform="translate(-2.048 -3.789)">
      <path id="Path_29078" data-name="Path 29078" d="M44.908,7.96a1.626,1.626,0,0,0-1.052-.667l-9.92-1.727V2.626A1.626,1.626,0,0,0,32.31,1H4.663A1.626,1.626,0,0,0,3.037,2.626V42.469A1.626,1.626,0,0,0,4.663,44.1H9.077a1.679,1.679,0,0,0,.293.114L36.606,48.95a1.607,1.607,0,0,0,.278.024,1.626,1.626,0,0,0,1.6-1.348L45.18,9.175a1.626,1.626,0,0,0-.272-1.215ZM6.285,4.253H30.678V34.338H24.987a1.626,1.626,0,0,0-1.626,1.626v4.879H6.285ZM30.678,37.591v3.253H26.613V37.591Zm4.879,7.876L27.684,44.1H32.3a1.626,1.626,0,0,0,1.626-1.626V8.868L41.7,10.219ZM8.724,9.944A1.626,1.626,0,0,1,10.35,8.318H26.613a1.626,1.626,0,1,1,0,3.253H10.35A1.626,1.626,0,0,1,8.724,9.944Zm0,8.131a1.626,1.626,0,0,1,1.626-1.626H26.613a1.626,1.626,0,1,1,0,3.253H10.35a1.626,1.626,0,0,1-1.626-1.626Zm1.626,9.758a1.626,1.626,0,1,1,0-3.253H26.613a1.626,1.626,0,1,1,0,3.253Z" transform="translate(-12274.121 -22988.711)" fill="#152c69"/>
      <g id="Group_71074" data-name="Group 71074" transform="translate(-12256.628 -22963.725)">
        <circle id="Ellipse_87" data-name="Ellipse 87" cx="14.362" cy="14.362" r="14.362" transform="translate(0)" fill="#d66025"/>
        <path id="noun-cross-98958" d="M71.123,60A11.123,11.123,0,1,0,82.246,71.123,11.123,11.123,0,0,0,71.123,60Zm5.243,14.619-1.748,1.748-3.5-3.5-3.5,3.5L65.88,74.619l3.5-3.5-3.5-3.5,1.748-1.748,3.5,3.5,3.5-3.5,1.748,1.748-3.5,3.5Z" transform="translate(-56.617 -56.617)" fill="#fff"/>
      </g>
    </g>
  </g>
</svg>
