<svg xmlns="http://www.w3.org/2000/svg" width="30" height="31.435" viewBox="0 0 30 31.435">
  <g id="Group_31582" data-name="Group 31582" transform="translate(0 -0.001)">
    <g id="Group_31543" data-name="Group 31543">
      <g id="Group_31542" data-name="Group 31542">
        <path id="Path_28732" data-name="Path 28732" d="M2.908.05a1.3,1.3,0,0,0-.347.277L2.353.543l-.02,1.949c-.021,2.116-.008,2.219.347,2.518l.207.174H8.727c5.827,0,5.847,0,6.035-.146.375-.292.388-.381.388-2.421S15.144.536,14.769.189L14.582.016,8.818,0C5.641,0,2.984.016,2.908.05" transform="translate(0.283)" fill="#d66025"/>
        <path id="Path_28733" data-name="Path 28733" d="M3.5,5.8v.617L3.212,6.5A4.489,4.489,0,0,0,.222,8.64L0,9.1V23.872l.181.381a3.858,3.858,0,0,0,3,1.866c.333.048,2.053.076,4.481.076h3.94l-.007-.68a3.8,3.8,0,0,1,.478-1.964c.431-.819.819-1.124,3.524-2.8l2.47-1.526v-4.9c0-4.724-.007-4.918-.138-5.355A3.954,3.954,0,0,0,15.142,6.6l-.6-.187-.02-.6-.021-.6L9,5.193,3.5,5.178ZM14.421,12.33l.187.215-.021,3.676-.02,3.676-.194.166-.194.167H3.837l-.2-.2-.2-.2V12.545l.181-.215.181-.215H14.241Z" transform="translate(0 0.629)" fill="#d66025"/>
      </g>
    </g>
    <path id="Path_28734" data-name="Path 28734" d="M7.533,13.4c-.007.479-.013.908-.021.95-.007.07-.249.091-.943.1l-.936.007-.02.805-.021.8H7.54v1.942h1.6V16.075h1.942V14.48l-.361-.015c-.2-.007-.631-.013-.958-.013l-.589-.007-.021-.958-.02-.95H7.54Z" transform="translate(0.679 1.523)" fill="#152c69"/>
    <path id="Path_28735" data-name="Path 28735" d="M18.706,17.411c-.5.132-.458.111-3.655,2.088-1.637,1.013-2.976,1.893-3.157,2.074a3.343,3.343,0,0,0-.041,4.787,3.249,3.249,0,0,0,2.38,1c.513,0,1.13-.111,1.13-.2a3.12,3.12,0,0,0-.1-.368l-.111-.312-.361.1a2.474,2.474,0,0,1-2.129-.464,4.439,4.439,0,0,1-.978-1.492,2.74,2.74,0,0,1,.035-1.477c.236-.7.513-.951,2.226-2.019.867-.534,1.595-.964,1.623-.95s.326.478.659,1.026l.617,1,.472-.237c.825-.409,1.276-.451,3.509-.3,1.062.076,1.949.126,1.97.1a1.862,1.862,0,0,0,.139-.52,3.436,3.436,0,0,0-2.47-3.842,3.928,3.928,0,0,0-1.755.007" transform="translate(1.32 2.103)" fill="#152c69"/>
    <path id="Path_28736" data-name="Path 28736" d="M17.693,21.74a3.4,3.4,0,0,0-2.511,3.774,4.253,4.253,0,0,0,.284.958,4.087,4.087,0,0,0,1.3,1.449c.7.409.86.431,4.591.687,1.942.131,3.663.221,3.85.194a3.377,3.377,0,0,0,2.955-3.351,3.931,3.931,0,0,0-.1-.88,3.409,3.409,0,0,0-2.657-2.448c-.479-.084-6.492-.5-7.04-.486a3.205,3.205,0,0,0-.673.1m6.166,1.034c1.7.118,1.79.132,2.241.361a2.462,2.462,0,0,1,1.082,1.124,2.125,2.125,0,0,1,.179,1.151,2.184,2.184,0,0,1-.194,1.18,2.659,2.659,0,0,1-1.124,1.2A2.062,2.062,0,0,1,25.038,28a32.392,32.392,0,0,1-3.516-.214c-.035-.043.229-4.46.3-4.891.041-.27-.07-.264,2.039-.118" transform="translate(1.84 2.629)" fill="#152c69"/>
  </g>
</svg>
