<svg xmlns="http://www.w3.org/2000/svg" width="20.718" height="24" viewBox="0 0 20.718 24">
  <g id="noun-privacy-3427755" transform="translate(-126.563 -51.521)">
    <path id="Path_29000" data-name="Path 29000" d="M336.367,308.24a5.92,5.92,0,1,1,5.9-5.92A5.916,5.916,0,0,1,336.367,308.24Zm0-10.2a4.279,4.279,0,1,0,4.256,4.279A4.273,4.273,0,0,0,336.367,298.041Z" transform="translate(-199.445 -239.521)" fill="#d66025"/>
    <path id="Path_29001" data-name="Path 29001" d="M467.383,464.835l-1.48-1.727,1.246-1.068.9,1.047,2.551-2.609,1.173,1.147-3.177,3.25a.937.937,0,0,1-1.21-.04Z" transform="translate(-331.915 -400.008)" fill="#152c69"/>
    <path id="Path_29002" data-name="Path 29002" d="M136.128,75.326c-6.958-3.254-9.725-10.973-9.557-18.217a.82.82,0,0,1,.636-.779,4.1,4.1,0,0,0,3.484-3.987.828.828,0,0,1,.821-.823h10.825a.828.828,0,0,1,.821.822,4.026,4.026,0,0,0,3.433,3.977.82.82,0,0,1,.688.794c.129,7.151-3.019,14.594-9.518,18.144a1.565,1.565,0,0,1-1.632.068Zm.667-1.5a.2.2,0,0,0,.177-.008c2.042-1.115,8.6-5.524,8.669-16.037a5.683,5.683,0,0,1-4.077-4.624h-9.279a5.684,5.684,0,0,1-4.081,4.625c-.012,6.286,2.433,13.31,8.591,16.044h0Z" transform="translate(0)" fill="#152c69"/>
  </g>
</svg>
