<svg xmlns="http://www.w3.org/2000/svg" width="24" height="20.749" viewBox="0 0 24 20.749">
  <g id="Group_31147" data-name="Group 31147" transform="translate(-179.743 -191.943)">
    <g id="Group_31145" data-name="Group 31145" transform="translate(179.743 191.943)">
      <path id="Path_26878" data-name="Path 26878" d="M185.676,192.1c-.281.159-3.633,3.425-5.04,4.905l-.893.954.049.66a1.878,1.878,0,0,0,1.1,1.59,2.035,2.035,0,0,0,1.749-.061c.429-.257,4.832-4.563,4.832-4.71a2.25,2.25,0,0,1,.428-.574,1.233,1.233,0,0,0,.429-1.065,1.794,1.794,0,0,0-1.836-1.859A2.249,2.249,0,0,0,185.676,192.1Z" transform="translate(-179.743 -191.943)" fill="#152c69"/>
      <path id="Path_26879" data-name="Path 26879" d="M186.614,197.962c-.221.244-.612.672-.893.942a27.275,27.275,0,0,0-2.41,2.544,1.812,1.812,0,0,0,.5,2.031l.294.269.465-.244a1.27,1.27,0,0,1,1.382-.074,1.719,1.719,0,0,1,.992,1.407c0,.367.036.465.183.416.306-.122,1.016.2,1.407.636a1.191,1.191,0,0,1,.367.906c0,.489,0,.489.489.489a1.188,1.188,0,0,1,.9.366,1.792,1.792,0,0,1,.649,1.4c-.049.122.1.183.489.232a1.44,1.44,0,0,1,.978.478,1.411,1.411,0,0,1,.281,1.835l-.269.514.489.465a2.738,2.738,0,0,0,.82.538,1.338,1.338,0,0,0,1.48-1.468c-.11-.428-.991-1.456-2.752-3.18a13.269,13.269,0,0,1-1.419-1.517,21.88,21.88,0,0,1,2.116,1.957c2.165,2.141,2.532,2.386,3.242,2.141a1.222,1.222,0,0,0,.624-1.8c-.11-.171-1.088-1.2-2.165-2.287a15.116,15.116,0,0,1-1.884-2.08,16.955,16.955,0,0,1,2.141,1.945c1.125,1.113,2.165,2.092,2.312,2.165a1.193,1.193,0,0,0,1.75-1.064c0-.624-.392-1.114-2.557-3.266a17.747,17.747,0,0,1-1.6-1.7,25.591,25.591,0,0,1,2.117,1.982c1.773,1.737,2.2,2.1,2.58,2.177a1.217,1.217,0,0,0,.771-.085,1.755,1.755,0,0,0,.771-1.089c0-.44-.6-1.137-3.51-4.086l-3.1-3.131h-4.245l-.318.649a3.724,3.724,0,0,0-.331.77,6.935,6.935,0,0,1-.893,1.982,1.687,1.687,0,0,1-2.752-.221c-.391-.563-.318-1.235.245-2.446C187.213,197.619,187.286,197.178,186.614,197.962Z" transform="translate(-180.069 -192.481)" fill="#152c69"/>
    </g>
    <g id="Group_31146" data-name="Group 31146" transform="translate(182.675 191.949)">
      <path id="Path_26880" data-name="Path 26880" d="M197.686,192.189a1.909,1.909,0,0,0-.66,2.507,70.893,70.893,0,0,0,5.418,5.432,2.053,2.053,0,0,0,1.811.085,3.531,3.531,0,0,0,.734-.623,1.261,1.261,0,0,0,.379-1.052c0-.587-.037-.636-.881-1.553-1.357-1.431-4.771-4.746-5.076-4.905A2.185,2.185,0,0,0,197.686,192.189Z" transform="translate(-184.3 -191.95)" fill="#d66025"/>
      <path id="Path_26881" data-name="Path 26881" d="M192.285,195.055c-1.174.036-2.373.085-2.654.1-.758.024-1.272.514-1.615,1.565a13.109,13.109,0,0,1-.612,1.5,5.786,5.786,0,0,0-.794,2.9,1.277,1.277,0,0,0,1.333.954c.673,0,1.052-.33,1.419-1.273a7.883,7.883,0,0,1,.489-1.051,2.407,2.407,0,0,0,.269-.673,4.784,4.784,0,0,1,.2-.636l.123-.33,2.336.012,2.324.013,2.74,2.728,2.739,2.74.38-.429a2.013,2.013,0,0,0,.526-1.6c-.049-.257-.893-1.174-2.973-3.253-2.813-2.814-3.523-3.425-3.9-3.376C194.511,194.956,193.459,195.005,192.285,195.055Z" transform="translate(-183.327 -192.235)" fill="#d66025"/>
      <path id="Path_26882" data-name="Path 26882" d="M184.663,204.468a5.789,5.789,0,0,0-1.676,1.9A1.351,1.351,0,0,0,184,207.856c.575.122,1.627-.6,2.214-1.517.465-.745.453-1.15-.073-1.676A1.056,1.056,0,0,0,184.663,204.468Z" transform="translate(-182.984 -193.122)" fill="#d66025"/>
      <path id="Path_26883" data-name="Path 26883" d="M187.159,206.538a4.745,4.745,0,0,0-1.566,1.321c-.574.771-.574,1.321.013,1.847.66.574,1.125.5,2.067-.343,1.064-.966,1.308-1.8.721-2.446A1.075,1.075,0,0,0,187.159,206.538Z" transform="translate(-183.191 -193.333)" fill="#d66025"/>
      <path id="Path_26884" data-name="Path 26884" d="M189.116,208.856a7.072,7.072,0,0,0-1.6,1.59,1.08,1.08,0,0,0,.208,1.382.94.94,0,0,0,.844.428,3.2,3.2,0,0,0,2.373-2.409A1.257,1.257,0,0,0,189.116,208.856Z" transform="translate(-183.4 -193.547)" fill="#d66025"/>
      <path id="Path_26885" data-name="Path 26885" d="M191.063,211.253c-.954.623-1.651,1.676-1.48,2.238a1.846,1.846,0,0,0,.966.979c.441.109.868-.11,1.615-.808,1.137-1.088,1.3-1.676.6-2.373C192.238,210.764,191.81,210.751,191.063,211.253Z" transform="translate(-183.61 -193.754)" fill="#d66025"/>
    </g>
  </g>
</svg>
