<svg xmlns="http://www.w3.org/2000/svg" width="35.617" height="24.746" viewBox="0 0 35.617 24.746">
  <g id="ABHA_Number" data-name="ABHA Number" transform="translate(0)">
    <rect id="Rectangle_2081" data-name="Rectangle 2081" width="27.985" height="19.094" transform="translate(3.895 2.006)" fill="#fff"/>
    <path id="Path_4980" data-name="Path 4980" d="M244.9,23.1H211.877c-.348,0-.521.347-.348.521l.7,1.041a1.76,1.76,0,0,0,1.217.694h29.723a1.548,1.548,0,0,0,1.391-.868l.348-.868c.521-.174.348-.521,0-.521" transform="translate(-210.589 -1.652)" fill="#fff"/>
    <path id="Path_4981" data-name="Path 4981" d="M243.711,26.69H213.988a2.479,2.479,0,0,1-2.086-1.042l-.7-1.041a1.522,1.522,0,0,1-.174-1.215,1.164,1.164,0,0,1,1.217-.694h33.025a1.24,1.24,0,0,1,1.043.521.838.838,0,0,1,0,1.215l-.348.868a3.865,3.865,0,0,1-2.261,1.389Zm-30.592-2.43.174.347c.174.347.348.347.7.347h29.723a.9.9,0,0,0,.7-.347l.174-.174H213.118Z" transform="translate(-210.962 -1.945)" fill="#2f3a7b"/>
    <path id="Path_4982" data-name="Path 4982" d="M213.461,24.9a.821.821,0,0,1-.869-.868h0V22.47a.766.766,0,0,1,1.043-.694.747.747,0,0,1,.7.694v1.562a.821.821,0,0,1-.869.868Z" transform="translate(-209.74 -2.586)" fill="#2e3a7c"/>
    <path id="Path_4983" data-name="Path 4983" d="M239.887,32.871a.821.821,0,0,1-.869-.868V13.083a.374.374,0,0,0-.348-.347H216.248a1.174,1.174,0,0,1-1.043-.694A1.172,1.172,0,0,1,215.9,11h22.6a2.221,2.221,0,0,1,2.086,1.909V32A.7.7,0,0,1,239.887,32.871Z" transform="translate(-207.832 -10.556)" fill="#2e3a7c"/>
    <rect id="Rectangle_2082" data-name="Rectangle 2082" width="3.476" height="13.019" transform="translate(2.504 5.825)" fill="#d66025"/>
    <path id="Path_4985" data-name="Path 4985" d="M226.955,13.4H216.7V27.632h10.255a7.153,7.153,0,0,0,7.127-7.117,7.044,7.044,0,0,0-7.127-7.116h0" transform="translate(-206.721 -8.789)" fill="#d66025"/>
    <path id="Path_4986" data-name="Path 4986" d="M222.305,19.558a2.43,2.43,0,1,0,0-4.859h-.174a2.484,2.484,0,0,0-2.433,2.43,2.64,2.64,0,0,0,2.606,2.43m0-3.819a1.37,1.37,0,0,1,1.391,1.389,1.494,1.494,0,0,1-1.39,1.388,1.37,1.37,0,0,1-1.391-1.389,1.278,1.278,0,0,1,1.391-1.388" transform="translate(-204.505 -7.831)" fill="#fff"/>
    <path id="Path_4987" data-name="Path 4987" d="M222.824,18.124a3.129,3.129,0,0,0-2.606,1.215A4.094,4.094,0,0,0,219,22.117a.374.374,0,0,0,.348.347h6.605a.374.374,0,0,0,.348-.347v-.174a3.454,3.454,0,0,0-1.217-2.778,2.237,2.237,0,0,0-2.261-1.041m-2.782,3.3a4.285,4.285,0,0,1,.7-1.562,2.529,2.529,0,0,1,3.65-.174l.174.174h0a1.884,1.884,0,0,1,.7,1.562Z" transform="translate(-205.024 -5.356)" fill="#fff"/>
    <ellipse id="Ellipse_175" data-name="Ellipse 175" cx="2.162" cy="2.159" rx="2.162" ry="2.159" transform="translate(1.906 0)" fill="#2e3a7c"/>
  </g>
</svg>
