<svg xmlns="http://www.w3.org/2000/svg" width="32" height="32" viewBox="0 0 32 32">
  <g id="profile" transform="translate(12284 22998)">
    <rect id="Rectangle_144579" data-name="Rectangle 144579" width="32" height="32" transform="translate(-12284 -22998)" fill="none"/>
    <g id="Group_71094" data-name="Group 71094" transform="translate(-12281.5 -22995.5)">
      <path id="Path_29099" data-name="Path 29099" d="M44.195,40.539a4.345,4.345,0,1,1,4.345-4.345A4.348,4.348,0,0,1,44.195,40.539Zm0-6.4a2.055,2.055,0,1,0,2.055,2.055A2.055,2.055,0,0,0,44.195,34.14Z" transform="translate(-30.776 -26.204)" fill="#d66025"/>
      <path id="Path_29100" data-name="Path 29100" d="M32.069,18.66a13.415,13.415,0,0,0-8.129,24.091s.017.013.021.017a13.414,13.414,0,0,0,16.2,0q.019-.013.051-.039a13.414,13.414,0,0,0-8.15-24.069Zm0,24.155a10.993,10.993,0,0,1-6.215-1.9,6.3,6.3,0,0,1,12.431,0,11.022,11.022,0,0,1-6.215,1.9Zm8.249-3.27a8.591,8.591,0,0,0-16.5,0,11.125,11.125,0,1,1,16.5,0Z" transform="translate(-18.65 -18.66)" fill="#264488"/>
    </g>
  </g>
</svg>
