<svg id="Group_70218" data-name="Group 70218" xmlns="http://www.w3.org/2000/svg" width="36.406" height="26.082" viewBox="0 0 36.406 26.082">
  <g id="Group_70217" data-name="Group 70217" transform="translate(0 0)">
    <g id="Group_2877" data-name="Group 2877" transform="translate(0 0)">
      <g id="Group_3870_00000042015779671155614500000008897579954765772673_" transform="translate(0)">
        <g id="Path_3416_00000037654692547453924200000018182787858073374882_" transform="translate(26.609 15.447)">
          <g id="Group_2871" data-name="Group 2871">
            <path id="Path_2733" data-name="Path 2733" d="M656,757.716v0" transform="translate(-656 -757.713)" fill="#dcdee4"/>
          </g>
        </g>
        <g id="Group_3864_00000013880623012551643810000002250033121277602211_">
          <g id="Path_5602_00000169545233814773745970000014896265172895656375_">
            <g id="Group_2872" data-name="Group 2872">
              <path id="Path_2734" data-name="Path 2734" d="M930.4,283.322l12.566-26.082,8.4,17.66h-3.843l-4.557-9.984-8.591,18.406Z" transform="translate(-930.4 -257.24)" fill="#2e3a7c"/>
            </g>
          </g>
          <g id="Path_5603_00000178925265878682926800000003509733313474204589_" transform="translate(18.776 21.251)">
            <g id="Group_2873" data-name="Group 2873" transform="translate(0)">
              <path id="Path_2735" data-name="Path 2735" d="M1337.566,713.63h-3.926l2.306,4.8h3.82Z" transform="translate(-1333.64 -713.63)" fill="#d66025"/>
            </g>
          </g>
        </g>
        <g id="Group_3862_00000123417986489725647790000003762291556689082044_" transform="translate(5.641 8.784)">
          <g id="Path_3422_00000167378640183682807160000011703232252707491515_" transform="translate(1.028 1.009)">
            <g id="Group_2874" data-name="Group 2874" transform="translate(0 0)">
              <path id="Path_2736" data-name="Path 2736" d="M359.3,355.556h3.239c.343,0,.346,0,.281.331q-.681,3.527-1.367,7.06a.764.764,0,0,1-.723.621H351.35c-.363,0-.367,0-.3-.351q.683-3.537,1.371-7.075a.762.762,0,0,1,.751-.588c.282,0,.564,0,.846,0h5.29" transform="translate(-351.017 -355.553)" fill="#fff"/>
            </g>
          </g>
          <g id="Path_3423_00000145740085701353448200000005556749814779681920_" transform="translate(4.002 1.987)">
            <g id="Group_2875" data-name="Group 2875" transform="translate(0 0)">
              <path id="Path_2737" data-name="Path 2737" d="M418.889,378.616h.572c.31,0,.62,0,.926,0a.547.547,0,0,1,.568.529v.033c.006.277.007.554,0,.831a.536.536,0,0,1-.528.543H420.4c-.451,0-.9,0-1.35,0h-.154v1.474a.546.546,0,0,1-.5.589.432.432,0,0,1-.086,0q-.39,0-.776,0a.552.552,0,0,1-.579-.519v-1.538c-.057,0-.1-.007-.151-.007h-1.321a.528.528,0,0,1-.578-.475.364.364,0,0,1,0-.1c0-.253,0-.508,0-.761a.545.545,0,0,1,.486-.6.5.5,0,0,1,.112,0h1.451v-1.5a.536.536,0,0,1,.518-.552.129.129,0,0,1,.032,0c.28,0,.564,0,.845,0a.53.53,0,0,1,.542.518v.027c0,.5,0,.991,0,1.508" transform="translate(-414.901 -376.56)" fill="#d66025"/>
            </g>
          </g>
          <g id="Path_3421_00000048470649286945722850000003462188596191803834_" transform="translate(0 0)">
            <g id="Group_2876" data-name="Group 2876">
              <path id="Path_2738" data-name="Path 2738" d="M336.319,343.9h-6.078a1.371,1.371,0,0,1-.858-.256.982.982,0,0,1-.415-.991c.14-.8.3-1.6.458-2.393.32-1.653.656-3.3.956-4.961a1.818,1.818,0,0,1,1.681-1.433h9.489a1.4,1.4,0,0,1,.817.217,1.016,1.016,0,0,1,.452,1.1q-.7,3.669-1.423,7.337a1.729,1.729,0,0,1-1.437,1.347,2.332,2.332,0,0,1-.381.029Zm1.952-9.025h-5.286c-.282,0-.563,0-.845,0a.763.763,0,0,0-.753.588q-.686,3.535-1.371,7.072c-.067.351-.064.351.3.351H339.7a.764.764,0,0,0,.725-.621q.683-3.531,1.367-7.059c.063-.329.061-.329-.282-.329h-3.238" transform="translate(-328.953 -333.867)" fill="#2d3a7d"/>
            </g>
          </g>
        </g>
      </g>
    </g>
    <g id="Group_70217-2" data-name="Group 70217" transform="translate(20.224 3.353)">
      <path id="Path_27994" data-name="Path 27994" d="M6.912.135A7.429,7.429,0,0,0,1.175,9.288a8.23,8.23,0,0,0,1.093,2.3c.228.319.237.373.164.911A6.285,6.285,0,0,1,.346,16.537L0,16.828l.282.055a7.4,7.4,0,0,0,2.095-.046,4.592,4.592,0,0,0,2.805-2.031c.355-.565.291-.556,1.275-.273a10.091,10.091,0,0,0,3.734.009,7.549,7.549,0,0,0,5.246-5.118,5.367,5.367,0,0,0,.246-1.958,6.244,6.244,0,0,0-.71-3.233A5.732,5.732,0,0,0,13.533,2.2,7.357,7.357,0,0,0,6.912.135m3.379,2.741A3.47,3.47,0,0,1,12,3.969a3.1,3.1,0,0,1,.874,2.5,2.366,2.366,0,0,1-.3,1.53,3.129,3.129,0,0,1-2.523,1.84c-.519,0-.82-.164-.9-.5L9.1,9.105l-.419.319a1.378,1.378,0,0,1-1.22.382A1.561,1.561,0,0,1,6.166,8.769a2.778,2.778,0,0,1,.073-2.5c.747-1.576,2.249-2.1,3.279-1.157.346.319.4.346.4.182,0-.383.091-.474.51-.474a1.2,1.2,0,0,1,.4.036c0,.027-.164.838-.364,1.8A14.556,14.556,0,0,0,10.118,8.7c.082.856,1.6-.219,1.949-1.375A3.717,3.717,0,0,0,12.058,5.4C11.621,3.924,9.544,3.031,7.686,3.5A3.846,3.846,0,0,0,4.845,6.7,3.671,3.671,0,0,0,5.674,10a4.959,4.959,0,0,0,4.5,1.066,3.461,3.461,0,0,0,1.749-.92c.383-.355.474-.4.856-.4.428,0,.428,0,.282.2a5.033,5.033,0,0,1-4.6,1.949C6.384,11.71,4.991,10.845,4.4,9.379a5.589,5.589,0,0,1-.137-3.224,4.1,4.1,0,0,1,.847-1.767,4.354,4.354,0,0,1,4-1.694,6,6,0,0,1,1.184.182" transform="translate(0 0)" fill="#2e3a7c" stroke="rgba(0,0,0,0)" stroke-width="1"/>
      <path id="Path_27995" data-name="Path 27995" d="M75.364,59.364a2.782,2.782,0,0,0-.638,2.787c.5.792,1.275.756,1.985-.082a2.545,2.545,0,0,0,.61-1.694c0-.865-.437-1.393-1.166-1.393-.355,0-.455.046-.792.383" transform="translate(-67.769 -53.61)" fill="#2f397b" stroke="rgba(0,0,0,0)" stroke-width="1"/>
    </g>
  </g>
</svg>
