<svg id="Group_31518" data-name="Group 31518" xmlns="http://www.w3.org/2000/svg" xmlns:xlink="http://www.w3.org/1999/xlink" width="19.001" height="19" viewBox="0 0 19.001 19">
  <defs>
    <clipPath id="clip-path">
      <rect id="Rectangle_21448" data-name="Rectangle 21448" width="19.001" height="19" fill="#152c69"/>
    </clipPath>
  </defs>
  <g id="Group_31517" data-name="Group 31517" clip-path="url(#clip-path)">
    <path id="Path_28701" data-name="Path 28701" d="M2.752.073c-.458.123-.7.3-1.582,1.2S.137,2.38.043,2.876C.017,3.016,0,4.267,0,6.077A24.6,24.6,0,0,0,.064,9.3a2.075,2.075,0,0,0,1.484,1.492,56.074,56.074,0,0,0,5.723,0A2.075,2.075,0,0,0,8.756,9.3c.093-.365.093-7.378,0-7.742A2.075,2.075,0,0,0,7.271.061,13.8,13.8,0,0,0,5.025,0,11.857,11.857,0,0,0,2.752.073m4.4,1.391a1.162,1.162,0,0,1,.2.2c.089.115.089.144.089,3.756s0,3.642-.089,3.757a1.162,1.162,0,0,1-.2.2c-.115.089-.157.089-2.739.089s-2.625,0-2.739-.089a1.17,1.17,0,0,1-.2-.2c-.089-.115-.089-.166-.1-3.028-.009-1.6,0-2.98.013-3.061.021-.115.17-.288.733-.861a9.519,9.519,0,0,1,.857-.8c.14-.072.259-.076,2.107-.068,1.9.009,1.958.013,2.073.1" transform="translate(0 -0.001)" fill="#152c69"/>
    <path id="Path_28702" data-name="Path 28702" d="M4.527,6.243a.7.7,0,0,0-.386.767.74.74,0,0,0,.441.492,10.5,10.5,0,0,0,1.331.03c1.108-.013,1.179-.017,1.289-.1A.6.6,0,0,0,7.5,6.862.6.6,0,0,0,7.2,6.294c-.111-.085-.178-.089-1.332-.1a5.56,5.56,0,0,0-1.344.047" transform="translate(-1.411 -2.117)" fill="#152c69"/>
    <path id="Path_28703" data-name="Path 28703" d="M4.527,10.365a.7.7,0,0,0-.386.767.74.74,0,0,0,.441.492,10.5,10.5,0,0,0,1.331.03c1.108-.013,1.179-.017,1.289-.1a.7.7,0,0,0,0-1.137c-.111-.085-.178-.089-1.332-.1a5.56,5.56,0,0,0-1.344.047" transform="translate(-1.411 -3.526)" fill="#152c69"/>
    <path id="Path_28704" data-name="Path 28704" d="M17.282,2.092a6.176,6.176,0,0,0-.941.852c-.712.712-.839.86-.861.992-.068.369-.034.415.84,1.293.674.67.844.818,1,.865a.667.667,0,0,0,.818-.814,1.11,1.11,0,0,0-.2-.339l-.149-.165H18.1a2.075,2.075,0,0,1,1.467.563,2.04,2.04,0,0,1,.64,1.374c.038.382.1.5.318.666a.77.77,0,0,0,.729,0c.25-.187.293-.288.288-.708a3.29,3.29,0,0,0-1.53-2.7,3.2,3.2,0,0,0-1.738-.538l-.479-.026.144-.157a.68.68,0,0,0-.653-1.158" transform="translate(-5.284 -0.71)" fill="#152c69"/>
    <path id="Path_28705" data-name="Path 28705" d="M18.211,12.44c-.458.123-.7.3-1.582,1.2S15.6,14.747,15.5,15.243c-.026.14-.042,1.391-.042,3.2a24.6,24.6,0,0,0,.063,3.219,2.075,2.075,0,0,0,1.484,1.492,56.088,56.088,0,0,0,5.724,0,2.074,2.074,0,0,0,1.484-1.492c.093-.365.093-7.378,0-7.742a2.074,2.074,0,0,0-1.484-1.492,13.8,13.8,0,0,0-2.247-.059,11.857,11.857,0,0,0-2.273.072m4.4,1.391a1.166,1.166,0,0,1,.2.2c.089.115.089.144.089,3.756s0,3.642-.089,3.757a1.166,1.166,0,0,1-.2.2c-.115.089-.157.089-2.739.089s-2.625,0-2.739-.089a1.19,1.19,0,0,1-.2-.2c-.089-.115-.089-.161-.1-3.082-.009-2.866-.009-2.968.072-3.125a13.339,13.339,0,0,1,1.552-1.551,8.763,8.763,0,0,1,2.086-.055c1.9.009,1.959.013,2.073.1" transform="translate(-5.284 -4.228)" fill="#152c69"/>
    <path id="Path_28706" data-name="Path 28706" d="M19.987,18.611a.7.7,0,0,0-.386.767.74.74,0,0,0,.441.492,10.494,10.494,0,0,0,1.331.03c1.107-.013,1.179-.017,1.289-.1a.7.7,0,0,0,0-1.137c-.111-.085-.178-.089-1.332-.1a5.556,5.556,0,0,0-1.344.047" transform="translate(-6.696 -6.345)" fill="#152c69"/>
    <path id="Path_28707" data-name="Path 28707" d="M19.987,22.733a.7.7,0,0,0-.386.767.74.74,0,0,0,.441.492,10.494,10.494,0,0,0,1.331.03c1.107-.013,1.179-.017,1.289-.1a.7.7,0,0,0,0-1.137c-.111-.085-.178-.089-1.332-.1a5.556,5.556,0,0,0-1.344.047" transform="translate(-6.696 -7.754)" fill="#152c69"/>
    <path id="Path_28708" data-name="Path 28708" d="M4.527,18.613a.729.729,0,0,0-.386.475,1.839,1.839,0,0,0,0,.437,3.415,3.415,0,0,0,1.543,2.552,3.2,3.2,0,0,0,1.738.534l.479.026-.148.153a.667.667,0,0,0,.1,1.094.657.657,0,0,0,.61.038,9.3,9.3,0,0,0,.928-.856c.852-.861.887-.916.819-1.281-.022-.131-.148-.28-.84-.971-.674-.67-.844-.818-.992-.865a.669.669,0,0,0-.823.814,1.118,1.118,0,0,0,.2.339l.149.165H7.592A2.075,2.075,0,0,1,6.125,20.7a2.04,2.04,0,0,1-.64-1.374c-.038-.378-.1-.5-.309-.661a.787.787,0,0,0-.649-.055" transform="translate(-1.411 -6.347)" fill="#152c69"/>
  </g>
</svg>
