<svg xmlns="http://www.w3.org/2000/svg" width="32" height="32" viewBox="0 0 32 32">
  <g id="Group_70149" data-name="Group 70149" transform="translate(5154 17122)">
    <rect id="Outline" width="32" height="32" transform="translate(-5154 -17122)" fill="none"/>
    <g id="Group_70264" data-name="Group 70264" transform="translate(-2944.148 1242.852)">
      <path id="noun-qr-code-4939541" d="M159.812,153.546h-5.568a.759.759,0,0,0-.759.759v5.568a.759.759,0,0,0,.759.759h5.568a.759.759,0,0,0,.759-.759v-5.568a.759.759,0,0,0-.759-.759Zm-.759,5.568H155v-4.049h4.049Zm.759,3.86h-5.568a.759.759,0,0,0-.759.759V169.3a.759.759,0,0,0,.759.759h5.568a.759.759,0,0,0,.759-.759v-5.568a.759.759,0,0,0-.759-.759Zm-.759,5.568H155v-4.049h4.049Zm4.683-7.91H169.3a.759.759,0,0,0,.759-.759v-5.568a.759.759,0,0,0-.759-.759h-5.568a.759.759,0,0,0-.759.759v5.568a.759.759,0,0,0,.759.759Zm.759-5.568h4.049v4.049h-4.049Zm-.759,10.945a.759.759,0,0,0,.759-.759v-.757h1.329a.759.759,0,0,0,0-1.519h-2.089a.759.759,0,0,0-.759.759v1.517a.759.759,0,0,0,.759.759Zm4.809,3.292a.759.759,0,1,0,1.519,0v-2.784a.759.759,0,0,0-.759-.759H166.52a.759.759,0,1,0,0,1.518h2.025Zm-3.226-.759h-1.582a.759.759,0,1,0,0,1.518h1.582a.759.759,0,1,0,0-1.519Zm3.986-6.88a.759.759,0,0,0-.759.759v1.312a.759.759,0,0,0,1.519,0v-1.312a.759.759,0,0,0-.759-.759Zm-6.386,5.247a.762.762,0,1,0-.019.659A.762.762,0,0,0,162.918,166.909Zm0-4.778a.757.757,0,1,0-.038.677.757.757,0,0,0,.038-.677Z" transform="translate(-2355.625 -18510.656)" fill="#595959"/>
      <path id="noun-qr-code-4939541-2" data-name="noun-qr-code-4939541" d="M150.749,155.372a.759.759,0,0,0,.759-.759v-3.1h3.1a.759.759,0,1,0,0-1.519h-3.859a.759.759,0,0,0-.759.759v3.859a.759.759,0,0,0,.759.759Zm22.778-5.378h-3.859a.759.759,0,1,0,0,1.519h3.1v3.1a.759.759,0,1,0,1.519,0v-3.859a.759.759,0,0,0-.759-.759Zm-18.919,22.778h-3.1v-3.1a.759.759,0,1,0-1.519,0v3.859a.759.759,0,0,0,.759.759h3.859a.759.759,0,1,0,0-1.519Zm18.919-3.859a.759.759,0,0,0-.759.759v3.1h-3.1a.759.759,0,1,0,0,1.519h3.859a.759.759,0,0,0,.759-.759v-3.859a.759.759,0,0,0-.759-.759Z" transform="translate(-2355.99 -18510.994)" fill="#ababad"/>
    </g>
  </g>
</svg>
