<svg xmlns="http://www.w3.org/2000/svg" width="18" height="23.866" viewBox="0 0 18 23.866">
  <g id="Group_31527" data-name="Group 31527" transform="translate(0 0)">
    <path id="Path_28709" data-name="Path 28709" d="M6.491.7c-1.32.382-2.935.851-3.6,1.047C1.047,2.27.447,2.51.218,2.8.011,3.055,0,3.273,0,7.015c0,4.113.065,4.964.545,6.829a16.136,16.136,0,0,0,5.236,8.084,15.379,15.379,0,0,0,2.651,1.745c.469.229.545.24.927.109A15.84,15.84,0,0,0,12.6,21.59a15.7,15.7,0,0,0,1.582-1.6,16.243,16.243,0,0,0,3.273-6.142c.48-1.865.545-2.716.545-6.818,0-4.385.011-4.287-.753-4.615-.218-.087-.96-.327-1.647-.513s-1.844-.535-2.564-.742C9.775.2,9.033-.01,8.967,0,8.924,0,7.811.317,6.491.7M10.3,1.79c.655.207,1.244.382,1.3.382s.655.164,1.32.371,1.767.535,2.444.742l1.244.36L16.549,7.79c-.055,4.615-.087,4.876-.84,6.873a14.657,14.657,0,0,1-5.618,7.1,4.446,4.446,0,0,1-1.058.589,6.887,6.887,0,0,1-2.095-1.3,14.826,14.826,0,0,1-5.215-8.193c-.207-.84-.229-1.342-.273-5.073L1.4,3.633l1.462-.415C4.244,2.826,4.833,2.652,7.582,1.8c.665-.207,1.276-.371,1.364-.382A9.735,9.735,0,0,1,10.3,1.79" transform="translate(0 0)" fill="#96a9dc"/>
    <path id="Path_28713" data-name="Path 28713" d="M9.145,0,3.454,5.691,1.216,3.463,0,4.68,3.454,8.134l6.908-6.908Z" transform="translate(3.819 7.867)" fill="#152c69"/>
  </g>
</svg>
