<?xml version="1.0" encoding="UTF-8"?>
<svg width="1200pt" height="1200pt" version="1.1" viewBox="0 0 1200 1200" xmlns="http://www.w3.org/2000/svg">
 <g>
  <path d="m742.8 280.8h-462l90-90c28.801-28.801 28.801-75.602 0-104.4-28.801-28.801-75.602-28.801-104.4 0l-216 214.8c-13.199 14.398-21.602 32.398-21.602 51.602 0 19.199 7.1992 38.398 21.602 51.602l216 216c14.398 14.398 33.602 21.602 51.602 21.602s37.199-7.1992 51.602-21.602c28.801-28.801 28.801-75.602 0-104.4l-90-90h462c154.8 0 279.6 126 279.6 279.6-0.007812 153.59-123.61 281.99-278.41 281.99h-33.602c-40.801 0-73.199 32.398-73.199 73.199s32.398 73.199 73.199 73.199h33.602c235.2 0 427.2-192 427.2-427.2s-192-426-427.2-426z"/>
  <path d="m222 987.6h-42c-40.801 0-73.199 32.398-73.199 73.199s32.398 73.199 73.199 73.199h42c40.801 0 73.199-32.398 73.199-73.199 1.1992-39.602-32.398-73.199-73.199-73.199z"/>
  <path d="m487.2 987.6h-42c-40.801 0-73.199 32.398-73.199 73.199s32.398 73.199 73.199 73.199h42c40.801 0 73.199-32.398 73.199-73.199 0-39.602-33.598-73.199-73.199-73.199z"/>
 </g>
</svg>
