<svg xmlns="http://www.w3.org/2000/svg" xmlns:xlink="http://www.w3.org/1999/xlink" width="25.987" height="23.607" viewBox="0 0 25.987 23.607">
  <defs>
    <clipPath id="clip-path">
      <rect id="Rectangle_21754" data-name="Rectangle 21754" width="25.987" height="23.607" fill="#fdcc02"/>
    </clipPath>
  </defs>
  <g id="Group_31786" data-name="Group 31786" transform="translate(0 0)">
    <g id="Group_31785" data-name="Group 31785" transform="translate(0 0)" clip-path="url(#clip-path)">
      <path id="Path_28990" data-name="Path 28990" d="M12.14.073a4.35,4.35,0,0,0-2.257,1.48c-.254.337-1.562,2.572-5.965,10.2-.21.366-.987,1.712-1.727,2.99C.546,17.594.24,18.184.105,18.85a3.683,3.683,0,0,0,.3,2.571A3.978,3.978,0,0,0,3.17,23.484c.784.165,18.873.165,19.659,0A3.864,3.864,0,0,0,25.706,18.2a19.071,19.071,0,0,0-.942-1.787C19.009,6.419,16.423,1.957,16.228,1.695a4.519,4.519,0,0,0-2-1.5A4.545,4.545,0,0,0,12.14.073m1.809,1.682A3,3,0,0,1,15.01,2.7c.172.247,3.408,5.816,4.694,8.08.164.284.6,1.047.972,1.682,2.347,4.022,3.476,6.025,3.61,6.421a2.246,2.246,0,0,1-1.211,2.892l-.471.217H3.394l-.471-.217a2.245,2.245,0,0,1-1.21-2.885c.119-.366,1.786-3.334,3.55-6.316C5.479,12.2,6.84,9.835,8.29,7.316s2.766-4.724,2.931-4.9a2.676,2.676,0,0,1,1.1-.77,2.716,2.716,0,0,1,1.629.112" transform="translate(0 0)" fill="#fdcc02"/>
      <path id="Path_28991" data-name="Path 28991" d="M13.714,4.179c-.426.292-.4.24-2.982,4.732-1.017,1.764-2,3.461-2.176,3.752s-.328.561-.328.576-.217.4-.478.845C6.5,16.2,4.131,20.377,4.056,20.6A1.331,1.331,0,0,0,4.931,22.4c.359.12,18.642.12,19,0a1.331,1.331,0,0,0,.86-1.831,14.9,14.9,0,0,0-.77-1.45c-.665-1.143-2.242-3.879-3.281-5.681-2.676-4.649-5.016-8.678-5.173-8.88a1.551,1.551,0,0,0-1.151-.613,1.137,1.137,0,0,0-.7.239m1.375,4.059a1.478,1.478,0,0,1,.763.71c.239.471.239.725,0,2.168-.127.762-.284,1.719-.344,2.13-.418,2.7-.628,3.737-.784,3.865-.411.344-.71.075-.852-.763-.06-.351-.165-.972-.224-1.383s-.149-.942-.187-1.181-.1-.62-.142-.859-.179-1.047-.307-1.809c-.24-1.443-.24-1.7,0-2.168a1.5,1.5,0,0,1,1.405-.822,2.274,2.274,0,0,1,.673.112m-.1,10.151a1.073,1.073,0,0,1,.254,1.66,1.052,1.052,0,0,1-1.629,0,1.01,1.01,0,0,1-.187-1.151,1.071,1.071,0,0,1,1.562-.508" transform="translate(-1.432 -1.423)" fill="#fdcc02"/>
    </g>
  </g>
</svg>
