<svg xmlns="http://www.w3.org/2000/svg" width="20" height="21.112" viewBox="0 0 20 21.112">
  <g id="Group_31138" data-name="Group 31138" transform="translate(-201.06 -188.541)">
    <path id="Path_26855" data-name="Path 26855" d="M211.277,198.078a1.183,1.183,0,0,0-.619.823c-.042.169.028.416.281,1.055.176.465.4,1.042.5,1.295a4.615,4.615,0,0,0,.226.528,4.644,4.644,0,0,1,.246.563c.106.267.275.683.373.914,1.387,3.314,2.273,5.474,2.252,5.495a8.531,8.531,0,0,1-.971-.373c-1.323-.563-1.709-.542-2.153.119a1.063,1.063,0,0,0,0,1.133c.19.288.563.478,2.477,1.259.774.317,1.864.8,2.427,1.063,1.464.689,2.146.83,2.99.6.366-.1,2.61-1.013,3.088-1.252a4.044,4.044,0,0,0,1.231-1.175,3.047,3.047,0,0,0,.486-1.942l-.035-.7-.823-2.005c-.45-1.1-.886-2.146-.957-2.322s-.219-.534-.324-.809c-.4-1.027-.732-1.372-1.337-1.372a1.217,1.217,0,0,0-1.063.774.972.972,0,0,0,.078.809c.042.077.155.33.246.563s.226.563.3.732a3.414,3.414,0,0,1,.373,1.048c-.021.021-.063.008-.1-.028-.063-.07-.922-2.146-.922-2.23a5.226,5.226,0,0,0-.246-.563,3.706,3.706,0,0,1-.246-.584c0-.085-.226-.253-.563-.437a1.245,1.245,0,0,0-1.407.613,1.837,1.837,0,0,0,.19,1.344,22.127,22.127,0,0,1,1.049,2.589.075.075,0,0,1-.1-.028c-.063-.071-.612-1.386-1.027-2.455-.134-.352-.324-.8-.422-1a2.089,2.089,0,0,1-.183-.471c0-.057-.119-.2-.26-.317a1.065,1.065,0,0,0-1.5.049.728.728,0,0,0-.33.626,1.517,1.517,0,0,0,.218.943c.668,1.519,1.526,3.666,1.484,3.708-.077.078-.049.148-1.534-3.5-.992-2.434-1.984-4.707-2.111-4.847A1.069,1.069,0,0,0,211.277,198.078Z" transform="translate(-3.055 -3.001)" fill="#152c69"/>
    <g id="Group_31138-2" data-name="Group 31138" transform="translate(201.06 188.541)">
      <path id="Path_26856" data-name="Path 26856" d="M201.509,188.654c-.373.2-.408.373-.408,2.019,0,1.442.007,1.52.155,1.7.268.338.5.387,1.865.387,1.407,0,1.7-.057,1.949-.359l.183-.218V190.68c0-2.216.07-2.139-2.09-2.139A5.05,5.05,0,0,0,201.509,188.654Z" transform="translate(-201.073 -188.541)" fill="#d66025"/>
      <path id="Path_26857" data-name="Path 26857" d="M209.35,188.78l-.26.24-.021,1.541c-.021,1.513-.021,1.54.14,1.78.26.387.514.437,2.1.408,1.97-.028,1.927.014,1.955-2,.029-1.6-.021-1.823-.422-2.068-.211-.127-.352-.141-1.731-.141h-1.491Z" transform="translate(-203.609 -188.541)" fill="#d66025"/>
      <path id="Path_26858" data-name="Path 26858" d="M217.443,188.682c-.4.246-.45.471-.422,2.068.028,2.012-.014,1.97,1.956,2,1.576.029,1.836-.021,2.09-.4.155-.232.161-.3.161-1.675,0-2.181.049-2.132-2.09-2.132C217.795,188.541,217.654,188.555,217.443,188.682Z" transform="translate(-206.144 -188.541)" fill="#d66025"/>
      <path id="Path_26859" data-name="Path 26859" d="M201.621,196.6a1.117,1.117,0,0,0-.366.288c-.148.183-.155.26-.155,1.7,0,2.21-.07,2.132,2.012,2.132a4.939,4.939,0,0,0,1.689-.112c.422-.2.45-.338.45-2.033v-1.513l-.24-.268-.239-.26-1.47-.014A5.762,5.762,0,0,0,201.621,196.6Z" transform="translate(-201.073 -191.082)" fill="#d66025"/>
      <path id="Path_26860" data-name="Path 26860" d="M209.566,196.6a.985.985,0,0,0-.373.331c-.127.211-.141.352-.141,1.752,0,1.519,0,1.519.176,1.709a1.074,1.074,0,0,0,.915.324h.373l-.359-.8a3.251,3.251,0,0,1-.387-1.252,1.366,1.366,0,0,1,.929-1.477,1.474,1.474,0,0,1,1.3.077c.352.176.548.471.886,1.3a4.589,4.589,0,0,0,.33.7c.042.05.057-.324.042-1.055-.035-1.716-.049-1.724-2.111-1.724A5.705,5.705,0,0,0,209.566,196.6Z" transform="translate(-203.607 -191.074)" fill="#d66025"/>
      <path id="Path_26861" data-name="Path 26861" d="M217.52,196.605c-.436.218-.478.352-.5,1.745a15.584,15.584,0,0,0,.021,1.568l.042.31.345-.05a1.472,1.472,0,0,1,1.14.331c.309.246.345.246.521.056a1.659,1.659,0,0,1,1.688-.309c.19.078.289.084.338.035a7.705,7.705,0,0,0,.1-1.6c.029-2.216.05-2.2-2.11-2.2A4.662,4.662,0,0,0,217.52,196.605Z" transform="translate(-206.144 -191.074)" fill="#d66025"/>
      <path id="Path_26862" data-name="Path 26862" d="M201.517,204.607a.8.8,0,0,0-.457.683c0,.141.007.858.014,1.59l.014,1.322.246.247.24.239,1.618-.021,1.625-.021.19-.2.2-.19.049-1.5c.049-1.646.014-1.815-.387-2.118-.183-.134-.3-.14-1.682-.148C201.94,204.495,201.672,204.516,201.517,204.607Z" transform="translate(-201.06 -193.625)" fill="#d66025"/>
      <path id="Path_26863" data-name="Path 26863" d="M209.931,204.524a.966.966,0,0,0-.767.373c-.091.134-.112.415-.112,1.66,0,2.2-.077,2.124,2.146,2.124.83,0,1.513-.014,1.513-.028,0-.035-1.688-4.08-1.717-4.1A3.229,3.229,0,0,0,209.931,204.524Z" transform="translate(-203.607 -193.625)" fill="#d66025"/>
    </g>
  </g>
</svg>
