<svg xmlns="http://www.w3.org/2000/svg" width="24" height="24" viewBox="0 0 24 24">
  <g id="Group_31150" data-name="Group 31150" transform="translate(-230.792 -207.792)">
    <g id="Group_31148" data-name="Group 31148" transform="translate(231.179 208.192)">
      <path id="Path_26886" data-name="Path 26886" d="M248.54,208.581a5.879,5.879,0,0,0-3.154,1.555,5,5,0,0,0-1.226,5.258,1.732,1.732,0,0,1,.123.5c-.02.02-2.232,2.239-4.922,4.922l-4.884,4.891h-.387a2.886,2.886,0,0,0-1.2,5.5,3.6,3.6,0,0,0,2.4,0,2.855,2.855,0,0,0,1.671-2.587v-.432l4.922-4.922,4.922-4.922.329.129a5.029,5.029,0,0,0,2.052.31,4.5,4.5,0,0,0,2-.523,5,5,0,0,0,2.316-2.329,23.05,23.05,0,0,0,.942-3.284.273.273,0,0,0-.252-.3,19.427,19.427,0,0,0-1.691,1.587l-1.586,1.586-1.316-.561-1.323-.555-.554-1.3-.561-1.3,1.581-1.581c1.548-1.561,1.684-1.735,1.5-1.922C250.115,208.174,249.915,208.207,248.54,208.581ZM234.8,227.413a1.437,1.437,0,0,1,.652,1.051,1.039,1.039,0,0,1-.13.671,1.3,1.3,0,0,1-1.858.645,1.259,1.259,0,0,1-.71-.871,1.421,1.421,0,0,1,.949-1.658A1.558,1.558,0,0,1,234.8,227.413Z" transform="translate(-231.218 -208.233)" fill="#152c69"/>
      <path id="Path_26887" data-name="Path 26887" d="M251.234,211.426l-.864.871.283.664.284.664.483.233c.264.129.593.277.73.323l.244.084.852-.851.851-.851-1-1-1-1Z" transform="translate(-232.97 -208.446)" fill="#152c69"/>
    </g>
    <g id="Group_31149" data-name="Group 31149" transform="translate(230.792 207.792)">
      <path id="Path_26888" data-name="Path 26888" d="M240.818,207.908c-.245.194-.283.362-.283,1.207s-.071,1.128-.3,1.226c-.065.025-.362.129-.665.239a10.262,10.262,0,0,0-1,.425c-.587.291-.774.343-.988.265a5.119,5.119,0,0,1-.793-.678c-.593-.581-.632-.607-.9-.607s-.291.007-1.587,1.31-1.31,1.309-1.31,1.587.026.31.607.9a5.12,5.12,0,0,1,.678.793.913.913,0,0,1-.174.761,16.1,16.1,0,0,0-.684,1.7c-.161.439-.31.5-1.3.5-1.368,0-1.316-.085-1.323,2.245a14.42,14.42,0,0,0,.065,1.954c.135.252.4.316,1.284.316.8,0,.845.006,1.026.162a1.424,1.424,0,0,1,.362.671,6.787,6.787,0,0,0,.587,1.356c.013-.014.491-.491,1.058-1.052l1.038-1.026-.174-.684a4.954,4.954,0,0,1-.174-1.716,5.432,5.432,0,0,1,.174-1.664,7.076,7.076,0,0,1,6.116-5.239l.491-.045.161-.665a6.179,6.179,0,0,1,1.755-2.994c.516-.5.587-.664.419-.993-.187-.362-.2-.368-2.187-.368C241.147,207.792,240.94,207.8,240.818,207.908Z" transform="translate(-230.792 -207.792)" fill="#d66025"/>
      <path id="Path_26889" data-name="Path 26889" d="M254.382,218.838a6.573,6.573,0,0,1-3.445,1.993,2.948,2.948,0,0,0-.4.09,6.069,6.069,0,0,0-.084.684,7,7,0,0,1-3.612,5.316,8.2,8.2,0,0,1-2.278.749,7.4,7.4,0,0,1-3.026-.226l-.323-.1-1.07,1.065-1.071,1.07.452.2a8.8,8.8,0,0,0,.929.362,1.732,1.732,0,0,1,.664.355c.174.187.174.2.174,1.032,0,.884.064,1.148.316,1.284a14.626,14.626,0,0,0,1.967.064h1.839l.181-.154c.181-.155.181-.162.213-1.129.033-.936.039-.981.194-1.123a2.565,2.565,0,0,1,.678-.329c.283-.1.787-.31,1.123-.464.89-.42.916-.413,1.715.361.632.613.678.646.942.646s.291-.014,1.587-1.31,1.31-1.309,1.31-1.587-.033-.31-.646-.942c-.774-.8-.78-.825-.361-1.715.154-.336.368-.839.464-1.123a2.565,2.565,0,0,1,.329-.678c.142-.154.187-.161,1.123-.194.968-.032.974-.032,1.129-.213l.154-.181V220.8a14.624,14.624,0,0,0-.065-1.967.839.839,0,0,0-.639-.316C254.692,218.515,254.594,218.586,254.382,218.838Z" transform="translate(-231.549 -208.773)" fill="#d66025"/>
    </g>
  </g>
</svg>
