<svg xmlns="http://www.w3.org/2000/svg" width="22" height="29.404" viewBox="0 0 22 29.404">
  <g id="Share" transform="translate(0 0)">
    <g id="Group_31472" data-name="Group 31472">
      <path id="Path_28595" data-name="Path 28595" d="M9.777,36.69a1.7,1.7,0,0,0,1.369-1.037,1.283,1.283,0,0,0-.594-1.692,1.2,1.2,0,0,0-1.359-.121,1.42,1.42,0,0,0-.856,1.712,1.721,1.721,0,0,0,1.44,1.138" transform="translate(-5.266 -21.431)" fill="#152c69"/>
      <path id="Path_28596" data-name="Path 28596" d="M10.1,43.979a2.367,2.367,0,0,0-4.279.06c-.142.272-.235.364-.374.25a3.515,3.515,0,0,0,4.877.163v-.028Z" transform="translate(-3.467 -27.139)" fill="#152c69"/>
      <path id="Path_28597" data-name="Path 28597" d="M46.513,16.2l-.292-.514a2.371,2.371,0,0,0-4.2.04l-.252.493,0,0-.029.164a3.516,3.516,0,0,0,4.781-.168V16.19Z" transform="translate(-26.557 -9.187)" fill="#152c69"/>
      <path id="Path_28598" data-name="Path 28598" d="M45.092,8.163A1.435,1.435,0,0,0,47.237,6.9,1.4,1.4,0,0,0,46.5,5.646a1.305,1.305,0,0,0-1.259-.071,1.449,1.449,0,0,0-.151,2.588" transform="translate(-28.228 -3.466)" fill="#152c69"/>
      <path id="Path_28599" data-name="Path 28599" d="M44.814,64.372a1.324,1.324,0,0,0,1.973-.071,1.273,1.273,0,0,0,.3-1.581,1.427,1.427,0,0,0-2.134-.6,1.159,1.159,0,0,0-.594.937,1.313,1.313,0,0,0,.453,1.319" transform="translate(-28.201 -39.356)" fill="#152c69"/>
      <path id="Path_28600" data-name="Path 28600" d="M46.283,72.236a2.416,2.416,0,0,0-4.34.05l-.191.393-.01-.013,0,.117a3.516,3.516,0,0,0,4.818-.131l.015-.124c-.1.043-.173-.053-.3-.293" transform="translate(-26.559 -45.116)" fill="#152c69"/>
    </g>
    <path id="Path_28601" data-name="Path 28601" d="M21.6,23.053a4.477,4.477,0,0,0-6.736-1.641l-.513.392-.937-.735c-.5-.4-1.863-1.47-3.01-2.366L8.317,17.072l.282-.634a4.446,4.446,0,0,0-.051-3.6l-.231-.473,3.031-2.366,3.04-2.376.352.312a5.3,5.3,0,0,0,1.017.624,3.047,3.047,0,0,0,1.813.312,2.98,2.98,0,0,0,1.913-.372,4.613,4.613,0,0,0,2.145-2.165,4.8,4.8,0,0,0-.161-4.058,4.569,4.569,0,0,0-4.692-2.2A4.719,4.719,0,0,0,13.8,2.05a4.323,4.323,0,0,0-.645,2.638,3.4,3.4,0,0,0,.312,1.551,3.991,3.991,0,0,1,.252.614c-.05.03-5.759,4.5-5.89,4.6-.091.071-.252.01-.523-.211a4.474,4.474,0,1,0-.131,7.038l.523-.4,2.8,2.175c1.53,1.2,2.89,2.276,3.01,2.376l.211.2-.262.564a4.928,4.928,0,0,0-.131,3.131,4.507,4.507,0,0,0,2.708,2.839,5.2,5.2,0,0,0,2.91.06,4.6,4.6,0,0,0,2.85-2.85,3.676,3.676,0,0,0,.181-1.641,3.04,3.04,0,0,0-.383-1.681M17.481,1.018l.105,0a3.609,3.609,0,0,1,1.423.315,3.662,3.662,0,0,1,1.782,1.923,3.352,3.352,0,0,1,.2,1.2c0,.024,0,.048,0,.072a3.517,3.517,0,1,1-3.517-3.517M4.505,18.219a3.506,3.506,0,0,1-2.523-1.068.7.7,0,0,1-.1-.112,3.516,3.516,0,1,1,2.627,1.18M17.527,28.56a3.517,3.517,0,1,1,0-7.034h.021a3.429,3.429,0,0,1,1.462.308,3.715,3.715,0,0,1,1.682,1.631,2.11,2.11,0,0,1,.192.525,3.519,3.519,0,0,1-3.357,4.569" transform="translate(0 0)" fill="#d66025"/>
  </g>
</svg>
