<svg xmlns="http://www.w3.org/2000/svg" width="19.681" height="20" viewBox="0 0 19.681 20">
  <path id="noun-email-1002247" d="M49.887,59.021H65.794a1.889,1.889,0,0,0,1.887-1.889V47.03a.535.535,0,0,0-.19-.409L64.857,44.4V40.518a1.5,1.5,0,0,0-1.5-1.5H52.426a1.5,1.5,0,0,0-1.5,1.5v3.8L48.19,46.622a.535.535,0,0,0-.19.409v10.1a1.889,1.889,0,0,0,1.887,1.889Zm15.905-1.07H49.887a.819.819,0,0,1-.817-.819V48.051l6.1,4.313-4.328,3.312a.535.535,0,0,0,.642.856l4.6-3.521,1.5,1.07a.535.535,0,0,0,.618,0l1.5-1.07,4.6,3.515a.535.535,0,1,0,.642-.856l-4.319-3.305,5.99-4.236v9.006a.819.819,0,0,1-.817.817Zm.52-10.923-1.455,1.029V45.8ZM52.426,40.093H63.362a.428.428,0,0,1,.428.428v8.288l-5.9,4.174L52,48.808v-8.29a.428.428,0,0,1,.426-.426Zm-1.5,7.964-1.515-1.07L50.929,45.7Zm6.912,2.178h.137a.535.535,0,0,0,0-1.07h-.137a3.41,3.41,0,1,1,3.41-3.41v.913a.6.6,0,0,1-1.192,0v-.913a2.225,2.225,0,1,0-.856,1.739,1.664,1.664,0,0,0,3.117-.826v-.913a4.48,4.48,0,1,0-4.48,4.48Zm0-3.331a1.149,1.149,0,1,1,.812-.336A1.149,1.149,0,0,1,57.841,46.9Z" transform="translate(-48 -39.021)" fill="#264488"/>
</svg>
