<svg xmlns="http://www.w3.org/2000/svg" width="15.47" height="26.52" viewBox="0 0 15.47 26.52">
  <path id="noun-mobile-1158185" d="M340.262,150a2.766,2.766,0,0,0-2.762,2.762v21a2.766,2.766,0,0,0,2.762,2.762h9.945a2.766,2.766,0,0,0,2.762-2.762v-21A2.766,2.766,0,0,0,350.208,150Zm0,1.1h9.945a1.66,1.66,0,0,1,1.657,1.658v1.658h-13.26v-1.658A1.66,1.66,0,0,1,340.262,151.1Zm2.763,1.1a.553.553,0,1,0,.391.162A.553.553,0,0,0,343.025,152.21Zm2.21,0a.553.553,0,0,0,0,1.105h2.21a.553.553,0,0,0,0-1.105Zm-6.63,3.315h13.26V169.89h-13.26Zm0,15.47h13.26v2.763a1.66,1.66,0,0,1-1.657,1.658h-9.945a1.66,1.66,0,0,1-1.657-1.658Zm6.63,1.1a1.1,1.1,0,1,0,.781.324A1.1,1.1,0,0,0,345.235,172.1Z" transform="translate(-337.5 -150)" fill="#264488"/>
</svg>
