<svg xmlns="http://www.w3.org/2000/svg" width="16.382" height="18" viewBox="0 0 16.382 18">
  <path id="noun-switch-account-2374890" d="M293.939,259.659a.6.6,0,0,0-.193,1.161l1.186.456a8.126,8.126,0,0,0,1.711,15.359h0a.6.6,0,1,0,.225-1.18,6.927,6.927,0,0,1-1.567-13.03l-.481.968h0a.6.6,0,1,0,1.074.537l1.2-2.4h0a.6.6,0,0,0-.325-.83l-2.6-1h0a.6.6,0,0,0-.231-.044Zm6.006,1h0a.6.6,0,0,0-.106,1.192,6.93,6.93,0,0,1,1.561,13.036l.487-.968a.6.6,0,1,0-1.074-.537l-1.2,2.4a.6.6,0,0,0,.325.824l2.6,1h0a.6.6,0,1,0,.424-1.117l-1.18-.456a8.128,8.128,0,0,0-1.717-15.359.605.605,0,0,0-.119-.013Zm-1.592,2.8a2.393,2.393,0,0,0-1.667,4.114,4.2,4.2,0,0,0-2.728,3.877.6.6,0,0,0,.6.6h2.8a.6.6,0,1,0,0-1.2h-2.135a3.247,3.247,0,0,1,6.268,0h-2.135a.6.6,0,1,0,0,1.2h2.8a.6.6,0,0,0,.6-.6,4.2,4.2,0,0,0-2.728-3.877,2.393,2.393,0,0,0-1.667-4.114Zm0,1.2a1.2,1.2,0,1,1-1.2,1.2A1.19,1.19,0,0,1,298.352,264.66Z" transform="translate(-290.161 -259.659)" fill="#d66025"/>
</svg>
