<svg xmlns="http://www.w3.org/2000/svg" width="26.24" height="26.24" viewBox="0 0 26.24 26.24">
  <g id="noun-history-5580126" transform="translate(-100 -99.995)">
    <path id="Path_29020" data-name="Path 29020" d="M113.12,100a13.065,13.065,0,0,0-11.808,7.618v-2.37a.656.656,0,0,0-1.312,0v3.936a.656.656,0,0,0,.656.656h3.936a.656.656,0,0,0,0-1.312h-2.309a11.733,11.733,0,1,1-.956,5.215.656.656,0,1,0-1.309.069,13.12,13.12,0,1,0,13.1-13.812Z" fill="#d66025"/>
    <path id="Path_29021" data-name="Path 29021" d="M307.872,300a7.872,7.872,0,1,0,7.872,7.872A7.882,7.882,0,0,0,307.872,300Zm0,3.28a.656.656,0,0,1,.656.656V307.6l2.432,2.432a.656.656,0,0,1-.928.928l-2.624-2.624a.656.656,0,0,1-.192-.464v-3.936a.656.656,0,0,1,.656-.656Z" transform="translate(-194.752 -194.757)" fill="#264488"/>
  </g>
</svg>
