<svg xmlns="http://www.w3.org/2000/svg" width="56.369" height="59.931" viewBox="0 0 56.369 59.931">
  <g id="Your_Token_Number_is_Expired" data-name="Your Token Number is Expired" transform="translate(0 0)">
    <path id="Path_28920" data-name="Path 28920" d="M18.9.23A23.064,23.064,0,0,0,7.053,6.225a22.032,22.032,0,0,0-4.528,6.011A21.453,21.453,0,0,0,0,22.71,22.322,22.322,0,0,0,5.587,37.777,23.264,23.264,0,0,0,19.58,45.352l.766.1L22.984,41c1.45-2.443,3.909-6.613,5.49-9.252,3.567-6.043,3.861-6.451,4.805-7.167a5.575,5.575,0,0,1,3.779-1.205c2.7.033,4.121,1.026,6.076,4.349l1.254,2.1.2-.489a18.323,18.323,0,0,0,.554-2.166,27.334,27.334,0,0,0,.1-8.389A22.917,22.917,0,0,0,26.568.247,31.014,31.014,0,0,0,18.9.23m4.919,9.318.375.407.049,6.206c.033,3.421,0,6.451-.049,6.728-.114.668-7.167,7.754-7.851,7.9a1.445,1.445,0,0,1-1.6-1.759A23.779,23.779,0,0,1,18.1,25.316l3.242-3.274V16.064a48.462,48.462,0,0,1,.179-6.32,1.674,1.674,0,0,1,1.531-.668,1.641,1.641,0,0,1,.766.472" transform="translate(0 0)" fill="#ff5630"/>
    <path id="Path_28921" data-name="Path 28921" d="M126.057,161.494c-.863.44-1.173.847-2.7,3.421-1.564,2.655-7.2,12.168-10.946,18.488-3.942,6.63-4.219,7.151-4.284,8a2.6,2.6,0,0,0,.261,1.547,3.608,3.608,0,0,0,1.71,1.678c.31.13,5.864.179,17.527.179h17.055l.749-.472a3.325,3.325,0,0,0,.945-4.528c-.538-.945-11.256-19.042-14.416-24.32-2.264-3.779-2.655-4.186-4.17-4.333a2.44,2.44,0,0,0-1.727.342m2.737,9.432a2.73,2.73,0,0,1,1.124,2.492c0,1.6-.668,8.894-.847,9.4a2.016,2.016,0,0,1-1.548,1.075,2.045,2.045,0,0,1-.766-.2c-.863-.375-.928-.7-1.368-5.75a51.231,51.231,0,0,1-.293-5.343,3.3,3.3,0,0,1,1.466-1.906,2.564,2.564,0,0,1,2.232.228m-.342,15.817a1.931,1.931,0,0,1-.733,3.6,1.747,1.747,0,0,1-1.841-.912,1.922,1.922,0,0,1,2.574-2.688" transform="translate(-90.497 -134.875)" fill="#ff5630"/>
  </g>
</svg>
