<svg xmlns="http://www.w3.org/2000/svg" width="64" height="64" viewBox="0 0 64 64">
  <g id="unique_identity" data-name="unique identity" transform="translate(12246 22998)">
    <rect id="Rectangle_144579" data-name="Rectangle 144579" width="64" height="64" transform="translate(-12246 -22998)" fill="none"/>
    <g id="Group_71082" data-name="Group 71082" transform="translate(0 1)">
      <g id="Group_71079" data-name="Group 71079" transform="translate(8913 -5750.267)">
        <g id="Rectangle_21982" data-name="Rectangle 21982" transform="translate(-21154 -17237.732)" fill="#fff" stroke="#264488" stroke-width="1">
          <rect width="51.207" height="29.109" rx="3" stroke="none"/>
          <rect x="0.5" y="0.5" width="50.207" height="28.109" rx="2.5" fill="none"/>
        </g>
        <path id="Rectangle_144561" data-name="Rectangle 144561" d="M3,0H48.232a3,3,0,0,1,3,3V8.733a0,0,0,0,1,0,0H0a0,0,0,0,1,0,0V3A3,3,0,0,1,3,0Z" transform="translate(-21154 -17237.584)" fill="#264488"/>
        <rect id="Rectangle_21983" data-name="Rectangle 21983" width="12.664" height="1.747" transform="translate(-21129.639 -17223.178)" fill="#264488"/>
        <rect id="Rectangle_21986" data-name="Rectangle 21986" width="10.131" height="1.747" transform="translate(-21129.639 -17218.727)" fill="#bfbfbf"/>
        <rect id="Rectangle_144560" data-name="Rectangle 144560" width="7.092" height="1.747" transform="translate(-21129.639 -17215.025)" fill="#d66025"/>
        <rect id="Rectangle_144562" data-name="Rectangle 144562" width="7.092" height="1.747" transform="translate(-21121.025 -17215.025)" fill="#d66025"/>
        <rect id="Rectangle_21984" data-name="Rectangle 21984" width="22.542" height="1.371" transform="translate(-21129.639 -17226.09)" fill="#264488"/>
        <text id="ABHA_Card" data-name="ABHA Card" transform="translate(-21129.639 -17231.719)" fill="#fff" font-size="4" font-family="Arial-Black, Arial" font-weight="800" letter-spacing="0.096em"><tspan x="-14.759" y="0">ABHA CARD</tspan></text>
        <path id="Path_27815" data-name="Path 27815" d="M6.758,6.009S6.747,6,6.734,5.983,6.75,6.008,6.758,6.009Zm-.632.405h0Zm0,0h0ZM8.81,6.262c-.024-.034-.044-.043-.065-.073s-.005-.038-.006-.082c0-.127-.115-.149-.187-.163-.055-.011-.078-.007-.084-.028a.64.64,0,0,0-.045-.11A.372.372,0,0,0,8.3,5.7a.22.22,0,0,0-.157-.035.308.308,0,0,0-.127.063c-.06.051-.054.086-.084.087a.538.538,0,0,0-.137.03c-.046.014-.053,0-.06-.016a.206.206,0,0,0-.026-.081c-.025-.035-.062-.04-.054-.089a.24.24,0,0,0-.012-.14c-.016-.032-.031-.019-.031-.053a.159.159,0,0,0-.035-.1.168.168,0,0,0-.141-.03c-.042.007-.049,0-.057-.011A.076.076,0,0,0,7.3,5.3c-.019,0-.03.027-.056.024s-.02-.031-.06-.023c-.023,0-.032.034-.048.019s-.027-.032-.042-.027-.02.027-.036.027-.042-.033-.085-.027a.128.128,0,0,0-.04.012c-.029.011-.012-.03-.072-.007-.015.006-.031.056-.046.05a.078.078,0,0,0-.076-.015c-.025.011-.024.025-.06.025a.182.182,0,0,0-.123.008.088.088,0,0,0-.058.094c.012.039.007.1.018.122s.008.049-.023.08a1.125,1.125,0,0,0-.06.113c-.018.023-.046.009-.069,0a.273.273,0,0,0-.106-.039.127.127,0,0,1-.112-.052.163.163,0,0,0-.107-.057.167.167,0,0,0-.106.023c-.014.01-.038.045-.059.039a.118.118,0,0,0-.073.016.244.244,0,0,0-.081.074.376.376,0,0,0-.041.07.234.234,0,0,1-.042.052c-.019.012-.07.06-.11.063a.15.15,0,0,0-.067.044c-.025.025-.025.081-.032.118s-.055.077-.074.1a.236.236,0,0,0-.06.146c.006.034.012.061.028.068s.028,0,.041.011a.037.037,0,0,1,0,.036c-.005.007.044.055.062.066s.036,0,.042.021a.58.58,0,0,0,.04.074c.015.021.008.025.032.055s.05.047.065.067.028.045.032.051.051.01.089,0a.119.119,0,0,0,.073-.08c.005-.023.019-.04.019-.02s.012.066.011.094-.021.025-.034.049-.005.04-.01.061-.073.066-.075.141c0,.017.024.032,0,.055s-.017.046-.019.121c0,.051.018.037.007.055a.119.119,0,0,0,.019.136c.028.031.034.016.019.048s.025.111.048.141.079.05.079.1.081.1.089.1,0,.076.02.1.077.034.061.074a.426.426,0,0,0,0,.173,3.341,3.341,0,0,0,.062.337c.011.064-.048.135-.041.26s-.028.228-.061.233-.09-.019-.134,0-.053.092-.057.1-.071.034-.087.078a.179.179,0,0,0,.018.12c.007.014-.025.03-.041.038a.1.1,0,0,0-.042.057c-.006.015-.024.009-.039.01a.072.072,0,0,0-.045.049.269.269,0,0,0,0,.055c0,.019-.014.024-.018.036s.007.07-.009.091a.921.921,0,0,0,0,.118.2.2,0,0,0-.04.042.151.151,0,0,0,0,.108c.012.021.059.016.056.036a.756.756,0,0,0,.019.208.937.937,0,0,1,.06.137c.011.029.04.026.053.042a.082.082,0,0,0,.063.024c.048,0,.144.028.184.025.021,0,.044,0,.039,0a.12.12,0,0,0-.013.161.229.229,0,0,0,.125.066c.028.006,1.038.028,1.038.028s.839-.007.888-.011A.26.26,0,0,0,8.12,10.6a.158.158,0,0,0,.077-.134c-.006-.054-.01-.077,0-.079s.082-.022.142-.043a.321.321,0,0,0,.146-.105c0-.013.011-.062.04-.071s.012-.042.02-.054.033-.015.033-.052A.742.742,0,0,1,8.6,9.912c.006-.017.031-.031.045-.04s.013-.1.006-.113-.051-.021-.057-.067c0-.021.006-.051,0-.076s-.026-.03-.023-.051A.087.087,0,0,0,8.554,9.5c-.015-.012-.034-.006-.036-.017a.078.078,0,0,0-.035-.06c-.015-.008-.007-.02-.014-.041s-.086-.042-.055-.092a.1.1,0,0,0-.052-.139c-.018-.007,0-.043-.023-.066a.152.152,0,0,0-.122-.063.321.321,0,0,1-.1,0A.174.174,0,0,1,8.072,8.9a.587.587,0,0,0-.064-.187.12.12,0,0,1,.009-.128.707.707,0,0,0,.047-.251,1.187,1.187,0,0,1,0-.264c.07-.013.019-.059.053-.083s-.008-.044.026-.066A.1.1,0,0,0,8.2,7.852a.315.315,0,0,1,.048-.087c.012-.022,0-.05.007-.056.03-.019.084-.067.084-.1s-.025-.045,0-.066a.235.235,0,0,0,.06-.109c.008-.05-.044-.023,0-.075a.154.154,0,0,0,.033-.137c-.01-.035-.031-.03-.017-.06a.117.117,0,0,0,.008-.057.158.158,0,0,0-.033-.077c-.027-.034.015-.011.011-.048s-.038-.072-.047-.093-.009-.037-.014-.053a.324.324,0,0,0-.048-.065c-.012-.013-.027-.055.009-.054s.038.057.046.08.042.041.056.048a.085.085,0,0,0,.071-.01.84.84,0,0,0,.073-.083c.017-.017.051-.034.059-.061a.155.155,0,0,1,.043-.069c.022-.019.065-.043.081-.056A.708.708,0,0,0,8.8,6.5a.254.254,0,0,0,.062-.108c.012-.047-.023-.084-.054-.128Zm-3.3,3.611S5.5,9.864,5.5,9.853s0-.021.007-.021.007.009.007.021S5.513,9.874,5.509,9.874ZM8.6,9.758a.064.064,0,0,1,.029.05.064.064,0,0,1-.027.055.317.317,0,0,1,0-.105Zm-.061.005a.907.907,0,0,1,.011-.209,1.062,1.062,0,0,1,.021.346,1.082,1.082,0,0,1-.032.171c-.008.019,0-.24,0-.308Zm-.1-.272a.476.476,0,0,1,.051.177A1.848,1.848,0,0,1,8.5,9.99a1.033,1.033,0,0,1-.042.2,1.509,1.509,0,0,1-.011-.256c0-.04,0-.217-.007-.275a.662.662,0,0,1,0-.165ZM7.73,5.982c.012-.024.029-.045.091-.09.022-.016.064-.045.089-.031s.057,0,.072.011.019.022.03-.008,0-.043.036-.087a.18.18,0,0,1,.125-.056c.051,0,.122.02.134.074.007.029-.043.067-.034.067A.073.073,0,0,0,8.3,5.853a.058.058,0,0,0,.021-.017c.008-.013,0-.029.021-.03s.009.024.008.029a.029.029,0,0,1-.012.019c-.012.006-.015.011,0,.008s.019-.023.035-.02.01.055.006.074-.02.06-.059.052-.074-.021-.078.008,0,.046-.005.061c-.01.031-.02.024-.028-.006,0-.014-.012-.021-.013,0s0,.033-.019.043-.1.014-.124.06c-.012.025,0,.064-.014.075a.043.043,0,0,1-.066-.021.131.131,0,0,1,.036-.1c.029-.027.019-.044.045-.07.007-.007,0-.04-.01-.039-.027,0,0,.05-.025.044s-.048-.043-.034-.052,0-.064-.015-.065-.006.041,0,.072a.125.125,0,0,1-.044.1c-.047.026-.076.006-.1.016S7.8,6.1,7.8,6.113s0,.033-.009.04-.089-.044-.062-.076c.007-.008.026,0,.04-.007s.016-.046.049-.051a.2.2,0,0,0,.1-.033c.025-.028.024-.069.017-.073s0,.031-.022.043-.036,0-.067.014-.086.077-.111.071-.023-.024-.007-.058Zm.441.307c.024.005-.006-.016.021-.046.009-.01.035-.032.058-.028.005,0,.018.018,0,.05-.009.016,0,.058-.015.082a.147.147,0,0,1-.1.058c-.042.006-.071.021-.076.035s.035.027.049.033,0,.028-.029.032a.07.07,0,0,1-.071-.055.2.2,0,0,1,.039-.126c.019-.014.035.018.05.024a.134.134,0,0,0,.09-.011c.011-.007.014-.024,0-.025s-.049,0-.068-.01a.224.224,0,0,1-.045-.084c0-.015-.011-.042.011-.046a.422.422,0,0,0,.088-.037c.014-.01.035-.048.057-.054s.027.007.029.03-.008.053-.027.049-.013,0-.032.018-.048.047-.054.071a.03.03,0,0,0,.023.042ZM8.122,7.1c.032,0,.03-.017.032-.033a.107.107,0,0,1,.077-.074.04.04,0,0,1,.038.053c-.015.037-.04.031-.073.068s-.018.046-.025.063-.024.019-.023-.025c0-.016-.045,0-.057-.007-.031-.009-.035-.07-.062-.11s-.056-.015-.072-.074c-.011-.039.008-.038-.016-.076A.243.243,0,0,1,7.9,6.819c0-.014-.019-.05.036-.093s.077-.025.085-.014a.077.077,0,0,1,.018.041c0,.026-.05.02-.075.052s-.027.036-.01.045.041-.03.057-.023A.106.106,0,0,0,8.091,6.8c.024-.014.031-.01.029.015s-.027.054-.061.072a.094.094,0,0,0-.05.1c.011.023.025.027.034.005s0-.054.052-.061S8.13,6.9,8.151,6.9s.029.033.018.054-.083.057-.083.1.017.047.035.047Zm-.067.286a.12.12,0,0,0,.006.077c.009.03.006.054,0,.034a.393.393,0,0,1-.023-.075c0-.02-.038-.028-.029-.057s.028-.052.038-.079a.46.46,0,0,1,.041-.078c.007-.012.033-.006.044.026a.119.119,0,0,1-.02.092c-.021.038-.058.044-.055.061Zm-.042.388a.116.116,0,0,1-.05-.114.119.119,0,0,1,.061-.075c.02-.011.009-.04.02-.04s.022.029.015.055-.027.035-.044.074S8.045,7.8,8.013,7.777Zm-.058-.125c.009.01-.036.018-.057-.026s0-.04-.01-.077.064-.1.077-.11.03.042.029.06-.06.068-.065.1a.063.063,0,0,0,.026.055Zm-.114.113c-.008.024.019.029.02.037s0,.021-.044-.019C7.8,7.77,7.8,7.749,7.81,7.715a.356.356,0,0,1,.035-.071c.015-.026.02-.023.02-.023s.024.059-.01.077c-.019.01,0,.036-.014.067Zm-.061-.1c0,.032-.01.077-.025.068s-.034.045-.051.043-.022-.032-.016-.051.056-.066.062-.075-.006-.042-.01-.058.042-.065.05-.066.034.062.022.079A.112.112,0,0,0,7.78,7.667Zm0,.163c-.017,0-.037-.017-.038-.033a.03.03,0,0,1,.018-.031c.018-.007.02.027.031.032S7.789,7.828,7.778,7.83Zm-.112-.246c0-.008-.027-.022-.019-.036s.033,0,.045.012.023.059,0,.074-.031.013-.024-.01a.042.042,0,0,0,0-.04ZM7.7,8.77c.008,0,.035.088.043.113,0,.009.014.07.015.08s-.048-.025-.044-.044c.015-.069-.032-.141-.014-.149Zm.014.213c.009-.006.066-.012.062,0a.094.094,0,0,1-.084.031C7.684,9.011,7.7,8.991,7.714,8.983Zm.435.347c.02.007.045.046.038.066s-.022.032-.034.019,0-.044-.022-.052-.035-.012-.04-.033.039-.007.058,0Zm-.039-.053c.008,0,.02.008.018.018s-.007.02-.018.012A.018.018,0,0,1,8.109,9.277Zm.162,1-.05.008h0c.005,0-.006-.032.009-.039s.023-.05.024-.054-.019-.017-.021-.031a.258.258,0,0,1,.021-.052s.035.039.042.045.015.038,0,.038-.019.053-.024.057.005.027-.006.029Zm.03-.9c-.007,0-.015-.014,0-.016a.036.036,0,0,1,.022,0c.02.011.044.062.007.059-.011,0,0-.035-.024-.046Zm0-.077c-.013.027-.006-.012-.007-.023a.079.079,0,0,0-.036-.056c-.012-.008-.008.009-.013.015S8.229,9.21,8.229,9.2s0-.01.015,0a.133.133,0,0,1,.036.029A.071.071,0,0,1,8.3,9.3Zm-.022-.019c0,.009-.01.033-.016.035s-.006-.033-.005-.045,0-.023.011-.022.011.022.01.032Zm-.035.068c.021.01.036.056.026.066s-.034.014-.033-.02-.015-.028-.029-.036-.017-.021,0-.023a.1.1,0,0,1,.04.013Zm-.012.208,0,.126H8.2V9.7h.025v.03H8.2v.024h.023v.024s-.121.005-.12-.013V9.757h.015V9.733H8.1c0-.011,0-.021,0-.03h.014V9.679H8.1a.147.147,0,0,0,0-.023h.02V9.632H8.091V9.64c-.014-.026-.038-.024-.063-.037L8,9.59h.01V9.566H7.986v.017L7.958,9.57s-.005-.022-.009-.044h.019V9.5H7.945V9.5a.276.276,0,0,0-.016-.061.137.137,0,0,1,.085,0H7.993v.024h.026V9.44l.03.011h-.01v.024h.026V9.457a.844.844,0,0,1,.1.052H8.144v.024H8.17v-.02c.035.022.059.039.059.039ZM8.1,9.413c-.021,0-.044.008-.054-.012s-.027-.049-.034-.059c-.023-.032-.009-.025,0-.024a.047.047,0,0,1,.044.024C8.073,9.352,8.114,9.411,8.1,9.413ZM8,9.4c-.017,0-.047.011-.048-.023s-.034-.045-.034-.063.03-.01.048-.005S8.017,9.4,8,9.4Zm-.081-.035c0,.007.008.035,0,.035H7.88c-.013,0-.007-.037-.035-.057S7.805,9.3,7.814,9.3H7.86a.118.118,0,0,1,.055.063Zm-.069.092a.027.027,0,0,1-.025.021c-.016,0-.026-.018-.026-.03a.023.023,0,0,1,.025-.026A.027.027,0,0,1,7.846,9.458Zm0-.2c0,.013-.034.018-.042.006s.012-.028,0-.054S7.789,9.152,7.8,9.15A.144.144,0,0,1,7.85,9.256Zm-.038.113c0,.015-.014.015-.028.015s-.035,0-.035-.019S7.71,9.322,7.71,9.3s.019,0,.035,0,.02.013.024.018C7.787,9.338,7.812,9.358,7.812,9.369Zm-.1.141a.242.242,0,0,0,0,.032H7.69v.024H7.7c0,.038,0,.078,0,.079s-.03.028-.043.028-.015-.059-.036-.1l0,0h.007V9.541H7.6l-.014-.028H7.6V9.489H7.578l-.019-.032h0V9.433H7.542a.126.126,0,0,0-.016-.017l.172,0,0,.015H7.69v.024h.019a.174.174,0,0,1,0,.028H7.69v.024Zm0,.322a.192.192,0,0,1,0,.026v0h-.02v.018H7.7a.25.25,0,0,0,0,.03H7.685v.018h.024a.245.245,0,0,0,.036.092H7.737v.018h.022a.088.088,0,0,1,.018.045s-.013.031-.027.065v-.006H7.724v.018h.021l-.014.038h-.02v.018h.015a.074.074,0,0,0,0,.014c0,.021-.052,0-.055.027s.011.043-.006.042l-.305.006a.3.3,0,0,0,.071-.034v.01h.026v-.018H7.437l.014-.012a1.25,1.25,0,0,0,.141-.156H7.6v-.018h0l.007-.013c0-.009.009-.02.014-.033v.009H7.65V10.02H7.627c0-.013.009-.026.013-.041h.017V9.961H7.645a.955.955,0,0,0,.031-.2c0-.009.021.013.028.056H7.685v.018h.02Zm-.106.534c-.013-.014-.036-.031-.025-.035s.016-.005.036.006.048.03.043.048,0,.028-.021.027-.048,0-.037-.012S7.612,10.379,7.6,10.365Zm-.09,0c-.009-.011-.03-.026-.019-.029a.1.1,0,0,1,.046,0,.07.07,0,0,1,.037.038c0,.005,0,.039-.023.041s-.052,0-.045-.013.012-.026,0-.036Zm.024.086c0-.01.021-.007.035-.007s.009.012.01.017-.014.015-.027.015S7.531,10.455,7.533,10.448Zm.12,0c0-.006.02,0,.034,0s.01.008.011.013-.015.014-.028.014a.017.017,0,0,1-.016-.024Zm.028-.052a.035.035,0,0,0,0-.027c-.009-.015-.028-.038-.016-.039a.031.031,0,0,1,.028.012c.01.01.033.041.031.058s-.007.013-.023.013-.024,0-.02-.017Zm-.333-.037c-.012-.011-.039-.031-.029-.033s.021-.012.028-.008.063.049.063.063,0,.03-.025.03-.038-.009-.038-.016S7.36,10.37,7.348,10.359Zm-.079.014c-.005-.008-.033-.033-.024-.035a.109.109,0,0,0,.034-.011c.007,0,.038.035.044.042s.008.03,0,.036-.062.01-.052,0A.023.023,0,0,0,7.269,10.374Zm-.442.023s-.04.014-.05.011-.03-.042-.018-.049a.345.345,0,0,1,.068-.044c.009,0,.021.007.036.007s-.042.014-.047.028a.069.069,0,0,0,.01.047Zm-.094.008a.09.09,0,0,1-.05,0c-.024-.009-.038-.045-.028-.051a.577.577,0,0,1,.132-.057.134.134,0,0,0,.023.011c.011.005-.073.034-.084.053s.013.036.008.044Zm-.1-.027c.009.008.006.02-.017.022s-.059-.055-.044-.067a.367.367,0,0,1,.111-.042s.026.016.022.018l-.069.038a.02.02,0,0,0,0,.03Zm-.086.011a.046.046,0,0,1-.047,0c-.02-.015-.028-.052-.02-.059a.161.161,0,0,1,.069-.03c.019,0,.032.008.032.012s-.041.019-.05.031S6.555,10.381,6.543,10.389Zm-.652-.177L5.883,10.2H5.9v-.021H5.873v.012a.021.021,0,0,0-.011,0c-.014,0,0-.056,0-.067s0,0,0,0,0,0,0,0a.181.181,0,0,0,.128-.072c.012-.021.067,0,.1.027H6.087v.021h.027v-.008h0c.034.027.16-.009.188.03l.007.007H6.3v.021H6.33v-.008c.038.017.1.021.106.068s-.023.066-.036.069-.416,0-.426,0-.049,0-.066-.031l0-.009h.011v-.021H5.891Zm.546.067c0-.011.028-.032.034-.041a.092.092,0,0,0-.009-.056c-.007-.009-.031-.052-.045-.056s-.032-.015-.042-.018,0-.012,0-.012A.071.071,0,0,1,6.4,10.1a.254.254,0,0,1,.062.034.366.366,0,0,1,.048.067c.009.026-.012.04-.014.059s-.006.023-.021.024S6.433,10.29,6.438,10.28Zm.113-.211h0a.063.063,0,0,0-.045-.017c-.015,0-.029-.013-.04-.032h.007V10H6.454c-.023-.049-.034-.116-.017-.118a.444.444,0,0,1,.117-.006s.007.01.009.022H6.537v.021h.027V9.911a.279.279,0,0,0,.041.133l.01.015H6.594v.021h.027v-.012a1.837,1.837,0,0,0,.124.186c.018.012,0,.017,0,.017a.413.413,0,0,1-.093,0c-.006-.006,0-.016-.01-.042h.023v-.021H6.638v.012l-.006-.012c-.022-.042-.052-.079-.056-.091a.121.121,0,0,0-.01-.026h.011v-.021Zm.3.3a.245.245,0,0,1,.043-.042.256.256,0,0,0,.029.011s-.033.019-.014.047-.022.025-.036.026S6.846,10.377,6.849,10.366Zm.047.09c0-.009.005-.023.026-.023s.048,0,.048.006a.036.036,0,0,1-.038.032C6.912,10.472,6.883,10.48,6.9,10.457Zm.045-.041c-.013,0-.027-.038-.024-.049a.055.055,0,0,1,.014-.026.26.26,0,0,0,.055.009c.017,0-.01.015-.008.022l.013.037C7,10.421,6.955,10.419,6.942,10.415ZM7,10.436a.241.241,0,0,1,.075,0s-.012.04-.029.041-.067,0-.067,0A.043.043,0,0,1,7,10.436Zm.091-.027c0,.012-.061.008-.071,0s-.029-.057-.016-.054a.551.551,0,0,0,.078.009C7.094,10.365,7.088,10.4,7.091,10.409Zm0,.024s.069,0,.069,0-.009.04-.019.041a.29.29,0,0,1-.07,0C7.07,10.468,7.078,10.435,7.087,10.433Zm.031-.027c-.007-.009-.007-.044,0-.045s.046-.005.054-.008.022.048.006.056-.05.009-.059,0Zm0-.091a.5.5,0,1,1,.5-.509A.5.5,0,0,1,7.114,10.315Zm-.62-.828V9.5h.022c-.024.018-.05.037-.052.048H6.447V9.57h.017a.09.09,0,0,1-.028.059l0,0H6.407v.018h.017a.066.066,0,0,0,.009.04H6.416v.018h.025a.076.076,0,0,1,0,.012c.007.026.012.062-.023.063s-.079-.022-.133-.033V9.736H6.265v.01H6.253V9.736H6.227v.009l-.018,0-.007,0V9.736H6.175v.006c-.023-.025-.022-.094-.047-.122a.386.386,0,0,1-.051-.156H6.1V9.446H6.075l0-.011a1.788,1.788,0,0,1,.484-.026c.027.019.015.045,0,.064A.277.277,0,0,1,6.52,9.5V9.487H6.494Zm-.432-.163A.091.091,0,0,1,6.141,9.3c.015,0,.01.015-.01.019a.039.039,0,0,0-.031.039c0,.015.011.033-.01.033h-.03C6.044,9.388,6.044,9.345,6.063,9.324Zm-.014-.017a.128.128,0,0,0-.024.064c0,.017-.025.015-.037.017s-.009-.03,0-.05S6,9.3,6.015,9.3s.043,0,.033.006Zm.122.005a.06.06,0,0,1,.053-.024c.022,0,.014.015,0,.028a.082.082,0,0,0-.031.065c0,.007-.052.013-.052,0A.11.11,0,0,1,6.17,9.312Zm.321-.48a.237.237,0,0,1,.019-.1c.007-.02.008-.04.019-.067s-.015-.195.018-.184.006.1.006.109a.623.623,0,0,0,.032.235c.007.011,0,.041-.006.074,0,0-.019.021-.03.04s-.012.035-.018.041c-.022.022-.05-.011-.067.008s-.029.022-.032.007.01-.023.024-.046a.365.365,0,0,0,.016-.043.134.134,0,0,0,.02-.077ZM6.35,7.02a.1.1,0,0,0-.026.081c0,.027,0,.077-.018.088s0,.05-.015.063-.052-.01-.047-.026.029-.024.032-.046-.02-.043-.044-.075.02-.041.043-.041.048.006.038-.021-.059-.064-.066-.109S6.28,6.9,6.29,6.9s0,.049.019.051.012.01.026-.014S6.3,6.921,6.31,6.873s-.007-.085,0-.1.024-.047.037-.046,0,.05.009.068.034.038.04.05a.037.037,0,0,1-.012.052c-.019.013,0,.023-.028.044s.015.063,0,.082ZM6.3,7.769A.09.09,0,0,1,6.25,7.8c-.04,0-.011-.018.006-.048s-.018-.08.011-.09.042.018.059.035-.006.033-.015.044,0,.023-.008.033ZM6.21,7.7c-.017.043-.047.042-.063.068s.028.03-.029.059c-.018.009-.04,0-.024-.013s.015-.054-.014-.076-.023-.054,0-.056.036.047.059.046.039-.033.038-.053-.021-.024-.036-.042-.012-.029-.024-.038c-.034-.023-.022-.041,0-.04.04,0,.057.044.073.056a.072.072,0,0,1,.021.09ZM6.2,7.861a.061.061,0,0,1-.057.01c-.021,0,.021-.005.034-.067C6.183,7.776,6.231,7.83,6.2,7.861Zm.019-.544a.173.173,0,0,1-.034-.042A.034.034,0,0,1,6.2,7.234c.015-.006.024.022.031.044s.033.035.034.054a.065.065,0,0,1-.044.064.108.108,0,0,1-.088-.013c-.016-.018-.006-.03,0-.032s.028.025.051.03.016-.011.029-.021a.029.029,0,0,0,0-.043Zm-.052.151s-.016-.019,0-.028A.043.043,0,0,1,6.2,7.434c.021,0,.026.015.046.011s.03-.036.045-.048.039.014.041.049c0,.018-.007.031-.034.032-.005,0-.008-.015-.02-.012s.007.037-.014.066-.026.047-.032.023.008-.042-.011-.063-.037-.016-.052-.025ZM6.3,7.262a.018.018,0,0,1,.018.021c0,.012,0,.028-.007.032S6.292,7.3,6.287,7.3s-.018-.041.009-.041Zm0,.352c0-.018.007-.05,0-.055s-.027-.035-.009-.042.014,0,.032.018a.1.1,0,0,1,.013.094c-.013.016-.039,0-.035-.014Zm-.044-.951c-.014-.025-.1-.017-.139-.081-.014-.024,0-.044-.006-.071s-.03-.042-.03-.064.035-.044.035-.044a.015.015,0,0,0,0,.008c-.012-.013-.006-.064.013-.067.037-.006.036.021.066.051s.041,0,.049.019c0,.008,0,.019.03.032s.04,0,.054.005.039.038.032.085c0,.02-.011.03-.038.047s-.042-.018-.04-.038A.058.058,0,0,0,6.25,6.5a.783.783,0,0,1-.08-.011c-.027-.01-.013-.065-.036-.072,0,0,0,.03,0,.048a.115.115,0,0,0,.048.089c.039.018.075.023.1.038a.073.073,0,0,1,.038.1.066.066,0,0,1-.081.029c-.013-.008.027-.027.012-.052Zm-.287-.023c-.054-.046-.065-.073-.064-.107s.017-.043.036-.032.047.049.065.057S6,6.6,6.014,6.6s.008-.006.013-.009.005-.019.006-.029.007,0,.009,0a.038.038,0,0,0,0-.029c-.008-.017-.019,0-.052-.061a.182.182,0,0,0-.05-.044.057.057,0,0,1-.022-.039c-.006-.018-.04-.054-.025-.063s.034.03.057.039.027,0,.045.006,0,.044.032.069.045.025.052.042-.006.014,0,.022a.1.1,0,0,1,0,.089c-.024.036-.074.035-.062.042s.048,0,.067.044A.092.092,0,0,1,6.05,6.8c-.035.017-.087,0-.075-.009a.105.105,0,0,0,.04-.067c.005-.027-.005-.043-.047-.08ZM6.18,6.2c.009-.01.013.039.034.042a.069.069,0,0,1,.052.023c.009.015.009.03.029.041s.056.031.062.055-.023.051-.04.069-.01-.03-.044-.05-.093-.024-.109-.056A.113.113,0,0,1,6.18,6.2Zm.477.044c0-.028-.007-.057.015-.054s.023.02.011.054a.162.162,0,0,0-.01.055c0,.049-.024.082-.068.08s-.02-.016-.047-.042S6.514,6.3,6.5,6.283a.105.105,0,0,1,0-.069c.007-.025.037,0,.07-.019s.023-.037.04-.037.026.042.027.063a.358.358,0,0,1,0,.045s.02-.01.018-.026ZM6.8,6.46c.008.01,0,.043-.009.057s-.063.018-.069.046,0,.028-.011.044a.042.042,0,0,1-.031.014c-.019,0-.028-.012-.036-.037s-.011-.074-.035-.089a.344.344,0,0,1-.081-.1c0-.015,0-.017.009-.015a.55.55,0,0,1,.074.059c.02.019.02-.075.063-.061.027.009.015.056.023.09.019.075.013-.023.036-.029s.022.037.018.057.039-.044.049-.032Zm.094-.291a.186.186,0,0,1-.087-.027c-.01-.005-.006-.021.021-.016a.352.352,0,0,0,.085.013.275.275,0,0,0,.127-.033c.028-.012.04-.019.044-.038s-.009-.018-.035.008a.285.285,0,0,1-.166.03c-.043-.008-.054-.027-.078-.058-.012-.016-.012-.036.007-.036s.032.051.057.061a.2.2,0,0,0,.122.011c.027-.007.053-.018.057-.034a.023.023,0,0,0-.012-.025C6.987,6,6.982,6.018,6.951,6s-.017-.04-.035-.09a.034.034,0,0,1,.019-.048c.012,0,.021,0,.023.03s-.01.057.008.083S7,5.978,7.046,6a.2.2,0,0,0,.073.023c.024,0,.03-.025.058-.028s.02.016.048.023A.078.078,0,0,0,7.3,6c.02-.018.028-.013.034-.034s0-.024,0-.052.063.007.036.081a.112.112,0,0,1-.064.064.178.178,0,0,1-.136-.026c-.039-.024-.01.019.032.033.084.028.1.016.125,0,.042-.02.043-.052.073-.062s.024.024,0,.055a.1.1,0,0,1-.093.052.218.218,0,0,1-.1-.013.264.264,0,0,1-.088-.054c-.021-.015-.011.011,0,.023a.181.181,0,0,0,.115.062.277.277,0,0,0,.139-.006c.056-.02.041-.059.082-.085.015-.01.026.011.034.024a.057.057,0,0,1,0,.051c-.01.013-.022,0-.019-.012s-.021-.024-.028-.007a.172.172,0,0,1-.186.1.191.191,0,0,1-.139-.066c-.017-.018-.017-.048-.034-.048s0,.01-.021.036A.336.336,0,0,1,7,6.182c-.026.02-.046.009-.1.039-.025.014-.069.011-.066-.014s.045-.015.066-.026.007-.011-.011-.012ZM6.879,5.95c.024.019,0,.028.034.059a.147.147,0,0,0,.08.035.133.133,0,0,1-.076.009.124.124,0,0,1-.082-.066c-.011-.023.021-.055.044-.038Zm.378-.067c.012-.013.044-.009.044.026s0,.068-.04.089S7.2,5.979,7.2,5.979a.13.13,0,0,0,.052-.023c.021-.018-.009-.056.008-.074Zm.254.654c.037-.029.016-.119,0-.138s.026,0,.046,0,0-.021-.031-.034c-.012,0-.014-.018,0-.027s.038.006.076.044.01.079-.007.109-.014.054-.047.055-.036.035-.048.055a.053.053,0,0,1-.058.031c-.018,0-.017-.016-.011-.021s.016,0,.019,0,0-.027,0-.041a.5.5,0,0,0-.037-.057.04.04,0,0,1,0-.047c.016-.012.035.048.05.042s-.029-.065-.01-.08c0,0,.019.051.022.049s0-.085.013-.074a.146.146,0,0,1,.026.075c0,.036,0,.066,0,.063Zm.223.823c-.009-.045-.025,0-.036-.051s-.041-.017-.011-.051c.011-.012.043,0,.057.026a.181.181,0,0,1,0,.158c-.033.052,0-.036-.012-.081ZM7.652,7.4a.043.043,0,0,1,.047.02c.022.037.02.073,0,.08s-.026-.008-.023-.038A.077.077,0,0,0,7.652,7.4Zm.057-.182c-.02,0-.013-.017-.018-.028s-.024-.018-.028-.03a.027.027,0,0,1,.01-.032.045.045,0,0,1,.049-.005.05.05,0,0,1,.028.053c0,.016-.022.043-.042.042Zm-.037-.142c-.048-.005-.007,0,0-.027s-.009-.014-.024-.033-.019-.059.022-.061c.026,0,.048.022.059.058a.054.054,0,0,1-.057.063ZM7.459,8.55a1.149,1.149,0,0,0,.066.234,1.118,1.118,0,0,1,.015.12c.008.032-.019.023-.02.047s-.009.072.009.086.062.021.073.058a.063.063,0,0,1-.008.045.076.076,0,0,0,0,.047c.009.016.012,0,.021-.02s.039,0,.047.018a.21.21,0,0,1,.012.067c0,.018-.011.017-.019.012s.01-.05,0-.065a.03.03,0,0,0-.034-.006c-.019.011.023.062,0,.067s-.02.008-.028,0,0-.038-.007-.042-.02-.008-.023.019-.008.009-.007-.021.016-.051,0-.072A.112.112,0,0,1,7.522,9.1c-.009-.022.009-.04-.031-.047-.013,0-.057-.012-.051-.036a.043.043,0,0,0-.011-.05c-.013-.012.016-.053,0-.08a.34.34,0,0,1-.052-.169c0-.1-.01-.224-.01-.224a1.071,1.071,0,0,0-.03.159,1.481,1.481,0,0,0-.043.262.145.145,0,0,1,0,.048.374.374,0,0,1-.026.065.155.155,0,0,0-.006.088c.006.01-.028.016-.03-.018a.193.193,0,0,1,.018-.085c.007-.012.025-.03.028-.043A.121.121,0,0,0,7.263,8.9a.137.137,0,0,1,0-.08c.018-.082.061-.362.069-.386s.007-.34.006-.379-.038-.114-.011-.118c.067-.009.065-.014.078-.026s.06-.076.079-.076c.034,0,.06.012.057.026-.009.06.048.109.017.235a2.256,2.256,0,0,1-.051.235c-.036.112-.06.157-.049.212Zm.1.43c.011-.009.014.017.021.025s.03.031.024.033a.051.051,0,0,1-.035-.009C7.556,9.019,7.55,8.987,7.558,8.98Zm-.015.362C7.538,9.334,7.492,9.3,7.5,9.3s.044-.007.071.02a.138.138,0,0,1,.034.058c0,.013-.007.013-.026.013s-.038,0-.035-.012A.051.051,0,0,0,7.543,9.342ZM7.45,9.331c-.021-.016-.046-.04-.035-.041a.077.077,0,0,1,.04,0,.133.133,0,0,1,.043.041c.006.012.028.051.013.051s-.05,0-.055-.013S7.46,9.338,7.45,9.331Zm-.124-.1c.008.023-.011.039-.025.03a.136.136,0,0,1,.007-.111c.018-.017.006-.04-.008-.04s-.011-.053.012-.052.037.071.04.044a.35.35,0,0,0-.02-.085c-.007-.03-.008-.069,0-.068s.013-.05,0-.054-.008-.1,0-.108.01-.074.022-.074.021.08.015.1.007.019.013.039-.006.045,0,.06,0,.053,0,.091-.025.029-.007.08a.246.246,0,0,0,.013.044c.007.012.018,0,.022-.02a.186.186,0,0,1,.024-.051c.005-.007.023,0,.03.008a.032.032,0,0,1,.005.041c-.006.012-.018.019-.027.033s.03,0,.053.005a.042.042,0,0,1,.034.03.1.1,0,0,1,0,.035.131.131,0,0,1-.017.052.017.017,0,0,1-.029-.005c0-.015.021-.035.021-.058A.027.027,0,0,0,7.5,9.171a.046.046,0,0,0-.045.007.025.025,0,0,0,0,.035.064.064,0,0,1,.021.03c.005.023-.013.026-.036.02-.007,0-.017-.035-.015-.068s-.021-.021-.036-.049-.024,0-.008.011a.078.078,0,0,1,.016.054.036.036,0,0,1-.027.037c-.006,0,0-.025-.006-.048s-.025-.033-.036-.023,0,.049,0,.056Zm.163,0s-.012-.006-.016-.019,0-.027.007-.027a.015.015,0,0,1,.013.017c0,.009,0,.027,0,.029ZM7.336,9.19s.012.016.008.033,0,.02-.008,0S7.326,9.19,7.336,9.19Zm.018.108a.065.065,0,0,1,.045.014c.039.031.026.049.016.039a.107.107,0,0,0-.07-.037C7.336,9.315,7.339,9.3,7.353,9.3Zm.254,0a.092.092,0,0,1,.046.006.2.2,0,0,1,.054.067c0,.02-.033.014-.045.014-.029,0,0-.042-.042-.069C7.612,9.309,7.594,9.3,7.607,9.3Zm.025-.07c0-.011,0-.016.007-.019s.011.017.006.023-.015.006-.014,0Zm-.426-.085a.093.093,0,0,1-.007.111,1.1,1.1,0,0,1-.2,0c-.025,0,0-.039-.012-.06s-.032-.042-.023-.052a.062.062,0,0,0,0-.079c-.013-.013,0-.1,0-.108a.2.2,0,0,0-.008-.1.538.538,0,0,1,.037-.291c.023-.042-.034-.389,0-.431.008-.009,0-.038.014-.042s.029.024.045.011A.061.061,0,0,1,7.1,8.1c.019,0,.029.023.04.026s.027-.022.035-.01.01.321.007.335a1.438,1.438,0,0,0,.058.272.152.152,0,0,1,0,.087.325.325,0,0,0,0,.048.233.233,0,0,1-.011.089c-.01.02-.025.066-.043.1a.115.115,0,0,0,.024.1Zm-.293.048c0-.01-.039-.031-.052,0a.066.066,0,0,0,0,.042c0,.009.024.021.027.037s-.032,0-.038-.011a.182.182,0,0,1-.005-.03.1.1,0,0,1,0-.065.035.035,0,0,1,.035-.019.052.052,0,0,1,.038.022.063.063,0,0,1,.006.046c0,.008.007.023.007.033s-.015.013-.017.013-.016,0-.012-.017.005-.019.008-.027a.044.044,0,0,0,0-.027Zm-.019.031a.012.012,0,0,1-.022,0c0-.008-.01-.024.009-.026S6.9,9.211,6.894,9.221Zm-.174.056c.018,0,.059-.006.05,0a.169.169,0,0,0-.043.038c-.006.009,0,.032-.006.038a.074.074,0,0,1-.047,0c-.02,0,.034-.078.047-.079Zm-.013-.087c.017,0,.018.02.017.031s0,.022-.01.023S6.7,9.231,6.7,9.22,6.7,9.188,6.707,9.189Zm.107.082c.011,0,.04.011.015.028a.148.148,0,0,0-.048.055c0,.007-.025.008-.025-.015S6.8,9.272,6.814,9.271Zm.013-.116c-.008,0,0,.006,0,.019s0,.082-.013.085-.012-.023,0-.041-.011-.043-.015-.056A.568.568,0,0,0,6.782,9.1c-.008-.02-.017-.034-.022-.035s-.014.037-.028.049-.024.017-.025.023,0,.015.007.016a.093.093,0,0,1,.039.01.054.054,0,0,1,.018.047.069.069,0,0,1-.028.049c-.015,0,0-.051,0-.058s-.011-.02-.021-.026a.041.041,0,0,0-.036,0c-.008,0-.015.019-.01.026a.062.062,0,0,1,.01.047c-.007.016-.041.024-.04-.029,0-.024.01-.048.021-.051s0-.059.012-.1c.005-.017.01-.056.043-.057.011,0,.025.015.037.014s-.005-.049.006-.051.02-.038.031-.041.014.018.019.026a.3.3,0,0,1,0,.084c0,.006,0,.017.008.017s.034-.014.021.014c-.006.012-.013.017-.014.025s0,.022.013.016.016-.026.024-.03.03,0,.031.012,0,.023-.016.025-.034,0-.036.007-.014.021-.022.02ZM6.644,9.1a.151.151,0,0,1-.007.045c0,.014,0,.035-.007.05s-.016.032-.012.045c.011.033-.045.028-.05.011s.008-.04.025-.039.018-.011.009-.045c0-.012.012-.029.015-.043s0-.024-.013-.024-.052.007-.046-.012,0-.044.011-.057.014-.016.028,0,.036,0,.048-.019.046-.2.028-.181-.009.071-.017.1a.108.108,0,0,1-.021.037C6.608,9,6.587,9,6.578,9s.006-.074.015-.074c.028,0,.018.039.024.038s.014-.053.008-.076a.4.4,0,0,1,0-.04c0-.054.008-.179,0-.185s.006-.248-.006-.262a1.258,1.258,0,0,1-.041-.268.273.273,0,0,0-.017-.084A.153.153,0,0,1,6.59,7.9a.161.161,0,0,1,.134.022c.024.023.077.069.081.094a.379.379,0,0,1,0,.154.159.159,0,0,0-.014.052,1.123,1.123,0,0,0,0,.211c0,.017,0,.033.005.048a.485.485,0,0,0,.044.138.109.109,0,0,1,.021.1c-.013.01-.016-.044-.028-.052s-.02-.006-.019,0a.3.3,0,0,1,.028.1.361.361,0,0,0,.016.074c.01.037,0,.1-.023.1-.006,0-.021-.053-.024-.076A.157.157,0,0,0,6.8,8.828c0-.011-.009-.027-.015-.027s.024.1,0,.123-.031.033-.036.024-.015-.13-.027-.147.007.131-.014.163-.079.11-.071.138Zm-.11.256c.006.023-.007.025-.037.025s-.034,0-.034-.024a.151.151,0,0,1,.025-.052.057.057,0,0,1,.049-.03c.017,0,.044-.009.044,0s-.013.015-.025.028a.076.076,0,0,0-.022.051Zm-.007-.193a.055.055,0,0,0,0,.059c.009.011.016.027.01.034s-.035.006-.047-.007a.125.125,0,0,1,.013-.1A.051.051,0,0,1,6.54,9.14a.07.07,0,0,1,.034.022c.031.029.011.054.008.055s.007-.025-.024-.051c-.006-.005-.024-.01-.031,0Zm.022.063c-.006,0-.018-.01-.015-.02s0-.021.008-.02a.014.014,0,0,1,.015.012c0,.011,0,.026-.007.028ZM6.525,9.07c-.012.026-.057.073-.055.086s0,.02,0,.035c0,.044-.014.071-.02.068s.012-.035,0-.067-.046-.023-.053-.017,0,.089-.012.084a.078.078,0,0,1-.019-.069.077.077,0,0,1,.069-.05c.029,0,.032-.02.033-.042s.012-.072.046-.079.019.028.008.051Zm-.093.146c0,.013-.008.026-.016.018s0-.041.006-.044.013.013.01.025Zm0,.066c.026,0,.033.005.032.014s-.03.024-.037.037,0,.034-.011.042a.188.188,0,0,1-.055,0c-.024,0-.011-.026,0-.05a.073.073,0,0,1,.073-.047Zm.116-1.759c.011-.006.035.038.022.052s.008.008-.015.041-.05.021-.06-.008.037-.077.053-.085ZM6.483,7.5c-.021.011-.023-.037-.016-.058a.116.116,0,0,1,.054-.061c.01,0,.046,0,.035.024A.345.345,0,0,1,6.483,7.5Zm.631-1.178a.032.032,0,0,0,.039,0c.018-.009.015-.016.042-.045s.042-.019.038,0-.036.073-.074.074c-.012,0-.039,0-.041.008s-.036.019-.065-.006S6.991,6.287,7,6.26s.041-.041.069-.043.022-.024.029-.018a.1.1,0,0,0,.085.035c.037,0,.006.063-.038.066s-.036.015-.028.023ZM7,6.338a.141.141,0,0,0,.085.05.161.161,0,0,0,.112-.015c.037-.028.08-.127.108-.134s.03.142.027.165a.137.137,0,0,1-.089.075c-.021,0-.061,0-.051-.012s.033-.014.037-.028-.018,0-.036,0-.041-.012-.037,0,.017.026.006.034-.081.015-.092,0,.019-.036.01-.045-.016.014-.036.021-.063,0-.055.01.025.009.038.011.023.011-.007.014-.076.006-.1-.016a.1.1,0,0,1-.032-.093c.008-.037.012-.122.027-.122s.059.066.082.09Zm.426-.13c0-.015.02-.017.025-.025s0-.038.015-.049.017-.011.023.007,0,.042.008.061.005.036,0,.055-.031.028-.06.034a.077.077,0,0,0-.052.053c-.014.035-.034,0-.034-.007s-.012-.045,0-.053a.2.2,0,0,0,.066-.046c.015-.016,0-.012.009-.031Zm-.055.408c.014-.02,0-.088.012-.088s.026.022.032.048c.015.06-.028,0-.017.03a.083.083,0,0,1,0,.094.139.139,0,0,1-.1.043c-.025,0-.02-.009-.009-.02A.071.071,0,0,0,7.3,6.666c0-.022-.024-.046-.021-.06s.045.039.056.036-.014-.06,0-.065S7.359,6.629,7.369,6.616Zm.081.173c-.01-.019-.007-.046.022-.047a.039.039,0,0,1,.039.054.05.05,0,0,1-.055.038C7.419,6.831,7.466,6.822,7.45,6.789Zm.083.27c-.01-.018,0-.053.045-.048a.055.055,0,0,1,.047.031.13.13,0,0,1-.006.076c0,.016-.029.066-.025.012s-.034-.022-.06-.072Zm-.181.457a.164.164,0,0,1,0-.107c.022-.02.05.091.086.119s.045.047.037.065c-.016.034-.041.048-.029,0s-.081-.066-.093-.077Zm0,.349c0-.01.026,0,.03,0a.019.019,0,0,1,0,.033C7.358,7.908,7.346,7.88,7.347,7.865Zm-.01-.089c.006-.016.025,0,.027.009s.013.033,0,.032-.042-.016-.032-.041Zm.017-.053a.2.2,0,0,1,0-.1c.006-.016-.022-.025-.028-.042s.018-.016.042,0a.058.058,0,0,1,.029.044c0,.024,0,.042,0,.045a.137.137,0,0,1,.041.094c-.008.026-.02.041-.038.021a.363.363,0,0,1-.046-.062Zm-.23.116c0-.042-.017-.08-.012-.084s.036.012.046.02A.1.1,0,0,1,7.2,7.82c.012.033-.027.023-.026.033s.015.009.032.019.007.029-.016.033c-.038.007-.07-.053-.07-.066Zm.043.186c-.011.01-.025.013-.028.008s.008-.062.024-.053.045.007,0,.045ZM7.1,7.456c-.028-.016-.023-.048-.015-.041.033.028.116.073.132.092a.061.061,0,0,1,0,.06c-.034.026-.1-.049-.111-.063s.008-.04-.007-.048ZM7.1,7.565c.006,0,.01,0,.011.01h0s.1.066.114.079.007.075-.006.08-.064-.03-.063-.048.013-.018.013-.031-.057-.036-.05-.051S7.108,7.6,7.108,7.6h0a.1.1,0,0,1-.005.028c0,.008-.012.008-.039.013s-.052.065-.054.092.013.057-.013.047-.054-.048-.051-.068.04-.02.053-.044,0-.063.023-.065A.151.151,0,0,0,7.1,7.565Zm.183.18a.067.067,0,0,1,.026.059c0,.023,0,.026-.049.05-.008,0-.03.006-.022-.015a.191.191,0,0,0,0-.089c-.008-.029.039-.011.048,0ZM7.3,7.609c.017.017.011.057,0,.06s-.027-.018-.027-.029-.016-.023-.018-.032.029-.014.045,0ZM7.243,7.9c.009,0,.014.024.009.037-.012.033-.04.03-.043.024s.013,0,.012-.023C7.219,7.9,7.233,7.894,7.243,7.9Zm-.176-.411c0,.032-.076.083-.088.09s-.008.04-.02.049-.032,0-.038-.038a.07.07,0,0,1,.052-.08C7,7.5,7,7.484,7,7.466a.046.046,0,0,1,.037-.039c.017,0,.032.025.027.059Zm-.027.3c.014-.013.038-.072.041-.063.015.046-.009.05-.017.081s-.068.055-.07.08,0,.04-.011.047-.043.01-.043-.055.08-.073.1-.09Zm.014.155c.022-.008,0-.032.015-.047A.027.027,0,0,1,7.1,7.89c.014.007.022.016.015.04S7.094,8,7.066,8,7.041,7.95,7.054,7.945Zm.137.093c0-.035.083-.056.091-.049s.008.073.009.09c0,.071.029.073.03.088a1.741,1.741,0,0,1-.046.334c-.023.027-.02-.022-.039-.083A1,1,0,0,1,7.2,8.185C7.2,8.12,7.186,8.074,7.19,8.037ZM7.3,7.5a.056.056,0,0,1-.037.02c-.025.005,0-.024,0-.039s-.035-.055-.076-.072c-.02-.008-.035.006-.074-.034-.016-.016-.011-.05-.037-.064s.008-.028-.037-.058h0a.082.082,0,0,0,0,.022c.006.046-.019.051-.035.067a.1.1,0,0,0-.043.085c0,.03-.023.044-.051.013s0-.095.007-.113.013-.027.038-.039a.042.042,0,0,0,.021-.052c0-.005-.013-.014-.007-.024A.085.085,0,0,1,7.046,7.2c.012-.01.035-.023.038-.014s0,.037.007.058a.107.107,0,0,0,.043.058c.02.014.049.009.076.036s.006.038.017.049a.146.146,0,0,0,.072.037c.027.01.019.059,0,.077Zm-.479.366c0,.021.033.033,0,.033s-.053-.027-.056-.066c0-.018.036-.055.048-.069s0-.015,0-.026A.223.223,0,0,1,6.876,7.7c.017,0,.018.072,0,.081a.1.1,0,0,0-.052.089ZM6.65,7.815c-.019,0-.041-.043-.031-.083s.025-.02.036-.031,0-.021.009-.026a.015.015,0,0,1,.028.008c-.008.032-.034.04-.041.093,0,.019.03.039,0,.039Zm-.01-.284c-.023-.007-.044,0-.044-.018a.233.233,0,0,1,.013-.1c.017-.042.035-.04.035-.04s.04,0,.021.066c-.007.025-.047.044-.04.066s.043,0,.051.02a.142.142,0,0,1-.01.089c-.021.036-.055.057-.056.03s-.021-.041,0-.055.061-.045.03-.054Zm-.02-.21c.013.016-.051.027-.052-.053,0-.02.02-.062.038-.066.033-.008.044-.05.053-.048s.034.036.027.05c-.03.064-.061.058-.066.074a.053.053,0,0,0,0,.044Zm0-.262c-.008.007-.028.01-.021.052,0,.015-.064-.01-.027-.086a.159.159,0,0,1,.092-.09c.021,0,.039.033.044.053s-.068.053-.089.072Zm.1.268c.018-.014,0-.049.035-.066s.041-.04.057-.055.043.061.037.086-.054.048-.077.072,0,.033,0,.052-.021.03-.044,0-.04-.069-.012-.091Zm.021.191c.062-.06.068-.115.085-.1s.028.063.026.094-.1.065-.1.075S6.723,7.539,6.746,7.517ZM6.74,7.7c.008-.03.045-.035.06-.065s-.014-.05.018-.053c.016,0,.02-.009.026-.011s.023.018.013.032,0,.034,0,.046-.066.026-.067.046-.019.024-.011.049.011.045,0,.037A.1.1,0,0,1,6.74,7.7Zm.142-.471a.089.089,0,0,1,0-.09c.016-.023.032-.013.065-.039s.016-.045.026-.063A.067.067,0,0,1,7.006,7c.034-.011.062,0,.065.045a.064.064,0,0,1-.025.058c-.011.011-.021.011-.041.017a.176.176,0,0,0-.068.075c-.005.018.024.048.015.056a.052.052,0,0,1-.07-.028ZM7.129,6.6a.076.076,0,0,1,.062.019c.011.014.024.036.024.036s.005-.059.019-.058.035.062.034.088,0,.042-.03.053a.122.122,0,0,1-.115,0c-.022-.013.017-.023.035-.06s-.068-.073-.029-.077Zm.16.4c0-.037-.051-.036-.076-.051a.134.134,0,0,1-.062-.09c0-.026-.061-.047.024-.048.051,0,.053.027.062.04a.292.292,0,0,0,.061.08.083.083,0,0,1,.032.108.039.039,0,0,1-.057.021c-.02-.017.022-.012.015-.06Zm-.183-.311c-.005,0-.01-.007-.01-.016s0-.016.01-.016.01.007.01.016S7.112,6.691,7.107,6.691Zm0,.282c.012-.007,0-.044.015-.045s.077.058.1.075.025.078.064.088c.055.014.055.042.051.057a.133.133,0,0,1-.055.067c-.023.008-.035,0-.039-.016s.008-.03,0-.053-.105-.075-.133-.084a.075.075,0,0,1-.035-.071c.007-.01.025-.011.037-.019Zm.137.4c-.026-.014.011-.032.012-.051s-.012-.055-.04-.057a.126.126,0,0,1-.075-.019A.088.088,0,0,1,7.1,7.182a.045.045,0,0,1,.033-.052c.009,0,0,.026.037.032a.069.069,0,0,1,.053.033c.023.026.024.054.058.062s.068.055.043.079-.059.047-.08.036Zm.222.377c0-.011,0-.019.013-.019s.023.033.024.039-.01.019-.023.012a.027.027,0,0,1-.013-.032Zm-.03-.24c-.007,0-.016-.006,0-.019a.048.048,0,0,0,0-.054.245.245,0,0,0-.069-.065c-.014,0-.014-.031,0-.041s.022,0,.01-.011a.146.146,0,0,1-.032-.054c-.009-.02,0-.029,0-.029s.033.02.037.024a.516.516,0,0,1,.043.045c.005.013,0,.036.006.038s.014.025.052.03.033.052.026.074a.123.123,0,0,1-.07.062Zm-.068-.424c.032.022.029.042.059.093s.066.037.075.059a.069.069,0,0,1,0,.051.053.053,0,0,1-.051.041c-.013,0-.012-.037-.014-.061s-.057-.029-.067-.041-.022-.156,0-.143Zm.078.093c-.012,0,.014-.027.014-.047s-.046-.048-.079-.064-.013-.029-.006-.04-.008-.061.012-.058a.123.123,0,0,1,.057.043c.009.013.033.023.059.054s.04.041.028.075A.068.068,0,0,1,7.446,7.179Zm.106-.194c-.036.007-.02-.018-.012-.026a.034.034,0,0,0,0-.055c-.029-.017-.043-.035-.022-.049s.041-.012.079.031S7.588,6.978,7.552,6.984ZM7.5,6.955c0,.015-.031.052-.056.044s0-.017-.01-.047-.042-.026-.061-.035A.133.133,0,0,1,7.3,6.847c-.015-.042.029-.037.029-.037.039,0,.04.021.043.025a.12.12,0,0,0,.059.048C7.475,6.9,7.5,6.933,7.5,6.955ZM6.97,6.6c.007,0,.007.038.013.047S7,6.615,7.01,6.612s.006.03.011.042.048-.052.062-.05-.027.051-.031.064a.041.041,0,0,0,.008.037c.024.015.037,0,.037.02s-.009,0-.029.017-.02.02-.036.019a.1.1,0,0,1-.05-.018.061.061,0,0,1-.036-.065c0-.036.006-.071.026-.075Zm-.019.245A.107.107,0,0,1,7,6.816a.148.148,0,0,1,.056,0c.022,0,.017.082-.023.115s-.08.03-.1.059a.058.058,0,0,0,0,.065c.011.012-.059,0-.067-.041A.086.086,0,0,1,6.9,6.945c.006-.006,0-.019.009-.033a.223.223,0,0,1,.039-.063Zm-.129.078c-.026.025-.018.04-.023.051s-.043.015-.05-.016a.21.21,0,0,1,.1-.164c.016-.008.066-.008.07.013.009.047-.069.092-.095.117Zm-.045.1c.025-.009.065.011.058.04s-.05.048-.057.069a.063.063,0,0,0,.008.06c.014.013-.028.007-.048-.015a.1.1,0,0,1-.021-.081.114.114,0,0,1,.059-.073ZM6.733,6.8c-.021.064-.054.047-.115.08-.024.013-.019-.026-.014-.045s.047-.045.07-.055.029-.04.043-.037a.059.059,0,0,1,.015.057Zm-.171-.013c0,.022-.056-.038-.031-.064s.035-.055.053-.07.036.012.038.045-.058.064-.06.088Zm-.031.927c0-.01,0-.054.024-.044.007,0,.013.019.017.026s0,.024-.012.042,0,.049-.009.054-.035-.03-.036-.054.015-.014.016-.024Zm.386,1.218a1.1,1.1,0,0,1,.013.18.763.763,0,0,1-.042-.228c0-.041,0-.134.021-.148,0,0,0,.048,0,.078s.007.107.008.117Zm-.039-.351c-.021.02-.019-.08-.019-.1,0-.068-.021-.242-.022-.274a.518.518,0,0,1,0-.177c.012-.023,0-.093.064-.094.02,0,.047.049.064.054s-.016.07-.019.089-.009.02-.01.035a.213.213,0,0,0,.013.058c.008.035.006.332-.068.405Zm.651-.8c-.024.006-.013,0-.013,0a.046.046,0,0,0,.019-.041.1.1,0,0,0-.02-.053c-.01-.019-.008-.039.008-.044.032-.012.047.035.047.051s0,.079-.041.087Zm.039-.2c0-.018-.026.009-.044-.014a.029.029,0,0,1,.014-.044c.026-.009.068.027.077.04s-.005.041-.016.047-.031,0-.031-.028Zm.03-.1A.127.127,0,0,0,7.552,7.4c-.02-.017-.025-.009-.03-.021s.022-.064.04-.063a.03.03,0,0,1,.019.014.071.071,0,0,1,0,.041c0,.01.017.009.034.025a.06.06,0,0,1,.011.056c0,.013-.024.04-.029.015ZM7.6,7.305c.008-.009.019-.01.011-.027s-.06-.026-.073-.063c-.006-.016.009-.038.038-.038s.029.006.05.029a.059.059,0,0,1,.012.075C7.624,7.314,7.6,7.314,7.6,7.305Zm.055-.377c-.033,0-.028-.016-.04-.037s-.033-.022-.04-.048a.031.031,0,0,1,.009-.031c.015-.013.031,0,.047.009s.052.035.056.052.006.054-.032.055Zm-.048-.145c-.026,0-.024-.021-.033-.048s0-.05.013-.051.018.032.029.048S7.636,6.783,7.611,6.784ZM6.9,6.592c.009,0,0,.046,0,.05s.017-.024.017-.024.018-.032.027-.033.009.011,0,.027-.035.043-.034.062.015.052,0,.064-.039.012-.068-.007-.028-.06-.039-.079-.013-.019-.034-.022-.014-.044-.011-.059.022-.021.022-.021c.021,0,.028.016.03.034s.016,0,.028-.019.009.06.021.06.022-.037.042-.034Zm-.369.29c.018,0,.046.024.029.044s-.075.043-.07.06-.044-.015-.014-.056S6.51,6.885,6.526,6.882ZM6.5,7.133c-.021.018-.03.062-.041.046a.1.1,0,0,1,0-.07c.009-.043.034-.066.053-.058A.105.105,0,0,1,6.5,7.133Zm-.01-.327c-.006.016-.015.051-.035.041a.061.061,0,0,1,.009-.079C6.48,6.76,6.5,6.791,6.495,6.807Zm0,.413c.023-.014.036.039.023.061a.913.913,0,0,0-.059.077c-.01.023-.026-.039-.016-.06A.228.228,0,0,1,6.5,7.219Zm-.055-.287c0,.02,0,.046-.03.059S6.4,6.979,6.4,6.956s0-.05.015-.052.039,0,.034.028Zm-.055.151c-.011-.008,0-.044.015-.053s.023.011.023.019S6.408,7.1,6.389,7.083Zm.02.136c-.014.032-.022-.013-.023-.02s-.008-.058.007-.064.043.025.016.085Zm-.025.045c.013-.007.033.036.024.058s-.05-.015-.05-.029.017-.025.026-.03Zm-.024.174c0-.025.018-.031.028-.031s.019,0,.019.029a.08.08,0,0,1-.024.061c-.009,0-.026-.033-.023-.058Zm.055.134c.012-.007.034.017.037.026s.018.039.012.047-.025.019-.048-.01-.029-.047,0-.063Zm.05.141c.015,0,.021.026.017.04s.017.04,0,.04-.025-.012-.032-.03,0-.051.014-.049Zm.026.228c.005-.016.011-.068.032-.068s.019.19.006.206.006.191-.008.182a.587.587,0,0,1-.044-.2c0-.021-.007-.052-.009-.075s.016-.033.021-.049Zm-.065.852c-.007.03-.017.137-.027.131a.344.344,0,0,1,0-.137.194.194,0,0,1,.041-.064c.009-.006-.012.039-.019.069ZM6.4,9a.214.214,0,0,1-.006.04c0,.019-.021.006-.021-.025,0-.01.007-.04.021-.042A.1.1,0,0,1,6.4,9Zm-.015.094c.021,0,.036-.084.053-.072s-.007.1-.031.105c-.05.014-.067.083-.072.063s-.019-.1,0-.113.017.024.049.017ZM6.349,9.3c-.051.027-.035.072-.048.071H6.25c-.011,0,0-.03.006-.038a.084.084,0,0,1,.062-.045c.015,0,.038.008.031.012Zm.221.066c-.006,0,0-.029.016-.058s.02-.034.035-.034h.043c.028,0-.011.022-.028.038s-.007.051-.019.054a.141.141,0,0,1-.047,0ZM7.2,10.409a.026.026,0,0,0,.01-.029c0-.006-.015-.029-.007-.031l.029-.007c.008,0,.037.051.022.064s-.06.009-.054,0Zm.2.037c0-.008.028,0,.047,0s.015.01.017.016-.02.015-.039.016-.026-.012-.024-.027Zm.033-.039a.038.038,0,0,0,.005-.028c-.007-.014-.042-.054-.03-.054s.016,0,.029,0,.038.031.04.042.009.037-.007.04-.042.006-.036-.005Zm.249-.691S7.674,9.7,7.686,9.7s.015.006.011.01a.016.016,0,0,1-.017,0Zm.068-.5c0-.009,0-.02.013-.019s.011.014.013.021a.124.124,0,0,1,.005.044c0,.009-.013.014-.024-.017a.068.068,0,0,1-.007-.03Zm.032-.089c-.009.008-.013,0-.016-.009s.013-.031.007-.049-.017-.044-.01-.045.029.042.028.058,0,.036-.009.044ZM7.748,9.1c0,.006-.007.019-.012.014s0-.046-.013-.061,0-.019.013-.019S7.748,9.085,7.748,9.1ZM7.69,9.067a.154.154,0,0,0,.028.089s0,.019,0,.022.006,0,.01-.007.027-.007.034.011a.055.055,0,0,0-.037.011s-.017.027,0,.037.029.033.015.033-.03.006-.035-.016,0-.032-.01-.067-.017-.028-.029-.061-.029-.046-.009-.067.038-.008.037.014ZM7.666,9c0,.016-.062,0-.077-.016a.994.994,0,0,1-.012-.256c0-.014.008-.082.035-.085s.03.044.036.065A2.25,2.25,0,0,1,7.666,9Zm-.058-.579a.524.524,0,0,1-.077.19c-.011,0-.018-.047.008-.22a.367.367,0,0,0,.009-.057c-.013-.058.011-.049.018-.077s-.019-.027,0-.056,0-.27.041-.281c.017,0,.04.1.022.268a2.172,2.172,0,0,0-.025.232Zm.027-.649c.006.011-.032.006-.032-.027s.022-.059.039-.06.023.032.015.049S7.628,7.764,7.634,7.774Zm.193.136c-.008.008-.05-.035-.023-.06s.041,0,.045.015-.009.032-.022.045Zm.021-.422a.062.062,0,0,0,0,.062c.016.029-.009.013-.009.013s-.027-.006-.033-.066a.165.165,0,0,1,.035-.116c.025-.026.04-.081.014-.078s0,.06-.03.067-.047-.027-.046-.066,0-.05-.01-.06-.027-.012-.029-.021.012-.025.035,0,.011.011.032-.005a.033.033,0,0,1,.051,0c.008.018-.049.069-.043.089s.032-.061.064-.052,0,.058.02.066a.086.086,0,0,1,.009.1c-.019.041-.047.042-.064.068ZM7.79,6.4c-.013,0-.041-.028-.017-.046a.307.307,0,0,1,.047-.039c.034-.019.005-.032.043-.041a.713.713,0,0,1,.079-.023.134.134,0,0,1,.074.044c.014.01-.027.047-.066.062-.055.021-.093,0-.11.019s-.043.026-.009.05c.014.01,0,.013-.017.012S7.8,6.4,7.79,6.4Zm-.034-.181c.007-.034.042-.047.051-.053s0-.041.011-.039a.284.284,0,0,0,.088,0c.036-.01.06-.054.062-.036a.237.237,0,0,1-.04.131c-.016.022-.05,0-.075.005s-.041.009-.045.031,0,.034-.017.029a.05.05,0,0,1-.034-.063Zm.1.231a.13.13,0,0,1,.091-.045c.018,0,.014.062.027.076s-.014.028-.038.041-.052.016-.055.022c-.016.027.017.046,0,.055s-.047,0-.055-.013a.145.145,0,0,1,.031-.135Zm0,.218c.005-.015.051-.037.058-.048s-.006-.023,0-.037.031-.018.047-.027a.06.06,0,0,1,.048,0c.025.014.015.041-.016.071s-.084.046-.08.056a.048.048,0,0,1-.006.051c-.016.021-.024.015-.037,0A.072.072,0,0,1,7.855,6.67Zm.032.242c.012,0,.019.027.019.046s-.041.062-.061.088-.028-.039-.021-.053S7.862,6.911,7.887,6.912Zm.032.3c.045.028.053-.046.066-.079s.03-.029.043,0-.009.06-.015.09c-.019.092-.047.032-.041.076s.02.072,0,.072-.051-.043-.049-.069.015-.049.006-.058-.058-.032-.068-.085.031-.134.065-.134c.011,0,.026.017.026.036s-.044.07-.053.094a.045.045,0,0,0,.018.058Zm-.1-.154c.017.005.016.025.009.054a.14.14,0,0,0-.007.073c.007.012-.03.007-.037-.038s.016-.095.035-.089ZM8.13,6.61c-.033.012-.049.027-.047.048s.019.025.028.033,0,.016-.03.016-.025-.025-.035-.048-.009-.037.019-.061a.618.618,0,0,0,.1-.1c0-.012-.02-.02,0-.029s.065-.059.078-.049.012.042.012.055a.167.167,0,0,1-.038.09.2.2,0,0,1-.087.049Zm-.393-.432c.005,0,.016-.006.007.025a.529.529,0,0,0-.012.122c0,.007-.007.009-.007.013s0,.007-.01.011c-.035.025-.038.065-.033.064a.413.413,0,0,1,.044-.05c.009-.006.014.011.014.021a.212.212,0,0,1-.013.069c-.013.034-.037.044-.045.082a.182.182,0,0,0,0,.084c.016.039.015.025.014-.01a.114.114,0,0,1,0-.05.322.322,0,0,1,.027-.046c.014-.019.022-.037.04-.035s.022.061.019.08a.486.486,0,0,1-.012.054c-.013.049-.039.025-.05.077-.007.033,0,.068.007.067s.012-.053.07-.093c0,0,.029,0,.022.039,0,.011-.023.008-.01.023s-.017.03-.024.055-.039.037-.032.042c.026.021.014.1.026.073.019-.04.046-.1.071-.1s.016.037-.016.087-.041.083-.054.083-.029-.029-.026-.076S7.721,6.849,7.7,6.81c-.009-.018,0-.076-.021-.138s-.04-.06-.047-.1.036-.1.025-.126a.054.054,0,0,1,.006-.051c.017-.026.032-.041.032-.068a.288.288,0,0,1,.043-.144ZM7.371,5.4a.157.157,0,0,1,.106-.018c.043.007.064.031.056.058s-.041.053-.085.072c-.027.012-.027.025-.017.032s.032,0,.045.005c.04.016.052.055.06.057s.021-.014.007-.035S7.5,5.53,7.5,5.512s.021-.035.049-.022.008.045.024.066a.124.124,0,0,1,.032.069.1.1,0,0,1-.04.078c-.027.02-.012.025-.009.027s.017-.019.033-.009.021.025.039.047.039.028.043.069a.112.112,0,0,1-.014.07c-.038.062,0,.043.017.064a.038.038,0,0,1,.009.039c0,.034-.026.052,0,.086.01.013.011.033,0,.038s0,.067-.011.074-.037-.027-.035,0,.026.028.02.046-.026.023-.031.014A.237.237,0,0,0,7.6,6.22c-.007-.007-.023-.021-.013.008a.163.163,0,0,0,.014.029c.005.01,0,.016.005.043s0,.035-.011.041-.054-.036-.056-.052,0-.031-.012-.049-.034-.064-.014-.089.028-.005.035,0c.02.029.024,0,.011-.017s-.021-.009-.022-.032A.159.159,0,0,1,7.573,6,.15.15,0,0,0,7.6,5.88a.661.661,0,0,0-.06-.093.063.063,0,0,1-.019-.067c.008-.042.02-.088.009-.09s-.044-.052-.06-.046a.152.152,0,0,1-.1-.041A.05.05,0,0,1,7.4,5.469c.045-.022.059.015.061-.005a.028.028,0,0,0-.036-.033c-.025.006-.039,0-.05.026s-.021.048-.035.049-.021-.021-.019-.032A.128.128,0,0,1,7.371,5.4Zm-.137.053a.138.138,0,0,1,.02-.066.09.09,0,0,1,.067-.041c.026,0,.018.032.014.045a.7.7,0,0,0-.037.085c-.008.024-.034.044-.047.038S7.232,5.494,7.235,5.454Zm-.254.075A.045.045,0,0,0,6.99,5.5a.09.09,0,0,0-.028-.05.07.07,0,0,1-.019-.058.034.034,0,0,1,.029-.034.054.054,0,0,1,.048.013.066.066,0,0,1,.016.068.244.244,0,0,1-.019.058.048.048,0,0,0-.005.025h0a.627.627,0,0,1,.076-.006s-.006-.008-.008-.028a.052.052,0,0,0-.009-.034.075.075,0,0,1,0-.08.042.042,0,0,1,.04-.012c.02.009.019.048.019.049a.27.27,0,0,1,0,.07c-.013.027-.024.024-.017.037h.013l.04,0h0s.01-.007.006-.028-.017-.027-.022-.052a.1.1,0,0,1,.008-.066c.011-.022.022-.026.032-.026s.036.011.039.056-.015.043-.022.072-.006.032.007.044,0,.006,0,.007l.043.008c.186.042.22.112.232.135.027.051.02.114.035.127a.136.136,0,0,1,.039.073c.006.047-.067.066-.083.1s-.016.028-.029.024c-.041-.012-.057-.1-.094-.118-.018-.007.085-.038.114-.072s.011-.018-.051.005c-.046.018-.134.052-.186.018s.006-.123.043-.148a.092.092,0,0,1,.134.019c.053.052.055.056.06.053a.246.246,0,0,0-.1-.116c-.065-.023-.124-.016-.2.091-.043.062.018.08.028.126.013.061-.022.046-.03.056s-.012.01-.044.01-.027,0-.044-.012-.061.01-.049-.052c.009-.046.046-.056.02-.126a.142.142,0,0,0-.2-.093.4.4,0,0,0-.118.1.265.265,0,0,0,.09-.056.1.1,0,0,1,.131,0,.086.086,0,0,1,0,.131c-.051.036-.089.015-.137,0a.371.371,0,0,0-.1-.025c-.03.005-.007.013,0,.013a.105.105,0,0,1,.045.012c.013.006.03.029.054.039s.079.006.071.013-.052,0-.08.094c0,.017-.02.02-.033.031a.123.123,0,0,1-.006.022c-.007.023-.011.01-.011.031s.028.009.024.055c0,.025.011.043-.017.033s-.022-.042-.048-.035c-.011,0,0,.018.016.025a.042.042,0,0,1,.021.031c.007.04-.007.057-.006.086s.008.034.038.041a.135.135,0,0,1,.078.032c.021.023,0,.05,0,.066s-.021.008-.036-.008,0-.038-.053-.052c-.04-.01-.041-.008-.057-.019S6.7,6.261,6.7,6.235s.022-.018.018-.052-.02-.02-.025-.052,0-.037.024-.058.022-.031.022-.031l0-.059c-.042-.044-.1-.062-.1-.129,0-.024.02-.051.051-.076.015-.013-.009-.074.012-.123a.448.448,0,0,1,.28-.124H6.98Zm-.137-.142c.011-.023.051-.029.075.013a.1.1,0,0,1,.009.08A.06.06,0,0,1,6.9,5.52s-.011,0-.01-.01-.028-.04-.04-.057a.065.065,0,0,1-.011-.065Zm-.37.551c0-.022.015-.037.035-.028a.071.071,0,0,1,.029.067.05.05,0,0,0,.028.055c.016,0,.028-.009.03-.034a.166.166,0,0,0-.033-.082c-.021-.03-.05-.023-.06-.064-.018-.069.007-.077.01-.105s.013-.061.035-.063.04.015.038.055c-.006.081.006.023.011.012a.215.215,0,0,0,.02-.045.072.072,0,0,0-.023-.066.06.06,0,0,1-.014-.052c0-.017.011-.019.026-.029s.015-.023,0-.026-.017.006-.026.01-.015-.04-.016-.059A.055.055,0,0,1,6.6,5.43c.029-.014.037,0,.054,0A.045.045,0,0,0,6.7,5.416c.011-.012.015-.026.037-.03s.028,0,.057.024a.164.164,0,0,1,.053.077c.011.023.012.034.007.045a.018.018,0,0,1-.027,0,.322.322,0,0,0-.03-.041c-.012-.014-.018-.032-.04-.036s-.028-.012-.007.008a.254.254,0,0,1,.048.06c.009.022-.007.018-.012.018A.11.11,0,0,1,6.75,5.5a.05.05,0,0,0-.044-.024c-.015,0-.03.024-.046.025s-.025-.006-.035,0,.028.015.035.027,0,.009-.017.028.017.016.032.014.027-.026.029-.035S6.7,5.5,6.7,5.5s.027.022.032.034.009.045,0,.051a.456.456,0,0,0-.093.112.162.162,0,0,0,0,.09c0,.019-.029.054-.037.072a.187.187,0,0,0,0,.1c.01.025.032.061.041.081a.047.047,0,0,1-.011.055c-.026.026-.021-.024-.033.006a.122.122,0,0,1-.079.061.045.045,0,0,1-.05-.02c-.008-.009.008-.023.023-.033s.013-.025.014-.042-.018-.028-.032-.044-.006-.059-.005-.081Zm0,.536c.021-.006.025.165-.007.179-.012.005-.012.035-.009.063s-.02.015-.037.051-.012.061-.028.051-.008-.036-.007-.062a.174.174,0,0,0-.03-.091c-.018-.033,0-.04.025-.037s.038.078.048.056a.142.142,0,0,0,0-.063c0-.012-.013-.014-.032-.037a.106.106,0,0,1,0-.07c0-.023-.014-.013-.023-.058,0-.019.021-.031.028-.024s0,.023.022.034.027.018.027.037.011.036.011.036,0-.06.013-.065Zm-.01-.046c0,.008-.027.006-.036-.031s-.04-.017-.048-.058A.066.066,0,0,1,6.4,6.278c.013-.014.04.038.05.071A.225.225,0,0,1,6.458,6.427ZM6.45,6.251c-.005.016-.029.023-.03.01a.053.053,0,0,0-.014-.049c-.014-.013-.015-.036-.03-.043-.031-.014-.037-.03-.029-.039s.041,0,.063-.019.013-.047.019-.059.011-.01.015,0a.106.106,0,0,1,0,.068c-.01.02-.025.031-.007.054a.091.091,0,0,1,.011.076ZM6.334,5.8a.084.084,0,0,1,.073.028c.036.043.04.086.03.071s-.044-.028-.07-.042-.009-.024-.015-.034S6.328,5.8,6.334,5.8ZM6.18,5.779c.03-.016.144.043.126.05a.2.2,0,0,1-.117,0c-.012-.01-.021-.046-.01-.052ZM6.165,6c.023.021.017.068.064.075.012,0,.034-.007.045,0a.1.1,0,0,0,.077,0c.011-.01-.006-.046-.04-.052S6.227,6.028,6.194,6a.06.06,0,0,1-.018-.079c.01-.014-.018-.033.013-.056s.109-.008.145.006a.442.442,0,0,1,.1.076.073.073,0,0,1,.006.076c-.009.018-.036,0-.046-.034a.216.216,0,0,0-.056-.085C6.331,5.9,6.3,5.9,6.3,5.907s.034.033.048.053c.036.05.061.119.016.144-.016.009-.074-.006-.059.006s.006.035.02.045a.076.076,0,0,1,.04.084.053.053,0,0,1-.059.043c-.016,0,.014-.08-.017-.077s-.083-.011-.1-.047-.025-.021-.036-.028A.021.021,0,0,1,6.157,6.1a.073.073,0,0,0,0-.08C6.138,6,6.144,5.977,6.165,6Zm-.35-.211c.035.006.043.057.05.011,0-.017-.027-.033-.039-.041s0-.021.01-.022c.029,0,.046.037.065.03.056-.02.073-.071.144-.066s.061.052.064.078.037,0,.036.074.02.017.013.068c0,.007-.016,0-.013.012.019.046-.014.052-.028.056S6.093,6,6.1,6.007c.026.022.042.042.025.055s-.075-.008-.044.014.069.118.029.144-.05-.033-.088-.04c-.015,0-.015.014,0,.03s.07.044.073.093a.12.12,0,0,1-.044.1c-.033.011-.027-.017-.016-.036s.018-.02.006-.031,0-.021-.015-.028c-.028-.015-.058.006-.092-.026-.016-.015-.018-.051,0-.053s.025.02.044.017.023-.056.007-.066a.125.125,0,0,0-.073-.02c-.014,0-.025-.023-.015-.023a.144.144,0,0,0,.128-.076A.194.194,0,0,0,6,5.924a.109.109,0,0,0-.051-.044c-.017-.007-.045,0-.038,0a.118.118,0,0,1,.063.193c-.072.055-.11.025-.089.012A.108.108,0,0,0,5.942,6c0-.022-.044-.055-.1-.062s-.087-.022-.1-.073a.062.062,0,0,1,.065-.078ZM5.444,6.5s-.013-.028.011-.06.037-.042.019-.036-.043.018-.049.032c-.017.04-.027.019-.019,0a.187.187,0,0,1,.055-.068.505.505,0,0,1,.073-.022c.025-.009.066-.049.082-.052s.019.006.016.019-.011.016-.029.037a.7.7,0,0,0-.057.077c-.006.013-.024.015-.045.015s-.021.008-.032.025-.022.039-.026.038Zm.2-.046a.343.343,0,0,1-.063.042c-.011,0-.017-.011-.014-.015s.052-.034.064-.039S5.644,6.453,5.641,6.456Zm.011.068a.014.014,0,0,1-.019.014c-.012,0-.023-.011-.023-.019A.023.023,0,0,1,5.626,6.5c.007,0,.024.014.026.021Zm-.089-.063c-.01.017-.029,0-.018-.011s.044-.041.057-.043.015,0,.012.008-.037.022-.052.046Zm-.084.053A.133.133,0,0,1,5.5,6.451a.04.04,0,0,1,.024,0c0,.01-.007.022-.011.03s-.028.056-.031.035Zm.055.128c-.011-.012.036-.021,0-.029s-.051-.055-.038-.064.028.061.05.035-.028-.037-.031-.058,0-.034.022-.028a.079.079,0,0,1,.036.072c-.007.041.02.01.013.016s-.01-.055,0-.047a.13.13,0,0,1,.017.051c0,.01.025-.021.036-.026s.054-.015.068-.033a.047.047,0,0,0,0-.057c-.01-.011-.042-.027-.055-.043s0-.025-.009-.034-.018-.03,0-.027.061.059.072.078.051.074.045.09-.074.022-.092.03-.005.021-.026.029a.257.257,0,0,0-.037.02c-.006,0,0,.017-.028.02l-.011,0c.011,0-.032.019-.046,0Zm.133-.174c.006,0,.024.014.027.021s.011.026,0,.031-.034-.024-.037-.033a.018.018,0,0,1,.009-.019Zm-.076.224c-.018-.012.087-.1.1-.1a.152.152,0,0,1,.054-.006c.007,0,.026,0,.026.007s-.013.018-.035.016a.08.08,0,0,0-.051.02c-.023.014-.08.075-.092.067Zm.175.014c-.027.07-.015-.009-.021-.007s-.024.042-.035.054a.1.1,0,0,1-.068.012c-.015,0,0-.053,0-.063.02-.043.027-.054.043-.054a.222.222,0,0,0,.069-.008c.009,0,.012-.021.027-.034s-.013-.03-.005-.035.022-.028.028-.051a.06.06,0,0,0-.026-.063c-.018-.012-.064-.055-.067-.076s-.061-.076-.032-.06a.1.1,0,0,0,.116.007.088.088,0,0,0,.041-.053c0-.019-.013-.024-.018-.017A.074.074,0,0,1,5.73,6.3c-.031,0-.03-.007-.008-.014s.027-.013.016-.02a.293.293,0,0,0-.145.005.725.725,0,0,1-.079.048c-.016,0-.043.009-.017-.014a.562.562,0,0,1,.056-.046c.014-.01,0-.062.011-.08s.019-.044.111-.044c.018,0-.016-.044-.04-.043s-.022-.042-.068-.041a.088.088,0,0,0-.059.038c-.014.023-.018.075,0,.074s.032.019.032.043A.06.06,0,0,1,5.5,6.27a.074.074,0,0,0-.051.059.062.062,0,0,1-.023.049.052.052,0,0,1-.085-.03.165.165,0,0,1,.07-.114c.021-.012.03.008.031-.023s.015-.055.033-.06,0-.072.005-.088a.2.2,0,0,1,.1-.075.175.175,0,0,0,.084-.031c.018-.019.023-.056.039-.057s.042.044.072.058.082.031.095.054c.028.054-.031.056-.037.062-.048.051-.121.021-.125.032s0,.016,0,.016c.027,0,.078-.008.106.006a.092.092,0,0,1,.06.083c0,.017.049-.015.012.05a.142.142,0,0,0-.013.051.181.181,0,0,0,.014.117c.024.042.009.052-.011.077-.033.043.011.123-.014.126a.1.1,0,0,0-.091.072Zm-.227-.6C5.545,6.1,5.587,6.1,5.6,6.1s.013.021,0,.023c-.037.006-.031-.008-.039-.009S5.537,6.114,5.539,6.109Zm.234,1.074c.012-.011.039.017.039.033s.009.05.031.046.059-.041.021-.073.008-.027-.057-.084c-.022-.019-.036-.091-.006-.1s.057.046.066.056.01.029.047.023c.012,0,.016-.036-.009-.059a.267.267,0,0,1-.067-.1c-.009-.034.01-.047.027-.038s.048.054.073.054.021-.016.027-.035-.051-.048-.072-.068a.078.078,0,0,1-.027-.065.123.123,0,0,1,.038-.081c.014-.009.039.011.043.022s.027.024.027.024,0,.018-.012.015-.031,0-.031.013a.081.081,0,0,0,.028.045.559.559,0,0,1,.059.046.1.1,0,0,1,0,.073c-.022.009-.006.023-.03.032a.146.146,0,0,1-.076.006c-.01,0,.028.034.044.038A.073.073,0,0,1,6,7.088c-.006.025-.012,0-.021.029s-.074.016-.1-.006c-.007-.006-.025,0,0,.03s.066.042.067.069a.075.075,0,0,1-.034.062c-.016.01-.042.007-.047.027s.023.031.024.044a.11.11,0,0,1-.054.053c-.014,0-.012-.014.007-.033s0-.035-.015-.057-.052-.027-.063-.051a.071.071,0,0,1,.011-.07ZM5.8,7.5c.016-.011.015-.022.012-.04s-.048-.053-.052-.081-.013-.049,0-.047c.028.006.033.049.062.07s.056.066.04.091c-.03.045-.088.028-.059.008Zm.167.139c-.005.007.008.047,0,.069a.049.049,0,0,1-.056.028c-.018-.006.029-.024.032-.042a.05.05,0,0,0-.03-.054A.085.085,0,0,1,5.86,7.58c0-.015.016-.023.032,0a.086.086,0,0,0,.061.035c.03,0,.044-.013.047-.021.011-.033-.028-.047-.046-.059a.1.1,0,0,1-.032-.055c0-.016-.012-.042,0-.052s.042.01.043.022-.007.026,0,.032a.191.191,0,0,1,.071.073.056.056,0,0,1-.016.079C6,7.644,5.974,7.634,5.968,7.641Zm.054.279c-.037.006-.047-.017-.033-.031s.028-.014.028-.029S6,7.834,6,7.8s.027-.015.027-.015c.024.008.025.052.025.088A.044.044,0,0,1,6.022,7.92ZM6.06,7.5c.007-.015.024-.064,0-.081a.14.14,0,0,0-.064-.03c-.019,0-.036-.028-.044-.045-.015-.032.011-.071.029-.069.035.005.024.056.057.06s.039-.051.03-.068-.083-.049-.074-.11c0-.028.017-.026.03-.026s.04.029.061.03.033-.028.029-.053-.088-.072-.1-.088.023-.056.043-.065.03.034.056.044.03,0,.036-.011c.021-.038-.066-.054-.092-.12-.011-.027.031-.056.057-.069s.044.036.064.032a.028.028,0,0,0,.012-.038c-.027-.03-.064-.03-.072-.043-.02-.032-.04-.121,0-.122.014,0,.046.06.091.056.019,0,.025.006.025.025s.02.038.033.058a.079.079,0,0,1-.028.091c-.03.02-.07,0-.087-.011s-.012.022.027.037.076.093.035.123-.086.015-.094.025.008.012.021.019.01.016.019.027.046.014.027.064-.1.054-.087.067c.033.038.046.043.045.066a.087.087,0,0,1-.063.076c-.025,0-.044,0-.009.028.019.012.071.023.048.079s-.067.056-.06.041Zm.026.767c0-.018-.007-.031-.014-.088s-.013-.234.011-.242.058.108.059.135a.4.4,0,0,1-.009.079,1.271,1.271,0,0,1,0,.189c-.008.025-.008.043-.023.044s-.022-.081-.025-.117Zm0,.829a.1.1,0,0,0,.089-.022.116.116,0,0,0,.041-.078.588.588,0,0,0,.011-.1c0-.014-.014-.006-.017.04A.1.1,0,0,1,6.187,9c-.01.012-.018.028-.028.012s.01-.064.021-.1-.012-.088-.027-.037,0,.127-.036.144c-.015.007-.041,0-.026-.04A.429.429,0,0,0,6.114,8.9c.007-.025.016-.061.018-.076s0-.028-.013-.028-.012.031-.014.049c0,.044-.01.1-.024.086a.3.3,0,0,1,.007-.12c0-.023.012-.051.019-.08s0-.062.008-.086a.376.376,0,0,0,.028-.075.754.754,0,0,1,.026-.081.5.5,0,0,0,.011-.241,1.228,1.228,0,0,1-.019-.308c.007-.013.05-.016.068-.029s.022-.045.028-.052.048-.028.084-.067c.011-.012,0-.076.032-.08s.042.053.028.075.05.055.055.088-.013.016-.009.082a2.794,2.794,0,0,0,.032.309c.006.035.018.069.027.115s-.021.063-.011.128a.075.075,0,0,1-.016.065c-.028.038-.052.053-.056.11-.006.08-.051.156-.044.091,0-.019,0-.08-.006-.066a.948.948,0,0,1-.037.132c-.025.042-.012.059-.013.11,0,.028-.054.049-.043.087s-.051.1-.09.134c-.016.016,0,.022.026.009s.048-.037.051-.033-.022.064-.063.071a.2.2,0,0,0-.058.01.5.5,0,0,0-.045.031.072.072,0,0,1-.049.017c-.011,0-.025.032-.034.013a.38.38,0,0,1,.01-.054c0-.021-.018-.027-.021-.018s0,.043-.021.043-.028-.043-.009-.061a.041.041,0,0,1,.045-.014c.016,0,.029-.011.008-.026a.052.052,0,0,1-.011-.067c.02-.021.019-.007.067,0Zm-.131.278c0,.017-.051.017-.053.006s.029-.061.038-.064.031-.008.03,0A.171.171,0,0,0,5.956,9.37Zm-.037-.285c.016-.031.035-.04.048-.041s.028.009.045.029c0,0-.008.006-.024.02s.01.059,0,.071-.058.059-.062.029a.6.6,0,0,0-.019-.071c0-.014,0-.014.014-.037Zm.014.184a.054.054,0,0,1-.058.042c-.018,0,.013-.03.02-.048s-.03-.061-.033-.024-.024.012-.015-.02A.03.03,0,0,1,5.893,9.2C5.914,9.215,5.944,9.23,5.933,9.269Zm-.07.1c.005.018,0,.022-.02.022s-.038-.02-.018-.044a.061.061,0,0,1,.056-.032c.011,0,.021.021.01.023s-.031.018-.027.031ZM5.8,9.24c.016,0,.026.019.028.032s-.016.013-.013.021.005.032,0,.036-.044.008-.052,0,0-.02.018-.025.014-.03.014-.03,0-.026.01-.029Zm-.05-.062c.019-.02.04,0,.057-.008s.026-.034.038-.1.036-.059.04-.047-.01.037-.01.059a.127.127,0,0,1,0,.038.164.164,0,0,1-.028.043c-.008.01-.012.048-.036.057s-.075-.026-.056-.045Zm0,.047c.006-.006.025,0,.025.006s-.012.011-.006.024,0,.024-.01.013-.014-.038-.008-.043Zm0,.159c.009-.038,0-.037.034-.041.016,0,0,.014-.005.03s.014.029,0,.029c-.029,0-.033,0-.029-.018Zm.046.6c-.024,0-.035.008-.041-.008a.124.124,0,0,1,.031-.065c.016-.014.063-.011.063-.011l0,.019-.018,0c-.007,0-.014.013-.013.023s.005.04-.019.039Zm.006-.1c-.022.011-.036-.2-.022-.2s.064.057.064.069S5.824,9.875,5.8,9.886Zm-.08-.377A1.755,1.755,0,0,1,5.78,9.9a.4.4,0,0,0-.041.054s-.027-.409-.017-.442Zm-.19.39a.172.172,0,0,0-.005-.1c0-.013.039.012.039.048s-.039.064-.033.048Zm.049.165s0-.179,0-.23-.006-.25,0-.258a.929.929,0,0,1,.022.2C5.607,9.82,5.607,10.065,5.581,10.065Zm.046.114c-.012.021-.012.012-.009,0A.621.621,0,0,0,5.649,10c0-.072,0-.277-.007-.3a.636.636,0,0,0-.031-.156c-.006-.012-.027-.041-.027-.051s.016-.021.032,0a.533.533,0,0,1,.049.21c0,.042.012.221.007.3a.547.547,0,0,1-.045.18Zm.039.1a.352.352,0,0,1,.014-.051c.006-.039.007-.118.011-.161s0-.191,0-.247c0-.025-.008-.187-.014-.231a.592.592,0,0,1,0-.1c0-.022.029.066.037.125,0,.036.007.183.007.214a1.627,1.627,0,0,1-.018.411c-.008.017-.029.05-.033.04Zm.1-.212a.868.868,0,0,0-.015.152c0,.051-.053.06-.042.049a.135.135,0,0,0,.024-.091c0-.042-.012-.148,0-.172s.034,0,.045,0c.026,0,.04-.008.04.02s-.045.02-.057.041Zm.1.22s-.022.024-.027.027.03.024.022.027a.039.039,0,0,1-.027,0c-.006,0-.028-.028-.027-.037s.033-.023.042-.026.019.007.017.009Zm-.01-.024a.1.1,0,0,1-.062-.06.092.092,0,0,1,0-.057l0-.006a.011.011,0,0,0,0-.017s-.01-.034,0-.042a.226.226,0,0,1,.049-.028.09.09,0,0,0,.04-.015.023.023,0,0,0,.006-.023c0-.011-.015-.015-.024-.033a.151.151,0,0,1,.007-.1c.008-.012.026-.03.03-.038a.051.051,0,0,0,0-.008c0-.01.008-.026-.011-.024s-.027,0-.025-.033c0-.01,0-.036.011-.041s0-.035.008-.05.014-.046,0-.054-.01-.057-.009-.069-.02-.035-.03-.03,0,.02,0,.02a.035.035,0,0,0-.015-.01.07.07,0,0,1,.038.06c0,.048-.01.027-.022.052s0,.036-.009.044-.04-.026-.044-.04,0-.036.009-.043.008-.016.006-.032,0-.041.015-.042h0s-.009-.041,0-.048a.029.029,0,0,0,.015-.026.036.036,0,0,1,.009-.026s.026-.01.029-.015a.035.035,0,0,1,.03-.018c.016,0,.021,0,.037,0s.029,0,.04.008a.02.02,0,0,1,0,.029c-.012.01-.007.041,0,.041s0-.021.022-.034.014-.014.018-.014.01.039.006.051.008-.017.021-.018.014.032.008.036a.069.069,0,0,0-.015.026c0,.018,0,.026.015,0,0-.009.017,0,.018,0a.023.023,0,0,1-.008.028.038.038,0,0,0-.015.016c-.006.012,0,.028.011.023s.008-.021.014-.025.013.005.017.012a.011.011,0,0,1-.006.017c-.01.006-.025.026-.014.025s.032-.009.034-.006.008.018-.011.031a.1.1,0,0,0-.023.018.007.007,0,0,0,0,.013c.028,0,.034-.016.047-.009s0,.029,0,.034-.04.025-.028.026a.1.1,0,0,0,.045-.015c.011-.007.006.019,0,.025s-.036.007-.041.014.014.021.04.011a.056.056,0,0,1,.025,0A.125.125,0,0,0,6.2,9.8a.107.107,0,0,0,.037-.01.1.1,0,0,1,.049-.009.13.13,0,0,1,.077.026.085.085,0,0,0,.057.013c.011,0,.047-.007.059-.033a.1.1,0,0,0,0-.081c-.014-.026-.025-.067,0-.089s.019-.036.022-.056.045-.048.055-.056a.045.045,0,0,0,.021-.031.024.024,0,0,1,.032-.017c.013,0,.017.015.006.028a.16.16,0,0,1-.031.033c-.007,0-.03.013-.027.025s.018.012.028.029,0,.031,0,.034l-.027.011c-.007,0-.01.01-.008.012s.018.009.02.015,0,.016-.016.016a.008.008,0,0,0,0,.016.02.02,0,0,1,0,.036.02.02,0,0,0-.014.016.011.011,0,0,0,.009.014c.009,0,.007.018,0,.023s-.011.01-.01.021.009.024,0,.038a.067.067,0,0,1-.043.024c-.019,0-.023.012-.044.011s-.057.014-.076.01-.01.007,0,.016c.037.035.008.075.024.1.035.046.063.094.084.1a.26.26,0,0,1,.065.024c.01.009,0,.027,0,.032s-.01.022,0,.026.026-.007.036.006.019.04.03.053a.071.071,0,0,1,0,.061c-.011,0-.036.017-.051.009s.014-.029.011-.044a.146.146,0,0,0-.03-.054c-.013-.015-.041-.06-.06-.066s-.088-.059-.112-.058a.277.277,0,0,1-.182-.078c-.017-.017-.013,0-.013.027a.035.035,0,0,1-.04.032c-.033,0-.046-.034-.057-.046a.069.069,0,0,0-.039-.021c-.021-.005-.039-.062-.043-.064s.013.074,0,.086-.045.062-.075.069a.578.578,0,0,1-.071.015c-.017,0-.034.032-.014.042s0,.073,0,.079a.124.124,0,0,0,.039.008c.008,0,.01.016.015.028s.014.017.01.02-.009.006-.04,0Zm.076.042a.017.017,0,0,0,0,.03c.013.01,0,.015-.022.013a.025.025,0,0,1-.021-.034.051.051,0,0,1,.035-.027c.011,0,.019.014.009.018Zm.065,0c-.006,0-.023.014-.019.021s.019.015.009.017-.012.006-.022,0a.044.044,0,0,1-.015-.036.045.045,0,0,1,.03-.017c.01,0,.022.011.016.015Zm.045.155c-.007,0-.016,0-.012-.006s0-.008.008-.008.015,0,.015,0A.012.012,0,0,1,6.037,10.459Zm.016-.124a.017.017,0,0,1-.015.007A.112.112,0,0,1,6,10.31c-.008-.011.031-.02.041-.021s.032.007.028.012a.155.155,0,0,1-.029.015s.014.017.012.019Zm.027.125c-.01,0-.024,0-.017-.007s0-.009.012-.009.023,0,.023,0A.017.017,0,0,1,6.08,10.46Zm.064.057c0,.018-.007.041-.008.046s-.022.005-.028-.011-.013-.053.012-.052C6.127,10.5,6.147,10.5,6.144,10.517Zm-.014-.056c-.011,0-.027,0-.02-.008s0-.011.014-.011.026,0,.026,0A.019.019,0,0,1,6.129,10.461Zm0-.095c-.015,0-.056-.038-.049-.048a.187.187,0,0,1,.071-.03c.016,0,.037,0,.026.009s-.034.019-.042.026.023.027.021.032-.012.011-.027.01Zm.057.094c-.011,0-.027,0-.02-.008s0-.011.014-.011.026,0,.026,0A.019.019,0,0,1,6.182,10.46Zm.062.1c0,.008-.008.012-.021,0s-.024-.067-.006-.07.028,0,.032.01S6.241,10.549,6.244,10.564Zm-.011-.1c-.011,0-.027,0-.02-.009s0-.013.014-.013.026,0,.026,0A.02.02,0,0,1,6.233,10.463Zm-.015-.137c0,.009.021.033.018.038a.042.042,0,0,1-.036,0c-.011-.005-.032-.033-.027-.039a.17.17,0,0,1,.059-.041c.014,0,.025.007.022.01s-.037.019-.035.028Zm.036.008a.1.1,0,0,1,.048-.04s.027,0,.022,0-.029.02-.029.027.02.044.015.046-.028.009-.034,0-.026-.026-.022-.036Zm.021.119c0-.005,0-.014.016-.014s.03,0,.03,0a.022.022,0,0,1-.023.02c-.013,0-.03,0-.022-.01Zm.073.118c-.032.019-.042-.017-.044-.042s-.007-.036,0-.037a.031.031,0,0,1,.03.012c.006.008.033.053.01.067Zm.012-.106c-.013,0-.032,0-.023-.011s0-.015.017-.015.031,0,.031,0A.024.024,0,0,1,6.361,10.466ZM6.4,10.3c-.009.009-.032.016-.026.026s.034.044.022.048a.1.1,0,0,1-.044,0c-.013,0-.026-.032-.026-.041a.076.076,0,0,1,.048-.05C6.383,10.285,6.4,10.294,6.4,10.3Zm.055,0c.009,0,.029.009.023.012s-.032.009-.032.023a.086.086,0,0,0,.016.045c.008.007-.016.01-.029,0a.079.079,0,0,1-.029-.044c0-.009.028-.036.051-.041Zm-.048.158c0-.006,0-.015.018-.015s.034,0,.034,0a.025.025,0,0,1-.027.022c-.015,0-.035,0-.026-.011Zm.022.115c-.017-.007-.03-.077-.013-.079s.03,0,.039,0,.013.068.017.075S6.441,10.578,6.425,10.572Zm.045-.116c0-.006,0-.017.018-.017s.034,0,.034,0a.026.026,0,0,1-.027.024c-.015,0-.035.005-.026-.012Zm.055.117c-.019,0-.025-.056-.021-.069s.021-.012.035-.011.022.051.037.067-.033.017-.052.013Zm.034-.1c-.015,0-.035.006-.026-.013s0-.018.018-.018.034,0,.034,0a.027.027,0,0,1-.027.026Zm.041-.011c0-.007,0-.018.018-.018s.034,0,.034,0a.027.027,0,0,1-.027.026c-.015,0-.035.006-.026-.013Zm.066.117c-.021,0-.06.01-.062-.027s-.011-.049.006-.053.034,0,.043,0,.037.073.013.075Zm0-.119c0-.007,0-.018.018-.018s.034,0,.034,0a.027.027,0,0,1-.027.026c-.015,0-.035.006-.026-.013Zm.108.125c-.018.006-.055,0-.058-.009S6.689,10.5,6.7,10.5a.105.105,0,0,1,.058.007C6.78,10.512,6.782,10.576,6.771,10.58Zm-.011-.108c-.02,0-.049.007-.036-.014s.005-.02.025-.02.048,0,.048.005A.035.035,0,0,1,6.76,10.471Zm.051-.014c0-.008.005-.021.026-.021s.048,0,.048.006a.036.036,0,0,1-.038.031C6.827,10.472,6.8,10.479,6.811,10.457Zm.063.126a.1.1,0,0,1-.058,0c0-.006,0-.076.022-.073s.046,0,.054,0-.007.068-.019.072Zm.1-.008a.079.079,0,0,1-.056,0c-.005-.006-.013-.06,0-.064a.166.166,0,0,1,.058,0c.008,0,.015.058,0,.064Zm.081,0c-.015,0-.039.006-.041,0a.17.17,0,0,1,0-.06c0-.01.06-.008.059,0S7.075,10.569,7.052,10.576Zm.093,0c0,.008-.026.006-.041,0s-.02-.055-.02-.062.058-.01.059,0a.17.17,0,0,1,0,.06Zm.027-.14h.061a.13.13,0,0,1-.019.041.316.316,0,0,1-.056,0S7.171,10.434,7.171,10.434Zm.069.141a.079.079,0,0,1-.056,0c-.018-.005-.025-.065-.016-.067a.239.239,0,0,1,.071,0c.015,0,.007.058,0,.064Zm0-.131c0-.009.028,0,.047,0s.016.011.016.018-.021.014-.04.016A.02.02,0,0,1,7.238,10.444Zm.1.137a.1.1,0,0,1-.058,0c-.012,0-.028-.069-.019-.072a.214.214,0,0,1,.054,0C7.337,10.509,7.343,10.575,7.338,10.581Zm-.021-.135c0-.009.028,0,.047,0s.016.01.016.017-.016.015-.037.015S7.316,10.464,7.317,10.446Zm.112.128c0,.012-.031.016-.049.01s-.037-.075-.016-.08a.126.126,0,0,1,.056,0c.013,0,.013.059.009.071Zm.029.01a.15.15,0,0,1-.009-.082c.009-.009.038,0,.047,0s0,.028.017.061-.036.03-.055.022Zm.029-.11c-.018,0-.012-.02-.013-.027s.02,0,.034,0,.01.009.011.014-.018.016-.031.016Zm.1.107c-.019,0-.054.007-.053-.007s-.028-.066-.016-.066.074-.008.078,0,0,.065-.01.069Zm.005-.133c0-.007.022-.006.035-.006s.009.01.009.016-.013.015-.027.016A.019.019,0,0,1,7.6,10.447Zm.091.13c-.017.007-.042.009-.042,0s-.021-.063-.011-.073.053,0,.063,0S7.7,10.57,7.686,10.577Zm.03-.127c0-.01.019-.006.033-.006s.011.01.012.015-.014.008-.028.008S7.714,10.456,7.715,10.45Zm.032.13c-.015,0-.011-.016-.01-.037s-.006-.036,0-.04.031,0,.044,0,.016.042.016.067-.01.01-.048.013Zm.048-.113c-.016,0-.018-.011-.016-.017s.018,0,.031,0,.009.007.01.012S7.808,10.467,7.8,10.467Zm.029-.089c-.005.009-.017.031-.031.034s-.037,0-.035-.009.009-.023,0-.033-.046-.033-.026-.039a.064.064,0,0,1,.043,0c.021.007.051.036.046.045Zm.021-.162c0,.006-.01.01-.014,0a.033.033,0,0,1,.005-.037c.009-.007.008-.017.012-.018s.008.026,0,.028-.007.014,0,.022Zm.02.123a.085.085,0,0,1,.022.063c0,.011-.017.011-.029.01s.006-.014,0-.034-.03-.033-.038-.041,0-.012.008-.012a.055.055,0,0,1,.038.013Zm-.011.126c-.015,0-.017-.01-.015-.016s.017,0,.029,0,.009.007.01.011S7.867,10.465,7.855,10.465Zm.062.1a.062.062,0,0,1-.038.007c-.014-.007.009-.041.006-.06s.029-.007.04,0,.01.042-.008.055ZM7.9,10.451s.015,0,.026,0,.008.006.009.01-.011.007-.021.007S7.9,10.456,7.9,10.451Zm.032-.067c-.008-.009-.034-.046-.02-.051a.053.053,0,0,1,.036,0,.061.061,0,0,1,.017.047c0,.015,0,.027-.019.027S7.942,10.392,7.934,10.383Zm.065-.2v-.03H7.975c.006-.025.015-.053.023-.085a.247.247,0,0,0,.164-.01c.014-.006.018.006.014.01s-.034.011-.058.035V10.1H8.092v.018h.021a.157.157,0,0,0-.029.061.28.28,0,0,1-.043.085v0H8.014v.024h.01l-.018.021a.046.046,0,0,1-.025-.021h.011v-.024H7.971a.131.131,0,0,1,0-.014s0,0,0-.006h.019v-.029h-.02a.278.278,0,0,1,.007-.044v.023H8Zm-.035.277c-.013,0-.016-.009-.014-.013s.015,0,.026,0,.008.006.009.009S7.974,10.464,7.964,10.464Zm.025-.132a.055.055,0,0,1,.04,0c0,.013.018.049.011.054s-.023.013-.029.007S7.982,10.336,7.989,10.332Zm.024.132C8,10.464,8,10.456,8,10.452s.015,0,.026,0,.008.005.009.009S8.023,10.464,8.012,10.464Zm.029.079c-.023.032-.047.03-.05.021s.023-.022.024-.04,0-.034.007-.035c.025,0,.034.031.019.053Zm.017-.079c-.012,0-.014-.007-.012-.011s.013,0,.022,0,.007,0,.008.007S8.068,10.464,8.059,10.464Zm.015-.071c-.007-.01-.027-.062-.019-.068a.015.015,0,0,1,.022,0c0,.008.019.035.014.044s-.014.023-.017.019Zm.025.07c-.008,0-.009-.006-.007-.009s.009,0,.015,0,0,0,0,.006S8.1,10.463,8.1,10.463Zm.033-.079a.153.153,0,0,1-.02-.051c0-.009.007-.01.013-.01s.032.038.032.045S8.134,10.386,8.132,10.384Zm0-.118c-.005.012-.026.009-.06.011-.01,0-.005-.044,0-.051.037-.028.013-.04.034-.057a.691.691,0,0,1,.078-.09c.011-.009,0-.012,0-.012s0-.05,0-.052.025-.039.023-.042-.013.015-.04.042a.154.154,0,0,1-.168.01c-.013-.012,0-.006.028-.048a.158.158,0,0,0,.018-.083.1.1,0,0,0-.021-.061.211.211,0,0,1-.066.173c-.008.007,0,.028.01.026s0,.069-.006.078a.086.086,0,0,0-.022.048.212.212,0,0,0-.007.053c0,.019.013.037,0,.039s-.013.028-.011.034-.065.016-.075,0,.012-.017.018-.023.005-.057,0-.06-.014-.02-.006-.023.017.016.021.02.014,0,.018-.007a.064.064,0,0,0,0-.047c-.008-.035-.048-.058-.043-.069s.011-.03.006-.034-.015.03-.026.033.011.034,0,.04a.034.034,0,0,0-.015.032.118.118,0,0,1-.027.064c-.011.011-.037.082-.061.08s-.065.008-.062-.005.044-.041.05-.055a.783.783,0,0,0,.039-.1.087.087,0,0,1,.006-.051c.011-.021.037,0,.058-.029a.362.362,0,0,0,.057-.087c.007-.018.017-.074.024-.092.012-.033-.017.017-.026.036s-.013.038-.02.057a.2.2,0,0,1-.036.061c-.017.017-.044.018-.043,0A.124.124,0,0,1,7.8,10.01s.026-.051.048-.09.055-.088.059-.1a.653.653,0,0,0-.065.086l-.051.081a.022.022,0,0,1-.026.006c-.013-.005-.024-.023-.019-.033s.022-.022.031-.031a.593.593,0,0,0,.058-.06.746.746,0,0,0,.053-.089s-.055.074-.069.088a.33.33,0,0,1-.059.05c-.014.006-.026,0-.03,0s.015-.011.024-.018.043-.04.049-.046.026-.026.037-.038.042-.066.034-.057-.018.026-.028.038-.035.035-.057.057a.307.307,0,0,1-.038.03c-.009,0-.018.007-.024,0s0-.012,0-.017a.5.5,0,0,0,.052-.036c0-.008-.033.011-.048.012s-.018-.013,0-.02a.138.138,0,0,0,.042-.028c.012-.02.009-.025-.01-.017s-.012.008-.026.009-.023-.012-.012-.02a.082.082,0,0,1,.047-.019c.011,0,.042,0,.042-.01s-.024-.022-.043-.022-.012,0-.023.017a.049.049,0,0,1-.07-.008c0-.007.054.021.065-.009A.025.025,0,0,0,7.73,9.68a.06.06,0,0,0-.032,0c-.019.01,0-.012.018-.016s.028-.01.02-.018-.014,0-.019-.01-.016-.07.018-.09c.016-.01.019-.014.019-.023s-.017-.026-.022-.03a.019.019,0,0,1,0-.025c0-.006.017,0,.012-.009a.034.034,0,0,1,0-.031A.072.072,0,0,1,7.785,9.4s-.011.034-.013.044a.051.051,0,0,0,.007.038A.066.066,0,0,0,7.81,9.5a.055.055,0,0,0,.038,0,.076.076,0,0,0,.018-.017c.016-.029,0-.044,0-.061s.017,0,.024.01a.055.055,0,0,1,.013.046c0,.03,0,.017.012.022s.013.01.014.02-.008.008-.009.013.006.024,0,.027-.007.025.007.021.007.008,0,.014,0,.044-.013.062a.152.152,0,0,1-.036.034c-.017.009-.044,0-.052,0s-.014.013,0,.012a.019.019,0,0,1,.019.014.026.026,0,0,1-.005.025c-.011.01-.01.017,0,.014s.017-.02.034-.033A.209.209,0,0,0,7.9,9.709a.1.1,0,0,1,.035-.018c.016-.006.013-.039.044-.052a.073.073,0,0,1,.058,0c.014.007.043.027.027.058a.1.1,0,0,1-.035.045c-.013.008-.012.034,0,.048s.012.023.023.031.018.008.043,0A.082.082,0,0,1,8.146,9.8a.21.21,0,0,1,.085.019.092.092,0,0,1,.041.04.2.2,0,0,1,.008.032.165.165,0,0,1,.013.043c0,.032-.014.04-.012.053s-.006.057-.014.058-.027.009-.026.023a.048.048,0,0,1-.008.033c-.007.009-.024.021-.041.041s-.01.029-.015.038a.1.1,0,0,0-.019.049c0,.018-.023.024-.028.035Zm-.4-.562c.014,0,.012.011.007.014a.023.023,0,0,1-.021,0S7.719,9.7,7.724,9.7Zm.471.53c0,.013,0,.038,0,.043s-.008,0-.013-.014a.121.121,0,0,1,0-.064c.007-.015.012-.022.025-.024s.017.01.012.023-.023.024-.022.037Zm.005.131s-.011.009-.013-.007-.038-.041-.022-.043c0,0,.018,0,.024,0a.2.2,0,0,1,.028.033s-.012.006-.018.013Zm.063-.017s-.014,0-.018,0a.026.026,0,0,1-.008-.014s-.024-.023-.023-.026a.048.048,0,0,1,.01-.008c.008,0,.033.023.036.031S8.267,10.346,8.263,10.348Zm.043-.017c-.009.007-.017.01-.02.007s0-.015-.009-.023-.017-.022-.009-.023a.033.033,0,0,1,.032.019C8.306,10.32,8.315,10.324,8.306,10.331Zm.039-.084c-.011.029-.027-.429-.027-.466a1.366,1.366,0,0,1,.007-.3c.008-.006.03.071.035.206A3.46,3.46,0,0,1,8.345,10.247Zm.012-1c.008,0,.015.009.015.027s0,.036,0,.037-.008-.016-.011-.028-.012-.035,0-.037Zm.062.794a1.618,1.618,0,0,1-.022.2c0,.013-.02-.4-.02-.428s0-.328.008-.323c.028.015.028.162.028.224,0,.036.008.25.006.326Zm-.015-.63a.017.017,0,0,1-.032-.007c0-.024-.017-.046-.008-.047a.044.044,0,0,1,.029.01A.042.042,0,0,1,8.405,9.416Zm-.161-.364a.068.068,0,0,1,.031.018c.01.01,0,.073.005.083s.023.025.109.068a.07.07,0,0,1,.014.045c0,.011,0,.041-.015.041s-.011-.008-.005-.034a.042.042,0,0,0-.013-.041.034.034,0,0,0-.03,0c-.011.007-.009.025-.006.049s.021.021.012.043c0,0-.029.011-.035,0s.006-.022.007-.027a.132.132,0,0,0,0-.058c-.01,0-.057-.048-.057-.06s0-.041-.021-.049-.006-.048-.039-.065c0-.011.033-.011.045-.009Zm-.129.024c.019-.008.046,0,.059.01.03.011.044.02.046.036a.462.462,0,0,0,0,.087.272.272,0,0,1,.015.051.174.174,0,0,1,0,.044c0,.008-.015.006-.024,0s.01-.042,0-.082a.082.082,0,0,0-.034-.034.177.177,0,0,1-.058-.081c0-.014-.017-.029,0-.035Zm-.04.048c.006.03,0,.056.019.07a.315.315,0,0,0,.069.045c.015.007.013.03.009.043s-.032.046-.029-.012c0-.019-.039-.027-.049-.019s-.009.038-.021.04-.018-.044,0-.051a.149.149,0,0,0-.042-.109c-.02-.012.01.052,0,.077s0,.073-.035.068c-.063-.008-.1-.122-.124-.133s0-.054-.064-.121c-.012-.013.006-.1-.016-.108s0-.09-.021-.1-.009-.064-.048-.089a.127.127,0,0,1-.029-.058A.288.288,0,0,0,7.67,8.6a.2.2,0,0,1-.026-.163.083.083,0,0,0,.011-.072.17.17,0,0,1,.015-.12c.014-.016-.012-.176.019-.235.007-.013,0-.03,0-.031s.01-.029,0-.037-.012-.04-.015-.058-.018-.051,0-.061.017.031.037.042a.246.246,0,0,1,.077.06.11.11,0,0,0,.045.051.112.112,0,0,1,.058.069.882.882,0,0,1,.027.233c0,.065.016.093,0,.11s.012.1,0,.117a1.247,1.247,0,0,0,0,.312c.016.038.019.14.029.163s.022.072.054.086c.016.007.032.023.054.013s.028.026.032.047ZM7.9,7.96c.005,0,.023-.013.027,0s0,.028-.013.03S7.883,7.976,7.9,7.96Zm.113.432c0,.043-.051.262-.048.3s.057.149.053.185.047.105.05.129-.022,0-.038-.025a.265.265,0,0,0-.042-.061c-.013-.006.009.063.018.081s.056.064.049.066a.244.244,0,0,1-.092-.087,1.069,1.069,0,0,1-.04-.144.7.7,0,0,1-.007-.15c.008-.161.039-.31.036-.347a1.331,1.331,0,0,0,0-.216c-.009-.012-.019-.064,0-.077s.035.008.043.021a.983.983,0,0,1,.02.323Zm.047-.5a.283.283,0,0,0-.04.055c-.006.015.006.02.013.029s.014.03.005.035-.059-.015-.063-.046.034-.045.021-.053-.056.009-.081,0a.055.055,0,0,1-.036-.05.105.105,0,0,1,.045-.089.018.018,0,0,1,.026.023c-.008.019-.046.028-.051.057a.036.036,0,0,0,.044.04c.026,0,.032-.018.071-.02s.061.006.047.022Zm.1-.213a.139.139,0,0,1-.045.065c-.013.012-.045.034,0,.069.015.011,0,.039-.039.01a.091.091,0,0,1-.01-.086c.009-.024.025-.036.057-.057s.014-.049.034-.048.007.022,0,.048Zm.006-.2a.838.838,0,0,1-.008.085.136.136,0,0,1,0-.186c.014-.019.02-.044.029-.039s.018.028.022.056-.047.057-.047.084Zm.065.084c-.006.02.023.038.037.052s-.008.015-.031.017a.059.059,0,0,1-.035-.05.132.132,0,0,1,.049-.111c.029-.022.025-.037.019-.05s.038,0,.038.04c0,.065-.07.083-.077.1Zm.094-.4a.8.8,0,0,1-.065.085c-.01.016.01.045.022.037s.045-.076.074-.084.029.018.025.046c-.007.044-.054.043-.069.078a.075.075,0,0,0,0,.045c0,.007-.019,0-.025-.007s0-.038-.009-.042c-.064-.033-.075-.072-.072-.089a.361.361,0,0,1,.067-.1c.02-.018.031-.051.049-.051s.016.063.007.085ZM8.278,6.9a.067.067,0,0,0,.033.062c.02.012-.01.013-.019.008s-.047-.045-.068-.06.035-.027.035-.038,0-.028-.018-.017a.074.074,0,0,1-.077-.017.118.118,0,0,1-.015-.114.086.086,0,0,1,.044-.053c.008,0,.032-.007.033.014,0,.04-.024.052-.037.077s0,.078.031.078.021-.021.039-.023.023.048.019.083Zm.349-.277a.237.237,0,0,1-.068.052c-.013,0,.021.027-.005.027a.061.061,0,0,1-.045-.036c-.012-.021-.026-.054-.047-.053A.1.1,0,0,1,8.392,6.6a.05.05,0,0,1-.028-.03c0-.009,0-.018.026-.037A.135.135,0,0,0,8.415,6.5a.5.5,0,0,1,.038-.074.313.313,0,0,1,.033-.037c.007-.006.017,0,.005.012a.836.836,0,0,0-.054.1A.355.355,0,0,0,8.4,6.56c0,.02.022.016.032.013s.014-.042.027-.04.018.022.015.034c-.008.037.024-.01.034,0s-.022.067.021.029c.015-.013.021-.054.042-.041s.02.018.014.024-.045.032-.053.042,0,.028,0,.031.036-.035.062-.047.031.01.024.019Zm-.1-.138c.014.011.031.04.021.043S8.521,6.5,8.514,6.5s-.025-.008-.028-.011a.011.011,0,0,1,.005-.017A.057.057,0,0,1,8.524,6.483Zm.29-.1c0,.017-.023.057-.042.048s-.012-.057-.061-.074a.209.209,0,0,0-.073-.01c-.011,0-.005-.022-.008-.036a.03.03,0,0,0-.019-.025c-.015,0-.022-.025-.012-.028s.046.051.063.03-.018-.017-.011-.048a.066.066,0,0,1,.03-.041l0,0c-.006-.009,0-.06-.007-.078a.121.121,0,0,0-.018-.028.032.032,0,0,0-.044-.007,1.081,1.081,0,0,0-.094.125c-.026.033-.035.029.04.067a.054.054,0,0,1,.028.076c0,.014-.009.027.023.026a.2.2,0,0,1,.064.006.173.173,0,0,1,.082.064c.019.026.011.05,0,.042a.511.511,0,0,1-.064-.06c-.014-.011-.031-.026-.046-.018s0,.022.018.034.068.064.047.079-.043-.03-.054-.045-.022-.036-.039-.043c0,0,.016.03.018.035a.235.235,0,0,1,.022.062c0,.024.008.047-.01.047-.035,0-.017-.022-.039-.036a1.129,1.129,0,0,1-.074-.1c0-.01.008-.018.013-.013s.05.078.065.094c.031.031.01-.013.006-.032s-.019-.054-.021-.06,0,0,0,0a.353.353,0,0,1-.052-.058c-.031-.038-.081-.006-.087-.022,0,.005-.012.026-.021.04a.286.286,0,0,0-.038.1c-.006.063-.029.036-.052.049s-.031.05.006.087.087.02.115.022.014.018.015.042a.134.134,0,0,0,.032.069c.01.014-.011.027-.038.038A.054.054,0,0,1,8.4,6.767c-.009-.012,0-.042-.024-.064s-.069-.035-.091-.058A.361.361,0,0,1,8.281,6.5c.005-.016-.018-.056,0-.073s.06.02.082-.009c.007-.01.031-.029.04-.039.032-.035.045-.038.048-.034-.005-.014-.038,0-.064.008s-.083.017-.088,0,.013-.025.009-.059-.02-.04-.018-.063.012-.042.058-.045a.23.23,0,0,1,.1.018c.019.006.039.008.038,0a.145.145,0,0,0-.078-.063.059.059,0,0,0-.05.009c-.012.007-.046,0-.048-.016S8.3,6.112,8.3,6.09s-.01-.055.034-.056.041-.059.072-.072a.089.089,0,0,1,.071.012c.139.076.169.037.2.083a.328.328,0,0,1,.027.052.244.244,0,0,1,.007.083c.015.006.008.047.033.063a.254.254,0,0,1,.054.047.11.11,0,0,1,.025.077Zm-.249-.138a.05.05,0,0,1-.042-.014A.471.471,0,0,0,8.6,6.149c.019-.028.05,0,.045.022A.1.1,0,0,1,8.564,6.241Zm-2.431.174h0ZM7.839,9.64A.047.047,0,0,0,7.87,9.6c0-.014-.017,0-.025-.015s.007-.022.019-.033-.027-.014-.06,0-.046.064-.033.058S7.792,9.6,7.8,9.6s-.005.007-.006.012a.018.018,0,0,0,.016.02c.006,0,0-.008.006-.015s.006-.014.016-.01.006.02-.012.027,0,.02.023.008ZM8,9.712a.021.021,0,0,0-.019.019c0,.01.019.007.024,0A.013.013,0,0,0,8,9.712ZM6.773,5.994a.051.051,0,0,0-.01.012l0,0A.068.068,0,0,0,6.773,5.994ZM6.117,9.829c.011.005.013,0,.009-.011S6.1,9.8,6.1,9.805s.01.021.017.024ZM5.875,9.46c-.012,0-.02.027-.015.034s.009,0,.009-.011.016-.024.005-.024Zm.143.294c-.009.022,0,.043.012.043s.01-.025.011-.034.008-.037,0-.037-.021.015-.027.028ZM6.007,9.7a.037.037,0,0,0-.014.042c.007.017.012.02.016,0a.044.044,0,0,1,.017-.026.032.032,0,0,0,.006-.041s-.008.014-.024.027ZM5.9,9.478c-.006-.006-.025.014-.017.031s.017.018.012-.009c0-.01.01-.018.005-.023Zm.07.165c0-.02.017-.023.021-.034s0-.032-.005-.02-.024.02-.026.034S5.968,9.654,5.969,9.643Zm.79-3.634h0ZM5.915,9.54c.006,0,.015,0,.01-.015s.008-.015.015-.018-.009-.01-.021,0a.021.021,0,0,0,0,.034Zm.019.053c0,.014.01.023.016.019s-.008-.014.007-.034,0-.045,0-.034S5.931,9.567,5.934,9.592ZM7.09,5.518h0Zm.1.007h0Zm-1.118,4.3c0-.012,0-.065-.008-.064s-.015.048-.014.062.026.015.022,0Zm-.086-.128c0-.01.011-.013.025-.028s.006-.04,0-.036-.022.017-.031.036,0,.043,0,.028Zm.564.3h.027v.021H6.551ZM6.49,9.9h.027v.021H6.49Zm.047.043h.027v.021H6.537Zm-.039.067h.027v.021H6.5Zm-.052-.057h.027v.021H6.446ZM6.438,9.9h.027v.021H6.438Zm.051.043h.027v.021H6.49Zm.118.187h.027v.021H6.607Zm-.477.117h.027v.021H6.13Zm.036-.11h.027v.021H6.166Zm-.036-.007h.027v.021H6.13Zm-.047.064H6.11v.021H6.083Zm.047,0h.027v.021H6.13Zm-.043.055h.027v.021H6.087Zm-.092-.063h.027V10.2H5.994Zm-.007-.058h.027v.021H5.988Zm.049.065h.027v.021H6.037ZM6,10.244h.027v.021H6Zm.041,0h.027v.021H6.042Zm0-.121h.027v.021H6.042Zm.318.068h.027v.021H6.359Zm-.052,0h.027v.021H6.308Zm-.135.054H6.2v.021H6.173Zm.187,0h.027v.021H6.359Zm-.372-.171h.027v.021H5.988Zm.271.116h.027v.021H6.259Zm-.086,0H6.2v.021H6.173Zm.041-.057h.027v.021H6.214Zm.006.058h.027v.021H6.219Zm.04-.061h.027v.021H6.259Zm0,.113h.027v.021H6.259Zm-.04,0h.027v.021H6.219Zm.088,0h.027v.021H6.308Zm-.365-.009H5.97v.021H5.943Zm-.05-.116H5.92v.021H5.893Zm.05,0H5.97v.021H5.943Zm0,.055H5.97V10.2H5.943Zm.14-.051H6.11v.021H6.083Zm-.046-.055h.027v.021H6.037Zm.225-.581h.026v.018H6.262Zm0,.063h.026v.018H6.262Zm-.045-.109h.026v.018H6.217Zm.045.187h.026v.018H6.262Zm0-.2h.026v.018H6.258Zm-.034.256h.026V9.71H6.225Zm.037,0h.026V9.71H6.262Zm.1-.059h.026v.018H6.359Zm0-.079h.026v.018H6.361Zm-.04.181h.026v.018H6.321Zm0-.244h.026v.018H6.316Zm0-.057h.026v.018H6.318Zm-.145.057H6.2v.018H6.173Zm-.005.142h.026v.018H6.167Zm-.046-.187h.026v.018H6.121Zm0,.046h.026v.018H6.121Zm0,.067h.026v.018H6.121Zm.048-.112h.026v.018H6.169Zm.048.112h.026v.018H6.217Zm0,.075h.026v.018H6.217Zm0-.142h.026v.018H6.217Zm.144,0h.026V9.5H6.361Zm-.182.206H6.2V9.71H6.179Zm-.006-.134H6.2v.018H6.173Zm.145.133h.026v.018H6.318Zm.12-.2h.026V9.5H6.438Zm0-.055h.026v.018H6.438Zm.1,0h.026v.018H6.537Zm-.176,0h.026v.018H6.361Zm.051.3h.026v.018H6.412Zm-.094-.1h.026v.018H6.318Zm.163-.2h.026v.018H6.481Zm-.081,0h.026v.018H6.4Zm-.083.121h.026V9.57H6.318ZM6.4,9.487h.026V9.5H6.4Zm.006.065h.026V9.57H6.407Zm-.046.14h.026V9.71H6.361Zm0,.04h.026v.018H6.361Zm1.281-.192h.026v.024H7.642Zm-.053-.108h.026v.024H7.589Zm.047,0h.026v.024H7.636Zm.013.173h.026V9.63H7.649Zm-.013-.117h.026v.024H7.636Zm.041.531H7.7v.018H7.677Zm0,.055H7.7v.018H7.674Zm-.006.056h.026v.018H7.668Zm.056-.056H7.75v.018H7.724Zm-.039-.123h.026V9.97H7.685Zm-.067.243h.026v.018H7.618Zm.006-.065H7.65v.018H7.624Zm-.05,0H7.6v.018H7.573Zm.05-.056H7.65v.018H7.624Zm.037.121h.026v.018H7.661Zm-.037.061H7.65v.018H7.624Zm-.053,0H7.6v.018H7.571Zm-.1,0H7.5v.018H7.472Zm.1-.056H7.6v.018H7.574Zm-.048.053h.026v.018H7.525ZM7.52,10.2h.026v.018H7.52Zm.632-.571h.026v.024H8.151Zm-.066-.123h.026v.024H8.085Zm.059.065H8.17V9.6H8.144Zm.055,0h.026V9.6H8.2Zm-.048.1h.026V9.7H8.151ZM8.2,9.626h.026V9.65H8.2Zm-.048.1h.026V9.75H8.151ZM8.085,9.57h.026v.024H8.085Zm-.13-.125h.026v.024H7.955Zm.084.121h.026V9.59H8.039ZM8.033,9.5h.026v.024H8.033Zm-.04,0h.026v.024H7.993Zm.021.711h.026v.02H8.014Zm.005-.055h.026v.024H8.02Zm.013-.057h.026v.027H8.033ZM7.264,6.442a.077.077,0,0,0,.043-.057A.1.1,0,0,0,7.3,6.324c-.012,0,0,.041-.019.066S7.232,6.448,7.264,6.442Zm-.329-.091a.061.061,0,0,0,0,.067c.014.019.031.024.034.018S6.951,6.41,6.941,6.4s-.005-.052-.005-.052Zm.152-.087c-.018,0,0,.033-.025.037s-.015-.034-.024-.031,0,.038.007.044.03.028.042,0,.01-.056,0-.055Zm-.309-.484c.018,0,.045-.045.076-.056a.063.063,0,0,1,.07.028c.009.011.02.025.031.027s.016-.016.012-.016-.014-.045-.042-.065a.085.085,0,0,0-.076-.007.271.271,0,0,0-.078.053c-.022.017-.034.028-.034.028a.062.062,0,0,0,.04.009Zm.647-.026c-.017-.01-.04-.056-.09-.056s-.079.064-.089.076.007.024.02.018c.03-.014.026-.057.076-.06s.051.037.078.04.024-.009.007-.019ZM7.1,9.347a.466.466,0,1,0,.472.46A.466.466,0,0,0,7.1,9.347Zm.413.312A.035.035,0,0,0,7.5,9.7c.005.019.02.032.033.03l0,.013a1.478,1.478,0,0,0-.173.019c-.074.011-.136.023-.164.03a.1.1,0,0,0,0-.016c.027-.008.087-.031.155-.061a1.479,1.479,0,0,0,.157-.076l.007.017Zm-.054-.1a.042.042,0,0,0,.039.065l.006.013a1.462,1.462,0,0,0-.162.063c-.068.03-.126.057-.15.072l-.009-.015c.024-.015.076-.053.134-.1a1.5,1.5,0,0,0,.131-.113l.011.014Zm-.078-.083a.042.042,0,0,0,.054.053l.009.011a1.5,1.5,0,0,0-.14.1c-.058.046-.107.088-.127.108l-.012-.012c.019-.021.059-.07.1-.13a1.5,1.5,0,0,0,.1-.143l.014.011Zm-.2.336a.07.07,0,1,1-.071-.069.07.07,0,0,1,.071.069Zm.108-.4a.042.042,0,0,0,.066.037l.012.009a1.5,1.5,0,0,0-.109.135c-.044.06-.081.112-.094.137l-.015-.008c.013-.025.039-.083.067-.152a1.473,1.473,0,0,0,.058-.164l.016.007Zm-.109-.033c0,.013.012.028.031.033A.035.035,0,0,0,7.251,9.4l.014.005a1.463,1.463,0,0,0-.07.159c-.027.069-.049.129-.056.157l-.017,0c.007-.027.016-.091.025-.164a1.478,1.478,0,0,0,.013-.173l.017,0Zm-.113,0a.042.042,0,0,0,.076,0h.015a1.479,1.479,0,0,0-.027.172c-.009.074-.014.138-.014.166H7.1c0-.028-.008-.092-.018-.165a1.482,1.482,0,0,0-.032-.171l.017,0Zm-.11.026A.036.036,0,0,0,7,9.419c.019-.005.032-.02.03-.033l.015,0a1.482,1.482,0,0,0,.018.173c.011.074.022.136.03.164l-.016,0c-.008-.027-.031-.087-.06-.155a1.471,1.471,0,0,0-.075-.157l.016-.006Zm-.1.054a.042.042,0,0,0,.065-.039l.014-.006A1.476,1.476,0,0,0,7,9.577c.029.068.057.126.071.15l-.015.009C7.037,9.712,7,9.66,6.954,9.6a1.5,1.5,0,0,0-.113-.132l.013-.01Zm-.083.078a.042.042,0,0,0,.053-.054l.012-.009a1.5,1.5,0,0,0,.1.14c.046.058.087.107.107.127l-.012.012c-.02-.019-.07-.06-.13-.1a1.5,1.5,0,0,0-.143-.1l.01-.013Zm-.06.1a.042.042,0,0,0,.037-.066l.009-.012a1.5,1.5,0,0,0,.135.109c.06.045.112.081.137.095a.094.094,0,0,0-.008.015C7,9.76,6.938,9.735,6.869,9.707a1.478,1.478,0,0,0-.164-.058l.006-.015Zm-.033.109c.013,0,.028-.012.033-.031A.035.035,0,0,0,6.7,9.669L6.7,9.654a1.473,1.473,0,0,0,.159.071c.069.028.129.049.157.056a.093.093,0,0,0,0,.016c-.027-.007-.09-.017-.164-.026a1.49,1.49,0,0,0-.173-.014l0-.016Zm0,.113a.042.042,0,0,0,0-.076c0-.005,0-.011,0-.016a1.48,1.48,0,0,0,.172.027c.074.009.138.014.166.014,0,0,0,.006,0,.008s0,.006,0,.009c-.028,0-.092.007-.165.018a1.493,1.493,0,0,0-.171.031l0-.016Zm.026.111a.036.036,0,0,0,.013-.043c-.005-.019-.02-.032-.033-.03l0-.016a1.482,1.482,0,0,0,.173-.018c.074-.011.137-.022.164-.029a.094.094,0,0,0,0,.016c-.027.008-.087.031-.155.06a1.481,1.481,0,0,0-.157.075L6.7,9.966Zm.063.112-.009-.012A.042.042,0,0,0,6.716,10l-.007-.015a1.475,1.475,0,0,0,.163-.062c.068-.029.126-.056.151-.071l.009.015c-.024.015-.076.052-.134.1a1.5,1.5,0,0,0-.132.112Zm.068.071a.042.042,0,0,0-.054-.053l-.01-.013a1.5,1.5,0,0,0,.141-.1c.059-.046.107-.087.127-.107l.012.012c-.02.02-.06.07-.1.129a1.512,1.512,0,0,0-.1.143l-.012-.009Zm.1.06a.042.042,0,0,0-.066-.037l-.013-.01a1.5,1.5,0,0,0,.11-.134c.045-.059.081-.112.1-.136l.015.008c-.014.025-.04.083-.068.152a1.482,1.482,0,0,0-.059.164l-.014-.006Zm.109.033c0-.013-.012-.028-.031-.033a.035.035,0,0,0-.043.014l-.016-.006a1.474,1.474,0,0,0,.071-.159c.028-.069.05-.129.057-.156l.016,0c-.007.027-.017.09-.026.164a1.49,1.49,0,0,0-.014.173Zm.113,0a.042.042,0,0,0-.076,0l-.017,0a1.482,1.482,0,0,0,.028-.172c.009-.074.015-.138.015-.166h.017c0,.028.007.092.017.165a1.482,1.482,0,0,0,.031.171l-.014,0Zm.111-.026a.035.035,0,0,0-.043-.013c-.019.005-.032.02-.03.033l-.017,0a1.484,1.484,0,0,0-.017-.173c-.01-.074-.022-.137-.029-.164l.016,0c.008.027.03.087.059.155a1.477,1.477,0,0,0,.074.157l-.013.005Zm.1-.054A.042.042,0,0,0,7.3,10.2l-.016.007a1.477,1.477,0,0,0-.061-.163c-.029-.069-.056-.126-.07-.151l.015-.009c.014.024.052.076.1.135a1.5,1.5,0,0,0,.112.133l-.011.009Zm.083-.078a.042.042,0,0,0-.053.054l-.014.011a1.5,1.5,0,0,0-.1-.141c-.046-.059-.087-.108-.107-.128l.012-.012c.02.02.07.06.129.1a1.5,1.5,0,0,0,.142.1l-.008.011Zm.06-.1a.042.042,0,0,0-.037.066l-.011.015a1.5,1.5,0,0,0-.134-.11c-.059-.045-.112-.082-.136-.1a.1.1,0,0,0,.009-.016c.025.013.083.039.153.066a1.466,1.466,0,0,0,.164.057L7.5,9.991Zm.033-.109c-.013,0-.028.012-.033.031a.035.035,0,0,0,.014.043l0,.012a1.479,1.479,0,0,0-.159-.07c-.069-.027-.13-.048-.157-.055a.093.093,0,0,0,0-.017c.027.007.091.016.165.025a1.484,1.484,0,0,0,.173.013c0,.006,0,.012,0,.018Zm-.169-.05c-.074-.008-.138-.013-.166-.013,0,0,0-.005,0-.008s0-.006,0-.009c.028,0,.092-.008.165-.019a1.474,1.474,0,0,0,.171-.032c0,.006,0,.012,0,.018a.042.042,0,0,0,0,.076s0,.009,0,.013a1.49,1.49,0,0,0-.172-.026Zm-.215-.019a.045.045,0,1,1-.045-.045A.045.045,0,0,1,7.153,9.812Z" transform="translate(-21156.959 -17240.805)" fill="#fff"/>
        <g id="Group_71080" data-name="Group 71080" transform="translate(-21149.883 -17227.027)">
          <path id="Path_5590" data-name="Path 5590" d="M7.419,14.839h0A7.419,7.419,0,0,1,7.419,0h0a7.428,7.428,0,0,1,7.419,7.42h0a7.428,7.428,0,0,1-7.42,7.419m0-13.566A6.147,6.147,0,1,0,13.566,7.42,6.154,6.154,0,0,0,7.42,1.273" transform="translate(0 0)" fill="#152c69"/>
          <g id="Group_71067" data-name="Group 71067" transform="translate(3.677 3.151)">
            <path id="Path_5592" data-name="Path 5592" d="M80.565,68.06l3.911-8.117,2.614,5.5h-1.2l-1.418-3.107L81.8,68.06Z" transform="translate(-80.565 -59.943)" fill="#152c69"/>
            <path id="Path_5593" data-name="Path 5593" d="M215.278,211.029h-1.222l.718,1.493h1.189Z" transform="translate(-208.213 -204.415)" fill="#d66025"/>
            <path id="Path_5594" data-name="Path 5594" d="M130.558,129.569h1.008c.107,0,.108,0,.088.1l-.426,2.2a.237.237,0,0,1-.225.194h-2.92c-.114,0-.115,0-.093-.109q.213-1.1.427-2.2a.237.237,0,0,1,.234-.183c.088,0,.175,0,.263,0h1.646" transform="translate(-125.902 -126.52)" fill="#fff"/>
            <path id="Path_5595" data-name="Path 5595" d="M150.363,137.161h.178c.1,0,.193,0,.288,0a.171.171,0,0,1,.176.165v.01c0,.086,0,.172,0,.258a.167.167,0,0,1-.164.17h-.478v.459a.17.17,0,0,1-.182.183h-.242a.171.171,0,0,1-.18-.162.181.181,0,0,1,0-.02v-.458l-.047,0H149.3a.165.165,0,0,1-.18-.178q0-.119,0-.237a.17.17,0,0,1,.186-.187h.452v-.468a.167.167,0,0,1,.161-.172h.01q.131,0,.263,0a.165.165,0,0,1,.168.161v.008c0,.155,0,.309,0,.469" transform="translate(-146.12 -133.168)" fill="#d66025"/>
            <path id="Path_5596" data-name="Path 5596" d="M122.968,125.513h-1.892a.426.426,0,0,1-.267-.079.305.305,0,0,1-.129-.308c.043-.249.094-.5.142-.745.1-.515.2-1.028.3-1.544a.566.566,0,0,1,.523-.446H124.6a.434.434,0,0,1,.254.068.315.315,0,0,1,.141.343q-.22,1.142-.443,2.284a.539.539,0,0,1-.447.419.752.752,0,0,1-.119.009Zm.608-2.809h-1.908a.237.237,0,0,0-.234.183l-.427,2.2c-.021.109-.02.109.094.109h2.92a.237.237,0,0,0,.225-.194l.426-2.2c.02-.1.019-.1-.088-.1h-1.008" transform="translate(-118.92 -119.656)" fill="#122d6b"/>
          </g>
        </g>
      </g>
      <g id="Group_71081" data-name="Group 71081" transform="translate(-26 -85)">
        <circle id="Ellipse_140" data-name="Ellipse 140" cx="14" cy="14" r="14" transform="translate(-12189 -22888)" fill="#fff"/>
        <path id="noun-shield-3963879" d="M128.113.025a.553.553,0,0,1,.249-.019l.082.019,7.706,2.408a.593.593,0,0,1,.4.487l.006.087v8.83a5.84,5.84,0,0,1-1.327,3.494A13.953,13.953,0,0,1,132.469,18l-.377.278a24.562,24.562,0,0,1-3.578,2.135.555.555,0,0,1-.47,0l-.4-.2A25.053,25.053,0,0,1,124.088,18a13.954,13.954,0,0,1-2.765-2.667A5.981,5.981,0,0,1,120,12.067l-.006-.23V3.007a.6.6,0,0,1,.332-.543l.078-.031Zm.174,5.5h-.015a4.394,4.394,0,0,0-4.3,4.475,4.4,4.4,0,0,0,4.12,4.472l.192,0A4.395,4.395,0,0,0,132.568,10a4.395,4.395,0,0,0-4.281-4.475ZM129.515,8.6a.491.491,0,0,1,.706.009.544.544,0,0,1,.059.672l-.059.073-2.363,2.462a.491.491,0,0,1-.643.045l-.063-.056-.908-.946a.543.543,0,0,1,.009-.736.491.491,0,0,1,.652-.056l.063.056.542.564Z" transform="translate(-12303.052 -22883.832)" fill="#d66025" fill-rule="evenodd"/>
      </g>
    </g>
  </g>
</svg>
