<svg xmlns="http://www.w3.org/2000/svg" width="24" height="24" viewBox="0 0 24 24">
  <g id="noun-user-5582819" transform="translate(-75 -75)">
    <path id="Path_29026" data-name="Path 29026" d="M87,75A12,12,0,1,0,99,87,12.013,12.013,0,0,0,87,75ZM81.441,95.641a5.573,5.573,0,0,1,11.117,0,10.216,10.216,0,0,1-11.117,0ZM94.1,94.422a7.284,7.284,0,0,0-14.2,0,10.286,10.286,0,1,1,14.2,0Z" fill="#fff"/>
    <path id="Path_29027" data-name="Path 29027" d="M426.02,281.25a4.07,4.07,0,1,0,4.07,4.07A4.074,4.074,0,0,0,426.02,281.25Zm0,6.426a2.356,2.356,0,1,1,2.355-2.356A2.358,2.358,0,0,1,426.02,287.676Z" transform="translate(-339.02 -201.536)" fill="#fff"/>
  </g>
</svg>
