<svg xmlns="http://www.w3.org/2000/svg" xmlns:xlink="http://www.w3.org/1999/xlink" width="687.273" height="294.375" viewBox="0 0 687.273 294.375">
  <defs>
    <clipPath id="clip-path">
      <rect id="Rectangle_21855" data-name="Rectangle 21855" width="169.855" height="143.536"/>
    </clipPath>
    <clipPath id="clip-path-2">
      <rect id="Rectangle_21854" data-name="Rectangle 21854" width="31.739" height="39.409"/>
    </clipPath>
  </defs>
  <g id="mainbanner.00586187" transform="translate(-28.2 -20.1)">
    <path id="Path_27118" data-name="Path 27118" d="M1106.014,646.293H992.747a6.253,6.253,0,0,1-6.247-6.247h0a6.253,6.253,0,0,1,6.247-6.247h113.267a6.253,6.253,0,0,1,6.247,6.247h0A6.2,6.2,0,0,1,1106.014,646.293Z" transform="translate(-518.138 -331.818)" fill="#012c3d"/>
    <g id="Group_31621" data-name="Group 31621" transform="translate(44.552 138.098)">
      <rect id="Rectangle_21682" data-name="Rectangle 21682" width="5.007" height="2.159" transform="translate(0)" fill="#78bdc4"/>
      <rect id="Rectangle_21683" data-name="Rectangle 21683" width="5.007" height="2.159" transform="translate(7.762)" fill="#78bdc4"/>
      <rect id="Rectangle_21684" data-name="Rectangle 21684" width="5.007" height="2.159" transform="translate(15.571)" fill="#78bdc4"/>
      <rect id="Rectangle_21685" data-name="Rectangle 21685" width="5.007" height="2.159" transform="translate(23.333)" fill="#78bdc4"/>
      <rect id="Rectangle_21686" data-name="Rectangle 21686" width="5.007" height="2.159" transform="translate(31.142)" fill="#78bdc4"/>
      <rect id="Rectangle_21687" data-name="Rectangle 21687" width="5.007" height="2.159" transform="translate(38.904)" fill="#78bdc4"/>
      <rect id="Rectangle_21688" data-name="Rectangle 21688" width="5.007" height="2.159" transform="translate(46.712)" fill="#78bdc4"/>
      <rect id="Rectangle_21689" data-name="Rectangle 21689" width="5.007" height="2.159" transform="translate(54.475)" fill="#78bdc4"/>
      <rect id="Rectangle_21690" data-name="Rectangle 21690" width="5.007" height="2.159" transform="translate(62.283)" fill="#78bdc4"/>
      <rect id="Rectangle_21691" data-name="Rectangle 21691" width="5.007" height="2.159" transform="translate(70.046)" fill="#78bdc4"/>
      <rect id="Rectangle_21692" data-name="Rectangle 21692" width="5.007" height="2.159" transform="translate(77.854)" fill="#78bdc4"/>
      <rect id="Rectangle_21693" data-name="Rectangle 21693" width="5.007" height="2.159" transform="translate(85.616)" fill="#78bdc4"/>
      <rect id="Rectangle_21694" data-name="Rectangle 21694" width="5.007" height="2.159" transform="translate(93.425)" fill="#78bdc4"/>
      <rect id="Rectangle_21695" data-name="Rectangle 21695" width="5.007" height="2.159" transform="translate(101.187)" fill="#78bdc4"/>
      <rect id="Rectangle_21696" data-name="Rectangle 21696" width="5.007" height="2.159" transform="translate(108.995)" fill="#78bdc4"/>
      <rect id="Rectangle_21697" data-name="Rectangle 21697" width="5.007" height="2.159" transform="translate(116.758)" fill="#78bdc4"/>
      <rect id="Rectangle_21698" data-name="Rectangle 21698" width="5.007" height="2.159" transform="translate(124.566)" fill="#78bdc4"/>
      <rect id="Rectangle_21699" data-name="Rectangle 21699" width="5.007" height="2.159" transform="translate(132.329)" fill="#78bdc4"/>
      <rect id="Rectangle_21700" data-name="Rectangle 21700" width="5.007" height="2.159" transform="translate(140.137)" fill="#78bdc4"/>
      <rect id="Rectangle_21701" data-name="Rectangle 21701" width="5.007" height="2.159" transform="translate(147.899)" fill="#78bdc4"/>
    </g>
    <g id="Group_31622" data-name="Group 31622" transform="translate(243.894 138.098)">
      <rect id="Rectangle_21702" data-name="Rectangle 21702" width="5.007" height="2.159" fill="#78bdc4"/>
      <rect id="Rectangle_21703" data-name="Rectangle 21703" width="5.007" height="2.159" transform="translate(7.808)" fill="#78bdc4"/>
      <rect id="Rectangle_21704" data-name="Rectangle 21704" width="5.007" height="2.159" transform="translate(15.571)" fill="#78bdc4"/>
      <rect id="Rectangle_21705" data-name="Rectangle 21705" width="5.007" height="2.159" transform="translate(23.379)" fill="#78bdc4"/>
      <rect id="Rectangle_21706" data-name="Rectangle 21706" width="5.007" height="2.159" transform="translate(31.142)" fill="#78bdc4"/>
      <rect id="Rectangle_21707" data-name="Rectangle 21707" width="5.007" height="2.159" transform="translate(38.95)" fill="#78bdc4"/>
      <rect id="Rectangle_21708" data-name="Rectangle 21708" width="5.007" height="2.159" transform="translate(46.712)" fill="#78bdc4"/>
      <rect id="Rectangle_21709" data-name="Rectangle 21709" width="5.007" height="2.159" transform="translate(54.521)" fill="#78bdc4"/>
      <rect id="Rectangle_21710" data-name="Rectangle 21710" width="5.007" height="2.159" transform="translate(62.283)" fill="#78bdc4"/>
      <rect id="Rectangle_21711" data-name="Rectangle 21711" width="5.007" height="2.159" transform="translate(70.092)" fill="#78bdc4"/>
      <rect id="Rectangle_21712" data-name="Rectangle 21712" width="5.007" height="2.159" transform="translate(77.854)" fill="#78bdc4"/>
      <rect id="Rectangle_21713" data-name="Rectangle 21713" width="5.007" height="2.159" transform="translate(85.662)" fill="#78bdc4"/>
      <rect id="Rectangle_21714" data-name="Rectangle 21714" width="5.007" height="2.159" transform="translate(93.425)" fill="#78bdc4"/>
      <rect id="Rectangle_21715" data-name="Rectangle 21715" width="5.007" height="2.159" transform="translate(101.233)" fill="#78bdc4"/>
      <rect id="Rectangle_21716" data-name="Rectangle 21716" width="5.007" height="2.159" transform="translate(108.995)" fill="#78bdc4"/>
      <rect id="Rectangle_21717" data-name="Rectangle 21717" width="5.007" height="2.159" transform="translate(116.804)" fill="#78bdc4"/>
      <rect id="Rectangle_21718" data-name="Rectangle 21718" width="5.007" height="2.159" transform="translate(124.566)" fill="#78bdc4"/>
      <rect id="Rectangle_21719" data-name="Rectangle 21719" width="5.007" height="2.159" transform="translate(132.375)" fill="#78bdc4"/>
      <rect id="Rectangle_21720" data-name="Rectangle 21720" width="5.007" height="2.159" transform="translate(140.137)" fill="#78bdc4"/>
      <rect id="Rectangle_21721" data-name="Rectangle 21721" width="5.007" height="2.159" transform="translate(147.945)" fill="#78bdc4"/>
    </g>
    <g id="Group_31623" data-name="Group 31623" transform="translate(156.027 80.959)">
      <rect id="Rectangle_21722" data-name="Rectangle 21722" width="5.007" height="2.159" fill="#78bdc4"/>
      <rect id="Rectangle_21723" data-name="Rectangle 21723" width="5.007" height="2.159" transform="translate(7.762)" fill="#78bdc4"/>
      <rect id="Rectangle_21724" data-name="Rectangle 21724" width="5.007" height="2.159" transform="translate(15.571)" fill="#78bdc4"/>
      <rect id="Rectangle_21725" data-name="Rectangle 21725" width="5.007" height="2.159" transform="translate(23.333)" fill="#78bdc4"/>
      <rect id="Rectangle_21726" data-name="Rectangle 21726" width="5.007" height="2.159" transform="translate(31.142)" fill="#78bdc4"/>
      <rect id="Rectangle_21727" data-name="Rectangle 21727" width="5.007" height="2.159" transform="translate(38.904)" fill="#78bdc4"/>
      <rect id="Rectangle_21728" data-name="Rectangle 21728" width="5.007" height="2.159" transform="translate(46.712)" fill="#78bdc4"/>
      <rect id="Rectangle_21729" data-name="Rectangle 21729" width="5.007" height="2.159" transform="translate(54.475)" fill="#78bdc4"/>
      <rect id="Rectangle_21730" data-name="Rectangle 21730" width="5.007" height="2.159" transform="translate(62.283)" fill="#78bdc4"/>
      <rect id="Rectangle_21731" data-name="Rectangle 21731" width="5.007" height="2.159" transform="translate(70.046)" fill="#78bdc4"/>
      <rect id="Rectangle_21732" data-name="Rectangle 21732" width="5.007" height="2.159" transform="translate(77.854)" fill="#78bdc4"/>
      <rect id="Rectangle_21733" data-name="Rectangle 21733" width="5.007" height="2.159" transform="translate(85.616)" fill="#78bdc4"/>
      <rect id="Rectangle_21734" data-name="Rectangle 21734" width="5.007" height="2.159" transform="translate(93.425)" fill="#78bdc4"/>
      <rect id="Rectangle_21735" data-name="Rectangle 21735" width="5.007" height="2.159" transform="translate(101.187)" fill="#78bdc4"/>
      <rect id="Rectangle_21736" data-name="Rectangle 21736" width="5.007" height="2.159" transform="translate(108.995)" fill="#78bdc4"/>
      <rect id="Rectangle_21737" data-name="Rectangle 21737" width="5.007" height="2.159" transform="translate(116.758)" fill="#78bdc4"/>
      <rect id="Rectangle_21738" data-name="Rectangle 21738" width="5.007" height="2.159" transform="translate(124.566)" fill="#78bdc4"/>
      <rect id="Rectangle_21739" data-name="Rectangle 21739" width="5.007" height="2.159" transform="translate(132.329)" fill="#78bdc4"/>
      <rect id="Rectangle_21740" data-name="Rectangle 21740" width="5.007" height="2.159" transform="translate(140.137)" fill="#78bdc4"/>
      <rect id="Rectangle_21741" data-name="Rectangle 21741" width="5.007" height="2.159" transform="translate(147.899)" fill="#78bdc4"/>
    </g>
    <g id="Group_31624" data-name="Group 31624" transform="translate(369.839 28.46)">
      <rect id="Rectangle_21742" data-name="Rectangle 21742" width="5.007" height="2.159" fill="#78bdc4"/>
      <rect id="Rectangle_21743" data-name="Rectangle 21743" width="5.007" height="2.159" transform="translate(7.808)" fill="#78bdc4"/>
      <rect id="Rectangle_21744" data-name="Rectangle 21744" width="5.007" height="2.159" transform="translate(15.571)" fill="#78bdc4"/>
      <rect id="Rectangle_21745" data-name="Rectangle 21745" width="5.007" height="2.159" transform="translate(23.379)" fill="#78bdc4"/>
      <rect id="Rectangle_21746" data-name="Rectangle 21746" width="5.007" height="2.159" transform="translate(31.142)" fill="#78bdc4"/>
      <rect id="Rectangle_21747" data-name="Rectangle 21747" width="5.007" height="2.159" transform="translate(38.95)" fill="#78bdc4"/>
      <rect id="Rectangle_21748" data-name="Rectangle 21748" width="5.007" height="2.159" transform="translate(46.712)" fill="#78bdc4"/>
      <rect id="Rectangle_21749" data-name="Rectangle 21749" width="5.007" height="2.159" transform="translate(54.521)" fill="#78bdc4"/>
      <rect id="Rectangle_21750" data-name="Rectangle 21750" width="5.007" height="2.159" transform="translate(62.283)" fill="#78bdc4"/>
      <rect id="Rectangle_21751" data-name="Rectangle 21751" width="5.007" height="2.159" transform="translate(70.091)" fill="#78bdc4"/>
      <rect id="Rectangle_21752" data-name="Rectangle 21752" width="5.007" height="2.159" transform="translate(77.854)" fill="#78bdc4"/>
      <rect id="Rectangle_21753" data-name="Rectangle 21753" width="5.007" height="2.159" transform="translate(85.662)" fill="#78bdc4"/>
      <rect id="Rectangle_21754" data-name="Rectangle 21754" width="5.007" height="2.159" transform="translate(93.425)" fill="#78bdc4"/>
      <rect id="Rectangle_21755" data-name="Rectangle 21755" width="5.007" height="2.159" transform="translate(101.233)" fill="#78bdc4"/>
      <rect id="Rectangle_21756" data-name="Rectangle 21756" width="5.007" height="2.159" transform="translate(108.995)" fill="#78bdc4"/>
      <rect id="Rectangle_21757" data-name="Rectangle 21757" width="5.007" height="2.159" transform="translate(116.804)" fill="#78bdc4"/>
      <rect id="Rectangle_21758" data-name="Rectangle 21758" width="5.007" height="2.159" transform="translate(124.566)" fill="#78bdc4"/>
      <rect id="Rectangle_21759" data-name="Rectangle 21759" width="5.007" height="2.159" transform="translate(132.375)" fill="#78bdc4"/>
      <rect id="Rectangle_21760" data-name="Rectangle 21760" width="5.007" height="2.159" transform="translate(140.137)" fill="#78bdc4"/>
      <rect id="Rectangle_21761" data-name="Rectangle 21761" width="5.007" height="2.159" transform="translate(147.945)" fill="#78bdc4"/>
      <rect id="Rectangle_21762" data-name="Rectangle 21762" width="2.159" height="5.007" transform="translate(155.432 38.904)" fill="#78bdc4"/>
      <rect id="Rectangle_21763" data-name="Rectangle 21763" width="2.159" height="5.007" transform="translate(155.432 31.142)" fill="#78bdc4"/>
      <rect id="Rectangle_21764" data-name="Rectangle 21764" width="2.159" height="5.007" transform="translate(155.432 23.333)" fill="#78bdc4"/>
      <rect id="Rectangle_21765" data-name="Rectangle 21765" width="2.159" height="5.007" transform="translate(155.432 15.571)" fill="#78bdc4"/>
      <rect id="Rectangle_21766" data-name="Rectangle 21766" width="2.159" height="5.007" transform="translate(155.432 7.762)" fill="#78bdc4"/>
      <rect id="Rectangle_21767" data-name="Rectangle 21767" width="2.159" height="5.007" transform="translate(155.432)" fill="#78bdc4"/>
    </g>
    <g id="Group_31625" data-name="Group 31625" transform="translate(311.46 201.024)">
      <rect id="Rectangle_21768" data-name="Rectangle 21768" width="5.007" height="2.159" fill="#78bdc4"/>
      <rect id="Rectangle_21769" data-name="Rectangle 21769" width="5.007" height="2.159" transform="translate(7.808)" fill="#78bdc4"/>
      <rect id="Rectangle_21770" data-name="Rectangle 21770" width="5.007" height="2.159" transform="translate(15.571)" fill="#78bdc4"/>
      <rect id="Rectangle_21771" data-name="Rectangle 21771" width="5.007" height="2.159" transform="translate(23.379)" fill="#78bdc4"/>
      <rect id="Rectangle_21772" data-name="Rectangle 21772" width="5.007" height="2.159" transform="translate(31.142)" fill="#78bdc4"/>
      <rect id="Rectangle_21773" data-name="Rectangle 21773" width="5.007" height="2.159" transform="translate(38.95)" fill="#78bdc4"/>
      <rect id="Rectangle_21774" data-name="Rectangle 21774" width="5.007" height="2.159" transform="translate(46.712)" fill="#78bdc4"/>
      <rect id="Rectangle_21775" data-name="Rectangle 21775" width="5.007" height="2.159" transform="translate(54.521)" fill="#78bdc4"/>
      <rect id="Rectangle_21776" data-name="Rectangle 21776" width="5.007" height="2.159" transform="translate(62.283)" fill="#78bdc4"/>
      <rect id="Rectangle_21777" data-name="Rectangle 21777" width="5.007" height="2.159" transform="translate(70.091)" fill="#78bdc4"/>
      <rect id="Rectangle_21778" data-name="Rectangle 21778" width="5.007" height="2.159" transform="translate(77.854)" fill="#78bdc4"/>
      <rect id="Rectangle_21779" data-name="Rectangle 21779" width="5.007" height="2.159" transform="translate(85.662)" fill="#78bdc4"/>
      <rect id="Rectangle_21780" data-name="Rectangle 21780" width="5.007" height="2.159" transform="translate(93.425)" fill="#78bdc4"/>
      <rect id="Rectangle_21781" data-name="Rectangle 21781" width="5.007" height="2.159" transform="translate(101.233)" fill="#78bdc4"/>
      <rect id="Rectangle_21782" data-name="Rectangle 21782" width="5.007" height="2.159" transform="translate(108.995)" fill="#78bdc4"/>
      <rect id="Rectangle_21783" data-name="Rectangle 21783" width="5.007" height="2.159" transform="translate(116.804)" fill="#78bdc4"/>
      <rect id="Rectangle_21784" data-name="Rectangle 21784" width="5.007" height="2.159" transform="translate(124.566)" fill="#78bdc4"/>
      <rect id="Rectangle_21785" data-name="Rectangle 21785" width="5.007" height="2.159" transform="translate(132.375)" fill="#78bdc4"/>
      <rect id="Rectangle_21786" data-name="Rectangle 21786" width="5.007" height="2.159" transform="translate(140.137)" fill="#78bdc4"/>
      <rect id="Rectangle_21787" data-name="Rectangle 21787" width="5.007" height="2.159" transform="translate(147.945)" fill="#78bdc4"/>
    </g>
    <g id="Group_31626" data-name="Group 31626" transform="translate(637.619 233.176)">
      <path id="Path_27119" data-name="Path 27119" d="M1445.561,496.769a33.692,33.692,0,0,0-25.262-12.723c-.643-.046-1.24-.046-1.883-.046h0a33.245,33.245,0,0,0-10.84,1.7.653.653,0,0,1-.276.092c.092-.046.184-.046.276-.092l3.353,10.335a24.171,24.171,0,0,1,7.533-1.194h0a24.266,24.266,0,0,1,19.659,10.013l8.773-6.385C1446.434,497.871,1446.021,497.32,1445.561,496.769Z" transform="translate(-1383.278 -484)" fill="#f7444e"/>
      <path id="Path_27120" data-name="Path 27120" d="M1474.4,521.522a24.038,24.038,0,0,1,4.639,14.285h10.84c0,.643,0,1.286-.046,1.883v.092c.046-.643.046-1.332.046-1.975a34.817,34.817,0,0,0-6.476-20.3c-.505-.689-.689-.919-.276-.367Z" transform="translate(-1419.558 -500.669)" fill="#acd4f8"/>
      <path id="Path_27121" data-name="Path 27121" d="M1404.422,540.689a24.038,24.038,0,0,1-14.285,4.639,24.344,24.344,0,0,1-7.533-47.493l-3.353-10.335a.654.654,0,0,1-.276.092c-.413.138-.873.276-1.286.459-.138.046-.229.092-.367.138A34.42,34.42,0,0,0,1355,519.514v1.562c0,.459,0,.919.046,1.424v.413a8.9,8.9,0,0,0,.092,1.1c0,.276.046.505.046.781a2.683,2.683,0,0,0,.092.6,11.577,11.577,0,0,0,.184,1.24v.092a35.946,35.946,0,0,0,2.526,8.543c.138.322.276.643.459,1.01v.046a35.194,35.194,0,0,0,28.018,19.7h.23a11.257,11.257,0,0,0,1.24.092c.23,0,.413.046.643.046h1.562a34.962,34.962,0,0,0,20.669-6.706Z" transform="translate(-1355 -485.892)" fill="#012c3d"/>
      <path id="Path_27122" data-name="Path 27122" d="M1470.638,587.691a33.659,33.659,0,0,0,12.677-23.563v-.184c.046-.459.092-.965.092-1.47v-.092c.046-.643.046-1.24.046-1.883h-10.84a24.266,24.266,0,0,1-10.013,19.659l6.385,8.773h0A14.1,14.1,0,0,0,1470.638,587.691Z" transform="translate(-1413.177 -525.362)" fill="#3dc7c9"/>
    </g>
    <g id="Group_31627" data-name="Group 31627" transform="translate(591.045 21.708)">
      <path id="Path_27123" data-name="Path 27123" d="M1259.112,49.309c0,.046-.046.046-.092.046h-5.328a.161.161,0,0,1-.092-.046V44.946c0-.046.046-.046.092-.046h5.328a.16.16,0,0,1,.092.046Z" transform="translate(-1253.6 -35.117)" fill="#3dc7c9"/>
      <path id="Path_27124" data-name="Path 27124" d="M1275.412,43.578c0,.046-.046.046-.092.046h-5.328a.161.161,0,0,1-.092-.046V34.346c0-.046.046-.046.092-.046h5.328a.16.16,0,0,1,.092.046Z" transform="translate(-1262.413 -29.385)" fill="#3dc7c9"/>
      <path id="Path_27125" data-name="Path 27125" d="M1291.712,45.516a.161.161,0,0,1-.092.046h-5.328c-.046,0-.092,0-.092-.046V37.846a.16.16,0,0,1,.092-.046h5.328c.046,0,.092,0,.092.046Z" transform="translate(-1271.226 -31.278)" fill="#3dc7c9"/>
      <path id="Path_27126" data-name="Path 27126" d="M1308.012,49.309c0,.046-.046.046-.092.046h-5.328a.161.161,0,0,1-.092-.046V44.946c0-.046.046-.046.092-.046h5.328a.161.161,0,0,1,.092.046Z" transform="translate(-1280.04 -35.117)" fill="#3dc7c9"/>
      <path id="Path_27127" data-name="Path 27127" d="M1324.312,37.793a.1.1,0,0,1-.092.092h-5.328a.1.1,0,0,1-.092-.092v-14.1a.1.1,0,0,1,.092-.092h5.328a.1.1,0,0,1,.092.092Z" transform="translate(-1288.853 -23.6)" fill="#3dc7c9"/>
      <path id="Path_27128" data-name="Path 27128" d="M1340.612,45.516a.16.16,0,0,1-.092.046h-5.328c-.046,0-.092,0-.092-.046V37.846a.161.161,0,0,1,.092-.046h5.328c.046,0,.092,0,.092.046Z" transform="translate(-1297.666 -31.278)" fill="#3dc7c9"/>
    </g>
    <g id="Group_31629" data-name="Group 31629" transform="translate(621.865 37.738)">
      <g id="Group_31628" data-name="Group 31628">
        <path id="Path_27129" data-name="Path 27129" d="M1326.212,58.646c0-.046-.046-.046-.092-.046h-5.328a.16.16,0,0,0-.092.046v4.409c0,.046.046.046.092.046h5.328a.159.159,0,0,0,.092-.046Z" transform="translate(-1320.7 -58.554)" fill="#f7444e"/>
        <path id="Path_27130" data-name="Path 27130" d="M1342.512,58.646c0-.046-.046-.046-.092-.046h-5.328a.16.16,0,0,0-.092.046v9.278c0,.046.046.046.092.046h5.328a.16.16,0,0,0,.092-.046Z" transform="translate(-1329.513 -58.554)" fill="#f7444e"/>
        <path id="Path_27131" data-name="Path 27131" d="M1358.912,58.546a.16.16,0,0,0-.092-.046h-5.328c-.046,0-.092,0-.092.046v7.671a.161.161,0,0,0,.092.046h5.328c.046,0,.092,0,.092-.046Z" transform="translate(-1338.38 -58.5)" fill="#f7444e"/>
        <path id="Path_27132" data-name="Path 27132" d="M1375.112,58.646c0-.046-.046-.046-.092-.046h-5.328a.16.16,0,0,0-.092.046v4.409c0,.046.046.046.092.046h5.328a.16.16,0,0,0,.092-.046Z" transform="translate(-1347.14 -58.554)" fill="#f7444e"/>
        <path id="Path_27133" data-name="Path 27133" d="M1391.512,58.592a.1.1,0,0,0-.092-.092h-5.328a.1.1,0,0,0-.092.092v14.1a.1.1,0,0,0,.092.092h5.328a.1.1,0,0,0,.092-.092Z" transform="translate(-1356.007 -58.5)" fill="#f7444e"/>
        <path id="Path_27134" data-name="Path 27134" d="M1407.812,58.546a.16.16,0,0,0-.092-.046h-5.328c-.046,0-.092,0-.092.046v7.671a.16.16,0,0,0,.092.046h5.328c.046,0,.092,0,.092-.046Z" transform="translate(-1364.82 -58.5)" fill="#f7444e"/>
      </g>
    </g>
    <g id="Group_31630" data-name="Group 31630" transform="translate(388.165 61.622)">
      <path id="Path_27135" data-name="Path 27135" d="M1114.167,592.913s-2.067-1.01-4.455-1.929c-2.526-.964-5.6-2.159-7.4-3.031-3.169-1.516-3.445-2.526-4.593-7.671-1.286-5.65-2.48-17.546-2.985-22.782h-59.8c-.505,5.19-1.7,17.133-2.986,22.782-1.194,5.19-1.47,6.155-4.593,7.671-1.791.873-4.823,2.021-7.349,2.985h0c-2.434.919-4.409,1.608-4.409,1.608s-1.929,1.056,1.148,1.24h96.135C1115.774,593.832,1114.167,592.913,1114.167,592.913Z" transform="translate(-921.713 -352.186)" fill="#3dc7c9"/>
      <path id="Path_27136" data-name="Path 27136" d="M1117.989,563.793c-.276-2.48-.459-4.685-.643-6.293h-59.8c-.138,1.608-.367,3.812-.643,6.293Z" transform="translate(-944.368 -352.186)" fill="#00b2ad"/>
      <path id="Path_27137" data-name="Path 27137" d="M1098.164,284.489V118.308a7.8,7.8,0,0,0-7.808-7.808H820.508a7.8,7.8,0,0,0-7.808,7.808v166.18Z" transform="translate(-812.333 -110.5)" fill="#012c3d"/>
      <path id="Path_27138" data-name="Path 27138" d="M811.9,488.5v24.022a8.36,8.36,0,0,0,8.359,8.36h269.848a8.4,8.4,0,0,0,8.406-8.36V488.5Z" transform="translate(-811.9 -314.879)" fill="#3dc7c9"/>
      <path id="Path_27139" data-name="Path 27139" d="M844.991,285.433h252.026a3.489,3.489,0,0,0,3.491-3.491V143.091a3.489,3.489,0,0,0-3.491-3.491H844.991a3.489,3.489,0,0,0-3.491,3.491v138.9A3.48,3.48,0,0,0,844.991,285.433Z" transform="translate(-827.904 -126.234)" fill="#ff5c70"/>
    </g>
    <g id="Group_31631" data-name="Group 31631" transform="translate(411.039 84.863)">
      <rect id="Rectangle_21788" data-name="Rectangle 21788" width="5.466" height="21.22" transform="translate(7.854)" fill="#fff"/>
      <rect id="Rectangle_21789" data-name="Rectangle 21789" width="21.22" height="5.466" transform="translate(0 7.854)" fill="#fff"/>
    </g>
    <g id="Group_31635" data-name="Group 31635" transform="translate(440.619 77.285)">
      <g id="Group_31634" data-name="Group 31634" clip-path="url(#clip-path)">
        <rect id="Rectangle_21790" data-name="Rectangle 21790" width="151.804" height="214.73" transform="translate(9.646 12.126)" fill="#ea3f5c"/>
        <rect id="Rectangle_21791" data-name="Rectangle 21791" width="151.804" height="214.73" transform="translate(5.236 6.66)" fill="#e4efff"/>
        <rect id="Rectangle_21792" data-name="Rectangle 21792" width="73.169" height="3.215" transform="translate(59.481 23.838)" fill="#9bb6cc"/>
        <rect id="Rectangle_21793" data-name="Rectangle 21793" width="45.243" height="2.343" transform="translate(59.895 190.983)" fill="#b2cde0"/>
        <rect id="Rectangle_21794" data-name="Rectangle 21794" width="45.243" height="2.343" transform="translate(59.895 194.979)" fill="#b2cde0"/>
        <rect id="Rectangle_21795" data-name="Rectangle 21795" width="45.243" height="2.343" transform="translate(59.895 198.975)" fill="#b2cde0"/>
        <rect id="Rectangle_21796" data-name="Rectangle 21796" width="44.002" height="2.343" transform="translate(59.895 190.983)" fill="#9bb6cc"/>
        <rect id="Rectangle_21797" data-name="Rectangle 21797" width="28.34" height="2.343" transform="translate(59.895 194.979)" fill="#9bb6cc"/>
        <rect id="Rectangle_21798" data-name="Rectangle 21798" width="40.879" height="2.343" transform="translate(59.895 198.975)" fill="#9bb6cc"/>
        <rect id="Rectangle_21799" data-name="Rectangle 21799" width="39.042" height="1.975" transform="translate(27.421 161.22)" fill="#b2cde0"/>
        <rect id="Rectangle_21800" data-name="Rectangle 21800" width="29.212" height="1.975" transform="translate(27.421 164.848)" fill="#b2cde0"/>
        <rect id="Rectangle_21801" data-name="Rectangle 21801" width="31.968" height="1.975" transform="translate(27.421 168.477)" fill="#b2cde0"/>
        <rect id="Rectangle_21802" data-name="Rectangle 21802" width="24.068" height="1.975" transform="translate(21.404 191.305)" fill="#b2cde0"/>
        <rect id="Rectangle_21803" data-name="Rectangle 21803" width="29.212" height="1.975" transform="translate(21.404 194.933)" fill="#b2cde0"/>
        <rect id="Rectangle_21804" data-name="Rectangle 21804" width="20.026" height="1.975" transform="translate(21.404 198.516)" fill="#b2cde0"/>
        <rect id="Rectangle_21805" data-name="Rectangle 21805" width="26.273" height="1.975" transform="translate(27.421 172.059)" fill="#b2cde0"/>
        <rect id="Rectangle_21806" data-name="Rectangle 21806" width="39.409" height="1.975" transform="translate(27.421 175.688)" fill="#b2cde0"/>
        <rect id="Rectangle_21807" data-name="Rectangle 21807" width="3.077" height="1.975" transform="translate(21.174 161.22)" fill="#b2cde0"/>
        <rect id="Rectangle_21808" data-name="Rectangle 21808" width="3.077" height="1.975" transform="translate(21.174 164.848)" fill="#b2cde0"/>
        <rect id="Rectangle_21809" data-name="Rectangle 21809" width="3.077" height="1.975" transform="translate(21.174 168.477)" fill="#b2cde0"/>
        <rect id="Rectangle_21810" data-name="Rectangle 21810" width="3.077" height="1.975" transform="translate(21.174 172.059)" fill="#b2cde0"/>
        <rect id="Rectangle_21811" data-name="Rectangle 21811" width="3.077" height="1.975" transform="translate(21.174 175.688)" fill="#b2cde0"/>
        <rect id="Rectangle_21812" data-name="Rectangle 21812" width="62.834" height="1.975" transform="translate(39.731 78.038)" fill="#9bb6cc"/>
        <rect id="Rectangle_21813" data-name="Rectangle 21813" width="6.614" height="1.975" transform="translate(21.266 78.038)" fill="#9bb6cc"/>
        <rect id="Rectangle_21814" data-name="Rectangle 21814" width="98.202" height="1.975" transform="translate(39.731 81.666)" fill="#b2cde0"/>
        <rect id="Rectangle_21815" data-name="Rectangle 21815" width="39.363" height="1.975" transform="translate(39.731 85.295)" fill="#b2cde0"/>
        <rect id="Rectangle_21816" data-name="Rectangle 21816" width="44.829" height="1.975" transform="translate(39.731 88.923)" fill="#b2cde0"/>
        <rect id="Rectangle_21817" data-name="Rectangle 21817" width="36.975" height="1.975" transform="translate(39.731 92.552)" fill="#b2cde0"/>
        <rect id="Rectangle_21818" data-name="Rectangle 21818" width="43.267" height="1.975" transform="translate(39.731 100.36)" fill="#9bb6cc"/>
        <rect id="Rectangle_21819" data-name="Rectangle 21819" width="6.614" height="1.975" transform="translate(21.266 100.36)" fill="#9bb6cc"/>
        <rect id="Rectangle_21820" data-name="Rectangle 21820" width="55.807" height="1.975" transform="translate(39.731 103.943)" fill="#b2cde0"/>
        <rect id="Rectangle_21821" data-name="Rectangle 21821" width="39.363" height="1.975" transform="translate(39.731 107.572)" fill="#b2cde0"/>
        <rect id="Rectangle_21822" data-name="Rectangle 21822" width="44.829" height="1.975" transform="translate(39.731 111.2)" fill="#b2cde0"/>
        <rect id="Rectangle_21823" data-name="Rectangle 21823" width="85.662" height="1.975" transform="translate(39.731 119.468)" fill="#9bb6cc"/>
        <rect id="Rectangle_21824" data-name="Rectangle 21824" width="6.614" height="1.975" transform="translate(21.266 119.468)" fill="#9bb6cc"/>
        <rect id="Rectangle_21825" data-name="Rectangle 21825" width="98.202" height="1.975" transform="translate(39.731 123.051)" fill="#b2cde0"/>
        <rect id="Rectangle_21826" data-name="Rectangle 21826" width="92.322" height="1.975" transform="translate(39.731 126.679)" fill="#b2cde0"/>
        <rect id="Rectangle_21827" data-name="Rectangle 21827" width="85.662" height="1.975" transform="translate(39.731 134.304)" fill="#9bb6cc"/>
        <rect id="Rectangle_21828" data-name="Rectangle 21828" width="6.614" height="1.975" transform="translate(21.266 134.304)" fill="#9bb6cc"/>
        <rect id="Rectangle_21829" data-name="Rectangle 21829" width="6.614" height="1.975" transform="translate(29.029 78.038)" fill="#9bb6cc"/>
        <rect id="Rectangle_21830" data-name="Rectangle 21830" width="6.614" height="1.975" transform="translate(29.029 100.36)" fill="#9bb6cc"/>
        <rect id="Rectangle_21831" data-name="Rectangle 21831" width="6.614" height="1.975" transform="translate(29.029 119.468)" fill="#9bb6cc"/>
        <rect id="Rectangle_21832" data-name="Rectangle 21832" width="6.614" height="1.975" transform="translate(29.029 134.304)" fill="#9bb6cc"/>
        <rect id="Rectangle_21833" data-name="Rectangle 21833" width="98.202" height="1.975" transform="translate(39.731 137.932)" fill="#b2cde0"/>
        <rect id="Rectangle_21834" data-name="Rectangle 21834" width="92.322" height="1.975" transform="translate(39.731 141.561)" fill="#b2cde0"/>
        <rect id="Rectangle_21835" data-name="Rectangle 21835" width="33.071" height="3.215" transform="translate(21.174 70.275)" fill="#9bb6cc"/>
        <rect id="Rectangle_21836" data-name="Rectangle 21836" width="24.803" height="3.215" transform="translate(21.174 155.203)" fill="#9bb6cc"/>
        <rect id="Rectangle_21837" data-name="Rectangle 21837" width="24.803" height="3.215" transform="translate(21.174 184.92)" fill="#9bb6cc"/>
        <rect id="Rectangle_21838" data-name="Rectangle 21838" width="46.988" height="1.975" transform="translate(88.969 161.22)" fill="#b2cde0"/>
        <rect id="Rectangle_21839" data-name="Rectangle 21839" width="29.212" height="1.975" transform="translate(88.969 164.848)" fill="#b2cde0"/>
        <rect id="Rectangle_21840" data-name="Rectangle 21840" width="31.968" height="1.975" transform="translate(88.969 168.477)" fill="#b2cde0"/>
        <rect id="Rectangle_21841" data-name="Rectangle 21841" width="26.273" height="1.975" transform="translate(88.969 172.059)" fill="#b2cde0"/>
        <rect id="Rectangle_21842" data-name="Rectangle 21842" width="3.077" height="1.975" transform="translate(82.769 161.22)" fill="#b2cde0"/>
        <rect id="Rectangle_21843" data-name="Rectangle 21843" width="3.077" height="1.975" transform="translate(82.769 164.848)" fill="#b2cde0"/>
        <rect id="Rectangle_21844" data-name="Rectangle 21844" width="3.077" height="1.975" transform="translate(82.769 168.477)" fill="#b2cde0"/>
        <rect id="Rectangle_21845" data-name="Rectangle 21845" width="3.077" height="1.975" transform="translate(82.769 172.059)" fill="#b2cde0"/>
        <rect id="Rectangle_21846" data-name="Rectangle 21846" width="24.803" height="3.215" transform="translate(82.769 155.203)" fill="#9bb6cc"/>
        <rect id="Rectangle_21847" data-name="Rectangle 21847" width="31.555" height="1.975" transform="translate(59.481 32.749)" fill="#b2cde0"/>
        <rect id="Rectangle_21848" data-name="Rectangle 21848" width="30.453" height="1.975" transform="translate(59.481 36.378)" fill="#b2cde0"/>
        <rect id="Rectangle_21849" data-name="Rectangle 21849" width="31.555" height="1.975" transform="translate(95.583 32.749)" fill="#b2cde0"/>
        <rect id="Rectangle_21850" data-name="Rectangle 21850" width="30.453" height="1.975" transform="translate(95.583 36.378)" fill="#b2cde0"/>
        <rect id="Rectangle_21851" data-name="Rectangle 21851" width="71.194" height="1.975" transform="translate(59.481 50.341)" fill="#b2cde0"/>
        <rect id="Rectangle_21852" data-name="Rectangle 21852" width="50.846" height="1.975" transform="translate(59.481 53.97)" fill="#b2cde0"/>
        <rect id="Rectangle_21853" data-name="Rectangle 21853" width="38.628" height="1.975" transform="translate(59.481 57.874)" fill="#b2cde0"/>
        <g id="Group_31633" data-name="Group 31633" transform="translate(20.899 23.838)">
          <g id="Group_31632" data-name="Group 31632" clip-path="url(#clip-path-2)">
            <path id="Path_27140" data-name="Path 27140" d="M1002.061,235.863H973.032a1.333,1.333,0,0,1-1.332-1.332v-36.7a1.333,1.333,0,0,1,1.332-1.332h29.029a1.333,1.333,0,0,1,1.332,1.332v36.7A1.333,1.333,0,0,1,1002.061,235.863Z" transform="translate(-971.654 -196.5)" fill="#012c3d"/>
          </g>
        </g>
      </g>
    </g>
    <g id="Group_31645" data-name="Group 31645" transform="translate(603.996 160.834)">
      <path id="Path_27141" data-name="Path 27141" d="M1323.987,441.155s20.394.046,28.248.184c5.42.092,5.925-7.671,3.812-8.865-6.522-3.537-26.824-5.374-26.824-5.374L1315.4,439.823C1315.352,439.777,1316.133,439.777,1323.987,441.155Z" transform="translate(-1299.964 -380.893)" fill="#194866"/>
      <path id="Path_27142" data-name="Path 27142" d="M1283,536.684c-.322.367-.092,1.378-.092,1.378s5.466.6,7.257.184a8.9,8.9,0,0,0,1.975-.919c.138-.092.322-.505.459-.551.23-.138.322.092.505-.046a3.964,3.964,0,0,0,.827-.6c.459-2.526-.138-3.537-.138-3.537s-4.685-1.562-5.558-.459C1286.168,534.709,1283.687,535.857,1283,536.684Z" transform="translate(-1282.354 -437.472)" fill="#161711"/>
      <path id="Path_27143" data-name="Path 27143" d="M1394.8,533.693l.368,4.134,4.134.413s.276-.551.643-.505c.276.046.643.643,1.01.689.873.092,1.837.184,2.2.23.781.092,8.313.827,8.313.827s.276-.827.092-1.148a3.687,3.687,0,0,0-1.24-.689c-2.067-.827-8.038-3.307-8.911-5.466C1400.4,529.559,1394.8,533.693,1394.8,533.693Z" transform="translate(-1342.896 -437.237)" fill="#161711"/>
      <path id="Path_27144" data-name="Path 27144" d="M1297.707,440.1s-1.332,12.815-1.148,19.567A151.032,151.032,0,0,1,1295.5,482.9c-.092.505-6.614.138-6.614.138s-2.343-31.739-3.031-36.975C1285.168,440.785,1287.189,437.018,1297.707,440.1Z" transform="translate(-1283.927 -387.32)" fill="#194866"/>
      <path id="Path_27145" data-name="Path 27145" d="M1391.3,445.451s-2.113,3.307-7.854,4.088c-2.067.276,3.353,37.159,3.353,37.159l8.5-2.71-1.654-40.787Z" transform="translate(-1336.503 -389.598)" fill="#163f59"/>
      <path id="Path_27146" data-name="Path 27146" d="M1317.179,440.845s-11.115,1.608-18.556,2.388c-2.71.276-5.1-7.349-5.42-7.671a5.469,5.469,0,0,0-3.9-1.883c1.608-1.745,9.967-3.353,18.648-5.42,8.727-2.021,10.059-.735,10.059-.735Z" transform="translate(-1285.853 -380.905)" fill="#163f59"/>
      <path id="Path_27147" data-name="Path 27147" d="M1303.639,453.988l-.827,24.941-.872,5.741-.092-5.741.184-3.629-1.975-5.6L1299,456.744l1.516.551-.184-5.7Z" transform="translate(-1291.099 -394.14)" fill="#163f59"/>
      <path id="Path_27148" data-name="Path 27148" d="M1396.531,441.3l2.067.551.781,29.947-4.363,10.7,2.067-7.3-.873-15.066s-3.031,7.3-3.031,6.936,2.572-15.846,2.572-15.846a34.353,34.353,0,0,0-2.572,2.3C1393.5,453.426,1394.923,442.724,1396.531,441.3Z" transform="translate(-1342.009 -388.571)" fill="#194866"/>
      <path id="Path_27149" data-name="Path 27149" d="M1308.047,428.21c-8.727,2.067-17.041,3.675-18.648,5.42a5.791,5.791,0,0,1,3.9,1.883c.092.092.6,2.526.965,3.4-1.424-2.572,19.062-9.783,23.471-11.667C1316.866,426.97,1314.432,426.694,1308.047,428.21Z" transform="translate(-1285.907 -380.855)" fill="#194866"/>
      <path id="Path_27150" data-name="Path 27150" d="M1301.962,365.1s-7.946,1.332-8.865,2.986a181.413,181.413,0,0,0-10.243,22.644c-.781,2.251-2.8,10.61,2.3,11.253a27.928,27.928,0,0,0,4.409-.735l2.48-.873-1.056-2.021-.046-1.562s3.169-7.671,7.073-14.928C1301.962,374.608,1301.962,365.1,1301.962,365.1Z" transform="translate(-1281.797 -347.37)" fill="#d4edff"/>
      <path id="Path_27151" data-name="Path 27151" d="M1302.8,438.958s4.823,2.2,6.522,4.685c1.745,2.48,2.342,1.47,2.342,1.47l7.533-6.43A28.967,28.967,0,0,0,1302.8,438.958Z" transform="translate(-1293.153 -386.596)" fill="#e9f6ff"/>
      <path id="Path_27152" data-name="Path 27152" d="M1365.583,429.8l7.4,2.48a8.928,8.928,0,0,0-5.558,1.975,59.239,59.239,0,0,0-5.42,6.063s-7.9-4.088-9.37-5.328C1351.115,433.75,1362,429.8,1365.583,429.8Z" transform="translate(-1320.018 -382.353)" fill="#e9f6ff"/>
      <path id="Path_27153" data-name="Path 27153" d="M1369,367.2s6.247.138,7.533,5.374c2.526,10.426,2.2,12.264,2.71,22.185.046.965-.046,3.537-5.925,3.675-2.389.046-2.251-4.364-2.251-4.364a110.276,110.276,0,0,1-3.123-11.621C1366.249,375.1,1369,367.2,1369,367.2Z" transform="translate(-1328.078 -348.506)" fill="#d4edff"/>
      <path id="Path_27154" data-name="Path 27154" d="M1340.912,363.058l-11.575-4.869-10.151-.689-11.07,5.19s-1.791.276-1.1,9c.689,9.14,2.894,20.485,2.894,20.485l28.753.919s-.735-16.627.6-24.022C1339.626,366.5,1339.626,364.573,1340.912,363.058Z" transform="translate(-1295.346 -343.261)" fill="#e9f6ff"/>
      <g id="Group_31636" data-name="Group 31636" transform="translate(31.602 44.044)">
        <path id="Path_27155" data-name="Path 27155" d="M1364.609,422.394l-14.009,5.741s9.967,1.424,16.168.138C1370.948,427.4,1364.793,422.211,1364.609,422.394Z" transform="translate(-1350.6 -422.39)" fill="#e9d6b8"/>
      </g>
      <g id="Group_31638" data-name="Group 31638" transform="translate(6.746 46.023)">
        <path id="Path_27156" data-name="Path 27156" d="M1297.594,428.6l14.514.781s-14.009,6.43-14.469,5.328C1295.068,428.416,1297.594,428.6,1297.594,428.6Z" transform="translate(-1296.485 -427.727)" fill="#e9d6b8"/>
        <g id="Group_31637" data-name="Group 31637" transform="translate(8.983)">
          <path id="Path_27157" data-name="Path 27157" d="M1316.16,427.113c.873-.413.781-.413.781-.413a3.568,3.568,0,0,0,1.883,1.1c.551.092,2.342.092,2.342.092l2.664.046,1.24-.092s.689-.092.873.046c.551.367.092.643.092.643l-4.777.689,4.593.551s.6.184.6.505c.046.276-.184.276-.184.276l-5.374.551,2.343.551s.551.184.6.505a3.743,3.743,0,0,1,.046.413l-4.915-.505C1319.1,432.166,1315.334,427.527,1316.16,427.113Z" transform="translate(-1316.042 -426.7)" fill="#e9d6b8"/>
          <path id="Path_27158" data-name="Path 27158" d="M1327.251,434.1l3.215.6a2.666,2.666,0,0,1,1.057.276.421.421,0,0,1,.138.6l-4.961-.413Z" transform="translate(-1321.804 -430.701)" fill="#e9d6b8"/>
        </g>
      </g>
      <path id="Path_27159" data-name="Path 27159" d="M1290.246,434.626s-4.685,2.572-4.455-6.8c.046-1.562,6.155-1.1,6.155-1.1l7.165.367,2.2,5.42Z" transform="translate(-1283.952 -380.657)" fill="#d4edff"/>
      <path id="Path_27160" data-name="Path 27160" d="M1293.877,430.727l7.717-1.011-1.057-2.572-7.165-.367s-.735-.23-3.675.873C1285.242,430.5,1293.877,430.727,1293.877,430.727Z" transform="translate(-1285.378 -380.707)" fill="#e9f6ff"/>
      <path id="Path_27161" data-name="Path 27161" d="M1373.2,426.96s1.378-1.929,1.286-2.48c-.551-3.491-4.639-4.18-4.639-4.18l-10.748,2.894,2.48,5.42Z" transform="translate(-1323.594 -377.216)" fill="#d4edff"/>
      <path id="Path_27162" data-name="Path 27162" d="M1330.7,361.073s11.712-3.583,11.988.138c.23,3.72-1.837,19.521-2.986,21.955-1.1,2.48-4.96-1.975-6.8-10.013A103.186,103.186,0,0,1,1330.7,361.073Z" transform="translate(-1308.238 -344.354)" fill="#7dc2f5"/>
      <path id="Path_27163" data-name="Path 27163" d="M1330.431,361.3l2.526,10.61.23,8.911-5.052-14.055,1.378-1.378-2.113-.138s.138-5.052,1.47-6.66c1.378-1.608,3.766-1.47,2.572-.367A4.309,4.309,0,0,0,1330.431,361.3Z" transform="translate(-1306.454 -343.198)" fill="#d4edff"/>
      <path id="Path_27164" data-name="Path 27164" d="M1352.142,359.1a2.542,2.542,0,0,1,2.48,1.47,36.044,36.044,0,0,1,1.1,5.328l-1.837.873,1.47,1.378-5.558,15.3s.367-12.356.873-14.836C1351.132,366.124,1352.142,359.1,1352.142,359.1Z" transform="translate(-1318.565 -344.123)" fill="#d4edff"/>
      <g id="Group_31641" data-name="Group 31641" transform="translate(22.14)">
        <g id="Group_31639" data-name="Group 31639" transform="translate(0.884 4.295)">
          <path id="Path_27165" data-name="Path 27165" d="M1342.294,349.652a3.371,3.371,0,0,1-2.8,2.986h-3.812a3.324,3.324,0,0,1-2.8-2.986c-.322-2.572-.643-5.144-.919-7.671-.23-1.516.689-4.639,2.71-5.512a7.17,7.17,0,0,1,5.833,0c2.021.919,2.939,4,2.71,5.512C1342.891,344.508,1342.615,347.08,1342.294,349.652Z" transform="translate(-1331.925 -335.85)" fill="#e2c59c"/>
        </g>
        <g id="Group_31640" data-name="Group 31640">
          <path id="Path_27166" data-name="Path 27166" d="M1336.025,326.5a2.973,2.973,0,0,0-2.526,1.378h-1.057a2.352,2.352,0,0,0-2.342,2.342v5.833h1.653v-2.342a1.647,1.647,0,0,1,1.654-1.654h.459a3.029,3.029,0,0,0,3.031-3.031v-2.48h-.873Z" transform="translate(-1330.054 -326.5)" fill="#163f59"/>
          <path id="Path_27167" data-name="Path 27167" d="M1333.086,348.269a1.431,1.431,0,0,1-1.424,1.424h-.138a1.431,1.431,0,0,1-1.424-1.424v-1.745a1.431,1.431,0,0,1,1.424-1.424h.138a1.472,1.472,0,0,1,1.332.873" transform="translate(-1330.054 -336.557)" fill="#e2c59c"/>
          <path id="Path_27168" data-name="Path 27168" d="M1340.2,328.8v-2.3h5.007a3.028,3.028,0,0,1,3.031,3.031v2.3h-5.006A3.029,3.029,0,0,1,1340.2,328.8Z" transform="translate(-1335.515 -326.5)" fill="#163f59"/>
          <path id="Path_27169" data-name="Path 27169" d="M1343.075,342.039a4.708,4.708,0,0,1-2.48,3.9,8.682,8.682,0,0,1-6.614,0,4.919,4.919,0,0,1-2.48-3.9V331.751a2.534,2.534,0,0,1,2.71-2.251h6.155a2.567,2.567,0,0,1,2.71,2.251Z" transform="translate(-1330.811 -328.122)" fill="#e9d6b8"/>
          <path id="Path_27170" data-name="Path 27170" d="M1343.88,326.5a2.973,2.973,0,0,1,2.526,1.378h1.056a2.352,2.352,0,0,1,2.343,2.342v5.833h-1.654v-2.342a1.647,1.647,0,0,0-1.653-1.654h-2.067a3.029,3.029,0,0,1-3.031-3.031v-2.48h2.48Z" transform="translate(-1336.164 -326.5)" fill="#163f59"/>
          <path id="Path_27171" data-name="Path 27171" d="M1353.2,346.524a1.431,1.431,0,0,1,1.424-1.424h.138a1.431,1.431,0,0,1,1.424,1.424v1.745a1.431,1.431,0,0,1-1.424,1.424h-.138a1.471,1.471,0,0,1-1.332-.873" transform="translate(-1342.544 -336.557)" fill="#e9d6b8"/>
          <path id="Path_27172" data-name="Path 27172" d="M1335.144,329.394a2.607,2.607,0,0,0,.046-.6v-2.3h-2.159a3.029,3.029,0,0,0-3.031,3.031v2.3h2.159a3.032,3.032,0,0,0,.643-.046A3.115,3.115,0,0,1,1335.144,329.394Z" transform="translate(-1330 -326.5)" fill="#163f59"/>
        </g>
      </g>
      <g id="Group_31644" data-name="Group 31644" transform="translate(12.77 31.463)">
        <path id="Path_27173" data-name="Path 27173" d="M1338.215,438.465h0V437.5H1309.6v.965l.092.184a2.523,2.523,0,0,0,2.342.919h23.7c1.01,0,1.883-.138,2.343-.919Z" transform="translate(-1309.6 -417.979)" fill="#b6c2c9"/>
        <g id="Group_31642" data-name="Group 31642" transform="translate(4.823 19.751)">
          <rect id="Rectangle_21856" data-name="Rectangle 21856" width="18.97" height="0.643" fill="#879ba6"/>
        </g>
        <g id="Group_31643" data-name="Group 31643">
          <path id="Path_27174" data-name="Path 27174" d="M1338.215,414.659l.092-18.786a.872.872,0,0,0-.873-.873H1310.61a.913.913,0,0,0-.919.873l-.092,18.786Z" transform="translate(-1309.6 -395)" fill="#d7dfe2"/>
          <path id="Path_27175" data-name="Path 27175" d="M1340.491,414.345a1.745,1.745,0,1,1-1.745-1.745A1.745,1.745,0,0,1,1340.491,414.345Z" transform="translate(-1324.415 -404.516)" fill="#b6c2c9"/>
        </g>
      </g>
    </g>
    <g id="Group_31653" data-name="Group 31653" transform="translate(605.927 105.027)">
      <g id="Group_31650" data-name="Group 31650" transform="translate(16.489 1.01)">
        <g id="Group_31647" data-name="Group 31647">
          <path id="Path_27176" data-name="Path 27176" d="M1379.222,228.926a1.549,1.549,0,0,1-1.562,1.562h-52.04a1.549,1.549,0,0,1-1.562-1.562V216.111l-2.159-2.434,2.159-2.848v-2.067a1.549,1.549,0,0,1,1.562-1.562h51.994a1.549,1.549,0,0,1,1.562,1.562v20.164Z" transform="translate(-1321.9 -207.2)" fill="#f7444e"/>
          <g id="Group_31646" data-name="Group 31646" transform="translate(6.247 3.675)">
            <rect id="Rectangle_21857" data-name="Rectangle 21857" width="11.804" height="1.883" fill="#fff"/>
            <rect id="Rectangle_21858" data-name="Rectangle 21858" width="14.331" height="1.883" transform="translate(13.412)" fill="#fff"/>
            <rect id="Rectangle_21859" data-name="Rectangle 21859" width="5.374" height="1.883" transform="translate(29.626)" fill="#fff"/>
            <rect id="Rectangle_21860" data-name="Rectangle 21860" width="18.786" height="1.883" transform="translate(0 4.547)" fill="#fff"/>
            <rect id="Rectangle_21861" data-name="Rectangle 21861" width="3.031" height="1.883" transform="translate(20.118 4.547)" fill="#fff"/>
            <rect id="Rectangle_21862" data-name="Rectangle 21862" width="22.047" height="1.883" transform="translate(25.079 4.547)" fill="#fff"/>
            <rect id="Rectangle_21863" data-name="Rectangle 21863" width="4.823" height="1.883" transform="translate(0 9.094)" fill="#fff"/>
            <rect id="Rectangle_21864" data-name="Rectangle 21864" width="19.062" height="1.883" transform="translate(6.43 9.094)" fill="#fff"/>
            <rect id="Rectangle_21865" data-name="Rectangle 21865" width="11.391" height="1.883" transform="translate(26.824 9.094)" fill="#fff"/>
            <rect id="Rectangle_21866" data-name="Rectangle 21866" width="23.655" height="1.883" transform="translate(0 13.688)" fill="#fff"/>
            <rect id="Rectangle_21867" data-name="Rectangle 21867" width="4.915" height="1.883" transform="translate(25.492 13.688)" fill="#fff"/>
            <rect id="Rectangle_21868" data-name="Rectangle 21868" width="12.631" height="1.883" transform="translate(32.565 13.688)" fill="#fff"/>
          </g>
        </g>
        <g id="Group_31649" data-name="Group 31649" transform="translate(8.589 27.375)">
          <path id="Path_27177" data-name="Path 27177" d="M1340.6,278.145a1.549,1.549,0,0,0,1.562,1.562h51.719a1.549,1.549,0,0,0,1.562-1.562v-2.434l2.159-2.434-2.159-2.848v-2.067a1.549,1.549,0,0,0-1.562-1.562h-51.719a1.549,1.549,0,0,0-1.562,1.562Z" transform="translate(-1340.6 -266.8)" fill="#012c3d"/>
          <g id="Group_31648" data-name="Group 31648" transform="translate(5.144 5.466)">
            <rect id="Rectangle_21869" data-name="Rectangle 21869" width="3.353" height="1.883" transform="translate(36.01)" fill="#7eb3ff"/>
            <rect id="Rectangle_21870" data-name="Rectangle 21870" width="10.748" height="1.883" transform="translate(23.93)" fill="#7eb3ff"/>
            <rect id="Rectangle_21871" data-name="Rectangle 21871" width="22.047" height="1.883" fill="#7eb3ff"/>
          </g>
        </g>
      </g>
      <g id="Group_31651" data-name="Group 31651" transform="translate(85.8 27.283)">
        <circle id="Ellipse_58" data-name="Ellipse 58" cx="7.257" cy="7.257" r="7.257" fill="#012c3d"/>
        <path id="Path_27178" data-name="Path 27178" d="M1488.009,276.207a5.224,5.224,0,0,0-1.837-.505c0-.138.046-.322.046-.459a.475.475,0,0,0,.23-.322c0-.138.046-.276.046-.413a.161.161,0,0,0,.092.046c.046,0,.138-.046.138-.092l.046-.643c0-.046-.046-.138-.092-.138h-.092c0-.138.046-.23.046-.367a1.1,1.1,0,0,0-.23-.919,1.587,1.587,0,0,0-1.975,0c-.322.276-.23.735-.23.919,0,.138.046.23.046.367h-.092c-.046,0-.138.046-.092.138l.046.643c0,.046.046.138.138.092.046,0,.046,0,.092-.046,0,.138.046.276.046.413a.438.438,0,0,0,.276.322c0,.138.046.322.046.459a6.43,6.43,0,0,0-1.837.505.56.56,0,0,0-.276.551c0,.23.046.459.046.689a.442.442,0,0,0,.367.413,14.172,14.172,0,0,0,4.823,0,.488.488,0,0,0,.367-.413c0-.23.046-.459.046-.689A.464.464,0,0,0,1488.009,276.207Z" transform="translate(-1478.088 -268.536)" fill="#7eb3ff"/>
      </g>
      <g id="Group_31652" data-name="Group 31652">
        <circle id="Ellipse_59" data-name="Ellipse 59" cx="7.257" cy="7.257" r="7.257" fill="#f7444e"/>
        <path id="Path_27179" data-name="Path 27179" d="M1301.112,216.807a5.224,5.224,0,0,0-1.837-.505c0-.138.046-.322.046-.459a.476.476,0,0,0,.23-.322c0-.138.046-.276.046-.413a.16.16,0,0,0,.092.046c.046,0,.138-.046.138-.092l.046-.643c0-.046-.046-.138-.092-.138h-.092c0-.138.046-.23.046-.367a1.1,1.1,0,0,0-.23-.919,1.588,1.588,0,0,0-1.975,0c-.322.276-.23.735-.23.919,0,.138.046.23.046.367h-.092c-.046,0-.138.046-.092.138l.046.643c0,.046.046.138.138.092.046,0,.046,0,.092-.046,0,.138.046.276.046.413a.475.475,0,0,0,.23.322c0,.138.046.322.046.459a6.427,6.427,0,0,0-1.837.505.7.7,0,0,0-.322.551c0,.23.046.459.046.689a.442.442,0,0,0,.367.413,14.17,14.17,0,0,0,4.823,0,.488.488,0,0,0,.367-.413c0-.23.046-.459.046-.689A.349.349,0,0,0,1301.112,216.807Z" transform="translate(-1291.191 -209.136)" fill="#fff"/>
      </g>
    </g>
    <g id="Group_31654" data-name="Group 31654" transform="translate(685.898 76.646)">
      <path id="Path_27180" data-name="Path 27180" d="M1467.224,158.408a4.176,4.176,0,0,1-5.833.184h0a4.175,4.175,0,0,1-.184-5.833l7.808-8.268a4.175,4.175,0,0,1,5.833-.184h0a4.175,4.175,0,0,1,.184,5.833Z" transform="translate(-1460.109 -143.209)" fill="#acd4f8"/>
      <path id="Path_27181" data-name="Path 27181" d="M1465.236,154.9l-3.95,4.18a4.127,4.127,0,1,0,6.017,5.65l3.95-4.18Z" transform="translate(-1460.142 -149.53)" fill="#3dc7c9"/>
    </g>
    <g id="Group_31655" data-name="Group 31655" transform="translate(681.203 60.881)">
      <path id="Path_27182" data-name="Path 27182" d="M1450.582,112.8a2.26,2.26,0,0,1-.046-3.215h0a2.26,2.26,0,0,1,3.215-.046l4.5,4.409a2.26,2.26,0,0,1,.046,3.215h0a2.26,2.26,0,0,1-3.215.046Z" transform="translate(-1449.887 -108.887)" fill="#acd4f8"/>
      <path id="Path_27183" data-name="Path 27183" d="M1456.048,111.787l-2.3-2.251a2.274,2.274,0,0,0-3.169,3.261l2.3,2.251Z" transform="translate(-1449.887 -108.887)" fill="#3dc7c9"/>
    </g>
    <g id="Group_31656" data-name="Group 31656" transform="translate(694.345 37.6)">
      <path id="Path_27184" data-name="Path 27184" d="M1499.628,65.457h-7.165V58.2h-6.752v7.257H1478.5v6.8h7.211v7.257h6.752V72.255h7.165Z" transform="translate(-1478.5 -58.2)" fill="#3dc7c9"/>
    </g>
    <g id="Group_31657" data-name="Group 31657" transform="translate(186.893 111.825)">
      <path id="Path_27185" data-name="Path 27185" d="M382.7,235.6v38.9a5.116,5.116,0,0,0,5.1,5.1h53.189a5.116,5.116,0,0,0,5.1-5.1V235.6a5.116,5.116,0,0,0-5.1-5.1H387.8a5.116,5.116,0,0,0-5.1,5.1Z" transform="translate(-378.566 -225.585)" fill="#a8d3f7" fill-rule="evenodd"/>
      <path id="Path_27186" data-name="Path 27186" d="M373.7,225.587v38.9a5.822,5.822,0,0,0,5.787,5.787H431.16a5.793,5.793,0,0,0,5.787-5.787v-38.9a5.793,5.793,0,0,0-5.787-5.787H379.487a5.763,5.763,0,0,0-5.787,5.787Z" transform="translate(-373.7 -219.8)" fill="#3091d8" fill-rule="evenodd"/>
      <path id="Path_27187" data-name="Path 27187" d="M375.2,226.4v38.9a5.116,5.116,0,0,0,5.1,5.1h51.673a5.116,5.116,0,0,0,5.1-5.1V226.4a5.116,5.116,0,0,0-5.1-5.1H380.3a5.116,5.116,0,0,0-5.1,5.1Z" transform="translate(-374.511 -220.611)" fill="#fff" fill-rule="evenodd"/>
      <path id="Path_27188" data-name="Path 27188" d="M423.414,246.938c-4.134-8.957-16.214-5.282-16.214,3.766a18.24,18.24,0,0,0,1.424,7.349h8.36a.633.633,0,0,1,.689.459l.827,2.434,3.537-11.483a.833.833,0,0,1,.873-.413.606.606,0,0,1,.551.413l2.664,9.232,2.251-5.1a.843.843,0,0,1,.919-.367c.276.092.459.23.505.459l1.148,4.364h7.028a16.433,16.433,0,0,0,1.654-7.349c0-9.048-12.08-12.723-16.214-3.766ZM409.175,259.2c2.343,4.5,6.936,8.405,14.239,12.861,6.614-4.363,11.391-8.268,13.963-12.861H430.3a.727.727,0,0,1-.735-.459l-.735-2.848-2.2,5.052a.678.678,0,0,1-.551.413.744.744,0,0,1-.873-.413l-2.48-8.819-3.491,11.3a.606.606,0,0,1-.505.413.744.744,0,0,1-.873-.413l-1.378-4.226h-7.3Z" transform="translate(-391.813 -231.689)" fill="#fb394b"/>
    </g>
    <g id="Group_31658" data-name="Group 31658" transform="translate(267.411 174.568)">
      <path id="Path_27189" data-name="Path 27189" d="M560.8,377.06v50.754a6.665,6.665,0,0,0,6.66,6.66h69.357a6.7,6.7,0,0,0,6.66-6.66V377.06a6.665,6.665,0,0,0-6.66-6.66H567.46a6.665,6.665,0,0,0-6.66,6.66Z" transform="translate(-555.38 -363.97)" fill="#b7d9f9" fill-rule="evenodd"/>
      <path id="Path_27190" data-name="Path 27190" d="M549,363.979v50.754a7.586,7.586,0,0,0,7.579,7.579h67.427a7.577,7.577,0,0,0,7.533-7.579V363.979a7.606,7.606,0,0,0-7.533-7.579H556.579A7.586,7.586,0,0,0,549,363.979Z" transform="translate(-549 -356.4)" fill="#217dc5" fill-rule="evenodd"/>
      <path id="Path_27191" data-name="Path 27191" d="M550.5,364.706v51.03a6.744,6.744,0,0,0,6.706,6.706H625a6.744,6.744,0,0,0,6.706-6.706v-51.03A6.744,6.744,0,0,0,625,358H557.16a6.675,6.675,0,0,0-6.66,6.706Z" transform="translate(-549.811 -357.265)" fill="#fff" fill-rule="evenodd"/>
      <path id="Path_27192" data-name="Path 27192" d="M563.492,374.5h69.219v5.19H563.4V374.5Zm69.081.184H563.584V379.6h68.989Z" transform="translate(-556.786 -366.186)" fill="#3091d8"/>
      <path id="Path_27193" data-name="Path 27193" d="M563.492,385.6h69.219v5.19H563.4V385.6Zm69.081.138H563.584v4.915h68.989Z" transform="translate(-556.786 -372.188)" fill="#3091d8"/>
      <path id="Path_27194" data-name="Path 27194" d="M563.492,396.6h69.219v5.19H563.4V396.6Zm69.081.138H563.584v4.915h68.989Z" transform="translate(-556.786 -378.135)" fill="#3091d8"/>
      <path id="Path_27195" data-name="Path 27195" d="M563.492,407.6h69.219v5.236H563.4v-5.19h.092Zm69.081.138H563.584v4.915h68.989Z" transform="translate(-556.786 -384.083)" fill="#3091d8"/>
      <path id="Path_27196" data-name="Path 27196" d="M563.492,418.6h69.219v5.236H563.4v-5.19h.092Zm69.081.184H563.584V423.7h68.989Z" transform="translate(-556.786 -390.031)" fill="#3091d8"/>
      <path id="Path_27197" data-name="Path 27197" d="M563.492,429.7h69.219v5.19H563.4V429.7Zm69.081.138H563.584v4.869h68.989Z" transform="translate(-556.786 -396.032)" fill="#3091d8"/>
      <path id="Path_27198" data-name="Path 27198" d="M563.492,440.6h69.219v5.236H563.4V440.6Zm69.081.184H563.584v4.869h68.989Z" transform="translate(-556.786 -401.926)" fill="#3091d8"/>
      <path id="Path_27199" data-name="Path 27199" d="M563.492,451.6h69.219v5.236H563.4V451.6Zm69.081.184H563.584v4.869h68.989Z" transform="translate(-556.786 -407.873)" fill="#3091d8"/>
      <path id="Path_27200" data-name="Path 27200" d="M563.492,462.7h69.219v5.236H563.4V462.7Zm69.081.138H563.584v4.869h68.989Z" transform="translate(-556.786 -413.875)" fill="#3091d8"/>
      <path id="Path_27201" data-name="Path 27201" d="M563.4,420.11V374.5h4.777v45.7H563.4Zm.184-45.426v45.38h4.5v-45.38h-4.5Z" transform="translate(-556.786 -366.186)" fill="#3091d8"/>
      <path id="Path_27202" data-name="Path 27202" d="M573.5,420.11V374.5h4.777c-.046,15.249-.046,30.453,0,45.7H573.5Zm.138-45.426v45.38h4.5v-45.38h-4.5Z" transform="translate(-562.247 -366.186)" fill="#3091d8"/>
      <path id="Path_27203" data-name="Path 27203" d="M583.6,420.11V374.5h4.777v45.7H583.6Zm.138-45.426v45.38h4.5v-45.38h-4.5Z" transform="translate(-567.708 -366.186)" fill="#3091d8"/>
      <path id="Path_27204" data-name="Path 27204" d="M593.7,420.11V374.5h4.777v45.7H593.7Zm.138-45.426v45.38h4.5v-45.38h-4.5Z" transform="translate(-573.169 -366.186)" fill="#3091d8"/>
      <path id="Path_27205" data-name="Path 27205" d="M603.8,420.11V374.5h4.777c-.046,15.249-.046,30.453,0,45.7H603.8Zm.138-45.426v45.38h4.5v-45.38h-4.5Z" transform="translate(-578.629 -366.186)" fill="#3091d8"/>
      <path id="Path_27206" data-name="Path 27206" d="M613.9,420.11V374.5h4.777v45.7H613.9Zm.138-45.426v45.38h4.5v-45.38h-4.5Z" transform="translate(-584.09 -366.186)" fill="#3091d8"/>
      <path id="Path_27207" data-name="Path 27207" d="M624,420.11V374.5h4.777v45.7H624Zm.138-45.426v45.38h4.5v-45.38h-4.5Z" transform="translate(-589.551 -366.186)" fill="#3091d8"/>
      <path id="Path_27208" data-name="Path 27208" d="M634.1,420.11V374.5h4.777v45.7H634.1Zm.092-45.426v45.38h4.5v-45.38h-4.5Z" transform="translate(-595.012 -366.186)" fill="#3091d8"/>
      <path id="Path_27209" data-name="Path 27209" d="M644.1,420.11V374.5h4.777v45.7H644.1Zm.184-45.426v45.38h4.5v-45.38h-4.5Z" transform="translate(-600.419 -366.186)" fill="#3091d8"/>
      <path id="Path_27210" data-name="Path 27210" d="M654.2,420.11V374.5h4.777v45.7H654.2Zm.184-45.426v45.38h4.5v-45.38h-4.5Z" transform="translate(-605.88 -366.186)" fill="#3091d8"/>
      <path id="Path_27211" data-name="Path 27211" d="M664.3,420.11V374.5h4.777v45.7H664.3Zm.184-45.426v45.38h4.455v-45.38h-4.455Z" transform="translate(-611.341 -366.186)" fill="#3091d8"/>
      <path id="Path_27212" data-name="Path 27212" d="M674.4,420.11V374.5h4.777v45.7H674.4Zm.138-45.426v45.38h4.5v-45.38h-4.5Z" transform="translate(-616.802 -366.186)" fill="#3091d8"/>
      <path id="Path_27213" data-name="Path 27213" d="M684.5,420.11V374.5h4.777v45.7H684.5Zm.138-45.426v45.38h4.5v-45.38h-4.5Z" transform="translate(-622.263 -366.186)" fill="#3091d8"/>
      <path id="Path_27214" data-name="Path 27214" d="M694.6,420.11V374.5h4.777v45.7H694.6Zm.138-45.426v45.38h4.455v-45.38h-4.455Z" transform="translate(-627.724 -366.186)" fill="#3091d8"/>
      <path id="Path_27215" data-name="Path 27215" d="M570.448,406.1a1.261,1.261,0,0,1-1.148-1.378,1.29,1.29,0,0,1,1.148-1.378H591.76a1.182,1.182,0,0,1,1.1,1.1l1.24,6.017,5.558-28.432a1.1,1.1,0,0,1,2.2,0L606,404.948l3.491-12.677a1.087,1.087,0,0,1,1.424-.873,1.439,1.439,0,0,1,.781,1.1l1.791,10.886H632a1.4,1.4,0,0,1,0,2.756H612.568a1.22,1.22,0,0,1-1.1-1.1l-1.148-6.982-3.445,12.4A1.4,1.4,0,0,1,606,411.47a1.235,1.235,0,0,1-1.378-1.056l-3.9-21.863-5.466,28.064a1.34,1.34,0,0,1-.827,1.01,1.148,1.148,0,0,1-1.378-1.01l-2.159-10.472h-20.44Z" transform="translate(-559.976 -369.672)" fill="#f7444e"/>
    </g>
    <g id="Group_31659" data-name="Group 31659" transform="translate(278.573 51.885)">
      <path id="Path_27216" data-name="Path 27216" d="M637.4,107.433v44.554a5.871,5.871,0,0,0,5.833,5.833h60.859a5.842,5.842,0,0,0,5.833-5.833V107.433a5.842,5.842,0,0,0-5.833-5.833H643.233a5.812,5.812,0,0,0-5.833,5.833Z" transform="translate(-607.958 -95.95)" fill="#a8d3f7" fill-rule="evenodd"/>
      <path id="Path_27217" data-name="Path 27217" d="M627.1,95.914v44.554a6.655,6.655,0,0,0,6.66,6.614h59.16a6.646,6.646,0,0,0,6.614-6.614V95.914A6.616,6.616,0,0,0,692.92,89.3H633.714a6.645,6.645,0,0,0-6.614,6.614Z" transform="translate(-602.389 -89.3)" fill="#3091d8" fill-rule="evenodd"/>
      <path id="Path_27218" data-name="Path 27218" d="M628.2,96.479v44.875a5.92,5.92,0,0,0,5.879,5.879H693.7a5.92,5.92,0,0,0,5.879-5.879V96.479A5.92,5.92,0,0,0,693.7,90.6H634.079a5.861,5.861,0,0,0-5.879,5.879Z" transform="translate(-602.984 -90.003)" fill="#fff" fill-rule="evenodd"/>
      <path id="Path_27219" data-name="Path 27219" d="M687.3,117.9a15.778,15.778,0,1,1-15.8,15.8,15.79,15.79,0,0,1,15.8-15.8Z" transform="translate(-626.395 -104.764)" fill="#f7444e" fill-rule="evenodd"/>
      <path id="Path_27220" data-name="Path 27220" d="M687.084,117.4a16,16,0,1,1-11.3,4.685,15.934,15.934,0,0,1,11.3-4.685Z" transform="translate(-626.179 -104.493)" fill="#f7444e"/>
      <path id="Path_27221" data-name="Path 27221" d="M693.484,133.3h4.547a.412.412,0,0,1,.413.413v5.144a.412.412,0,0,0,.413.413H704a.412.412,0,0,1,.413.413v4.547a.412.412,0,0,1-.413.413h-5.144a.412.412,0,0,0-.413.413V150.2a.412.412,0,0,1-.413.413h-4.547a.412.412,0,0,1-.413-.413v-5.1a.412.412,0,0,0-.413-.413h-5.144a.412.412,0,0,1-.413-.413V139.73a.412.412,0,0,1,.413-.413h5.144a.412.412,0,0,0,.413-.413v-5.144c0-.276.138-.459.413-.459Z" transform="translate(-634.83 -113.09)" fill="#fff" fill-rule="evenodd"/>
      <path id="Path_27222" data-name="Path 27222" d="M584.254,197.3h37.2a1.647,1.647,0,0,1,1.654,1.654v24.39A1.647,1.647,0,0,1,621.458,225h-37.2a1.647,1.647,0,0,1-1.654-1.654v-24.39a1.647,1.647,0,0,1,1.654-1.654Z" transform="translate(-578.328 -147.694)" fill="#b7d9f9" fill-rule="evenodd"/>
      <path id="Path_27223" data-name="Path 27223" d="M575.137,218.4a1.843,1.843,0,0,1-1.837-1.837V191.437a1.843,1.843,0,0,1,1.837-1.837H613.49a1.843,1.843,0,0,1,1.837,1.837v25.125a1.843,1.843,0,0,1-1.837,1.837Z" transform="translate(-573.3 -143.531)" fill="#217dc5" fill-rule="evenodd"/>
      <path id="Path_27224" data-name="Path 27224" d="M576,190.3h37.756a1.726,1.726,0,0,1,1.7,1.7v24.757a1.726,1.726,0,0,1-1.7,1.7H576a1.726,1.726,0,0,1-1.7-1.7V192a1.7,1.7,0,0,1,1.7-1.7Z" transform="translate(-573.841 -143.909)" fill="#fff" fill-rule="evenodd"/>
      <path id="Path_27225" data-name="Path 27225" d="M614.613,215.6a2.48,2.48,0,1,0,2.48,2.48,2.47,2.47,0,0,0-2.48-2.48Zm-8.589,0a2.48,2.48,0,1,0,2.48,2.48,2.47,2.47,0,0,0-2.48-2.48Zm-8.543,0a2.48,2.48,0,1,0,2.48,2.48,2.5,2.5,0,0,0-2.48-2.48Z" transform="translate(-585.033 -157.589)" fill="#ff5668" fill-rule="evenodd"/>
    </g>
    <g id="Group_31660" data-name="Group 31660" transform="translate(28.2 20.1)">
      <path id="Path_27226" data-name="Path 27226" d="M278.516,134.4a9.409,9.409,0,1,1-6.66,2.756,9.369,9.369,0,0,1,6.66-2.756Z" transform="translate(-158.451 -81.9)" fill="#78bdc4"/>
      <path id="Path_27227" data-name="Path 27227" d="M282.266,143.8h2.664a.217.217,0,0,1,.23.23v3.031a.217.217,0,0,0,.23.23h3.031a.217.217,0,0,1,.23.23v2.664a.246.246,0,0,1-.23.23H285.39a.217.217,0,0,0-.23.23v3.031a.246.246,0,0,1-.23.23h-2.664a.246.246,0,0,1-.23-.23v-3.031a.246.246,0,0,0-.23-.23H278.73a.246.246,0,0,1-.23-.23v-2.618a.217.217,0,0,1,.23-.23h3.032a.246.246,0,0,0,.23-.23v-3.031q.069-.276.276-.276Z" transform="translate(-163.533 -86.983)" fill="#fff" fill-rule="evenodd"/>
      <path id="Path_27228" data-name="Path 27228" d="M740.416,20.1a9.409,9.409,0,1,1-6.66,2.756,9.369,9.369,0,0,1,6.66-2.756Z" transform="translate(-408.193 -20.1)" fill="#78bdc4"/>
      <path id="Path_27229" data-name="Path 27229" d="M744.22,29.4h2.664a.217.217,0,0,1,.23.23v3.031a.217.217,0,0,0,.23.23h3.031a.217.217,0,0,1,.23.23v2.664a.246.246,0,0,1-.23.23h-3.031a.217.217,0,0,0-.23.23v3.031a.246.246,0,0,1-.23.23H744.22a.246.246,0,0,1-.23-.23V36.244a.246.246,0,0,0-.23-.23H740.73a.246.246,0,0,1-.23-.23V33.12a.217.217,0,0,1,.23-.23h3.031a.246.246,0,0,0,.23-.23V29.676a.257.257,0,0,1,.23-.276Z" transform="translate(-413.33 -25.128)" fill="#fff" fill-rule="evenodd"/>
      <path id="Path_27230" data-name="Path 27230" d="M37.616,258.8a9.409,9.409,0,1,1-6.66,2.756,9.369,9.369,0,0,1,6.66-2.756Z" transform="translate(-28.2 -149.161)" fill="#78bdc4"/>
      <path id="Path_27231" data-name="Path 27231" d="M41.42,268.2h2.664a.217.217,0,0,1,.23.23v3.031a.217.217,0,0,0,.23.23h3.031a.217.217,0,0,1,.23.23v2.664a.246.246,0,0,1-.23.23H44.544a.217.217,0,0,0-.23.23v3.031a.246.246,0,0,1-.23.23H41.42a.246.246,0,0,1-.23-.23v-3.031a.246.246,0,0,0-.23-.23H37.93a.246.246,0,0,1-.23-.23V271.92a.217.217,0,0,1,.23-.23h3.031a.246.246,0,0,0,.23-.23V268.43a.217.217,0,0,1,.23-.23Z" transform="translate(-33.337 -154.244)" fill="#fff" fill-rule="evenodd"/>
    </g>
    <circle id="Ellipse_60" data-name="Ellipse 60" cx="7.808" cy="7.808" r="7.808" transform="translate(523.434 242.546)" fill="#012c3d"/>
    <path id="Path_27232" data-name="Path 27232" d="M1110.993,512.208a7.815,7.815,0,0,1,5.512-7.441,7.809,7.809,0,1,0,0,14.882A7.815,7.815,0,0,1,1110.993,512.208Z" transform="translate(-582.966 -261.854)" fill="#003849"/>
    <path id="Path_27233" data-name="Path 27233" d="M1003.66,237.922l-1.608,1.608a4.742,4.742,0,0,1,.689,2.526v2.664a.558.558,0,0,1-.551.551h-19.7a.559.559,0,0,1-.551-.551v-2.664a4.742,4.742,0,0,1,.689-2.526l-1.608-1.608a1.76,1.76,0,0,1-.138-2.342,1.76,1.76,0,0,0-.138-2.434,1.771,1.771,0,0,1-.184-2.388l.781-.965a1.841,1.841,0,0,0,.321-1.608l-.505-1.7a1.789,1.789,0,0,1,1.011-2.159l.643-.276a1.815,1.815,0,0,0,1.1-1.654v-1.745a6.763,6.763,0,0,1,6.752-6.752h3.261a6.763,6.763,0,0,1,6.752,6.752V222.4a1.745,1.745,0,0,0,1.1,1.654l.643.276a1.768,1.768,0,0,1,1.01,2.159l-.505,1.7a1.709,1.709,0,0,0,.322,1.608l.781.965a1.771,1.771,0,0,1-.184,2.388,1.771,1.771,0,0,0-.184,2.388,1.672,1.672,0,0,1,0,2.388Z" transform="translate(-514.721 -104.785)" fill="#ffdfba"/>
    <path id="Path_27234" data-name="Path 27234" d="M981.123,237.922l1.608,1.608a4.741,4.741,0,0,0-.689,2.526v2.664a.558.558,0,0,0,.551.551h19.7a.559.559,0,0,0,.551-.551v-2.664a4.742,4.742,0,0,0-.689-2.526l1.608-1.608a1.76,1.76,0,0,0,.138-2.342,1.76,1.76,0,0,1,.138-2.434,1.771,1.771,0,0,0,.184-2.388l-.781-.965a1.841,1.841,0,0,1-.321-1.608l.505-1.7a1.789,1.789,0,0,0-1.01-2.159l-.643-.276a1.815,1.815,0,0,1-1.1-1.654v-1.745a6.763,6.763,0,0,0-6.752-6.752h-3.261a6.763,6.763,0,0,0-6.752,6.752V222.4a1.745,1.745,0,0,1-1.1,1.654l-.643.276a1.768,1.768,0,0,0-1.011,2.159l.505,1.7a1.709,1.709,0,0,1-.322,1.608l-.781.965a1.771,1.771,0,0,0,.184,2.388,1.771,1.771,0,0,1,.184,2.388,1.672,1.672,0,0,0,0,2.388Z" transform="translate(-514.829 -104.785)" fill="#ffdfba"/>
    <path id="Path_27235" data-name="Path 27235" d="M986.168,226.034a.546.546,0,0,0-.459.551v1.056a6.7,6.7,0,0,0,4.134,6.2v.505a2.834,2.834,0,0,1-2.756,2.8,5.056,5.056,0,0,0-4.364,2.48s-1.608-1.562-1.608-1.608a1.76,1.76,0,0,1-.138-2.342,1.76,1.76,0,0,0-.138-2.434,1.771,1.771,0,0,1-.184-2.388l.781-.965a1.841,1.841,0,0,0,.321-1.608l-.505-1.7a1.789,1.789,0,0,1,1.011-2.159l.643-.276a1.815,1.815,0,0,0,1.1-1.654v-1.745A6.763,6.763,0,0,1,990.761,214h3.261a6.763,6.763,0,0,1,6.752,6.752V222.5a1.745,1.745,0,0,0,1.1,1.654l.643.276a1.768,1.768,0,0,1,1.01,2.159l-.505,1.7a1.709,1.709,0,0,0,.321,1.608l.781.965a1.771,1.771,0,0,1-.184,2.388,1.769,1.769,0,0,0-.138,2.434,1.76,1.76,0,0,1-.138,2.342l-1.608,1.608a5.056,5.056,0,0,0-4.363-2.48,2.774,2.774,0,0,1-2.756-2.8v-.505a6.7,6.7,0,0,0,4.134-6.2v-3.353a.537.537,0,0,0-.367-.505,5.206,5.206,0,0,1-2.8-2.343.541.541,0,0,0-.873-.092,13.329,13.329,0,0,1-8.865,4.685Z" transform="translate(-514.775 -104.839)" fill="#f7444e"/>
    <path id="Path_27236" data-name="Path 27236" d="M1005.1,232.221a.537.537,0,0,1,.367.505v3.353a6.683,6.683,0,1,1-13.366,0v-1.056a.546.546,0,0,1,.459-.551,13.836,13.836,0,0,0,8.865-4.685.541.541,0,0,1,.873.092,5.373,5.373,0,0,0,2.8,2.342Z" transform="translate(-521.166 -113.277)" fill="#ffebd2"/>
    <path id="Path_27237" data-name="Path 27237" d="M1004.807,268.982v2.664a.558.558,0,0,1-.551.551h-19.7a.559.559,0,0,1-.551-.551v-2.664a5.038,5.038,0,0,1,5.052-5.052,3.408,3.408,0,0,0,1.148-.23v.046l3.858,2.986a.552.552,0,0,0,.643,0l3.858-2.986V263.7a3.009,3.009,0,0,0,1.148.23A5.048,5.048,0,0,1,1004.807,268.982Z" transform="translate(-516.786 -131.711)" fill="#42434d"/>
    <path id="Path_27238" data-name="Path 27238" d="M996.41,214.405a.834.834,0,0,1-.322,1.608h-3.261a6.763,6.763,0,0,0-6.752,6.752v1.745a1.745,1.745,0,0,1-1.1,1.654l-.689.23a1.768,1.768,0,0,0-1.01,2.159l.505,1.7a1.709,1.709,0,0,1-.322,1.608l-.781.965a1.771,1.771,0,0,0,.184,2.388,1.771,1.771,0,0,1,.184,2.388,1.728,1.728,0,0,0-.276,1.837c.046.046-.046.138-.092.092-.276-.276-1.516-1.516-1.562-1.516a1.756,1.756,0,0,1-.092-2.388,1.771,1.771,0,0,0-.184-2.388,1.771,1.771,0,0,1-.184-2.388l.781-.965a1.841,1.841,0,0,0,.322-1.608l-.505-1.7a1.789,1.789,0,0,1,1.011-2.159l.643-.276a1.815,1.815,0,0,0,1.1-1.654v-1.745a6.763,6.763,0,0,1,6.752-6.752h3.261a6.093,6.093,0,0,1,2.388.413Z" transform="translate(-514.774 -104.831)" fill="#ff6473"/>
    <path id="Path_27239" data-name="Path 27239" d="M997.244,245.957a1.062,1.062,0,0,1-.965,1.883,6.669,6.669,0,0,1-4.18-6.2v-1.056a.546.546,0,0,1,.459-.551,7.7,7.7,0,0,0,.827-.138.713.713,0,0,1,.781.6,6.9,6.9,0,0,0,3.077,5.466Z" transform="translate(-521.166 -118.837)" fill="#fff3e4"/>
    <path id="Path_27240" data-name="Path 27240" d="M991.073,264.389a.454.454,0,0,1-.276.827,5.009,5.009,0,0,0-5.052,5.052V272.2h-1.194a.559.559,0,0,1-.551-.551v-2.664a5.067,5.067,0,0,1,5.052-5.052,3.2,3.2,0,0,0,1.148-.23v.046Z" transform="translate(-516.786 -131.711)" fill="#4d4e59"/>
    <path id="Path_27241" data-name="Path 27241" d="M1013.67,264.389a.454.454,0,0,0,.276.827,5.009,5.009,0,0,1,5.052,5.052V272.2h1.194a.558.558,0,0,0,.551-.551v-2.664a5.067,5.067,0,0,0-5.052-5.052,3.2,3.2,0,0,1-1.148-.23v.046Z" transform="translate(-532.723 -131.711)" fill="#2c2c33"/>
    <path id="Path_27242" data-name="Path 27242" d="M1000.061,266.731a.552.552,0,0,0,.643,0l3.858-2.986V263.7a3.009,3.009,0,0,0,1.148.23l-2.342,8.222h-5.925L995.1,263.93a3.2,3.2,0,0,0,1.148-.23v.046Z" transform="translate(-522.788 -131.711)" fill="#d6f4fc"/>
    <path id="Path_27243" data-name="Path 27243" d="M1006.5,269.9v4.547a.559.559,0,0,1-.551.551.531.531,0,0,1-.551-.551V269.9l.23.184a.552.552,0,0,0,.643,0Z" transform="translate(-528.357 -135.063)" fill="#bdeffc"/>
    <path id="Path_27244" data-name="Path 27244" d="M996.2,265.262a2.267,2.267,0,0,0-.689.138l-.413-1.47a3.2,3.2,0,0,0,1.148-.23v.046l.322.276A.691.691,0,0,1,996.2,265.262Z" transform="translate(-522.788 -131.711)" fill="#e8f8fc"/>
    <path id="Path_27245" data-name="Path 27245" d="M1015.043,265.262a2.267,2.267,0,0,1,.689.138l.413-1.47a3.2,3.2,0,0,1-1.148-.23v.046l-.322.276A.691.691,0,0,0,1015.043,265.262Z" transform="translate(-533.224 -131.711)" fill="#bdeffc"/>
    <path id="Path_27246" data-name="Path 27246" d="M1006.182,258.248a6.8,6.8,0,0,1-5.282,0,4.118,4.118,0,0,0,.092-1.1V257.1a6.546,6.546,0,0,0,5.1,0v.046a4.118,4.118,0,0,0,.092,1.1Z" transform="translate(-525.924 -128.142)" fill="#ffd6a6"/>
  </g>
</svg>
