<svg xmlns="http://www.w3.org/2000/svg" width="30" height="27.462" viewBox="0 0 30 27.462">
  <g id="Group_31562" data-name="Group 31562" transform="translate(0 0)" opacity="0.4">
    <path id="Path_28766" data-name="Path 28766" d="M14.026.073A5.793,5.793,0,0,0,11.764,1,5.441,5.441,0,0,0,9.783,3.338a4.06,4.06,0,0,0-.5,2.03A5.392,5.392,0,0,0,9.954,8.51c.171.305,1.969,2.213,4.12,4.377,4.182,4.206,4.341,4.329,5.344,4.06.476-.122.966-.575,4.133-3.7,1.969-1.969,3.827-3.889,4.12-4.291a4.99,4.99,0,0,0,1-3.534,3.954,3.954,0,0,0-.44-1.956A5.423,5.423,0,0,0,26.351,1.1a5.691,5.691,0,0,0-7.055.294L19,1.638l-.721-.525A5.925,5.925,0,0,0,14.026.073m.294,2.03c.428.171.135.783-.379.783a2.376,2.376,0,0,0-1.5.856,2.337,2.337,0,0,0-.33.855c-.122.917-.771,1-.771.11A2.908,2.908,0,0,1,13.341,2.2c.587-.183.722-.2.979-.1" transform="translate(-1.046 0)" fill="#d66025"/>
    <path id="Path_28767" data-name="Path 28767" d="M.948,17.357a.753.753,0,0,0-.2.465c0,.146-.2,2.323-.429,4.842a30.763,30.763,0,0,0-.293,4.794c.11.22.305.232,2.482.232,1.846,0,2.4-.036,2.506-.17A36.643,36.643,0,0,0,5.13,22.3l-.036-5.062L3.113,17.2c-1.676-.025-2.006,0-2.165.159m3.032,8.4a.349.349,0,0,1,0,.428.45.45,0,0,1-.783.049.459.459,0,1,1,.783-.476" transform="translate(0 -1.939)" fill="#152c69"/>
    <path id="Path_28768" data-name="Path 28768" d="M6.637,22.869v4.084l3.949,1.32a24.579,24.579,0,0,0,4.549,1.309c.575,0,1.064-.245,7.336-3.68,3.7-2.018,7.08-3.864,7.5-4.109l.783-.428-.4-.416a3.411,3.411,0,0,0-2.384-1.039C27.35,19.9,21.1,20.962,20.955,21.1c-.024.024.049.159.184.305a1.34,1.34,0,0,1,.232.966c0,.586-.049.77-.306,1.039-.465.5-.6.539-2.849.93-1.956.33-2.115.342-2.262.146-.086-.134-.111-.244-.037-.318a13.85,13.85,0,0,1,2.14-.465,18.54,18.54,0,0,0,2.262-.465,1.082,1.082,0,0,0,.17-1.5c-.318-.354-.783-.366-2.64-.049-2.348.416-3.167.269-4.316-.709A8.339,8.339,0,0,0,8.08,18.847L6.637,18.8Z" transform="translate(-0.749 -2.12)" fill="#152c69"/>
  </g>
</svg>
